<?xml version="1.0" encoding="UTF-8" standalone="no"?><svg xmlns="http://www.w3.org/2000/svg" xmlns:xlink="http://www.w3.org/1999/xlink" contentScriptType="application/ecmascript" contentStyleType="text/css" height="911px" preserveAspectRatio="none" style="width:2628px;height:911px;background:#FFFFFF;" version="1.1" viewBox="0 0 2628 911" width="2628px" zoomAndPan="magnify"><defs><filter height="300%" id="f5juyih9t7t42" width="300%" x="-1" y="-1"><feGaussianBlur result="blurOut" stdDeviation="2.0"/><feColorMatrix in="blurOut" result="blurOut2" type="matrix" values="0 0 0 0 0 0 0 0 0 0 0 0 0 0 0 0 0 0 .4 0"/><feOffset dx="4.0" dy="4.0" in="blurOut2" result="blurOut3"/><feBlend in="SourceGraphic" in2="blurOut3" mode="normal"/></filter></defs><g><path d="M1630,51 L1630,93.7031 L1872,93.7031 L1872,61 L1862,51 L1630,51 " fill="#FBFB77" filter="url(#f5juyih9t7t42)" style="stroke:#A80036;stroke-width:1.0;"/><path d="M1862,51 L1862,61 L1872,61 L1862,51 " fill="#FBFB77" style="stroke:#A80036;stroke-width:1.0;"/><text fill="#000000" font-family="sans-serif" font-size="13" lengthAdjust="spacing" textLength="221" x="1636" y="69.4951">背景がピンク：新規に作成したクラス</text><text fill="#000000" font-family="sans-serif" font-size="13" lengthAdjust="spacing" textLength="195" x="1636" y="85.8467">背景がオレンジ：修正したクラス</text><path d="M1907,18.5 L1907,126.6094 L2619,126.6094 L2619,28.5 L2609,18.5 L1907,18.5 " fill="#FBFB77" filter="url(#f5juyih9t7t42)" style="stroke:#A80036;stroke-width:1.0;"/><path d="M2609,18.5 L2609,28.5 L2619,28.5 L2609,18.5 " fill="#FBFB77" style="stroke:#A80036;stroke-width:1.0;"/><text fill="#000000" font-family="sans-serif" font-size="13" lengthAdjust="spacing" textLength="325" x="1913" y="36.9951">タイピングゲーム演習の仕様に沿って実装しています。</text><text fill="#000000" font-family="sans-serif" font-size="13" lengthAdjust="spacing" textLength="509" x="1913" y="53.3467">作り方としては、とりあえず、処理を実施するクラス（Main）と登場人物になるクラス</text><text fill="#000000" font-family="sans-serif" font-size="13" lengthAdjust="spacing" textLength="429" x="1913" y="69.6982">（TypingGame、Question、TypingGameDifficulty）を最初作っておいて、</text><text fill="#000000" font-family="sans-serif" font-size="13" lengthAdjust="spacing" textLength="359" x="1913" y="86.0498">Main に処理を書きながら、private メソッドに適宜分割して、</text><text fill="#000000" font-family="sans-serif" font-size="13" lengthAdjust="spacing" textLength="455" x="1913" y="102.4014">何か違和感があったら適切なクラスに移動させるという感じで実装しました。</text><text fill="#000000" font-family="sans-serif" font-size="13" lengthAdjust="spacing" textLength="691" x="1913" y="118.7529">必要なクラス（Main、TypingGame、Question、TypingGameDifficulty）が少ないので、いきなり実装から始めました。</text><!--MD5=[84718776d214be480e4c259efcb737fc]
class Main--><rect codeLine="16" fill="#FFC0CB" filter="url(#f5juyih9t7t42)" height="131.0156" id="Main" style="stroke:#A80036;stroke-width:1.5;" width="469" x="1125.5" y="7"/><ellipse cx="1342.75" cy="23" fill="#ADD1B2" rx="11" ry="11" style="stroke:#A80036;stroke-width:1.0;"/><path d="M1345.5156,18.875 Q1345.6719,18.6563 1345.8594,18.5469 Q1346.0469,18.4375 1346.2656,18.4375 Q1346.6406,18.4375 1346.875,18.7031 Q1347.1094,18.9531 1347.1094,19.5625 L1347.1094,21.0156 Q1347.1094,21.625 1346.875,21.8906 Q1346.6406,22.1563 1346.2656,22.1563 Q1345.9219,22.1563 1345.7188,21.9531 Q1345.5156,21.7656 1345.4063,21.25 Q1345.3594,20.8906 1345.1719,20.7031 Q1344.8438,20.3281 1344.2344,20.1094 Q1343.625,19.8906 1343,19.8906 Q1342.2344,19.8906 1341.5938,20.2188 Q1340.9688,20.5469 1340.4688,21.2969 Q1339.9844,22.0469 1339.9844,23.0781 L1339.9844,24.1719 Q1339.9844,25.4063 1340.875,26.2344 Q1341.7656,27.0469 1343.3594,27.0469 Q1344.2969,27.0469 1344.9531,26.7969 Q1345.3438,26.6406 1345.7656,26.2031 Q1346.0313,25.9375 1346.1719,25.8594 Q1346.3281,25.7813 1346.5313,25.7813 Q1346.8594,25.7813 1347.1094,26.0469 Q1347.375,26.2969 1347.375,26.6406 Q1347.375,26.9844 1347.0313,27.3906 Q1346.5313,27.9688 1345.7344,28.2969 Q1344.6563,28.75 1343.3594,28.75 Q1341.8438,28.75 1340.6406,28.125 Q1339.6563,27.625 1338.9688,26.5625 Q1338.2813,25.4844 1338.2813,24.2031 L1338.2813,23.0469 Q1338.2813,21.7188 1338.8906,20.5781 Q1339.5156,19.4219 1340.6094,18.8125 Q1341.7031,18.1875 1342.9375,18.1875 Q1343.6719,18.1875 1344.3125,18.3594 Q1344.9688,18.5156 1345.5156,18.875 Z " fill="#000000"/><text fill="#000000" font-family="sans-serif" font-size="12" lengthAdjust="spacing" textLength="26" x="1363.25" y="27.9102">Main</text><line style="stroke:#A80036;stroke-width:1.5;" x1="1126.5" x2="1593.5" y1="39" y2="39"/><line style="stroke:#A80036;stroke-width:1.5;" x1="1126.5" x2="1593.5" y1="47" y2="47"/><ellipse cx="1136.5" cy="58" fill="#84BE84" rx="3" ry="3" style="stroke:#038048;stroke-width:1.0;"/><text fill="#000000" font-family="sans-serif" font-size="11" lengthAdjust="spacing" text-decoration="underline" textLength="30" x="1145.5" y="62.4189">main()</text><rect fill="#F24D5C" height="6" style="stroke:#C82930;stroke-width:1.0;" width="6" x="1133.5" y="68.8359"/><text fill="#000000" font-family="sans-serif" font-size="11" lengthAdjust="spacing" text-decoration="underline" textLength="212" x="1145.5" y="76.2549">TypingGameDifficulty displayInputDifficulty()</text><rect fill="#F24D5C" height="6" style="stroke:#C82930;stroke-width:1.0;" width="6" x="1133.5" y="82.6719"/><text fill="#000000" font-family="sans-serif" font-size="11" lengthAdjust="spacing" text-decoration="underline" textLength="122" x="1145.5" y="90.0908">void displayCountDown()</text><rect fill="#F24D5C" height="6" style="stroke:#C82930;stroke-width:1.0;" width="6" x="1133.5" y="96.5078"/><text fill="#000000" font-family="sans-serif" font-size="11" lengthAdjust="spacing" text-decoration="underline" textLength="443" x="1145.5" y="103.9268">void displayRanking(TypingGameHistory typingGameHistory, TypingGameDifficulty difficulty)</text><rect fill="#F24D5C" height="6" style="stroke:#C82930;stroke-width:1.0;" width="6" x="1133.5" y="110.3438"/><text fill="#000000" font-family="sans-serif" font-size="11" lengthAdjust="spacing" text-decoration="underline" textLength="132" x="1145.5" y="117.7627">boolean displayInputRetry()</text><rect fill="#F24D5C" height="6" style="stroke:#C82930;stroke-width:1.0;" width="6" x="1133.5" y="124.1797"/><text fill="#000000" font-family="sans-serif" font-size="11" lengthAdjust="spacing" text-decoration="underline" textLength="175" x="1145.5" y="131.5986">static int getInputInt(int defaultValue)</text><path d="M478,39 L478,106.0547 A0,0 0 0 0 478,106.0547 L1090,106.0547 A0,0 0 0 0 1090,106.0547 L1090,76.5 L1125.31,72.5 L1090,68.5 L1090,49 L1080,39 L478,39 A0,0 0 0 0 478,39 " fill="#FBFB77" filter="url(#f5juyih9t7t42)" style="stroke:#A80036;stroke-width:1.0;"/><path d="M1080,39 L1080,49 L1090,49 L1080,39 " fill="#FBFB77" style="stroke:#A80036;stroke-width:1.0;"/><text fill="#000000" font-family="sans-serif" font-size="13" lengthAdjust="spacing" textLength="364" x="484" y="57.4951">他のクラスを使用して、タイピングゲームを実行するクラス。</text><line style="stroke:#A80036;stroke-width:1.0;stroke-dasharray:1.0,2.0;" x1="479" x2="1089" y1="60.3516" y2="60.3516"/><text fill="#000000" font-family="sans-serif" font-size="13" lengthAdjust="spacing" textLength="591" x="484" y="77.8467">mainメソッドに、01_演習_タイピングゲーム.pdfのP.4実行イメージの順番で処理を実装しています。</text><text fill="#000000" font-family="sans-serif" font-size="13" lengthAdjust="spacing" textLength="349" x="484" y="94.1982">また、読みやすいようにprivateメソッドで分割しています。</text><!--MD5=[738c7c2ff5aeb58de2a1e5f3ac886fb6]
class TypingGame--><rect codeLine="31" fill="#FFC0CB" filter="url(#f5juyih9t7t42)" height="200.1953" id="TypingGame" style="stroke:#A80036;stroke-width:1.5;" width="345" x="718.5" y="397"/><ellipse cx="851.75" cy="413" fill="#ADD1B2" rx="11" ry="11" style="stroke:#A80036;stroke-width:1.0;"/><path d="M854.5156,408.875 Q854.6719,408.6563 854.8594,408.5469 Q855.0469,408.4375 855.2656,408.4375 Q855.6406,408.4375 855.875,408.7031 Q856.1094,408.9531 856.1094,409.5625 L856.1094,411.0156 Q856.1094,411.625 855.875,411.8906 Q855.6406,412.1563 855.2656,412.1563 Q854.9219,412.1563 854.7188,411.9531 Q854.5156,411.7656 854.4063,411.25 Q854.3594,410.8906 854.1719,410.7031 Q853.8438,410.3281 853.2344,410.1094 Q852.625,409.8906 852,409.8906 Q851.2344,409.8906 850.5938,410.2188 Q849.9688,410.5469 849.4688,411.2969 Q848.9844,412.0469 848.9844,413.0781 L848.9844,414.1719 Q848.9844,415.4063 849.875,416.2344 Q850.7656,417.0469 852.3594,417.0469 Q853.2969,417.0469 853.9531,416.7969 Q854.3438,416.6406 854.7656,416.2031 Q855.0313,415.9375 855.1719,415.8594 Q855.3281,415.7813 855.5313,415.7813 Q855.8594,415.7813 856.1094,416.0469 Q856.375,416.2969 856.375,416.6406 Q856.375,416.9844 856.0313,417.3906 Q855.5313,417.9688 854.7344,418.2969 Q853.6563,418.75 852.3594,418.75 Q850.8438,418.75 849.6406,418.125 Q848.6563,417.625 847.9688,416.5625 Q847.2813,415.4844 847.2813,414.2031 L847.2813,413.0469 Q847.2813,411.7188 847.8906,410.5781 Q848.5156,409.4219 849.6094,408.8125 Q850.7031,408.1875 851.9375,408.1875 Q852.6719,408.1875 853.3125,408.3594 Q853.9688,408.5156 854.5156,408.875 Z " fill="#000000"/><text fill="#000000" font-family="sans-serif" font-size="12" lengthAdjust="spacing" textLength="70" x="872.25" y="417.9102">TypingGame</text><line style="stroke:#A80036;stroke-width:1.5;" x1="719.5" x2="1062.5" y1="429" y2="429"/><rect fill="none" height="6" style="stroke:#C82930;stroke-width:1.0;" width="6" x="726.5" y="437"/><text fill="#000000" font-family="sans-serif" font-size="11" lengthAdjust="spacing" textLength="146" x="738.5" y="444.4189">TypingGameDifficulty difficulty</text><rect fill="none" height="6" style="stroke:#C82930;stroke-width:1.0;" width="6" x="726.5" y="450.8359"/><text fill="#000000" font-family="sans-serif" font-size="11" lengthAdjust="spacing" textLength="99" x="738.5" y="458.2549">Question[] questions</text><rect fill="none" height="6" style="stroke:#C82930;stroke-width:1.0;" width="6" x="726.5" y="464.6719"/><text fill="#000000" font-family="sans-serif" font-size="11" lengthAdjust="spacing" textLength="98" x="738.5" y="472.0908">long timeToCalculate</text><rect fill="none" height="6" style="stroke:#C82930;stroke-width:1.0;" width="6" x="726.5" y="478.5078"/><text fill="#000000" font-family="sans-serif" font-size="11" lengthAdjust="spacing" textLength="111" x="738.5" y="485.9268">Question prevQuestion</text><line style="stroke:#A80036;stroke-width:1.5;" x1="719.5" x2="1062.5" y1="492.3438" y2="492.3438"/><ellipse cx="729.5" cy="503.3438" fill="#84BE84" rx="3" ry="3" style="stroke:#038048;stroke-width:1.0;"/><text fill="#000000" font-family="sans-serif" font-size="11" lengthAdjust="spacing" textLength="319" x="738.5" y="507.7627">TypingGame(TypingGameDifficulty difficulty, Question[] questions)</text><ellipse cx="729.5" cy="517.1797" fill="#84BE84" rx="3" ry="3" style="stroke:#038048;stroke-width:1.0;"/><text fill="#000000" font-family="sans-serif" font-size="11" lengthAdjust="spacing" textLength="70" x="738.5" y="521.5986">void execute()</text><ellipse cx="729.5" cy="531.0156" fill="#84BE84" rx="3" ry="3" style="stroke:#038048;stroke-width:1.0;"/><text fill="#000000" font-family="sans-serif" font-size="11" lengthAdjust="spacing" textLength="124" x="738.5" y="535.4346">long getTimeToCalculate()</text><ellipse cx="729.5" cy="544.8516" fill="#84BE84" rx="3" ry="3" style="stroke:#038048;stroke-width:1.0;"/><text fill="#000000" font-family="sans-serif" font-size="11" lengthAdjust="spacing" textLength="272" x="738.5" y="549.2705">boolean isSameDifficulty(TypingGameDifficulty difficulty)</text><ellipse cx="729.5" cy="558.6875" fill="#84BE84" rx="3" ry="3" style="stroke:#038048;stroke-width:1.0;"/><text fill="#000000" font-family="sans-serif" font-size="11" lengthAdjust="spacing" textLength="135" x="738.5" y="563.1064">int getNumberOfQuestions()</text><rect fill="#F24D5C" height="6" style="stroke:#C82930;stroke-width:1.0;" width="6" x="726.5" y="569.5234"/><text fill="#000000" font-family="sans-serif" font-size="11" lengthAdjust="spacing" textLength="134" x="738.5" y="576.9424">Question getNextQuestion()</text><rect fill="#F24D5C" height="6" style="stroke:#C82930;stroke-width:1.0;" width="6" x="726.5" y="583.3594"/><text fill="#000000" font-family="sans-serif" font-size="11" lengthAdjust="spacing" textLength="76" x="738.5" y="590.7783">String toString()</text><path d="M1098.5,471.5 L1098.5,493 L1063.57,497 L1098.5,501 L1098.5,522.2031 A0,0 0 0 0 1098.5,522.2031 L1503.5,522.2031 A0,0 0 0 0 1503.5,522.2031 L1503.5,481.5 L1493.5,471.5 L1098.5,471.5 A0,0 0 0 0 1098.5,471.5 " fill="#FBFB77" filter="url(#f5juyih9t7t42)" style="stroke:#A80036;stroke-width:1.0;"/><path d="M1493.5,471.5 L1493.5,481.5 L1503.5,481.5 L1493.5,471.5 " fill="#FBFB77" style="stroke:#A80036;stroke-width:1.0;"/><text fill="#000000" font-family="sans-serif" font-size="13" lengthAdjust="spacing" textLength="247" x="1104.5" y="489.9951">一回のタイピングゲームを表現するクラス</text><line style="stroke:#A80036;stroke-width:1.0;stroke-dasharray:1.0,2.0;" x1="1099.5" x2="1502.5" y1="492.8516" y2="492.8516"/><text fill="#000000" font-family="sans-serif" font-size="13" lengthAdjust="spacing" textLength="384" x="1104.5" y="510.3467">executeメソッドでタイプゲームの実行の処理を実装しています。</text><!--MD5=[2467ab778d54314a3fb6b7e9a32a0937]
class TypingGameDifficulty--><rect codeLine="50" fill="#FFC0CB" filter="url(#f5juyih9t7t42)" height="222.0313" id="TypingGameDifficulty" style="stroke:#A80036;stroke-width:1.5;" width="341" x="720.5" y="675"/><ellipse cx="829.25" cy="691" fill="#EB937F" rx="11" ry="11" style="stroke:#A80036;stroke-width:1.0;"/><path d="M828.1094,691.7969 L828.1094,694.2969 L832.4375,694.2969 L832.4375,693.375 Q832.4375,692.7656 832.6719,692.5 Q832.9219,692.2344 833.2969,692.2344 Q833.6719,692.2344 833.9063,692.5 Q834.1406,692.7656 834.1406,693.375 L834.1406,696 L826.1406,696 Q825.5156,696 825.25,695.7656 Q825,695.5313 825,695.1406 Q825,694.7656 825.2656,694.5313 Q825.5313,694.2969 826.1406,694.2969 L826.4063,694.2969 L826.4063,687.6406 L826.1406,687.6406 Q825.5156,687.6406 825.25,687.4063 Q825,687.1719 825,686.7813 Q825,686.4063 825.25,686.1719 Q825.5156,685.9375 826.1406,685.9375 L833.7656,685.9375 L833.7656,688.5313 Q833.7656,689.1406 833.5313,689.4063 Q833.3125,689.6563 832.9219,689.6563 Q832.5469,689.6563 832.3125,689.4063 Q832.0781,689.1406 832.0781,688.5313 L832.0781,687.6406 L828.1094,687.6406 L828.1094,690.0938 L829.5938,690.0938 Q829.5938,689.4375 829.7188,689.25 Q829.9844,688.8438 830.4531,688.8438 Q830.8281,688.8438 831.0625,689.1094 Q831.2969,689.3594 831.2969,689.9688 L831.2969,691.9375 Q831.2969,692.4844 831.1719,692.6719 Q830.9063,693.0625 830.4531,693.0625 Q829.9844,693.0625 829.7188,692.6563 Q829.5938,692.4688 829.5938,691.7969 L828.1094,691.7969 Z " fill="#000000"/><text fill="#000000" font-family="sans-serif" font-size="12" lengthAdjust="spacing" textLength="115" x="849.75" y="695.9102">TypingGameDifficulty</text><line style="stroke:#A80036;stroke-width:1.5;" x1="721.5" x2="1060.5" y1="707" y2="707"/><ellipse cx="731.5" cy="718" rx="3" ry="3" style="stroke:#038048;stroke-width:1.0;fill:none;"/><text fill="#000000" font-family="sans-serif" font-size="11" lengthAdjust="spacing" textLength="29" x="740.5" y="722.4189">EASY</text><ellipse cx="731.5" cy="731.8359" rx="3" ry="3" style="stroke:#038048;stroke-width:1.0;fill:none;"/><text fill="#000000" font-family="sans-serif" font-size="11" lengthAdjust="spacing" textLength="44" x="740.5" y="736.2549">NORMAL</text><ellipse cx="731.5" cy="745.6719" rx="3" ry="3" style="stroke:#038048;stroke-width:1.0;fill:none;"/><text fill="#000000" font-family="sans-serif" font-size="11" lengthAdjust="spacing" textLength="29" x="740.5" y="750.0908">HARD</text><line style="stroke:#A80036;stroke-width:1.0;stroke-dasharray:1.0,2.0;" x1="721.5" x2="1060.5" y1="756.5078" y2="756.5078"/><rect fill="none" height="6" style="stroke:#C82930;stroke-width:1.0;" width="6" x="728.5" y="764.5078"/><text fill="#000000" font-family="sans-serif" font-size="11" lengthAdjust="spacing" textLength="57" x="740.5" y="771.9268">String name</text><rect fill="none" height="6" style="stroke:#C82930;stroke-width:1.0;" width="6" x="728.5" y="778.3438"/><text fill="#000000" font-family="sans-serif" font-size="11" lengthAdjust="spacing" textLength="36" x="740.5" y="785.7627">int level</text><rect fill="none" height="6" style="stroke:#C82930;stroke-width:1.0;" width="6" x="728.5" y="792.1797"/><text fill="#000000" font-family="sans-serif" font-size="11" lengthAdjust="spacing" textLength="100" x="740.5" y="799.5986">boolean defaultLevel</text><line style="stroke:#A80036;stroke-width:1.5;" x1="721.5" x2="1060.5" y1="806.0156" y2="806.0156"/><ellipse cx="731.5" cy="817.0156" fill="#84BE84" rx="3" ry="3" style="stroke:#038048;stroke-width:1.0;"/><text fill="#000000" font-family="sans-serif" font-size="11" lengthAdjust="spacing" textLength="315" x="740.5" y="821.4346">TypingGameDifficulty(String name, int level, boolean defaultLevel)</text><ellipse cx="731.5" cy="830.8516" fill="#84BE84" rx="3" ry="3" style="stroke:#038048;stroke-width:1.0;"/><text fill="#000000" font-family="sans-serif" font-size="11" lengthAdjust="spacing" text-decoration="underline" textLength="159" x="740.5" y="835.2705">TypingGameDifficulty of(int level)</text><ellipse cx="731.5" cy="844.6875" fill="#84BE84" rx="3" ry="3" style="stroke:#038048;stroke-width:1.0;"/><text fill="#000000" font-family="sans-serif" font-size="11" lengthAdjust="spacing" text-decoration="underline" textLength="162" x="740.5" y="849.1064">TypingGameDifficulty getDefault()</text><ellipse cx="731.5" cy="858.5234" fill="#84BE84" rx="3" ry="3" style="stroke:#038048;stroke-width:1.0;"/><text fill="#000000" font-family="sans-serif" font-size="11" lengthAdjust="spacing" textLength="81" x="740.5" y="862.9424">String getName()</text><ellipse cx="731.5" cy="872.3594" fill="#84BE84" rx="3" ry="3" style="stroke:#038048;stroke-width:1.0;"/><text fill="#000000" font-family="sans-serif" font-size="11" lengthAdjust="spacing" textLength="63" x="740.5" y="876.7783">int getLevel()</text><ellipse cx="731.5" cy="886.1953" fill="#84BE84" rx="3" ry="3" style="stroke:#038048;stroke-width:1.0;"/><text fill="#000000" font-family="sans-serif" font-size="11" lengthAdjust="spacing" textLength="239" x="740.5" y="890.6143">boolean lessThan(TypingGameDifficulty difficulty)</text><path d="M1096.5,773 L1096.5,782 L1061.54,786 L1096.5,790 L1096.5,799.3516 A0,0 0 0 0 1096.5,799.3516 L1273.5,799.3516 A0,0 0 0 0 1273.5,799.3516 L1273.5,783 L1263.5,773 L1096.5,773 A0,0 0 0 0 1096.5,773 " fill="#FBFB77" filter="url(#f5juyih9t7t42)" style="stroke:#A80036;stroke-width:1.0;"/><path d="M1263.5,773 L1263.5,783 L1273.5,783 L1263.5,773 " fill="#FBFB77" style="stroke:#A80036;stroke-width:1.0;"/><text fill="#000000" font-family="sans-serif" font-size="13" lengthAdjust="spacing" textLength="156" x="1102.5" y="791.4951">タイピングゲームの難易度</text><!--MD5=[e329a201e32f6879b6c4a5d5782241cc]
class TypingGameHistory--><rect codeLine="70" fill="#FFC0CB" filter="url(#f5juyih9t7t42)" height="103.3438" id="TypingGameHistory" style="stroke:#A80036;stroke-width:1.5;" width="346" x="715" y="216"/><ellipse cx="829.75" cy="232" fill="#ADD1B2" rx="11" ry="11" style="stroke:#A80036;stroke-width:1.0;"/><path d="M832.5156,227.875 Q832.6719,227.6563 832.8594,227.5469 Q833.0469,227.4375 833.2656,227.4375 Q833.6406,227.4375 833.875,227.7031 Q834.1094,227.9531 834.1094,228.5625 L834.1094,230.0156 Q834.1094,230.625 833.875,230.8906 Q833.6406,231.1563 833.2656,231.1563 Q832.9219,231.1563 832.7188,230.9531 Q832.5156,230.7656 832.4063,230.25 Q832.3594,229.8906 832.1719,229.7031 Q831.8438,229.3281 831.2344,229.1094 Q830.625,228.8906 830,228.8906 Q829.2344,228.8906 828.5938,229.2188 Q827.9688,229.5469 827.4688,230.2969 Q826.9844,231.0469 826.9844,232.0781 L826.9844,233.1719 Q826.9844,234.4063 827.875,235.2344 Q828.7656,236.0469 830.3594,236.0469 Q831.2969,236.0469 831.9531,235.7969 Q832.3438,235.6406 832.7656,235.2031 Q833.0313,234.9375 833.1719,234.8594 Q833.3281,234.7813 833.5313,234.7813 Q833.8594,234.7813 834.1094,235.0469 Q834.375,235.2969 834.375,235.6406 Q834.375,235.9844 834.0313,236.3906 Q833.5313,236.9688 832.7344,237.2969 Q831.6563,237.75 830.3594,237.75 Q828.8438,237.75 827.6406,237.125 Q826.6563,236.625 825.9688,235.5625 Q825.2813,234.4844 825.2813,233.2031 L825.2813,232.0469 Q825.2813,230.7188 825.8906,229.5781 Q826.5156,228.4219 827.6094,227.8125 Q828.7031,227.1875 829.9375,227.1875 Q830.6719,227.1875 831.3125,227.3594 Q831.9688,227.5156 832.5156,227.875 Z " fill="#000000"/><text fill="#000000" font-family="sans-serif" font-size="12" lengthAdjust="spacing" textLength="108" x="850.25" y="236.9102">TypingGameHistory</text><line style="stroke:#A80036;stroke-width:1.5;" x1="716" x2="1060" y1="248" y2="248"/><rect fill="none" height="6" style="stroke:#C82930;stroke-width:1.0;" width="6" x="723" y="256"/><text fill="#000000" font-family="sans-serif" font-size="11" lengthAdjust="spacing" textLength="132" x="735" y="263.4189">TypingGame[] typingGames</text><line style="stroke:#A80036;stroke-width:1.5;" x1="716" x2="1060" y1="269.8359" y2="269.8359"/><ellipse cx="726" cy="280.8359" fill="#84BE84" rx="3" ry="3" style="stroke:#038048;stroke-width:1.0;"/><text fill="#000000" font-family="sans-serif" font-size="11" lengthAdjust="spacing" textLength="169" x="735" y="285.2549">void add(TypingGame typingGame)</text><ellipse cx="726" cy="294.6719" fill="#84BE84" rx="3" ry="3" style="stroke:#038048;stroke-width:1.0;"/><text fill="#000000" font-family="sans-serif" font-size="11" lengthAdjust="spacing" textLength="320" x="735" y="299.0908">TypingGame[] sortedTypingGames(TypingGameDifficulty difficulty)</text><rect fill="#F24D5C" height="6" style="stroke:#C82930;stroke-width:1.0;" width="6" x="723" y="305.5078"/><text fill="#000000" font-family="sans-serif" font-size="11" lengthAdjust="spacing" textLength="304" x="735" y="312.9268">TypingGame[] getTypingGames(TypingGameDifficulty difficulty)</text><path d="M1096,246 L1096,263.5 L1061.14,267.5 L1096,271.5 L1096,288.7031 A0,0 0 0 0 1096,288.7031 L1280,288.7031 A0,0 0 0 0 1280,288.7031 L1280,256 L1270,246 L1096,246 A0,0 0 0 0 1096,246 " fill="#FBFB77" filter="url(#f5juyih9t7t42)" style="stroke:#A80036;stroke-width:1.0;"/><path d="M1270,246 L1270,256 L1280,256 L1270,246 " fill="#FBFB77" style="stroke:#A80036;stroke-width:1.0;"/><text fill="#000000" font-family="sans-serif" font-size="13" lengthAdjust="spacing" textLength="125" x="1102" y="264.4951">TypingGameの履歴。</text><text fill="#000000" font-family="sans-serif" font-size="13" lengthAdjust="spacing" textLength="163" x="1102" y="280.8467">1ゲーム終わるごとに保存。</text><!--MD5=[7a83da4f2de9d37a940211961c6e4279]
class TypingGameFactory--><rect codeLine="81" fill="#FFC0CB" filter="url(#f5juyih9t7t42)" height="61.8359" id="TypingGameFactory" style="stroke:#A80036;stroke-width:1.5;" width="286" x="394" y="236.5"/><ellipse cx="478.25" cy="252.5" fill="#ADD1B2" rx="11" ry="11" style="stroke:#A80036;stroke-width:1.0;"/><path d="M481.0156,248.375 Q481.1719,248.1563 481.3594,248.0469 Q481.5469,247.9375 481.7656,247.9375 Q482.1406,247.9375 482.375,248.2031 Q482.6094,248.4531 482.6094,249.0625 L482.6094,250.5156 Q482.6094,251.125 482.375,251.3906 Q482.1406,251.6563 481.7656,251.6563 Q481.4219,251.6563 481.2188,251.4531 Q481.0156,251.2656 480.9063,250.75 Q480.8594,250.3906 480.6719,250.2031 Q480.3438,249.8281 479.7344,249.6094 Q479.125,249.3906 478.5,249.3906 Q477.7344,249.3906 477.0938,249.7188 Q476.4688,250.0469 475.9688,250.7969 Q475.4844,251.5469 475.4844,252.5781 L475.4844,253.6719 Q475.4844,254.9063 476.375,255.7344 Q477.2656,256.5469 478.8594,256.5469 Q479.7969,256.5469 480.4531,256.2969 Q480.8438,256.1406 481.2656,255.7031 Q481.5313,255.4375 481.6719,255.3594 Q481.8281,255.2813 482.0313,255.2813 Q482.3594,255.2813 482.6094,255.5469 Q482.875,255.7969 482.875,256.1406 Q482.875,256.4844 482.5313,256.8906 Q482.0313,257.4688 481.2344,257.7969 Q480.1563,258.25 478.8594,258.25 Q477.3438,258.25 476.1406,257.625 Q475.1563,257.125 474.4688,256.0625 Q473.7813,254.9844 473.7813,253.7031 L473.7813,252.5469 Q473.7813,251.2188 474.3906,250.0781 Q475.0156,248.9219 476.1094,248.3125 Q477.2031,247.6875 478.4375,247.6875 Q479.1719,247.6875 479.8125,247.8594 Q480.4688,248.0156 481.0156,248.375 Z " fill="#000000"/><text fill="#000000" font-family="sans-serif" font-size="12" lengthAdjust="spacing" textLength="109" x="498.75" y="257.4102">TypingGameFactory</text><line style="stroke:#A80036;stroke-width:1.5;" x1="395" x2="679" y1="268.5" y2="268.5"/><line style="stroke:#A80036;stroke-width:1.5;" x1="395" x2="679" y1="276.5" y2="276.5"/><ellipse cx="405" cy="287.5" fill="#84BE84" rx="3" ry="3" style="stroke:#038048;stroke-width:1.0;"/><text fill="#000000" font-family="sans-serif" font-size="11" lengthAdjust="spacing" text-decoration="underline" textLength="260" x="414" y="291.9189">TypingGame generate(TypingGameDifficulty difficulty)</text><path d="M1315,254.5 L1315,280.8516 L1601,280.8516 L1601,264.5 L1591,254.5 L1315,254.5 " fill="#FBFB77" filter="url(#f5juyih9t7t42)" style="stroke:#A80036;stroke-width:1.0;"/><path d="M1591,254.5 L1591,264.5 L1601,264.5 L1591,254.5 " fill="#FBFB77" style="stroke:#A80036;stroke-width:1.0;"/><text fill="#000000" font-family="sans-serif" font-size="13" lengthAdjust="spacing" textLength="265" x="1321" y="272.9951">タイピングゲームを生成するFactoryクラス。</text><!--MD5=[fc7123defb831ecdd44b2d9bcef6cceb]
class Question--><rect codeLine="88" fill="#FFC0CB" filter="url(#f5juyih9t7t42)" height="103.3438" id="Question" style="stroke:#A80036;stroke-width:1.5;" width="286" x="394" y="734.5"/><ellipse cx="507.75" cy="750.5" fill="#ADD1B2" rx="11" ry="11" style="stroke:#A80036;stroke-width:1.0;"/><path d="M510.5156,746.375 Q510.6719,746.1563 510.8594,746.0469 Q511.0469,745.9375 511.2656,745.9375 Q511.6406,745.9375 511.875,746.2031 Q512.1094,746.4531 512.1094,747.0625 L512.1094,748.5156 Q512.1094,749.125 511.875,749.3906 Q511.6406,749.6563 511.2656,749.6563 Q510.9219,749.6563 510.7188,749.4531 Q510.5156,749.2656 510.4063,748.75 Q510.3594,748.3906 510.1719,748.2031 Q509.8438,747.8281 509.2344,747.6094 Q508.625,747.3906 508,747.3906 Q507.2344,747.3906 506.5938,747.7188 Q505.9688,748.0469 505.4688,748.7969 Q504.9844,749.5469 504.9844,750.5781 L504.9844,751.6719 Q504.9844,752.9063 505.875,753.7344 Q506.7656,754.5469 508.3594,754.5469 Q509.2969,754.5469 509.9531,754.2969 Q510.3438,754.1406 510.7656,753.7031 Q511.0313,753.4375 511.1719,753.3594 Q511.3281,753.2813 511.5313,753.2813 Q511.8594,753.2813 512.1094,753.5469 Q512.375,753.7969 512.375,754.1406 Q512.375,754.4844 512.0313,754.8906 Q511.5313,755.4688 510.7344,755.7969 Q509.6563,756.25 508.3594,756.25 Q506.8438,756.25 505.6406,755.625 Q504.6563,755.125 503.9688,754.0625 Q503.2813,752.9844 503.2813,751.7031 L503.2813,750.5469 Q503.2813,749.2188 503.8906,748.0781 Q504.5156,746.9219 505.6094,746.3125 Q506.7031,745.6875 507.9375,745.6875 Q508.6719,745.6875 509.3125,745.8594 Q509.9688,746.0156 510.5156,746.375 Z " fill="#000000"/><text fill="#000000" font-family="sans-serif" font-size="12" lengthAdjust="spacing" textLength="50" x="528.25" y="755.4102">Question</text><line style="stroke:#A80036;stroke-width:1.5;" x1="395" x2="679" y1="766.5" y2="766.5"/><rect fill="none" height="6" style="stroke:#C82930;stroke-width:1.0;" width="6" x="402" y="774.5"/><text fill="#000000" font-family="sans-serif" font-size="11" lengthAdjust="spacing" textLength="57" x="414" y="781.9189">String word</text><rect fill="none" height="6" style="stroke:#C82930;stroke-width:1.0;" width="6" x="402" y="788.3359"/><text fill="#000000" font-family="sans-serif" font-size="11" lengthAdjust="spacing" textLength="146" x="414" y="795.7549">TypingGameDifficulty difficulty</text><line style="stroke:#A80036;stroke-width:1.5;" x1="395" x2="679" y1="802.1719" y2="802.1719"/><ellipse cx="405" cy="813.1719" fill="#84BE84" rx="3" ry="3" style="stroke:#038048;stroke-width:1.0;"/><text fill="#000000" font-family="sans-serif" font-size="11" lengthAdjust="spacing" textLength="260" x="414" y="817.5908">Question(String word, TypingGameDifficulty difficulty)</text><ellipse cx="405" cy="827.0078" fill="#84BE84" rx="3" ry="3" style="stroke:#038048;stroke-width:1.0;"/><text fill="#000000" font-family="sans-serif" font-size="11" lengthAdjust="spacing" textLength="80" x="414" y="831.4268">String getWord()</text><path d="M123,760.5 L123,811.2031 A0,0 0 0 0 123,811.2031 L359,811.2031 A0,0 0 0 0 359,811.2031 L359,790 L393.95,786 L359,782 L359,770.5 L349,760.5 L123,760.5 A0,0 0 0 0 123,760.5 " fill="#FBFB77" filter="url(#f5juyih9t7t42)" style="stroke:#A80036;stroke-width:1.0;"/><path d="M349,760.5 L349,770.5 L359,770.5 L349,760.5 " fill="#FBFB77" style="stroke:#A80036;stroke-width:1.0;"/><text fill="#000000" font-family="sans-serif" font-size="13" lengthAdjust="spacing" textLength="143" x="129" y="778.9951">問題を表現するクラス。</text><line style="stroke:#A80036;stroke-width:1.0;stroke-dasharray:1.0,2.0;" x1="124" x2="358" y1="781.8516" y2="781.8516"/><text fill="#000000" font-family="sans-serif" font-size="13" lengthAdjust="spacing" textLength="215" x="129" y="799.3467">1つの単語と対応する難易度を保持。</text><!--MD5=[3665cc8380533de798edf75be7f81b43]
class QuestionFactory--><rect codeLine="100" fill="#FFC0CB" filter="url(#f5juyih9t7t42)" height="75.6719" id="QuestionFactory" style="stroke:#A80036;stroke-width:1.5;" width="304" x="379" y="459"/><ellipse cx="482.25" cy="475" fill="#ADD1B2" rx="11" ry="11" style="stroke:#A80036;stroke-width:1.0;"/><path d="M485.0156,470.875 Q485.1719,470.6563 485.3594,470.5469 Q485.5469,470.4375 485.7656,470.4375 Q486.1406,470.4375 486.375,470.7031 Q486.6094,470.9531 486.6094,471.5625 L486.6094,473.0156 Q486.6094,473.625 486.375,473.8906 Q486.1406,474.1563 485.7656,474.1563 Q485.4219,474.1563 485.2188,473.9531 Q485.0156,473.7656 484.9063,473.25 Q484.8594,472.8906 484.6719,472.7031 Q484.3438,472.3281 483.7344,472.1094 Q483.125,471.8906 482.5,471.8906 Q481.7344,471.8906 481.0938,472.2188 Q480.4688,472.5469 479.9688,473.2969 Q479.4844,474.0469 479.4844,475.0781 L479.4844,476.1719 Q479.4844,477.4063 480.375,478.2344 Q481.2656,479.0469 482.8594,479.0469 Q483.7969,479.0469 484.4531,478.7969 Q484.8438,478.6406 485.2656,478.2031 Q485.5313,477.9375 485.6719,477.8594 Q485.8281,477.7813 486.0313,477.7813 Q486.3594,477.7813 486.6094,478.0469 Q486.875,478.2969 486.875,478.6406 Q486.875,478.9844 486.5313,479.3906 Q486.0313,479.9688 485.2344,480.2969 Q484.1563,480.75 482.8594,480.75 Q481.3438,480.75 480.1406,480.125 Q479.1563,479.625 478.4688,478.5625 Q477.7813,477.4844 477.7813,476.2031 L477.7813,475.0469 Q477.7813,473.7188 478.3906,472.5781 Q479.0156,471.4219 480.1094,470.8125 Q481.2031,470.1875 482.4375,470.1875 Q483.1719,470.1875 483.8125,470.3594 Q484.4688,470.5156 485.0156,470.875 Z " fill="#000000"/><text fill="#000000" font-family="sans-serif" font-size="12" lengthAdjust="spacing" textLength="89" x="502.75" y="479.9102">QuestionFactory</text><line style="stroke:#A80036;stroke-width:1.5;" x1="380" x2="682" y1="491" y2="491"/><line style="stroke:#A80036;stroke-width:1.5;" x1="380" x2="682" y1="499" y2="499"/><ellipse cx="390" cy="510" fill="#84BE84" rx="3" ry="3" style="stroke:#038048;stroke-width:1.0;"/><text fill="#000000" font-family="sans-serif" font-size="11" lengthAdjust="spacing" textLength="278" x="399" y="514.4189">static Question[] generate(TypingGameDifficulty difficulty)</text><rect fill="#F24D5C" height="6" style="stroke:#C82930;stroke-width:1.0;" width="6" x="387" y="520.8359"/><text fill="#000000" font-family="sans-serif" font-size="11" lengthAdjust="spacing" textLength="132" x="399" y="528.2549">static Question[] generate()</text><path d="M6,455.5 L6,538.9063 A0,0 0 0 0 6,538.9063 L344,538.9063 A0,0 0 0 0 344,538.9063 L344,501 L378.95,497 L344,493 L344,465.5 L334,455.5 L6,455.5 A0,0 0 0 0 6,455.5 " fill="#FBFB77" filter="url(#f5juyih9t7t42)" style="stroke:#A80036;stroke-width:1.0;"/><path d="M334,455.5 L334,465.5 L344,465.5 L334,455.5 " fill="#FBFB77" style="stroke:#A80036;stroke-width:1.0;"/><text fill="#000000" font-family="sans-serif" font-size="13" lengthAdjust="spacing" textLength="187" x="12" y="473.9951">問題を生成するFactoryクラス。</text><line style="stroke:#A80036;stroke-width:1.0;stroke-dasharray:1.0,2.0;" x1="7" x2="343" y1="476.8516" y2="476.8516"/><text fill="#000000" font-family="sans-serif" font-size="13" lengthAdjust="spacing" textLength="234" x="12" y="494.3467">インスタンスの生成が複雑になるとき、</text><text fill="#000000" font-family="sans-serif" font-size="13" lengthAdjust="spacing" textLength="317" x="12" y="510.6982">Factoryクラスにインスタンス生成処理を委譲します。</text><text fill="#000000" font-family="sans-serif" font-size="13" lengthAdjust="spacing" textLength="143" x="12" y="527.0498">よく使われる手法です。</text><!--MD5=[f4abfe78a2e927cf2e914f071f8f9453]
class StandardInputReader--><rect codeLine="112" fill="#FFC0CB" filter="url(#f5juyih9t7t42)" height="48" id="StandardInputReader" style="stroke:#A80036;stroke-width:1.5;" width="150" x="1444" y="762"/><ellipse cx="1459" cy="778" fill="#ADD1B2" rx="11" ry="11" style="stroke:#A80036;stroke-width:1.0;"/><path d="M1461.7656,773.875 Q1461.9219,773.6563 1462.1094,773.5469 Q1462.2969,773.4375 1462.5156,773.4375 Q1462.8906,773.4375 1463.125,773.7031 Q1463.3594,773.9531 1463.3594,774.5625 L1463.3594,776.0156 Q1463.3594,776.625 1463.125,776.8906 Q1462.8906,777.1563 1462.5156,777.1563 Q1462.1719,777.1563 1461.9688,776.9531 Q1461.7656,776.7656 1461.6563,776.25 Q1461.6094,775.8906 1461.4219,775.7031 Q1461.0938,775.3281 1460.4844,775.1094 Q1459.875,774.8906 1459.25,774.8906 Q1458.4844,774.8906 1457.8438,775.2188 Q1457.2188,775.5469 1456.7188,776.2969 Q1456.2344,777.0469 1456.2344,778.0781 L1456.2344,779.1719 Q1456.2344,780.4063 1457.125,781.2344 Q1458.0156,782.0469 1459.6094,782.0469 Q1460.5469,782.0469 1461.2031,781.7969 Q1461.5938,781.6406 1462.0156,781.2031 Q1462.2813,780.9375 1462.4219,780.8594 Q1462.5781,780.7813 1462.7813,780.7813 Q1463.1094,780.7813 1463.3594,781.0469 Q1463.625,781.2969 1463.625,781.6406 Q1463.625,781.9844 1463.2813,782.3906 Q1462.7813,782.9688 1461.9844,783.2969 Q1460.9063,783.75 1459.6094,783.75 Q1458.0938,783.75 1456.8906,783.125 Q1455.9063,782.625 1455.2188,781.5625 Q1454.5313,780.4844 1454.5313,779.2031 L1454.5313,778.0469 Q1454.5313,776.7188 1455.1406,775.5781 Q1455.7656,774.4219 1456.8594,773.8125 Q1457.9531,773.1875 1459.1875,773.1875 Q1459.9219,773.1875 1460.5625,773.3594 Q1461.2188,773.5156 1461.7656,773.875 Z " fill="#000000"/><text fill="#000000" font-family="sans-serif" font-size="12" lengthAdjust="spacing" textLength="118" x="1473" y="782.9102">StandardInputReader</text><line style="stroke:#A80036;stroke-width:1.5;" x1="1445" x2="1593" y1="794" y2="794"/><line style="stroke:#A80036;stroke-width:1.5;" x1="1445" x2="1593" y1="802" y2="802"/><!--MD5=[f4debe78e50f9a793e3888946c6fcfd1]
link GMN21 to TypingGameFactory--><path d="M1439.48,254.27 C1408.41,232.99 1343.06,192.03 1280.5,177 C1158.2,147.62 836.8,147.62 714.5,177 C666.74,188.47 617.35,215.06 582.83,236.47 " fill="none" id="GMN21-TypingGameFactory" style="stroke:#A80036;stroke-width:1.0;stroke-dasharray:7.0,7.0;"/><!--MD5=[cdad5fc734b30a951aa3a1cbfbedd928]
link Main to TypingGameFactory--><path codeLine="114" d="M1125.37,134.07 C1119.53,135.41 1113.73,136.72 1108,138 C926.52,178.4 877.3,170.61 697,216 C673.7,221.87 648.8,229.2 625.75,236.44 " fill="none" id="Main-TypingGameFactory" style="stroke:#A80036;stroke-width:1.0;"/><polygon fill="#000000" points="943.1018,178.1794,952.5527,179.2429,951.3728,173.4847,943.1018,178.1794" style="stroke:#000000;stroke-width:1.0;"/><text fill="#000000" font-family="sans-serif" font-size="13" lengthAdjust="spacing" textLength="21" x="957" y="182.4951">use</text><!--MD5=[46e4fb36301fa5a2d7cd7a2bf92e51ea]
link Main to StandardInputReader--><path codeLine="115" d="M1538.27,138.2 C1570.48,158.13 1599.87,183.64 1619,216 C1729.51,402.93 1581.58,680.64 1533.3,761.89 " fill="none" id="Main-StandardInputReader" style="stroke:#A80036;stroke-width:1.0;"/><polygon fill="#000000" points="1662.9602,363.1756,1665.9711,354.1542,1660.0934,354.1074,1662.9602,363.1756" style="stroke:#000000;stroke-width:1.0;"/><text fill="#000000" font-family="sans-serif" font-size="13" lengthAdjust="spacing" textLength="21" x="1672" y="363.4951">use</text><!--MD5=[29950e6704daaa6cb4d0465601d39189]
link TypingGameFactory to QuestionFactory--><path codeLine="117" d="M536.2,298.71 C535.11,340.05 533.16,414.19 531.98,458.86 " fill="none" id="TypingGameFactory-QuestionFactory" style="stroke:#A80036;stroke-width:1.0;"/><polygon fill="#000000" points="539.8683,363.174,543.0445,354.2095,537.1686,354.0547,539.8683,363.174" style="stroke:#000000;stroke-width:1.0;"/><text fill="#000000" font-family="sans-serif" font-size="13" lengthAdjust="spacing" textLength="21" x="549" y="363.4951">use</text><!--MD5=[34053be3dab4592b4a82eb1e2fe8c8dd]
link TypingGameFactory to TypingGame--><path codeLine="119" d="M584.01,298.71 C623.22,323.91 681.41,361.3 736.61,396.78 " fill="none" id="TypingGameFactory-TypingGame" style="stroke:#A80036;stroke-width:1.0;"/><polygon fill="#000000" points="692.2063,360.879,686.186,353.5165,683.0082,358.4612,692.2063,360.879" style="stroke:#000000;stroke-width:1.0;"/><text fill="#000000" font-family="sans-serif" font-size="13" lengthAdjust="spacing" textLength="50" x="697" y="363.4951">generate</text><!--MD5=[7b87940b4301618cade711b02849d6e8]
link QuestionFactory to Question--><path codeLine="121" d="M531.78,535.23 C532.84,586.04 534.75,677.29 535.94,734.3 " fill="none" id="QuestionFactory-Question" style="stroke:#A80036;stroke-width:1.0;"/><polygon fill="#000000" points="539.1045,641.1747,541.8538,632.0702,535.9772,632.193,539.1045,641.1747" style="stroke:#000000;stroke-width:1.0;"/><text fill="#000000" font-family="sans-serif" font-size="13" lengthAdjust="spacing" textLength="50" x="548" y="641.4951">generate</text><!--MD5=[2f163435dbb70469cf58f8a42310b871]
link TypingGameHistory to TypingGame--><path codeLine="123" d="M888.67,319.27 C888.95,340.76 889.29,366.62 889.63,391.85 " fill="none" id="TypingGameHistory-to-TypingGame" style="stroke:#A80036;stroke-width:1.0;"/><polygon fill="#A80036" points="889.69,396.88,893.561,387.8238,889.6186,391.8805,885.5618,387.9381,889.69,396.88" style="stroke:#A80036;stroke-width:1.0;"/><!--MD5=[44da462e0e37ec5b4424557f44052c2f]
link TypingGame to TypingGameDifficulty--><path codeLine="124" d="M891,597.17 C891,620.47 891,645.49 891,669.43 " fill="none" id="TypingGame-to-TypingGameDifficulty" style="stroke:#A80036;stroke-width:1.0;"/><polygon fill="#A80036" points="891,674.52,895,665.52,891,669.52,887,665.52,891,674.52" style="stroke:#A80036;stroke-width:1.0;"/><!--MD5=[8e357755c5ee833ed7c109bc7d6b71d2]
link TypingGame to Question--><path codeLine="125" d="M768.68,597.17 C713.39,641.99 650.21,693.22 603.81,730.84 " fill="none" id="TypingGame-to-Question" style="stroke:#A80036;stroke-width:1.0;"/><polygon fill="#A80036" points="599.65,734.21,609.1574,731.6391,603.5306,731.057,604.1127,725.4302,599.65,734.21" style="stroke:#A80036;stroke-width:1.0;"/><!--MD5=[f65d15c8ba6c2231aac319e9c218394b]
link TypingGame to StandardInputReader--><path codeLine="126" d="M1063.75,589.16 C1069.54,591.85 1075.31,594.47 1081,597 C1171.99,637.42 1199.4,635.99 1291,675 C1355.7,702.55 1428.59,738.63 1474.15,761.82 " fill="none" id="TypingGame-StandardInputReader" style="stroke:#A80036;stroke-width:1.0;"/><polygon fill="#000000" points="1220.6087,638.1147,1213.4111,631.8982,1211.1318,637.3161,1220.6087,638.1147" style="stroke:#000000;stroke-width:1.0;"/><text fill="#000000" font-family="sans-serif" font-size="13" lengthAdjust="spacing" textLength="21" x="1225" y="641.4951">use</text><!--MD5=[7cca2753186b0d3d21feec349a6fbc9d]
@startuml 01_implement_typing_game

note as note_main
  背景がピンク：新規に作成したクラス
  背景がオレンジ：修正したクラス
end note

note as note_comment
  タイピングゲーム演習の仕様に沿って実装しています。
  作り方としては、とりあえず、処理を実施するクラス（Main）と登場人物になるクラス
  （TypingGame、Question、TypingGameDifficulty）を最初作っておいて、
  Main に処理を書きながら、private メソッドに適宜分割して、
  何か違和感があったら適切なクラスに移動させるという感じで実装しました。
  必要なクラス（Main、TypingGame、Question、TypingGameDifficulty）が少ないので、いきなり実装から始めました。
end note

class Main #pink {
  + {static} main()
  - {static} TypingGameDifficulty displayInputDifficulty()
  - {static} void displayCountDown()
  - {static} void displayRanking(TypingGameHistory typingGameHistory, TypingGameDifficulty difficulty)
  - {static} boolean displayInputRetry()
  - {static} static int getInputInt(int defaultValue)
}
note left
  他のクラスを使用して、タイピングゲームを実行するクラス。
  ..
  mainメソッドに、01_演習_タイピングゲーム.pdfのP.4実行イメージの順番で処理を実装しています。
  また、読みやすいようにprivateメソッドで分割しています。
end note

class TypingGame #pink {
  - TypingGameDifficulty difficulty
  - Question[] questions
  - long timeToCalculate
  - Question prevQuestion
  + TypingGame(TypingGameDifficulty difficulty, Question[] questions)
  + void execute()
  + long getTimeToCalculate()
  + boolean isSameDifficulty(TypingGameDifficulty difficulty)
  + int getNumberOfQuestions()
  - Question getNextQuestion()
  - String toString()
}
note right
  一回のタイピングゲームを表現するクラス
  ..
  executeメソッドでタイプゲームの実行の処理を実装しています。
end note

enum TypingGameDifficulty #pink {
  + EASY
  + NORMAL
  + HARD
  ..
  - String name
  - int level
  - boolean defaultLevel
  __
  + TypingGameDifficulty(String name, int level, boolean defaultLevel)
  + {static} TypingGameDifficulty of(int level)
  + {static} TypingGameDifficulty getDefault()
  + String getName()
  + int getLevel()
  + boolean lessThan(TypingGameDifficulty difficulty)
}
note right
  タイピングゲームの難易度
end note

class TypingGameHistory #pink {
  - TypingGame[] typingGames
  + void add(TypingGame typingGame)
  + TypingGame[] sortedTypingGames(TypingGameDifficulty difficulty)
  - TypingGame[] getTypingGames(TypingGameDifficulty difficulty)
}
note right
  TypingGameの履歴。
  1ゲーム終わるごとに保存。
end note

class TypingGameFactory #pink {
  + {static} TypingGame generate(TypingGameDifficulty difficulty)
}
note left
  タイピングゲームを生成するFactoryクラス。
end note

class Question #pink {
  - String word
  - TypingGameDifficulty difficulty
  + Question(String word, TypingGameDifficulty difficulty)
  + String getWord()
}
note left
  問題を表現するクラス。
  ..
  1つの単語と対応する難易度を保持。
end note

class QuestionFactory #pink {
  + static Question[] generate(TypingGameDifficulty difficulty)
  - static Question[] generate()
}
note left
  問題を生成するFactoryクラス。
  ..
  インスタンスの生成が複雑になるとき、
  Factoryクラスにインスタンス生成処理を委譲します。
  よく使われる手法です。
end note

class StandardInputReader #pink {}

Main - - TypingGameFactory : use >
Main - - StandardInputReader : use >

TypingGameFactory - - QuestionFactory : use >

TypingGameFactory - - TypingGame : generate >

QuestionFactory - - Question : generate >

TypingGameHistory - -> TypingGame
TypingGame - -> TypingGameDifficulty
TypingGame - -> Question
TypingGame - - StandardInputReader : use >

@enduml

PlantUML version 1.2022.0(Wed Jan 12 01:16:42 JST 2022)
(GPL source distribution)
Java Runtime: OpenJDK Runtime Environment
JVM: OpenJDK 64-Bit Server VM
Default Encoding: UTF-8
Language: ja
Country: JP
--></g></svg>