<?xml version="1.0" encoding="UTF-8" standalone="no"?><svg xmlns="http://www.w3.org/2000/svg" xmlns:xlink="http://www.w3.org/1999/xlink" contentScriptType="application/ecmascript" contentStyleType="text/css" height="911px" preserveAspectRatio="none" style="width:889px;height:911px;background:#FFFFFF;" version="1.1" viewBox="0 0 889 911" width="889px" zoomAndPan="magnify"><defs><filter height="300%" id="f11lr1c5hyemzj" width="300%" x="-1" y="-1"><feGaussianBlur result="blurOut" stdDeviation="2.0"/><feColorMatrix in="blurOut" result="blurOut2" type="matrix" values="0 0 0 0 0 0 0 0 0 0 0 0 0 0 0 0 0 0 .4 0"/><feOffset dx="4.0" dy="4.0" in="blurOut2" result="blurOut3"/><feBlend in="SourceGraphic" in2="blurOut3" mode="normal"/></filter></defs><g><path d="M120.5,51 L120.5,93.7031 L362.5,93.7031 L362.5,61 L352.5,51 L120.5,51 " fill="#FBFB77" filter="url(#f11lr1c5hyemzj)" style="stroke:#A80036;stroke-width:1.0;"/><path d="M352.5,51 L352.5,61 L362.5,61 L352.5,51 " fill="#FBFB77" style="stroke:#A80036;stroke-width:1.0;"/><text fill="#000000" font-family="sans-serif" font-size="13" lengthAdjust="spacing" textLength="221" x="126.5" y="69.4951">背景がピンク：新規に作成したクラス</text><text fill="#000000" font-family="sans-serif" font-size="13" lengthAdjust="spacing" textLength="195" x="126.5" y="85.8467">背景がオレンジ：修正したクラス</text><!--MD5=[84718776d214be480e4c259efcb737fc]
class Main--><rect codeLine="7" fill="#FFA500" filter="url(#f11lr1c5hyemzj)" height="131.0156" id="Main" style="stroke:#A80036;stroke-width:1.5;" width="469" x="398" y="7"/><ellipse cx="615.25" cy="23" fill="#ADD1B2" rx="11" ry="11" style="stroke:#A80036;stroke-width:1.0;"/><path d="M618.0156,18.875 Q618.1719,18.6563 618.3594,18.5469 Q618.5469,18.4375 618.7656,18.4375 Q619.1406,18.4375 619.375,18.7031 Q619.6094,18.9531 619.6094,19.5625 L619.6094,21.0156 Q619.6094,21.625 619.375,21.8906 Q619.1406,22.1563 618.7656,22.1563 Q618.4219,22.1563 618.2188,21.9531 Q618.0156,21.7656 617.9063,21.25 Q617.8594,20.8906 617.6719,20.7031 Q617.3438,20.3281 616.7344,20.1094 Q616.125,19.8906 615.5,19.8906 Q614.7344,19.8906 614.0938,20.2188 Q613.4688,20.5469 612.9688,21.2969 Q612.4844,22.0469 612.4844,23.0781 L612.4844,24.1719 Q612.4844,25.4063 613.375,26.2344 Q614.2656,27.0469 615.8594,27.0469 Q616.7969,27.0469 617.4531,26.7969 Q617.8438,26.6406 618.2656,26.2031 Q618.5313,25.9375 618.6719,25.8594 Q618.8281,25.7813 619.0313,25.7813 Q619.3594,25.7813 619.6094,26.0469 Q619.875,26.2969 619.875,26.6406 Q619.875,26.9844 619.5313,27.3906 Q619.0313,27.9688 618.2344,28.2969 Q617.1563,28.75 615.8594,28.75 Q614.3438,28.75 613.1406,28.125 Q612.1563,27.625 611.4688,26.5625 Q610.7813,25.4844 610.7813,24.2031 L610.7813,23.0469 Q610.7813,21.7188 611.3906,20.5781 Q612.0156,19.4219 613.1094,18.8125 Q614.2031,18.1875 615.4375,18.1875 Q616.1719,18.1875 616.8125,18.3594 Q617.4688,18.5156 618.0156,18.875 Z " fill="#000000"/><text fill="#000000" font-family="sans-serif" font-size="12" lengthAdjust="spacing" textLength="26" x="635.75" y="27.9102">Main</text><line style="stroke:#A80036;stroke-width:1.5;" x1="399" x2="866" y1="39" y2="39"/><line style="stroke:#A80036;stroke-width:1.5;" x1="399" x2="866" y1="47" y2="47"/><ellipse cx="409" cy="58" fill="#84BE84" rx="3" ry="3" style="stroke:#038048;stroke-width:1.0;"/><text fill="#000000" font-family="sans-serif" font-size="11" lengthAdjust="spacing" text-decoration="underline" textLength="30" x="418" y="62.4189">main()</text><rect fill="#F24D5C" height="6" style="stroke:#C82930;stroke-width:1.0;" width="6" x="406" y="68.8359"/><text fill="#000000" font-family="sans-serif" font-size="11" lengthAdjust="spacing" text-decoration="underline" textLength="212" x="418" y="76.2549">TypingGameDifficulty displayInputDifficulty()</text><rect fill="#F24D5C" height="6" style="stroke:#C82930;stroke-width:1.0;" width="6" x="406" y="82.6719"/><text fill="#000000" font-family="sans-serif" font-size="11" lengthAdjust="spacing" text-decoration="underline" textLength="122" x="418" y="90.0908">void displayCountDown()</text><rect fill="#F24D5C" height="6" style="stroke:#C82930;stroke-width:1.0;" width="6" x="406" y="96.5078"/><text fill="#000000" font-family="sans-serif" font-size="11" lengthAdjust="spacing" text-decoration="underline" textLength="443" x="418" y="103.9268">void displayRanking(TypingGameHistory typingGameHistory, TypingGameDifficulty difficulty)</text><rect fill="#F24D5C" height="6" style="stroke:#C82930;stroke-width:1.0;" width="6" x="406" y="110.3438"/><text fill="#000000" font-family="sans-serif" font-size="11" lengthAdjust="spacing" text-decoration="underline" textLength="132" x="418" y="117.7627">boolean displayInputRetry()</text><rect fill="#F24D5C" height="6" style="stroke:#C82930;stroke-width:1.0;" width="6" x="406" y="124.1797"/><text fill="#000000" font-family="sans-serif" font-size="11" lengthAdjust="spacing" text-decoration="underline" textLength="175" x="418" y="131.5986">static int getInputInt(int defaultValue)</text><!--MD5=[738c7c2ff5aeb58de2a1e5f3ac886fb6]
class TypingGame--><rect codeLine="16" fill="#FFA500" filter="url(#f11lr1c5hyemzj)" height="200.1953" id="TypingGame" style="stroke:#A80036;stroke-width:1.5;" width="368" x="369.5" y="397"/><ellipse cx="514.25" cy="413" fill="#ADD1B2" rx="11" ry="11" style="stroke:#A80036;stroke-width:1.0;"/><path d="M517.0156,408.875 Q517.1719,408.6563 517.3594,408.5469 Q517.5469,408.4375 517.7656,408.4375 Q518.1406,408.4375 518.375,408.7031 Q518.6094,408.9531 518.6094,409.5625 L518.6094,411.0156 Q518.6094,411.625 518.375,411.8906 Q518.1406,412.1563 517.7656,412.1563 Q517.4219,412.1563 517.2188,411.9531 Q517.0156,411.7656 516.9063,411.25 Q516.8594,410.8906 516.6719,410.7031 Q516.3438,410.3281 515.7344,410.1094 Q515.125,409.8906 514.5,409.8906 Q513.7344,409.8906 513.0938,410.2188 Q512.4688,410.5469 511.9688,411.2969 Q511.4844,412.0469 511.4844,413.0781 L511.4844,414.1719 Q511.4844,415.4063 512.375,416.2344 Q513.2656,417.0469 514.8594,417.0469 Q515.7969,417.0469 516.4531,416.7969 Q516.8438,416.6406 517.2656,416.2031 Q517.5313,415.9375 517.6719,415.8594 Q517.8281,415.7813 518.0313,415.7813 Q518.3594,415.7813 518.6094,416.0469 Q518.875,416.2969 518.875,416.6406 Q518.875,416.9844 518.5313,417.3906 Q518.0313,417.9688 517.2344,418.2969 Q516.1563,418.75 514.8594,418.75 Q513.3438,418.75 512.1406,418.125 Q511.1563,417.625 510.4688,416.5625 Q509.7813,415.4844 509.7813,414.2031 L509.7813,413.0469 Q509.7813,411.7188 510.3906,410.5781 Q511.0156,409.4219 512.1094,408.8125 Q513.2031,408.1875 514.4375,408.1875 Q515.1719,408.1875 515.8125,408.3594 Q516.4688,408.5156 517.0156,408.875 Z " fill="#000000"/><text fill="#000000" font-family="sans-serif" font-size="12" lengthAdjust="spacing" textLength="70" x="534.75" y="417.9102">TypingGame</text><line style="stroke:#A80036;stroke-width:1.5;" x1="370.5" x2="736.5" y1="429" y2="429"/><rect fill="none" height="6" style="stroke:#C82930;stroke-width:1.0;" width="6" x="377.5" y="437"/><text fill="#000000" font-family="sans-serif" font-size="11" lengthAdjust="spacing" textLength="146" x="389.5" y="444.4189">TypingGameDifficulty difficulty</text><rect fill="none" height="6" style="stroke:#C82930;stroke-width:1.0;" width="6" x="377.5" y="450.8359"/><text fill="#000000" font-family="sans-serif" font-size="11" lengthAdjust="spacing" textLength="122" x="389.5" y="458.2549">List&lt;Question&gt; questions</text><rect fill="none" height="6" style="stroke:#C82930;stroke-width:1.0;" width="6" x="377.5" y="464.6719"/><text fill="#000000" font-family="sans-serif" font-size="11" lengthAdjust="spacing" textLength="98" x="389.5" y="472.0908">long timeToCalculate</text><rect fill="none" height="6" style="stroke:#C82930;stroke-width:1.0;" width="6" x="377.5" y="478.5078"/><text fill="#000000" font-family="sans-serif" font-size="11" lengthAdjust="spacing" textLength="111" x="389.5" y="485.9268">Question prevQuestion</text><line style="stroke:#A80036;stroke-width:1.5;" x1="370.5" x2="736.5" y1="492.3438" y2="492.3438"/><ellipse cx="380.5" cy="503.3438" fill="#84BE84" rx="3" ry="3" style="stroke:#038048;stroke-width:1.0;"/><text fill="#000000" font-family="sans-serif" font-size="11" lengthAdjust="spacing" textLength="342" x="389.5" y="507.7627">TypingGame(TypingGameDifficulty difficulty, List&lt;Question&gt; questions)</text><ellipse cx="380.5" cy="517.1797" fill="#84BE84" rx="3" ry="3" style="stroke:#038048;stroke-width:1.0;"/><text fill="#000000" font-family="sans-serif" font-size="11" lengthAdjust="spacing" textLength="70" x="389.5" y="521.5986">void execute()</text><ellipse cx="380.5" cy="531.0156" fill="#84BE84" rx="3" ry="3" style="stroke:#038048;stroke-width:1.0;"/><text fill="#000000" font-family="sans-serif" font-size="11" lengthAdjust="spacing" textLength="124" x="389.5" y="535.4346">long getTimeToCalculate()</text><ellipse cx="380.5" cy="544.8516" fill="#84BE84" rx="3" ry="3" style="stroke:#038048;stroke-width:1.0;"/><text fill="#000000" font-family="sans-serif" font-size="11" lengthAdjust="spacing" textLength="272" x="389.5" y="549.2705">boolean isSameDifficulty(TypingGameDifficulty difficulty)</text><ellipse cx="380.5" cy="558.6875" fill="#84BE84" rx="3" ry="3" style="stroke:#038048;stroke-width:1.0;"/><text fill="#000000" font-family="sans-serif" font-size="11" lengthAdjust="spacing" textLength="135" x="389.5" y="563.1064">int getNumberOfQuestions()</text><rect fill="#F24D5C" height="6" style="stroke:#C82930;stroke-width:1.0;" width="6" x="377.5" y="569.5234"/><text fill="#000000" font-family="sans-serif" font-size="11" lengthAdjust="spacing" textLength="134" x="389.5" y="576.9424">Question getNextQuestion()</text><rect fill="#F24D5C" height="6" style="stroke:#C82930;stroke-width:1.0;" width="6" x="377.5" y="583.3594"/><text fill="#000000" font-family="sans-serif" font-size="11" lengthAdjust="spacing" textLength="76" x="389.5" y="590.7783">String toString()</text><!--MD5=[2467ab778d54314a3fb6b7e9a32a0937]
class TypingGameDifficulty--><rect codeLine="30" fill="#FFA500" filter="url(#f11lr1c5hyemzj)" height="222.0313" id="TypingGameDifficulty" style="stroke:#A80036;stroke-width:1.5;" width="341" x="349" y="675"/><ellipse cx="457.75" cy="691" fill="#EB937F" rx="11" ry="11" style="stroke:#A80036;stroke-width:1.0;"/><path d="M456.6094,691.7969 L456.6094,694.2969 L460.9375,694.2969 L460.9375,693.375 Q460.9375,692.7656 461.1719,692.5 Q461.4219,692.2344 461.7969,692.2344 Q462.1719,692.2344 462.4063,692.5 Q462.6406,692.7656 462.6406,693.375 L462.6406,696 L454.6406,696 Q454.0156,696 453.75,695.7656 Q453.5,695.5313 453.5,695.1406 Q453.5,694.7656 453.7656,694.5313 Q454.0313,694.2969 454.6406,694.2969 L454.9063,694.2969 L454.9063,687.6406 L454.6406,687.6406 Q454.0156,687.6406 453.75,687.4063 Q453.5,687.1719 453.5,686.7813 Q453.5,686.4063 453.75,686.1719 Q454.0156,685.9375 454.6406,685.9375 L462.2656,685.9375 L462.2656,688.5313 Q462.2656,689.1406 462.0313,689.4063 Q461.8125,689.6563 461.4219,689.6563 Q461.0469,689.6563 460.8125,689.4063 Q460.5781,689.1406 460.5781,688.5313 L460.5781,687.6406 L456.6094,687.6406 L456.6094,690.0938 L458.0938,690.0938 Q458.0938,689.4375 458.2188,689.25 Q458.4844,688.8438 458.9531,688.8438 Q459.3281,688.8438 459.5625,689.1094 Q459.7969,689.3594 459.7969,689.9688 L459.7969,691.9375 Q459.7969,692.4844 459.6719,692.6719 Q459.4063,693.0625 458.9531,693.0625 Q458.4844,693.0625 458.2188,692.6563 Q458.0938,692.4688 458.0938,691.7969 L456.6094,691.7969 Z " fill="#000000"/><text fill="#000000" font-family="sans-serif" font-size="12" lengthAdjust="spacing" textLength="115" x="478.25" y="695.9102">TypingGameDifficulty</text><line style="stroke:#A80036;stroke-width:1.5;" x1="350" x2="689" y1="707" y2="707"/><ellipse cx="360" cy="718" rx="3" ry="3" style="stroke:#038048;stroke-width:1.0;fill:none;"/><text fill="#000000" font-family="sans-serif" font-size="11" lengthAdjust="spacing" textLength="29" x="369" y="722.4189">EASY</text><ellipse cx="360" cy="731.8359" rx="3" ry="3" style="stroke:#038048;stroke-width:1.0;fill:none;"/><text fill="#000000" font-family="sans-serif" font-size="11" lengthAdjust="spacing" textLength="44" x="369" y="736.2549">NORMAL</text><ellipse cx="360" cy="745.6719" rx="3" ry="3" style="stroke:#038048;stroke-width:1.0;fill:none;"/><text fill="#000000" font-family="sans-serif" font-size="11" lengthAdjust="spacing" textLength="29" x="369" y="750.0908">HARD</text><line style="stroke:#A80036;stroke-width:1.0;stroke-dasharray:1.0,2.0;" x1="350" x2="689" y1="756.5078" y2="756.5078"/><rect fill="none" height="6" style="stroke:#C82930;stroke-width:1.0;" width="6" x="357" y="764.5078"/><text fill="#000000" font-family="sans-serif" font-size="11" lengthAdjust="spacing" textLength="57" x="369" y="771.9268">String name</text><rect fill="none" height="6" style="stroke:#C82930;stroke-width:1.0;" width="6" x="357" y="778.3438"/><text fill="#000000" font-family="sans-serif" font-size="11" lengthAdjust="spacing" textLength="36" x="369" y="785.7627">int level</text><rect fill="none" height="6" style="stroke:#C82930;stroke-width:1.0;" width="6" x="357" y="792.1797"/><text fill="#000000" font-family="sans-serif" font-size="11" lengthAdjust="spacing" textLength="100" x="369" y="799.5986">boolean defaultLevel</text><line style="stroke:#A80036;stroke-width:1.5;" x1="350" x2="689" y1="806.0156" y2="806.0156"/><ellipse cx="360" cy="817.0156" fill="#84BE84" rx="3" ry="3" style="stroke:#038048;stroke-width:1.0;"/><text fill="#000000" font-family="sans-serif" font-size="11" lengthAdjust="spacing" textLength="315" x="369" y="821.4346">TypingGameDifficulty(String name, int level, boolean defaultLevel)</text><ellipse cx="360" cy="830.8516" fill="#84BE84" rx="3" ry="3" style="stroke:#038048;stroke-width:1.0;"/><text fill="#000000" font-family="sans-serif" font-size="11" lengthAdjust="spacing" text-decoration="underline" textLength="159" x="369" y="835.2705">TypingGameDifficulty of(int level)</text><ellipse cx="360" cy="844.6875" fill="#84BE84" rx="3" ry="3" style="stroke:#038048;stroke-width:1.0;"/><text fill="#000000" font-family="sans-serif" font-size="11" lengthAdjust="spacing" text-decoration="underline" textLength="162" x="369" y="849.1064">TypingGameDifficulty getDefault()</text><ellipse cx="360" cy="858.5234" fill="#84BE84" rx="3" ry="3" style="stroke:#038048;stroke-width:1.0;"/><text fill="#000000" font-family="sans-serif" font-size="11" lengthAdjust="spacing" textLength="81" x="369" y="862.9424">String getName()</text><ellipse cx="360" cy="872.3594" fill="#84BE84" rx="3" ry="3" style="stroke:#038048;stroke-width:1.0;"/><text fill="#000000" font-family="sans-serif" font-size="11" lengthAdjust="spacing" textLength="63" x="369" y="876.7783">int getLevel()</text><ellipse cx="360" cy="886.1953" fill="#84BE84" rx="3" ry="3" style="stroke:#038048;stroke-width:1.0;"/><text fill="#000000" font-family="sans-serif" font-size="11" lengthAdjust="spacing" textLength="239" x="369" y="890.6143">boolean lessThan(TypingGameDifficulty difficulty)</text><!--MD5=[e329a201e32f6879b6c4a5d5782241cc]
class TypingGameHistory--><rect codeLine="47" fill="#FFA500" filter="url(#f11lr1c5hyemzj)" height="103.3438" id="TypingGameHistory" style="stroke:#A80036;stroke-width:1.5;" width="369" x="371" y="216"/><ellipse cx="497.25" cy="232" fill="#ADD1B2" rx="11" ry="11" style="stroke:#A80036;stroke-width:1.0;"/><path d="M500.0156,227.875 Q500.1719,227.6563 500.3594,227.5469 Q500.5469,227.4375 500.7656,227.4375 Q501.1406,227.4375 501.375,227.7031 Q501.6094,227.9531 501.6094,228.5625 L501.6094,230.0156 Q501.6094,230.625 501.375,230.8906 Q501.1406,231.1563 500.7656,231.1563 Q500.4219,231.1563 500.2188,230.9531 Q500.0156,230.7656 499.9063,230.25 Q499.8594,229.8906 499.6719,229.7031 Q499.3438,229.3281 498.7344,229.1094 Q498.125,228.8906 497.5,228.8906 Q496.7344,228.8906 496.0938,229.2188 Q495.4688,229.5469 494.9688,230.2969 Q494.4844,231.0469 494.4844,232.0781 L494.4844,233.1719 Q494.4844,234.4063 495.375,235.2344 Q496.2656,236.0469 497.8594,236.0469 Q498.7969,236.0469 499.4531,235.7969 Q499.8438,235.6406 500.2656,235.2031 Q500.5313,234.9375 500.6719,234.8594 Q500.8281,234.7813 501.0313,234.7813 Q501.3594,234.7813 501.6094,235.0469 Q501.875,235.2969 501.875,235.6406 Q501.875,235.9844 501.5313,236.3906 Q501.0313,236.9688 500.2344,237.2969 Q499.1563,237.75 497.8594,237.75 Q496.3438,237.75 495.1406,237.125 Q494.1563,236.625 493.4688,235.5625 Q492.7813,234.4844 492.7813,233.2031 L492.7813,232.0469 Q492.7813,230.7188 493.3906,229.5781 Q494.0156,228.4219 495.1094,227.8125 Q496.2031,227.1875 497.4375,227.1875 Q498.1719,227.1875 498.8125,227.3594 Q499.4688,227.5156 500.0156,227.875 Z " fill="#000000"/><text fill="#000000" font-family="sans-serif" font-size="12" lengthAdjust="spacing" textLength="108" x="517.75" y="236.9102">TypingGameHistory</text><line style="stroke:#A80036;stroke-width:1.5;" x1="372" x2="739" y1="248" y2="248"/><rect fill="none" height="6" style="stroke:#C82930;stroke-width:1.0;" width="6" x="379" y="256"/><text fill="#000000" font-family="sans-serif" font-size="11" lengthAdjust="spacing" textLength="155" x="391" y="263.4189">List&lt;TypingGame&gt; typingGames</text><line style="stroke:#A80036;stroke-width:1.5;" x1="372" x2="739" y1="269.8359" y2="269.8359"/><ellipse cx="382" cy="280.8359" fill="#84BE84" rx="3" ry="3" style="stroke:#038048;stroke-width:1.0;"/><text fill="#000000" font-family="sans-serif" font-size="11" lengthAdjust="spacing" textLength="169" x="391" y="285.2549">void add(TypingGame typingGame)</text><ellipse cx="382" cy="294.6719" fill="#84BE84" rx="3" ry="3" style="stroke:#038048;stroke-width:1.0;"/><text fill="#000000" font-family="sans-serif" font-size="11" lengthAdjust="spacing" textLength="343" x="391" y="299.0908">List&lt;TypingGame&gt; sortedTypingGames(TypingGameDifficulty difficulty)</text><rect fill="#F24D5C" height="6" style="stroke:#C82930;stroke-width:1.0;" width="6" x="379" y="305.5078"/><text fill="#000000" font-family="sans-serif" font-size="11" lengthAdjust="spacing" textLength="327" x="391" y="312.9268">List&lt;TypingGame&gt; getTypingGames(TypingGameDifficulty difficulty)</text><!--MD5=[7a83da4f2de9d37a940211961c6e4279]
class TypingGameFactory--><rect codeLine="54" fill="#FFA500" filter="url(#f11lr1c5hyemzj)" height="61.8359" id="TypingGameFactory" style="stroke:#A80036;stroke-width:1.5;" width="286" x="49.5" y="236.5"/><ellipse cx="133.75" cy="252.5" fill="#ADD1B2" rx="11" ry="11" style="stroke:#A80036;stroke-width:1.0;"/><path d="M136.5156,248.375 Q136.6719,248.1563 136.8594,248.0469 Q137.0469,247.9375 137.2656,247.9375 Q137.6406,247.9375 137.875,248.2031 Q138.1094,248.4531 138.1094,249.0625 L138.1094,250.5156 Q138.1094,251.125 137.875,251.3906 Q137.6406,251.6563 137.2656,251.6563 Q136.9219,251.6563 136.7188,251.4531 Q136.5156,251.2656 136.4063,250.75 Q136.3594,250.3906 136.1719,250.2031 Q135.8438,249.8281 135.2344,249.6094 Q134.625,249.3906 134,249.3906 Q133.2344,249.3906 132.5938,249.7188 Q131.9688,250.0469 131.4688,250.7969 Q130.9844,251.5469 130.9844,252.5781 L130.9844,253.6719 Q130.9844,254.9063 131.875,255.7344 Q132.7656,256.5469 134.3594,256.5469 Q135.2969,256.5469 135.9531,256.2969 Q136.3438,256.1406 136.7656,255.7031 Q137.0313,255.4375 137.1719,255.3594 Q137.3281,255.2813 137.5313,255.2813 Q137.8594,255.2813 138.1094,255.5469 Q138.375,255.7969 138.375,256.1406 Q138.375,256.4844 138.0313,256.8906 Q137.5313,257.4688 136.7344,257.7969 Q135.6563,258.25 134.3594,258.25 Q132.8438,258.25 131.6406,257.625 Q130.6563,257.125 129.9688,256.0625 Q129.2813,254.9844 129.2813,253.7031 L129.2813,252.5469 Q129.2813,251.2188 129.8906,250.0781 Q130.5156,248.9219 131.6094,248.3125 Q132.7031,247.6875 133.9375,247.6875 Q134.6719,247.6875 135.3125,247.8594 Q135.9688,248.0156 136.5156,248.375 Z " fill="#000000"/><text fill="#000000" font-family="sans-serif" font-size="12" lengthAdjust="spacing" textLength="109" x="154.25" y="257.4102">TypingGameFactory</text><line style="stroke:#A80036;stroke-width:1.5;" x1="50.5" x2="334.5" y1="268.5" y2="268.5"/><line style="stroke:#A80036;stroke-width:1.5;" x1="50.5" x2="334.5" y1="276.5" y2="276.5"/><ellipse cx="60.5" cy="287.5" fill="#84BE84" rx="3" ry="3" style="stroke:#038048;stroke-width:1.0;"/><text fill="#000000" font-family="sans-serif" font-size="11" lengthAdjust="spacing" text-decoration="underline" textLength="260" x="69.5" y="291.9189">TypingGame generate(TypingGameDifficulty difficulty)</text><!--MD5=[fc7123defb831ecdd44b2d9bcef6cceb]
class Question--><rect codeLine="58" fill="#FEFECE" filter="url(#f11lr1c5hyemzj)" height="103.3438" id="Question" style="stroke:#A80036;stroke-width:1.5;" width="286" x="27.5" y="734.5"/><ellipse cx="141.25" cy="750.5" fill="#ADD1B2" rx="11" ry="11" style="stroke:#A80036;stroke-width:1.0;"/><path d="M144.0156,746.375 Q144.1719,746.1563 144.3594,746.0469 Q144.5469,745.9375 144.7656,745.9375 Q145.1406,745.9375 145.375,746.2031 Q145.6094,746.4531 145.6094,747.0625 L145.6094,748.5156 Q145.6094,749.125 145.375,749.3906 Q145.1406,749.6563 144.7656,749.6563 Q144.4219,749.6563 144.2188,749.4531 Q144.0156,749.2656 143.9063,748.75 Q143.8594,748.3906 143.6719,748.2031 Q143.3438,747.8281 142.7344,747.6094 Q142.125,747.3906 141.5,747.3906 Q140.7344,747.3906 140.0938,747.7188 Q139.4688,748.0469 138.9688,748.7969 Q138.4844,749.5469 138.4844,750.5781 L138.4844,751.6719 Q138.4844,752.9063 139.375,753.7344 Q140.2656,754.5469 141.8594,754.5469 Q142.7969,754.5469 143.4531,754.2969 Q143.8438,754.1406 144.2656,753.7031 Q144.5313,753.4375 144.6719,753.3594 Q144.8281,753.2813 145.0313,753.2813 Q145.3594,753.2813 145.6094,753.5469 Q145.875,753.7969 145.875,754.1406 Q145.875,754.4844 145.5313,754.8906 Q145.0313,755.4688 144.2344,755.7969 Q143.1563,756.25 141.8594,756.25 Q140.3438,756.25 139.1406,755.625 Q138.1563,755.125 137.4688,754.0625 Q136.7813,752.9844 136.7813,751.7031 L136.7813,750.5469 Q136.7813,749.2188 137.3906,748.0781 Q138.0156,746.9219 139.1094,746.3125 Q140.2031,745.6875 141.4375,745.6875 Q142.1719,745.6875 142.8125,745.8594 Q143.4688,746.0156 144.0156,746.375 Z " fill="#000000"/><text fill="#000000" font-family="sans-serif" font-size="12" lengthAdjust="spacing" textLength="50" x="161.75" y="755.4102">Question</text><line style="stroke:#A80036;stroke-width:1.5;" x1="28.5" x2="312.5" y1="766.5" y2="766.5"/><rect fill="none" height="6" style="stroke:#C82930;stroke-width:1.0;" width="6" x="35.5" y="774.5"/><text fill="#000000" font-family="sans-serif" font-size="11" lengthAdjust="spacing" textLength="57" x="47.5" y="781.9189">String word</text><rect fill="none" height="6" style="stroke:#C82930;stroke-width:1.0;" width="6" x="35.5" y="788.3359"/><text fill="#000000" font-family="sans-serif" font-size="11" lengthAdjust="spacing" textLength="146" x="47.5" y="795.7549">TypingGameDifficulty difficulty</text><line style="stroke:#A80036;stroke-width:1.5;" x1="28.5" x2="312.5" y1="802.1719" y2="802.1719"/><ellipse cx="38.5" cy="813.1719" fill="#84BE84" rx="3" ry="3" style="stroke:#038048;stroke-width:1.0;"/><text fill="#000000" font-family="sans-serif" font-size="11" lengthAdjust="spacing" textLength="260" x="47.5" y="817.5908">Question(String word, TypingGameDifficulty difficulty)</text><ellipse cx="38.5" cy="827.0078" fill="#84BE84" rx="3" ry="3" style="stroke:#038048;stroke-width:1.0;"/><text fill="#000000" font-family="sans-serif" font-size="11" lengthAdjust="spacing" textLength="80" x="47.5" y="831.4268">String getWord()</text><!--MD5=[3665cc8380533de798edf75be7f81b43]
class QuestionFactory--><rect codeLine="65" fill="#FFA500" filter="url(#f11lr1c5hyemzj)" height="75.6719" id="QuestionFactory" style="stroke:#A80036;stroke-width:1.5;" width="327" x="7" y="459"/><ellipse cx="121.75" cy="475" fill="#ADD1B2" rx="11" ry="11" style="stroke:#A80036;stroke-width:1.0;"/><path d="M124.5156,470.875 Q124.6719,470.6563 124.8594,470.5469 Q125.0469,470.4375 125.2656,470.4375 Q125.6406,470.4375 125.875,470.7031 Q126.1094,470.9531 126.1094,471.5625 L126.1094,473.0156 Q126.1094,473.625 125.875,473.8906 Q125.6406,474.1563 125.2656,474.1563 Q124.9219,474.1563 124.7188,473.9531 Q124.5156,473.7656 124.4063,473.25 Q124.3594,472.8906 124.1719,472.7031 Q123.8438,472.3281 123.2344,472.1094 Q122.625,471.8906 122,471.8906 Q121.2344,471.8906 120.5938,472.2188 Q119.9688,472.5469 119.4688,473.2969 Q118.9844,474.0469 118.9844,475.0781 L118.9844,476.1719 Q118.9844,477.4063 119.875,478.2344 Q120.7656,479.0469 122.3594,479.0469 Q123.2969,479.0469 123.9531,478.7969 Q124.3438,478.6406 124.7656,478.2031 Q125.0313,477.9375 125.1719,477.8594 Q125.3281,477.7813 125.5313,477.7813 Q125.8594,477.7813 126.1094,478.0469 Q126.375,478.2969 126.375,478.6406 Q126.375,478.9844 126.0313,479.3906 Q125.5313,479.9688 124.7344,480.2969 Q123.6563,480.75 122.3594,480.75 Q120.8438,480.75 119.6406,480.125 Q118.6563,479.625 117.9688,478.5625 Q117.2813,477.4844 117.2813,476.2031 L117.2813,475.0469 Q117.2813,473.7188 117.8906,472.5781 Q118.5156,471.4219 119.6094,470.8125 Q120.7031,470.1875 121.9375,470.1875 Q122.6719,470.1875 123.3125,470.3594 Q123.9688,470.5156 124.5156,470.875 Z " fill="#000000"/><text fill="#000000" font-family="sans-serif" font-size="12" lengthAdjust="spacing" textLength="89" x="142.25" y="479.9102">QuestionFactory</text><line style="stroke:#A80036;stroke-width:1.5;" x1="8" x2="333" y1="491" y2="491"/><line style="stroke:#A80036;stroke-width:1.5;" x1="8" x2="333" y1="499" y2="499"/><ellipse cx="18" cy="510" fill="#84BE84" rx="3" ry="3" style="stroke:#038048;stroke-width:1.0;"/><text fill="#000000" font-family="sans-serif" font-size="11" lengthAdjust="spacing" textLength="301" x="27" y="514.4189">static List&lt;Question&gt; generate(TypingGameDifficulty difficulty)</text><rect fill="#F24D5C" height="6" style="stroke:#C82930;stroke-width:1.0;" width="6" x="15" y="520.8359"/><text fill="#000000" font-family="sans-serif" font-size="11" lengthAdjust="spacing" textLength="155" x="27" y="528.2549">static List&lt;Question&gt; generate()</text><!--MD5=[f4abfe78a2e927cf2e914f071f8f9453]
class StandardInputReader--><rect codeLine="70" fill="#FEFECE" filter="url(#f11lr1c5hyemzj)" height="48" id="StandardInputReader" style="stroke:#A80036;stroke-width:1.5;" width="150" x="725.5" y="762"/><ellipse cx="740.5" cy="778" fill="#ADD1B2" rx="11" ry="11" style="stroke:#A80036;stroke-width:1.0;"/><path d="M743.2656,773.875 Q743.4219,773.6563 743.6094,773.5469 Q743.7969,773.4375 744.0156,773.4375 Q744.3906,773.4375 744.625,773.7031 Q744.8594,773.9531 744.8594,774.5625 L744.8594,776.0156 Q744.8594,776.625 744.625,776.8906 Q744.3906,777.1563 744.0156,777.1563 Q743.6719,777.1563 743.4688,776.9531 Q743.2656,776.7656 743.1563,776.25 Q743.1094,775.8906 742.9219,775.7031 Q742.5938,775.3281 741.9844,775.1094 Q741.375,774.8906 740.75,774.8906 Q739.9844,774.8906 739.3438,775.2188 Q738.7188,775.5469 738.2188,776.2969 Q737.7344,777.0469 737.7344,778.0781 L737.7344,779.1719 Q737.7344,780.4063 738.625,781.2344 Q739.5156,782.0469 741.1094,782.0469 Q742.0469,782.0469 742.7031,781.7969 Q743.0938,781.6406 743.5156,781.2031 Q743.7813,780.9375 743.9219,780.8594 Q744.0781,780.7813 744.2813,780.7813 Q744.6094,780.7813 744.8594,781.0469 Q745.125,781.2969 745.125,781.6406 Q745.125,781.9844 744.7813,782.3906 Q744.2813,782.9688 743.4844,783.2969 Q742.4063,783.75 741.1094,783.75 Q739.5938,783.75 738.3906,783.125 Q737.4063,782.625 736.7188,781.5625 Q736.0313,780.4844 736.0313,779.2031 L736.0313,778.0469 Q736.0313,776.7188 736.6406,775.5781 Q737.2656,774.4219 738.3594,773.8125 Q739.4531,773.1875 740.6875,773.1875 Q741.4219,773.1875 742.0625,773.3594 Q742.7188,773.5156 743.2656,773.875 Z " fill="#000000"/><text fill="#000000" font-family="sans-serif" font-size="12" lengthAdjust="spacing" textLength="118" x="754.5" y="782.9102">StandardInputReader</text><line style="stroke:#A80036;stroke-width:1.5;" x1="726.5" x2="874.5" y1="794" y2="794"/><line style="stroke:#A80036;stroke-width:1.5;" x1="726.5" x2="874.5" y1="802" y2="802"/><!--MD5=[cdad5fc734b30a951aa3a1cbfbedd928]
link Main to TypingGameFactory--><path codeLine="72" d="M485.37,138.03 C409.55,171.29 320.71,210.26 260.93,236.49 " fill="none" id="Main-TypingGameFactory" style="stroke:#A80036;stroke-width:1.0;"/><polygon fill="#000000" points="412.9212,179.1845,422.385,178.2421,420.0236,172.8594,412.9212,179.1845" style="stroke:#000000;stroke-width:1.0;"/><text fill="#000000" font-family="sans-serif" font-size="13" lengthAdjust="spacing" textLength="21" x="426.5" y="182.4951">use</text><!--MD5=[46e4fb36301fa5a2d7cd7a2bf92e51ea]
link Main to StandardInputReader--><path codeLine="73" d="M704.92,138.21 C725.48,160.69 745.52,187.48 757.5,216 C840.29,413.05 814.07,682.11 803.79,761.84 " fill="none" id="Main-StandardInputReader" style="stroke:#A80036;stroke-width:1.0;"/><polygon fill="#000000" points="805.2829,363.1141,806.7693,353.7204,800.9639,354.6408,805.2829,363.1141" style="stroke:#000000;stroke-width:1.0;"/><text fill="#000000" font-family="sans-serif" font-size="13" lengthAdjust="spacing" textLength="21" x="813.5" y="363.4951">use</text><!--MD5=[29950e6704daaa6cb4d0465601d39189]
link TypingGameFactory to QuestionFactory--><path codeLine="75" d="M189.58,298.71 C185.58,340.05 178.41,414.19 174.09,458.86 " fill="none" id="TypingGameFactory-QuestionFactory" style="stroke:#A80036;stroke-width:1.0;"/><polygon fill="#000000" points="189.0186,363.1526,192.8147,354.4324,186.9642,353.8665,189.0186,363.1526" style="stroke:#000000;stroke-width:1.0;"/><text fill="#000000" font-family="sans-serif" font-size="13" lengthAdjust="spacing" textLength="21" x="198.5" y="363.4951">use</text><!--MD5=[34053be3dab4592b4a82eb1e2fe8c8dd]
link TypingGameFactory to TypingGame--><path codeLine="77" d="M240.44,298.71 C280.43,323.91 339.76,361.3 396.06,396.78 " fill="none" id="TypingGameFactory-TypingGame" style="stroke:#A80036;stroke-width:1.0;"/><polygon fill="#000000" points="350.7301,360.8415,344.6447,353.5327,341.5109,358.5055,350.7301,360.8415" style="stroke:#000000;stroke-width:1.0;"/><text fill="#000000" font-family="sans-serif" font-size="13" lengthAdjust="spacing" textLength="50" x="355.5" y="363.4951">generate</text><!--MD5=[7b87940b4301618cade711b02849d6e8]
link QuestionFactory to Question--><path codeLine="79" d="M170.5,535.23 C170.5,586.04 170.5,677.29 170.5,734.3 " fill="none" id="QuestionFactory-Question" style="stroke:#A80036;stroke-width:1.0;"/><polygon fill="#000000" points="175.5,641.1758,178.4389,632.1307,172.5611,632.1307,175.5,641.1758" style="stroke:#000000;stroke-width:1.0;"/><text fill="#000000" font-family="sans-serif" font-size="13" lengthAdjust="spacing" textLength="50" x="184.5" y="641.4951">generate</text><!--MD5=[2f163435dbb70469cf58f8a42310b871]
link TypingGameHistory to TypingGame--><path codeLine="81" d="M555.05,319.27 C554.86,340.76 554.64,366.62 554.42,391.85 " fill="none" id="TypingGameHistory-to-TypingGame" style="stroke:#A80036;stroke-width:1.0;"/><polygon fill="#A80036" points="554.37,396.88,558.447,387.9146,554.4129,391.8802,550.4473,387.846,554.37,396.88" style="stroke:#A80036;stroke-width:1.0;"/><!--MD5=[44da462e0e37ec5b4424557f44052c2f]
link TypingGame to TypingGameDifficulty--><path codeLine="82" d="M541.75,597.17 C538.99,620.47 536.03,645.49 533.19,669.43 " fill="none" id="TypingGame-to-TypingGameDifficulty" style="stroke:#A80036;stroke-width:1.0;"/><polygon fill="#A80036" points="532.59,674.52,537.6184,666.0515,533.1767,669.5545,529.6737,665.1128,532.59,674.52" style="stroke:#A80036;stroke-width:1.0;"/><!--MD5=[8e357755c5ee833ed7c109bc7d6b71d2]
link TypingGame to Question--><path codeLine="83" d="M421.16,597.17 C361.11,642.16 292.47,693.6 242.21,731.26 " fill="none" id="TypingGame-to-Question" style="stroke:#A80036;stroke-width:1.0;"/><polygon fill="#A80036" points="238.02,734.41,247.62,732.21,242.02,731.41,242.82,725.81,238.02,734.41" style="stroke:#A80036;stroke-width:1.0;"/><!--MD5=[f65d15c8ba6c2231aac319e9c218394b]
link TypingGame to StandardInputReader--><path codeLine="84" d="M640.08,597.02 C662.14,622.38 685.76,649.65 707.5,675 C733.06,704.8 762.25,739.42 781,761.74 " fill="none" id="TypingGame-StandardInputReader" style="stroke:#A80036;stroke-width:1.0;"/><polygon fill="#000000" points="685.7504,639.9751,682.1036,631.1915,677.6372,635.0126,685.7504,639.9751" style="stroke:#000000;stroke-width:1.0;"/><text fill="#000000" font-family="sans-serif" font-size="13" lengthAdjust="spacing" textLength="21" x="691.5" y="641.4951">use</text><!--MD5=[060600f97b89957d2a7ddba0f4973c45]
@startuml 02_apply_stream_api

note as note_main
  背景がピンク：新規に作成したクラス
  背景がオレンジ：修正したクラス
end note

class Main #orange {
  + {static} main()
  - {static} TypingGameDifficulty displayInputDifficulty()
  - {static} void displayCountDown()
  - {static} void displayRanking(TypingGameHistory typingGameHistory, TypingGameDifficulty difficulty)
  - {static} boolean displayInputRetry()
  - {static} static int getInputInt(int defaultValue)
}

class TypingGame #Orange {
  - TypingGameDifficulty difficulty
  - List<Question> questions
  - long timeToCalculate
  - Question prevQuestion
  + TypingGame(TypingGameDifficulty difficulty, List<Question> questions)
  + void execute()
  + long getTimeToCalculate()
  + boolean isSameDifficulty(TypingGameDifficulty difficulty)
  + int getNumberOfQuestions()
  - Question getNextQuestion()
  - String toString()
}

enum TypingGameDifficulty #Orange {
  + EASY
  + NORMAL
  + HARD
  ..
  - String name
  - int level
  - boolean defaultLevel
  __
  + TypingGameDifficulty(String name, int level, boolean defaultLevel)
  + {static} TypingGameDifficulty of(int level)
  + {static} TypingGameDifficulty getDefault()
  + String getName()
  + int getLevel()
  + boolean lessThan(TypingGameDifficulty difficulty)
}

class TypingGameHistory #Orange {
  - List<TypingGame> typingGames
  + void add(TypingGame typingGame)
  + List<TypingGame> sortedTypingGames(TypingGameDifficulty difficulty)
  - List<TypingGame> getTypingGames(TypingGameDifficulty difficulty)
}

class TypingGameFactory #Orange {
  + {static} TypingGame generate(TypingGameDifficulty difficulty)
}

class Question {
  - String word
  - TypingGameDifficulty difficulty
  + Question(String word, TypingGameDifficulty difficulty)
  + String getWord()
}

class QuestionFactory #Orange {
  + static List<Question> generate(TypingGameDifficulty difficulty)
  - static List<Question> generate()
}

class StandardInputReader {}

Main - - TypingGameFactory : use >
Main - - StandardInputReader : use >

TypingGameFactory - - QuestionFactory : use >

TypingGameFactory - - TypingGame : generate >

QuestionFactory - - Question : generate >

TypingGameHistory - -> TypingGame
TypingGame - -> TypingGameDifficulty
TypingGame - -> Question
TypingGame - - StandardInputReader : use >

@enduml

PlantUML version 1.2022.0(Wed Jan 12 01:16:42 JST 2022)
(GPL source distribution)
Java Runtime: OpenJDK Runtime Environment
JVM: OpenJDK 64-Bit Server VM
Default Encoding: UTF-8
Language: ja
Country: JP
--></g></svg>