<?xml version="1.0" encoding="UTF-8" standalone="no"?><svg xmlns="http://www.w3.org/2000/svg" xmlns:xlink="http://www.w3.org/1999/xlink" contentScriptType="application/ecmascript" contentStyleType="text/css" height="967px" preserveAspectRatio="none" style="width:1246px;height:967px;background:#FFFFFF;" version="1.1" viewBox="0 0 1246 967" width="1246px" zoomAndPan="magnify"><defs><filter height="300%" id="fvp23mj3wlxw8" width="300%" x="-1" y="-1"><feGaussianBlur result="blurOut" stdDeviation="2.0"/><feColorMatrix in="blurOut" result="blurOut2" type="matrix" values="0 0 0 0 0 0 0 0 0 0 0 0 0 0 0 0 0 0 .4 0"/><feOffset dx="4.0" dy="4.0" in="blurOut2" result="blurOut3"/><feBlend in="SourceGraphic" in2="blurOut3" mode="normal"/></filter></defs><g><path d="M383,58 L383,100.7031 L625,100.7031 L625,68 L615,58 L383,58 " fill="#FBFB77" filter="url(#fvp23mj3wlxw8)" style="stroke:#A80036;stroke-width:1.0;"/><path d="M615,58 L615,68 L625,68 L615,58 " fill="#FBFB77" style="stroke:#A80036;stroke-width:1.0;"/><text fill="#000000" font-family="sans-serif" font-size="13" lengthAdjust="spacing" textLength="221" x="389" y="76.4951">背景がピンク：新規に作成したクラス</text><text fill="#000000" font-family="sans-serif" font-size="13" lengthAdjust="spacing" textLength="195" x="389" y="92.8467">背景がオレンジ：修正したクラス</text><!--MD5=[84718776d214be480e4c259efcb737fc]
class Main--><rect codeLine="7" fill="#FFA500" filter="url(#fvp23mj3wlxw8)" height="144.8516" id="Main" style="stroke:#A80036;stroke-width:1.5;" width="469" x="660.5" y="7"/><ellipse cx="877.75" cy="23" fill="#ADD1B2" rx="11" ry="11" style="stroke:#A80036;stroke-width:1.0;"/><path d="M880.5156,18.875 Q880.6719,18.6563 880.8594,18.5469 Q881.0469,18.4375 881.2656,18.4375 Q881.6406,18.4375 881.875,18.7031 Q882.1094,18.9531 882.1094,19.5625 L882.1094,21.0156 Q882.1094,21.625 881.875,21.8906 Q881.6406,22.1563 881.2656,22.1563 Q880.9219,22.1563 880.7188,21.9531 Q880.5156,21.7656 880.4063,21.25 Q880.3594,20.8906 880.1719,20.7031 Q879.8438,20.3281 879.2344,20.1094 Q878.625,19.8906 878,19.8906 Q877.2344,19.8906 876.5938,20.2188 Q875.9688,20.5469 875.4688,21.2969 Q874.9844,22.0469 874.9844,23.0781 L874.9844,24.1719 Q874.9844,25.4063 875.875,26.2344 Q876.7656,27.0469 878.3594,27.0469 Q879.2969,27.0469 879.9531,26.7969 Q880.3438,26.6406 880.7656,26.2031 Q881.0313,25.9375 881.1719,25.8594 Q881.3281,25.7813 881.5313,25.7813 Q881.8594,25.7813 882.1094,26.0469 Q882.375,26.2969 882.375,26.6406 Q882.375,26.9844 882.0313,27.3906 Q881.5313,27.9688 880.7344,28.2969 Q879.6563,28.75 878.3594,28.75 Q876.8438,28.75 875.6406,28.125 Q874.6563,27.625 873.9688,26.5625 Q873.2813,25.4844 873.2813,24.2031 L873.2813,23.0469 Q873.2813,21.7188 873.8906,20.5781 Q874.5156,19.4219 875.6094,18.8125 Q876.7031,18.1875 877.9375,18.1875 Q878.6719,18.1875 879.3125,18.3594 Q879.9688,18.5156 880.5156,18.875 Z " fill="#000000"/><text fill="#000000" font-family="sans-serif" font-size="12" lengthAdjust="spacing" textLength="26" x="898.25" y="27.9102">Main</text><line style="stroke:#A80036;stroke-width:1.5;" x1="661.5" x2="1128.5" y1="39" y2="39"/><line style="stroke:#A80036;stroke-width:1.5;" x1="661.5" x2="1128.5" y1="47" y2="47"/><ellipse cx="671.5" cy="58" fill="#84BE84" rx="3" ry="3" style="stroke:#038048;stroke-width:1.0;"/><text fill="#000000" font-family="sans-serif" font-size="11" lengthAdjust="spacing" text-decoration="underline" textLength="30" x="680.5" y="62.4189">main()</text><rect fill="#F24D5C" height="6" style="stroke:#C82930;stroke-width:1.0;" width="6" x="668.5" y="68.8359"/><text fill="#000000" font-family="sans-serif" font-size="11" lengthAdjust="spacing" text-decoration="underline" textLength="212" x="680.5" y="76.2549">TypingGameDifficulty displayInputDifficulty()</text><rect fill="#F24D5C" height="6" style="stroke:#C82930;stroke-width:1.0;" width="6" x="668.5" y="82.6719"/><text fill="#000000" font-family="sans-serif" font-size="11" lengthAdjust="spacing" text-decoration="underline" textLength="122" x="680.5" y="90.0908">void displayCountDown()</text><rect fill="#F24D5C" height="6" style="stroke:#C82930;stroke-width:1.0;" width="6" x="668.5" y="96.5078"/><text fill="#000000" font-family="sans-serif" font-size="11" lengthAdjust="spacing" text-decoration="underline" textLength="215" x="680.5" y="103.9268">void displayResult(TypingGame typingGame)</text><rect fill="#F24D5C" height="6" style="stroke:#C82930;stroke-width:1.0;" width="6" x="668.5" y="110.3438"/><text fill="#000000" font-family="sans-serif" font-size="11" lengthAdjust="spacing" text-decoration="underline" textLength="443" x="680.5" y="117.7627">void displayRanking(TypingGameHistory typingGameHistory, TypingGameDifficulty difficulty)</text><rect fill="#F24D5C" height="6" style="stroke:#C82930;stroke-width:1.0;" width="6" x="668.5" y="124.1797"/><text fill="#000000" font-family="sans-serif" font-size="11" lengthAdjust="spacing" text-decoration="underline" textLength="132" x="680.5" y="131.5986">boolean displayInputRetry()</text><rect fill="#F24D5C" height="6" style="stroke:#C82930;stroke-width:1.0;" width="6" x="668.5" y="138.0156"/><text fill="#000000" font-family="sans-serif" font-size="11" lengthAdjust="spacing" text-decoration="underline" textLength="175" x="680.5" y="145.4346">static int getInputInt(int defaultValue)</text><!--MD5=[738c7c2ff5aeb58de2a1e5f3ac886fb6]
class TypingGame--><rect codeLine="17" fill="#FFA500" filter="url(#fvp23mj3wlxw8)" height="241.7031" id="TypingGame" style="stroke:#A80036;stroke-width:1.5;" width="368" x="603" y="411"/><ellipse cx="747.75" cy="427" fill="#ADD1B2" rx="11" ry="11" style="stroke:#A80036;stroke-width:1.0;"/><path d="M750.5156,422.875 Q750.6719,422.6563 750.8594,422.5469 Q751.0469,422.4375 751.2656,422.4375 Q751.6406,422.4375 751.875,422.7031 Q752.1094,422.9531 752.1094,423.5625 L752.1094,425.0156 Q752.1094,425.625 751.875,425.8906 Q751.6406,426.1563 751.2656,426.1563 Q750.9219,426.1563 750.7188,425.9531 Q750.5156,425.7656 750.4063,425.25 Q750.3594,424.8906 750.1719,424.7031 Q749.8438,424.3281 749.2344,424.1094 Q748.625,423.8906 748,423.8906 Q747.2344,423.8906 746.5938,424.2188 Q745.9688,424.5469 745.4688,425.2969 Q744.9844,426.0469 744.9844,427.0781 L744.9844,428.1719 Q744.9844,429.4063 745.875,430.2344 Q746.7656,431.0469 748.3594,431.0469 Q749.2969,431.0469 749.9531,430.7969 Q750.3438,430.6406 750.7656,430.2031 Q751.0313,429.9375 751.1719,429.8594 Q751.3281,429.7813 751.5313,429.7813 Q751.8594,429.7813 752.1094,430.0469 Q752.375,430.2969 752.375,430.6406 Q752.375,430.9844 752.0313,431.3906 Q751.5313,431.9688 750.7344,432.2969 Q749.6563,432.75 748.3594,432.75 Q746.8438,432.75 745.6406,432.125 Q744.6563,431.625 743.9688,430.5625 Q743.2813,429.4844 743.2813,428.2031 L743.2813,427.0469 Q743.2813,425.7188 743.8906,424.5781 Q744.5156,423.4219 745.6094,422.8125 Q746.7031,422.1875 747.9375,422.1875 Q748.6719,422.1875 749.3125,422.3594 Q749.9688,422.5156 750.5156,422.875 Z " fill="#000000"/><text fill="#000000" font-family="sans-serif" font-size="12" lengthAdjust="spacing" textLength="70" x="768.25" y="431.9102">TypingGame</text><line style="stroke:#A80036;stroke-width:1.5;" x1="604" x2="970" y1="443" y2="443"/><rect fill="none" height="6" style="stroke:#C82930;stroke-width:1.0;" width="6" x="611" y="451"/><text fill="#000000" font-family="sans-serif" font-size="11" lengthAdjust="spacing" textLength="146" x="623" y="458.4189">TypingGameDifficulty difficulty</text><rect fill="none" height="6" style="stroke:#C82930;stroke-width:1.0;" width="6" x="611" y="464.8359"/><text fill="#000000" font-family="sans-serif" font-size="11" lengthAdjust="spacing" textLength="122" x="623" y="472.2549">List&lt;Question&gt; questions</text><rect fill="none" height="6" style="stroke:#C82930;stroke-width:1.0;" width="6" x="611" y="478.6719"/><text fill="#000000" font-family="sans-serif" font-size="11" lengthAdjust="spacing" textLength="138" x="623" y="486.0908">List&lt;QuestionResult&gt; results</text><rect fill="none" height="6" style="stroke:#C82930;stroke-width:1.0;" width="6" x="611" y="492.5078"/><text fill="#000000" font-family="sans-serif" font-size="11" lengthAdjust="spacing" textLength="122" x="623" y="499.9268">ZonedDateTime startTime</text><rect fill="none" height="6" style="stroke:#C82930;stroke-width:1.0;" width="6" x="611" y="506.3438"/><text fill="#000000" font-family="sans-serif" font-size="11" lengthAdjust="spacing" textLength="118" x="623" y="513.7627">ZonedDateTime endTime</text><rect fill="none" height="6" style="stroke:#C82930;stroke-width:1.0;" width="6" x="611" y="520.1797"/><text fill="#000000" font-family="sans-serif" font-size="11" lengthAdjust="spacing" textLength="111" x="623" y="527.5986">Question prevQuestion</text><line style="stroke:#A80036;stroke-width:1.5;" x1="604" x2="970" y1="534.0156" y2="534.0156"/><ellipse cx="614" cy="545.0156" fill="#84BE84" rx="3" ry="3" style="stroke:#038048;stroke-width:1.0;"/><text fill="#000000" font-family="sans-serif" font-size="11" lengthAdjust="spacing" textLength="342" x="623" y="549.4346">TypingGame(TypingGameDifficulty difficulty, List&lt;Question&gt; questions)</text><ellipse cx="614" cy="558.8516" fill="#84BE84" rx="3" ry="3" style="stroke:#038048;stroke-width:1.0;"/><text fill="#000000" font-family="sans-serif" font-size="11" lengthAdjust="spacing" textLength="70" x="623" y="563.2705">void execute()</text><ellipse cx="614" cy="572.6875" fill="#84BE84" rx="3" ry="3" style="stroke:#038048;stroke-width:1.0;"/><text fill="#000000" font-family="sans-serif" font-size="11" lengthAdjust="spacing" textLength="164" x="623" y="577.1064">List&lt;QuestionResult&gt; getResults()</text><ellipse cx="614" cy="586.5234" fill="#84BE84" rx="3" ry="3" style="stroke:#038048;stroke-width:1.0;"/><text fill="#000000" font-family="sans-serif" font-size="11" lengthAdjust="spacing" textLength="124" x="623" y="590.9424">long getTimeToCalculate()</text><ellipse cx="614" cy="600.3594" fill="#84BE84" rx="3" ry="3" style="stroke:#038048;stroke-width:1.0;"/><text fill="#000000" font-family="sans-serif" font-size="11" lengthAdjust="spacing" textLength="272" x="623" y="604.7783">boolean isSameDifficulty(TypingGameDifficulty difficulty)</text><ellipse cx="614" cy="614.1953" fill="#84BE84" rx="3" ry="3" style="stroke:#038048;stroke-width:1.0;"/><text fill="#000000" font-family="sans-serif" font-size="11" lengthAdjust="spacing" textLength="135" x="623" y="618.6143">int getNumberOfQuestions()</text><rect fill="#F24D5C" height="6" style="stroke:#C82930;stroke-width:1.0;" width="6" x="611" y="625.0313"/><text fill="#000000" font-family="sans-serif" font-size="11" lengthAdjust="spacing" textLength="134" x="623" y="632.4502">Question getNextQuestion()</text><rect fill="#F24D5C" height="6" style="stroke:#C82930;stroke-width:1.0;" width="6" x="611" y="638.8672"/><text fill="#000000" font-family="sans-serif" font-size="11" lengthAdjust="spacing" textLength="76" x="623" y="646.2861">String toString()</text><!--MD5=[2467ab778d54314a3fb6b7e9a32a0937]
class TypingGameDifficulty--><rect codeLine="34" fill="#FEFECE" filter="url(#fvp23mj3wlxw8)" height="222.0313" id="TypingGameDifficulty" style="stroke:#A80036;stroke-width:1.5;" width="341" x="328.5" y="731"/><ellipse cx="437.25" cy="747" fill="#EB937F" rx="11" ry="11" style="stroke:#A80036;stroke-width:1.0;"/><path d="M436.1094,747.7969 L436.1094,750.2969 L440.4375,750.2969 L440.4375,749.375 Q440.4375,748.7656 440.6719,748.5 Q440.9219,748.2344 441.2969,748.2344 Q441.6719,748.2344 441.9063,748.5 Q442.1406,748.7656 442.1406,749.375 L442.1406,752 L434.1406,752 Q433.5156,752 433.25,751.7656 Q433,751.5313 433,751.1406 Q433,750.7656 433.2656,750.5313 Q433.5313,750.2969 434.1406,750.2969 L434.4063,750.2969 L434.4063,743.6406 L434.1406,743.6406 Q433.5156,743.6406 433.25,743.4063 Q433,743.1719 433,742.7813 Q433,742.4063 433.25,742.1719 Q433.5156,741.9375 434.1406,741.9375 L441.7656,741.9375 L441.7656,744.5313 Q441.7656,745.1406 441.5313,745.4063 Q441.3125,745.6563 440.9219,745.6563 Q440.5469,745.6563 440.3125,745.4063 Q440.0781,745.1406 440.0781,744.5313 L440.0781,743.6406 L436.1094,743.6406 L436.1094,746.0938 L437.5938,746.0938 Q437.5938,745.4375 437.7188,745.25 Q437.9844,744.8438 438.4531,744.8438 Q438.8281,744.8438 439.0625,745.1094 Q439.2969,745.3594 439.2969,745.9688 L439.2969,747.9375 Q439.2969,748.4844 439.1719,748.6719 Q438.9063,749.0625 438.4531,749.0625 Q437.9844,749.0625 437.7188,748.6563 Q437.5938,748.4688 437.5938,747.7969 L436.1094,747.7969 Z " fill="#000000"/><text fill="#000000" font-family="sans-serif" font-size="12" lengthAdjust="spacing" textLength="115" x="457.75" y="751.9102">TypingGameDifficulty</text><line style="stroke:#A80036;stroke-width:1.5;" x1="329.5" x2="668.5" y1="763" y2="763"/><ellipse cx="339.5" cy="774" rx="3" ry="3" style="stroke:#038048;stroke-width:1.0;fill:none;"/><text fill="#000000" font-family="sans-serif" font-size="11" lengthAdjust="spacing" textLength="29" x="348.5" y="778.4189">EASY</text><ellipse cx="339.5" cy="787.8359" rx="3" ry="3" style="stroke:#038048;stroke-width:1.0;fill:none;"/><text fill="#000000" font-family="sans-serif" font-size="11" lengthAdjust="spacing" textLength="44" x="348.5" y="792.2549">NORMAL</text><ellipse cx="339.5" cy="801.6719" rx="3" ry="3" style="stroke:#038048;stroke-width:1.0;fill:none;"/><text fill="#000000" font-family="sans-serif" font-size="11" lengthAdjust="spacing" textLength="29" x="348.5" y="806.0908">HARD</text><line style="stroke:#A80036;stroke-width:1.0;stroke-dasharray:1.0,2.0;" x1="329.5" x2="668.5" y1="812.5078" y2="812.5078"/><rect fill="none" height="6" style="stroke:#C82930;stroke-width:1.0;" width="6" x="336.5" y="820.5078"/><text fill="#000000" font-family="sans-serif" font-size="11" lengthAdjust="spacing" textLength="57" x="348.5" y="827.9268">String name</text><rect fill="none" height="6" style="stroke:#C82930;stroke-width:1.0;" width="6" x="336.5" y="834.3438"/><text fill="#000000" font-family="sans-serif" font-size="11" lengthAdjust="spacing" textLength="36" x="348.5" y="841.7627">int level</text><rect fill="none" height="6" style="stroke:#C82930;stroke-width:1.0;" width="6" x="336.5" y="848.1797"/><text fill="#000000" font-family="sans-serif" font-size="11" lengthAdjust="spacing" textLength="100" x="348.5" y="855.5986">boolean defaultLevel</text><line style="stroke:#A80036;stroke-width:1.5;" x1="329.5" x2="668.5" y1="862.0156" y2="862.0156"/><ellipse cx="339.5" cy="873.0156" fill="#84BE84" rx="3" ry="3" style="stroke:#038048;stroke-width:1.0;"/><text fill="#000000" font-family="sans-serif" font-size="11" lengthAdjust="spacing" textLength="315" x="348.5" y="877.4346">TypingGameDifficulty(String name, int level, boolean defaultLevel)</text><ellipse cx="339.5" cy="886.8516" fill="#84BE84" rx="3" ry="3" style="stroke:#038048;stroke-width:1.0;"/><text fill="#000000" font-family="sans-serif" font-size="11" lengthAdjust="spacing" text-decoration="underline" textLength="159" x="348.5" y="891.2705">TypingGameDifficulty of(int level)</text><ellipse cx="339.5" cy="900.6875" fill="#84BE84" rx="3" ry="3" style="stroke:#038048;stroke-width:1.0;"/><text fill="#000000" font-family="sans-serif" font-size="11" lengthAdjust="spacing" text-decoration="underline" textLength="162" x="348.5" y="905.1064">TypingGameDifficulty getDefault()</text><ellipse cx="339.5" cy="914.5234" fill="#84BE84" rx="3" ry="3" style="stroke:#038048;stroke-width:1.0;"/><text fill="#000000" font-family="sans-serif" font-size="11" lengthAdjust="spacing" textLength="81" x="348.5" y="918.9424">String getName()</text><ellipse cx="339.5" cy="928.3594" fill="#84BE84" rx="3" ry="3" style="stroke:#038048;stroke-width:1.0;"/><text fill="#000000" font-family="sans-serif" font-size="11" lengthAdjust="spacing" textLength="63" x="348.5" y="932.7783">int getLevel()</text><ellipse cx="339.5" cy="942.1953" fill="#84BE84" rx="3" ry="3" style="stroke:#038048;stroke-width:1.0;"/><text fill="#000000" font-family="sans-serif" font-size="11" lengthAdjust="spacing" textLength="239" x="348.5" y="946.6143">boolean lessThan(TypingGameDifficulty difficulty)</text><!--MD5=[e329a201e32f6879b6c4a5d5782241cc]
class TypingGameHistory--><rect codeLine="51" fill="#FEFECE" filter="url(#fvp23mj3wlxw8)" height="103.3438" id="TypingGameHistory" style="stroke:#A80036;stroke-width:1.5;" width="369" x="647.5" y="230"/><ellipse cx="773.75" cy="246" fill="#ADD1B2" rx="11" ry="11" style="stroke:#A80036;stroke-width:1.0;"/><path d="M776.5156,241.875 Q776.6719,241.6563 776.8594,241.5469 Q777.0469,241.4375 777.2656,241.4375 Q777.6406,241.4375 777.875,241.7031 Q778.1094,241.9531 778.1094,242.5625 L778.1094,244.0156 Q778.1094,244.625 777.875,244.8906 Q777.6406,245.1563 777.2656,245.1563 Q776.9219,245.1563 776.7188,244.9531 Q776.5156,244.7656 776.4063,244.25 Q776.3594,243.8906 776.1719,243.7031 Q775.8438,243.3281 775.2344,243.1094 Q774.625,242.8906 774,242.8906 Q773.2344,242.8906 772.5938,243.2188 Q771.9688,243.5469 771.4688,244.2969 Q770.9844,245.0469 770.9844,246.0781 L770.9844,247.1719 Q770.9844,248.4063 771.875,249.2344 Q772.7656,250.0469 774.3594,250.0469 Q775.2969,250.0469 775.9531,249.7969 Q776.3438,249.6406 776.7656,249.2031 Q777.0313,248.9375 777.1719,248.8594 Q777.3281,248.7813 777.5313,248.7813 Q777.8594,248.7813 778.1094,249.0469 Q778.375,249.2969 778.375,249.6406 Q778.375,249.9844 778.0313,250.3906 Q777.5313,250.9688 776.7344,251.2969 Q775.6563,251.75 774.3594,251.75 Q772.8438,251.75 771.6406,251.125 Q770.6563,250.625 769.9688,249.5625 Q769.2813,248.4844 769.2813,247.2031 L769.2813,246.0469 Q769.2813,244.7188 769.8906,243.5781 Q770.5156,242.4219 771.6094,241.8125 Q772.7031,241.1875 773.9375,241.1875 Q774.6719,241.1875 775.3125,241.3594 Q775.9688,241.5156 776.5156,241.875 Z " fill="#000000"/><text fill="#000000" font-family="sans-serif" font-size="12" lengthAdjust="spacing" textLength="108" x="794.25" y="250.9102">TypingGameHistory</text><line style="stroke:#A80036;stroke-width:1.5;" x1="648.5" x2="1015.5" y1="262" y2="262"/><rect fill="none" height="6" style="stroke:#C82930;stroke-width:1.0;" width="6" x="655.5" y="270"/><text fill="#000000" font-family="sans-serif" font-size="11" lengthAdjust="spacing" textLength="155" x="667.5" y="277.4189">List&lt;TypingGame&gt; typingGames</text><line style="stroke:#A80036;stroke-width:1.5;" x1="648.5" x2="1015.5" y1="283.8359" y2="283.8359"/><ellipse cx="658.5" cy="294.8359" fill="#84BE84" rx="3" ry="3" style="stroke:#038048;stroke-width:1.0;"/><text fill="#000000" font-family="sans-serif" font-size="11" lengthAdjust="spacing" textLength="169" x="667.5" y="299.2549">void add(TypingGame typingGame)</text><ellipse cx="658.5" cy="308.6719" fill="#84BE84" rx="3" ry="3" style="stroke:#038048;stroke-width:1.0;"/><text fill="#000000" font-family="sans-serif" font-size="11" lengthAdjust="spacing" textLength="343" x="667.5" y="313.0908">List&lt;TypingGame&gt; sortedTypingGames(TypingGameDifficulty difficulty)</text><rect fill="#F24D5C" height="6" style="stroke:#C82930;stroke-width:1.0;" width="6" x="655.5" y="319.5078"/><text fill="#000000" font-family="sans-serif" font-size="11" lengthAdjust="spacing" textLength="327" x="667.5" y="326.9268">List&lt;TypingGame&gt; getTypingGames(TypingGameDifficulty difficulty)</text><!--MD5=[7a83da4f2de9d37a940211961c6e4279]
class TypingGameFactory--><rect codeLine="58" fill="#FEFECE" filter="url(#fvp23mj3wlxw8)" height="61.8359" id="TypingGameFactory" style="stroke:#A80036;stroke-width:1.5;" width="286" x="326" y="250.5"/><ellipse cx="410.25" cy="266.5" fill="#ADD1B2" rx="11" ry="11" style="stroke:#A80036;stroke-width:1.0;"/><path d="M413.0156,262.375 Q413.1719,262.1563 413.3594,262.0469 Q413.5469,261.9375 413.7656,261.9375 Q414.1406,261.9375 414.375,262.2031 Q414.6094,262.4531 414.6094,263.0625 L414.6094,264.5156 Q414.6094,265.125 414.375,265.3906 Q414.1406,265.6563 413.7656,265.6563 Q413.4219,265.6563 413.2188,265.4531 Q413.0156,265.2656 412.9063,264.75 Q412.8594,264.3906 412.6719,264.2031 Q412.3438,263.8281 411.7344,263.6094 Q411.125,263.3906 410.5,263.3906 Q409.7344,263.3906 409.0938,263.7188 Q408.4688,264.0469 407.9688,264.7969 Q407.4844,265.5469 407.4844,266.5781 L407.4844,267.6719 Q407.4844,268.9063 408.375,269.7344 Q409.2656,270.5469 410.8594,270.5469 Q411.7969,270.5469 412.4531,270.2969 Q412.8438,270.1406 413.2656,269.7031 Q413.5313,269.4375 413.6719,269.3594 Q413.8281,269.2813 414.0313,269.2813 Q414.3594,269.2813 414.6094,269.5469 Q414.875,269.7969 414.875,270.1406 Q414.875,270.4844 414.5313,270.8906 Q414.0313,271.4688 413.2344,271.7969 Q412.1563,272.25 410.8594,272.25 Q409.3438,272.25 408.1406,271.625 Q407.1563,271.125 406.4688,270.0625 Q405.7813,268.9844 405.7813,267.7031 L405.7813,266.5469 Q405.7813,265.2188 406.3906,264.0781 Q407.0156,262.9219 408.1094,262.3125 Q409.2031,261.6875 410.4375,261.6875 Q411.1719,261.6875 411.8125,261.8594 Q412.4688,262.0156 413.0156,262.375 Z " fill="#000000"/><text fill="#000000" font-family="sans-serif" font-size="12" lengthAdjust="spacing" textLength="109" x="430.75" y="271.4102">TypingGameFactory</text><line style="stroke:#A80036;stroke-width:1.5;" x1="327" x2="611" y1="282.5" y2="282.5"/><line style="stroke:#A80036;stroke-width:1.5;" x1="327" x2="611" y1="290.5" y2="290.5"/><ellipse cx="337" cy="301.5" fill="#84BE84" rx="3" ry="3" style="stroke:#038048;stroke-width:1.0;"/><text fill="#000000" font-family="sans-serif" font-size="11" lengthAdjust="spacing" text-decoration="underline" textLength="260" x="346" y="305.9189">TypingGame generate(TypingGameDifficulty difficulty)</text><!--MD5=[fc7123defb831ecdd44b2d9bcef6cceb]
class Question--><rect codeLine="62" fill="#FEFECE" filter="url(#fvp23mj3wlxw8)" height="103.3438" id="Question" style="stroke:#A80036;stroke-width:1.5;" width="286" x="7" y="790.5"/><ellipse cx="120.75" cy="806.5" fill="#ADD1B2" rx="11" ry="11" style="stroke:#A80036;stroke-width:1.0;"/><path d="M123.5156,802.375 Q123.6719,802.1563 123.8594,802.0469 Q124.0469,801.9375 124.2656,801.9375 Q124.6406,801.9375 124.875,802.2031 Q125.1094,802.4531 125.1094,803.0625 L125.1094,804.5156 Q125.1094,805.125 124.875,805.3906 Q124.6406,805.6563 124.2656,805.6563 Q123.9219,805.6563 123.7188,805.4531 Q123.5156,805.2656 123.4063,804.75 Q123.3594,804.3906 123.1719,804.2031 Q122.8438,803.8281 122.2344,803.6094 Q121.625,803.3906 121,803.3906 Q120.2344,803.3906 119.5938,803.7188 Q118.9688,804.0469 118.4688,804.7969 Q117.9844,805.5469 117.9844,806.5781 L117.9844,807.6719 Q117.9844,808.9063 118.875,809.7344 Q119.7656,810.5469 121.3594,810.5469 Q122.2969,810.5469 122.9531,810.2969 Q123.3438,810.1406 123.7656,809.7031 Q124.0313,809.4375 124.1719,809.3594 Q124.3281,809.2813 124.5313,809.2813 Q124.8594,809.2813 125.1094,809.5469 Q125.375,809.7969 125.375,810.1406 Q125.375,810.4844 125.0313,810.8906 Q124.5313,811.4688 123.7344,811.7969 Q122.6563,812.25 121.3594,812.25 Q119.8438,812.25 118.6406,811.625 Q117.6563,811.125 116.9688,810.0625 Q116.2813,808.9844 116.2813,807.7031 L116.2813,806.5469 Q116.2813,805.2188 116.8906,804.0781 Q117.5156,802.9219 118.6094,802.3125 Q119.7031,801.6875 120.9375,801.6875 Q121.6719,801.6875 122.3125,801.8594 Q122.9688,802.0156 123.5156,802.375 Z " fill="#000000"/><text fill="#000000" font-family="sans-serif" font-size="12" lengthAdjust="spacing" textLength="50" x="141.25" y="811.4102">Question</text><line style="stroke:#A80036;stroke-width:1.5;" x1="8" x2="292" y1="822.5" y2="822.5"/><rect fill="none" height="6" style="stroke:#C82930;stroke-width:1.0;" width="6" x="15" y="830.5"/><text fill="#000000" font-family="sans-serif" font-size="11" lengthAdjust="spacing" textLength="57" x="27" y="837.9189">String word</text><rect fill="none" height="6" style="stroke:#C82930;stroke-width:1.0;" width="6" x="15" y="844.3359"/><text fill="#000000" font-family="sans-serif" font-size="11" lengthAdjust="spacing" textLength="146" x="27" y="851.7549">TypingGameDifficulty difficulty</text><line style="stroke:#A80036;stroke-width:1.5;" x1="8" x2="292" y1="858.1719" y2="858.1719"/><ellipse cx="18" cy="869.1719" fill="#84BE84" rx="3" ry="3" style="stroke:#038048;stroke-width:1.0;"/><text fill="#000000" font-family="sans-serif" font-size="11" lengthAdjust="spacing" textLength="260" x="27" y="873.5908">Question(String word, TypingGameDifficulty difficulty)</text><ellipse cx="18" cy="883.0078" fill="#84BE84" rx="3" ry="3" style="stroke:#038048;stroke-width:1.0;"/><text fill="#000000" font-family="sans-serif" font-size="11" lengthAdjust="spacing" textLength="80" x="27" y="887.4268">String getWord()</text><!--MD5=[9c6dfb49ef2184b6b517c171c5d8a863]
class QuestionResult--><rect codeLine="69" fill="#FFC0CB" filter="url(#fvp23mj3wlxw8)" height="144.8516" id="QuestionResult" style="stroke:#A80036;stroke-width:1.5;" width="342" x="705" y="769.5"/><ellipse cx="828.75" cy="785.5" fill="#ADD1B2" rx="11" ry="11" style="stroke:#A80036;stroke-width:1.0;"/><path d="M831.5156,781.375 Q831.6719,781.1563 831.8594,781.0469 Q832.0469,780.9375 832.2656,780.9375 Q832.6406,780.9375 832.875,781.2031 Q833.1094,781.4531 833.1094,782.0625 L833.1094,783.5156 Q833.1094,784.125 832.875,784.3906 Q832.6406,784.6563 832.2656,784.6563 Q831.9219,784.6563 831.7188,784.4531 Q831.5156,784.2656 831.4063,783.75 Q831.3594,783.3906 831.1719,783.2031 Q830.8438,782.8281 830.2344,782.6094 Q829.625,782.3906 829,782.3906 Q828.2344,782.3906 827.5938,782.7188 Q826.9688,783.0469 826.4688,783.7969 Q825.9844,784.5469 825.9844,785.5781 L825.9844,786.6719 Q825.9844,787.9063 826.875,788.7344 Q827.7656,789.5469 829.3594,789.5469 Q830.2969,789.5469 830.9531,789.2969 Q831.3438,789.1406 831.7656,788.7031 Q832.0313,788.4375 832.1719,788.3594 Q832.3281,788.2813 832.5313,788.2813 Q832.8594,788.2813 833.1094,788.5469 Q833.375,788.7969 833.375,789.1406 Q833.375,789.4844 833.0313,789.8906 Q832.5313,790.4688 831.7344,790.7969 Q830.6563,791.25 829.3594,791.25 Q827.8438,791.25 826.6406,790.625 Q825.6563,790.125 824.9688,789.0625 Q824.2813,787.9844 824.2813,786.7031 L824.2813,785.5469 Q824.2813,784.2188 824.8906,783.0781 Q825.5156,781.9219 826.6094,781.3125 Q827.7031,780.6875 828.9375,780.6875 Q829.6719,780.6875 830.3125,780.8594 Q830.9688,781.0156 831.5156,781.375 Z " fill="#000000"/><text fill="#000000" font-family="sans-serif" font-size="12" lengthAdjust="spacing" textLength="86" x="849.25" y="790.4102">QuestionResult</text><line style="stroke:#A80036;stroke-width:1.5;" x1="706" x2="1046" y1="801.5" y2="801.5"/><rect fill="none" height="6" style="stroke:#C82930;stroke-width:1.0;" width="6" x="713" y="809.5"/><text fill="#000000" font-family="sans-serif" font-size="11" lengthAdjust="spacing" textLength="87" x="725" y="816.9189">Question question</text><rect fill="none" height="6" style="stroke:#C82930;stroke-width:1.0;" width="6" x="713" y="823.3359"/><text fill="#000000" font-family="sans-serif" font-size="11" lengthAdjust="spacing" textLength="69" x="725" y="830.7549">String answer</text><rect fill="none" height="6" style="stroke:#C82930;stroke-width:1.0;" width="6" x="713" y="837.1719"/><text fill="#000000" font-family="sans-serif" font-size="11" lengthAdjust="spacing" textLength="67" x="725" y="844.5908">boolean judge</text><line style="stroke:#A80036;stroke-width:1.5;" x1="706" x2="1046" y1="851.0078" y2="851.0078"/><ellipse cx="716" cy="862.0078" fill="#84BE84" rx="3" ry="3" style="stroke:#038048;stroke-width:1.0;"/><text fill="#000000" font-family="sans-serif" font-size="11" lengthAdjust="spacing" textLength="316" x="725" y="866.4268">QuestionResult(Question question, String answer, boolean judge)</text><ellipse cx="716" cy="875.8438" fill="#84BE84" rx="3" ry="3" style="stroke:#038048;stroke-width:1.0;"/><text fill="#000000" font-family="sans-serif" font-size="11" lengthAdjust="spacing" textLength="112" x="725" y="880.2627">Question getQuestion()</text><ellipse cx="716" cy="889.6797" fill="#84BE84" rx="3" ry="3" style="stroke:#038048;stroke-width:1.0;"/><text fill="#000000" font-family="sans-serif" font-size="11" lengthAdjust="spacing" textLength="94" x="725" y="894.0986">String getAnswer()</text><ellipse cx="716" cy="903.5156" fill="#84BE84" rx="3" ry="3" style="stroke:#038048;stroke-width:1.0;"/><text fill="#000000" font-family="sans-serif" font-size="11" lengthAdjust="spacing" textLength="86" x="725" y="907.9346">boolean isJudge()</text><!--MD5=[3665cc8380533de798edf75be7f81b43]
class QuestionFactory--><rect codeLine="79" fill="#FEFECE" filter="url(#fvp23mj3wlxw8)" height="75.6719" id="QuestionFactory" style="stroke:#A80036;stroke-width:1.5;" width="327" x="152.5" y="494"/><ellipse cx="267.25" cy="510" fill="#ADD1B2" rx="11" ry="11" style="stroke:#A80036;stroke-width:1.0;"/><path d="M270.0156,505.875 Q270.1719,505.6563 270.3594,505.5469 Q270.5469,505.4375 270.7656,505.4375 Q271.1406,505.4375 271.375,505.7031 Q271.6094,505.9531 271.6094,506.5625 L271.6094,508.0156 Q271.6094,508.625 271.375,508.8906 Q271.1406,509.1563 270.7656,509.1563 Q270.4219,509.1563 270.2188,508.9531 Q270.0156,508.7656 269.9063,508.25 Q269.8594,507.8906 269.6719,507.7031 Q269.3438,507.3281 268.7344,507.1094 Q268.125,506.8906 267.5,506.8906 Q266.7344,506.8906 266.0938,507.2188 Q265.4688,507.5469 264.9688,508.2969 Q264.4844,509.0469 264.4844,510.0781 L264.4844,511.1719 Q264.4844,512.4063 265.375,513.2344 Q266.2656,514.0469 267.8594,514.0469 Q268.7969,514.0469 269.4531,513.7969 Q269.8438,513.6406 270.2656,513.2031 Q270.5313,512.9375 270.6719,512.8594 Q270.8281,512.7813 271.0313,512.7813 Q271.3594,512.7813 271.6094,513.0469 Q271.875,513.2969 271.875,513.6406 Q271.875,513.9844 271.5313,514.3906 Q271.0313,514.9688 270.2344,515.2969 Q269.1563,515.75 267.8594,515.75 Q266.3438,515.75 265.1406,515.125 Q264.1563,514.625 263.4688,513.5625 Q262.7813,512.4844 262.7813,511.2031 L262.7813,510.0469 Q262.7813,508.7188 263.3906,507.5781 Q264.0156,506.4219 265.1094,505.8125 Q266.2031,505.1875 267.4375,505.1875 Q268.1719,505.1875 268.8125,505.3594 Q269.4688,505.5156 270.0156,505.875 Z " fill="#000000"/><text fill="#000000" font-family="sans-serif" font-size="12" lengthAdjust="spacing" textLength="89" x="287.75" y="514.9102">QuestionFactory</text><line style="stroke:#A80036;stroke-width:1.5;" x1="153.5" x2="478.5" y1="526" y2="526"/><line style="stroke:#A80036;stroke-width:1.5;" x1="153.5" x2="478.5" y1="534" y2="534"/><ellipse cx="163.5" cy="545" fill="#84BE84" rx="3" ry="3" style="stroke:#038048;stroke-width:1.0;"/><text fill="#000000" font-family="sans-serif" font-size="11" lengthAdjust="spacing" textLength="301" x="172.5" y="549.4189">static List&lt;Question&gt; generate(TypingGameDifficulty difficulty)</text><rect fill="#F24D5C" height="6" style="stroke:#C82930;stroke-width:1.0;" width="6" x="160.5" y="555.8359"/><text fill="#000000" font-family="sans-serif" font-size="11" lengthAdjust="spacing" textLength="155" x="172.5" y="563.2549">static List&lt;Question&gt; generate()</text><!--MD5=[f4abfe78a2e927cf2e914f071f8f9453]
class StandardInputReader--><rect codeLine="84" fill="#FEFECE" filter="url(#fvp23mj3wlxw8)" height="48" id="StandardInputReader" style="stroke:#A80036;stroke-width:1.5;" width="150" x="1082" y="818"/><ellipse cx="1097" cy="834" fill="#ADD1B2" rx="11" ry="11" style="stroke:#A80036;stroke-width:1.0;"/><path d="M1099.7656,829.875 Q1099.9219,829.6563 1100.1094,829.5469 Q1100.2969,829.4375 1100.5156,829.4375 Q1100.8906,829.4375 1101.125,829.7031 Q1101.3594,829.9531 1101.3594,830.5625 L1101.3594,832.0156 Q1101.3594,832.625 1101.125,832.8906 Q1100.8906,833.1563 1100.5156,833.1563 Q1100.1719,833.1563 1099.9688,832.9531 Q1099.7656,832.7656 1099.6563,832.25 Q1099.6094,831.8906 1099.4219,831.7031 Q1099.0938,831.3281 1098.4844,831.1094 Q1097.875,830.8906 1097.25,830.8906 Q1096.4844,830.8906 1095.8438,831.2188 Q1095.2188,831.5469 1094.7188,832.2969 Q1094.2344,833.0469 1094.2344,834.0781 L1094.2344,835.1719 Q1094.2344,836.4063 1095.125,837.2344 Q1096.0156,838.0469 1097.6094,838.0469 Q1098.5469,838.0469 1099.2031,837.7969 Q1099.5938,837.6406 1100.0156,837.2031 Q1100.2813,836.9375 1100.4219,836.8594 Q1100.5781,836.7813 1100.7813,836.7813 Q1101.1094,836.7813 1101.3594,837.0469 Q1101.625,837.2969 1101.625,837.6406 Q1101.625,837.9844 1101.2813,838.3906 Q1100.7813,838.9688 1099.9844,839.2969 Q1098.9063,839.75 1097.6094,839.75 Q1096.0938,839.75 1094.8906,839.125 Q1093.9063,838.625 1093.2188,837.5625 Q1092.5313,836.4844 1092.5313,835.2031 L1092.5313,834.0469 Q1092.5313,832.7188 1093.1406,831.5781 Q1093.7656,830.4219 1094.8594,829.8125 Q1095.9531,829.1875 1097.1875,829.1875 Q1097.9219,829.1875 1098.5625,829.3594 Q1099.2188,829.5156 1099.7656,829.875 Z " fill="#000000"/><text fill="#000000" font-family="sans-serif" font-size="12" lengthAdjust="spacing" textLength="118" x="1111" y="838.9102">StandardInputReader</text><line style="stroke:#A80036;stroke-width:1.5;" x1="1083" x2="1231" y1="850" y2="850"/><line style="stroke:#A80036;stroke-width:1.5;" x1="1083" x2="1231" y1="858" y2="858"/><!--MD5=[cdad5fc734b30a951aa3a1cbfbedd928]
link Main to TypingGameFactory--><path codeLine="86" d="M742.41,152.14 C670.43,185.93 588.41,224.44 533.14,250.39 " fill="none" id="Main-TypingGameFactory" style="stroke:#A80036;stroke-width:1.0;"/><polygon fill="#000000" points="670.474,193.3007,679.9106,192.117,677.4126,186.7964,670.474,193.3007" style="stroke:#000000;stroke-width:1.0;"/><text fill="#000000" font-family="sans-serif" font-size="13" lengthAdjust="spacing" textLength="21" x="684" y="196.4951">use</text><!--MD5=[46e4fb36301fa5a2d7cd7a2bf92e51ea]
link Main to StandardInputReader--><path codeLine="87" d="M976.54,152.14 C998.18,175.01 1019.53,201.78 1034,230 C1141.39,439.42 1155.09,734.03 1156.78,817.91 " fill="none" id="Main-StandardInputReader" style="stroke:#A80036;stroke-width:1.0;"/><polygon fill="#000000" points="1097.3066,377.002,1097.7798,367.5033,1092.1061,369.0392,1097.3066,377.002" style="stroke:#000000;stroke-width:1.0;"/><text fill="#000000" font-family="sans-serif" font-size="13" lengthAdjust="spacing" textLength="21" x="1105" y="377.4951">use</text><!--MD5=[29950e6704daaa6cb4d0465601d39189]
link TypingGameFactory to QuestionFactory--><path codeLine="89" d="M450.24,312.97 C422.15,358.59 369.24,444.54 338.91,493.8 " fill="none" id="TypingGameFactory-QuestionFactory" style="stroke:#A80036;stroke-width:1.0;"/><polygon fill="#000000" points="418.3787,376.4335,425.6234,370.272,420.6181,367.1904,418.3787,376.4335" style="stroke:#000000;stroke-width:1.0;"/><text fill="#000000" font-family="sans-serif" font-size="13" lengthAdjust="spacing" textLength="21" x="430" y="377.4951">use</text><!--MD5=[34053be3dab4592b4a82eb1e2fe8c8dd]
link TypingGameFactory to TypingGame--><path codeLine="91" d="M507.68,312.72 C539.46,337.56 586.68,374.46 633.3,410.89 " fill="none" id="TypingGameFactory-TypingGame" style="stroke:#A80036;stroke-width:1.0;"/><polygon fill="#000000" points="599.9397,375.2546,594.6224,367.3693,591.0031,372.0007,599.9397,375.2546" style="stroke:#000000;stroke-width:1.0;"/><text fill="#000000" font-family="sans-serif" font-size="13" lengthAdjust="spacing" textLength="50" x="605" y="377.4951">generate</text><!--MD5=[7b87940b4301618cade711b02849d6e8]
link QuestionFactory to Question--><path codeLine="93" d="M295.98,570.15 C266.31,625.19 210.61,728.54 177.25,790.43 " fill="none" id="QuestionFactory-Question" style="stroke:#A80036;stroke-width:1.0;"/><polygon fill="#000000" points="235.6277,696.5772,242.5063,690.0094,237.3322,687.2206,235.6277,696.5772" style="stroke:#000000;stroke-width:1.0;"/><text fill="#000000" font-family="sans-serif" font-size="13" lengthAdjust="spacing" textLength="50" x="247" y="697.4951">generate</text><!--MD5=[2f163435dbb70469cf58f8a42310b871]
link TypingGameHistory to TypingGame--><path codeLine="95" d="M822.84,333.09 C819,354.31 814.34,380.01 809.68,405.78 " fill="none" id="TypingGameHistory-to-TypingGame" style="stroke:#A80036;stroke-width:1.0;"/><polygon fill="#A80036" points="808.74,410.93,814.2688,402.7794,809.6244,406.0088,806.395,401.3644,808.74,410.93" style="stroke:#A80036;stroke-width:1.0;"/><!--MD5=[44da462e0e37ec5b4424557f44052c2f]
link TypingGame to TypingGameDifficulty--><path codeLine="96" d="M674.41,653.4 C651.8,677.59 628.1,702.93 605.7,726.89 " fill="none" id="TypingGame-to-TypingGameDifficulty" style="stroke:#A80036;stroke-width:1.0;"/><polygon fill="#A80036" points="602.11,730.73,611.1756,726.881,605.5221,727.0752,605.3279,721.4217,602.11,730.73" style="stroke:#A80036;stroke-width:1.0;"/><!--MD5=[8e357755c5ee833ed7c109bc7d6b71d2]
link TypingGame to Question--><path codeLine="97" d="M602.89,609.33 C470.5,664.27 314.61,729.04 311,731 C280.63,747.46 248.89,768.28 221.7,787.36 " fill="none" id="TypingGame-to-Question" style="stroke:#A80036;stroke-width:1.0;"/><polygon fill="#A80036" points="217.38,790.41,227.0434,788.5076,221.4708,787.535,222.4434,781.9624,217.38,790.41" style="stroke:#A80036;stroke-width:1.0;"/><!--MD5=[4e9345365ffcc7cc56576d252551d836]
link TypingGame to QuestionResult--><path codeLine="98" d="M821.79,653.4 C832.57,690.71 844.15,730.79 853.83,764.28 " fill="none" id="TypingGame-to-QuestionResult" style="stroke:#A80036;stroke-width:1.0;"/><polygon fill="#A80036" points="855.24,769.17,856.5945,759.4147,853.857,764.3651,848.9066,761.6276,855.24,769.17" style="stroke:#A80036;stroke-width:1.0;"/><!--MD5=[f65d15c8ba6c2231aac319e9c218394b]
link TypingGame to StandardInputReader--><path codeLine="99" d="M969.82,653.05 C1002.68,677.43 1035.75,703.94 1065,731 C1094.24,758.05 1122.87,794.26 1140.23,817.61 " fill="none" id="TypingGame-StandardInputReader" style="stroke:#A80036;stroke-width:1.0;"/><polygon fill="#000000" points="1038.5967,695.649,1034.1317,687.2518,1030.0487,691.48,1038.5967,695.649" style="stroke:#000000;stroke-width:1.0;"/><text fill="#000000" font-family="sans-serif" font-size="13" lengthAdjust="spacing" textLength="21" x="1044" y="697.4951">use</text><!--MD5=[48814a7fefb19b7b9278f803e1bc5bc2]
@startuml 04_display_question_history

note as note_main
  背景がピンク：新規に作成したクラス
  背景がオレンジ：修正したクラス
end note

class Main #Orange {
  + {static} main()
  - {static} TypingGameDifficulty displayInputDifficulty()
  - {static} void displayCountDown()
  - {static} void displayResult(TypingGame typingGame)
  - {static} void displayRanking(TypingGameHistory typingGameHistory, TypingGameDifficulty difficulty)
  - {static} boolean displayInputRetry()
  - {static} static int getInputInt(int defaultValue)
}

class TypingGame #Orange {
  - TypingGameDifficulty difficulty
  - List<Question> questions
  - List<QuestionResult> results
  - ZonedDateTime startTime
  - ZonedDateTime endTime
  - Question prevQuestion
  + TypingGame(TypingGameDifficulty difficulty, List<Question> questions)
  + void execute()
  + List<QuestionResult> getResults()
  + long getTimeToCalculate()
  + boolean isSameDifficulty(TypingGameDifficulty difficulty)
  + int getNumberOfQuestions()
  - Question getNextQuestion()
  - String toString()
}

enum TypingGameDifficulty {
  + EASY
  + NORMAL
  + HARD
  ..
  - String name
  - int level
  - boolean defaultLevel
  __
  + TypingGameDifficulty(String name, int level, boolean defaultLevel)
  + {static} TypingGameDifficulty of(int level)
  + {static} TypingGameDifficulty getDefault()
  + String getName()
  + int getLevel()
  + boolean lessThan(TypingGameDifficulty difficulty)
}

class TypingGameHistory {
  - List<TypingGame> typingGames
  + void add(TypingGame typingGame)
  + List<TypingGame> sortedTypingGames(TypingGameDifficulty difficulty)
  - List<TypingGame> getTypingGames(TypingGameDifficulty difficulty)
}

class TypingGameFactory {
  + {static} TypingGame generate(TypingGameDifficulty difficulty)
}

class Question {
  - String word
  - TypingGameDifficulty difficulty
  + Question(String word, TypingGameDifficulty difficulty)
  + String getWord()
}

class QuestionResult #Pink {
  - Question question
  - String answer
  - boolean judge
  + QuestionResult(Question question, String answer, boolean judge)
  + Question getQuestion()
  + String getAnswer()
  + boolean isJudge()
}

class QuestionFactory {
  + static List<Question> generate(TypingGameDifficulty difficulty)
  - static List<Question> generate()
}

class StandardInputReader {}

Main - - TypingGameFactory : use >
Main - - StandardInputReader : use >

TypingGameFactory - - QuestionFactory : use >

TypingGameFactory - - TypingGame : generate >

QuestionFactory - - Question : generate >

TypingGameHistory - -> TypingGame
TypingGame - -> TypingGameDifficulty
TypingGame - -> Question
TypingGame - -> QuestionResult
TypingGame - - StandardInputReader : use >

@enduml

PlantUML version 1.2022.0(Wed Jan 12 01:16:42 JST 2022)
(GPL source distribution)
Java Runtime: OpenJDK Runtime Environment
JVM: OpenJDK 64-Bit Server VM
Default Encoding: UTF-8
Language: ja
Country: JP
--></g></svg>