<?xml version="1.0" encoding="UTF-8" standalone="no"?><svg xmlns="http://www.w3.org/2000/svg" xmlns:xlink="http://www.w3.org/1999/xlink" contentScriptType="application/ecmascript" contentStyleType="text/css" height="1246px" preserveAspectRatio="none" style="width:2622px;height:1246px;background:#FFFFFF;" version="1.1" viewBox="0 0 2622 1246" width="2622px" zoomAndPan="magnify"><defs><filter height="300%" id="f15abkuaw14a4h" width="300%" x="-1" y="-1"><feGaussianBlur result="blurOut" stdDeviation="2.0"/><feColorMatrix in="blurOut" result="blurOut2" type="matrix" values="0 0 0 0 0 0 0 0 0 0 0 0 0 0 0 0 0 0 .4 0"/><feOffset dx="4.0" dy="4.0" in="blurOut2" result="blurOut3"/><feBlend in="SourceGraphic" in2="blurOut3" mode="normal"/></filter></defs><g><!--MD5=[3e40ca210742478abcfff4771cfda9c4]
cluster business--><polygon fill="#FFFFFF" filter="url(#f15abkuaw14a4h)" points="16,6,86,6,93,29.6094,1546,29.6094,1546,1228,16,1228,16,6" style="stroke:#000000;stroke-width:1.5;"/><line style="stroke:#000000;stroke-width:1.5;" x1="16" x2="93" y1="29.6094" y2="29.6094"/><text fill="#000000" font-family="sans-serif" font-size="14" font-weight="bold" lengthAdjust="spacing" textLength="64" x="20" y="22.5332">business</text><!--MD5=[64e2e010ba86d7988e5cd73bd64f61f9]
cluster ui--><polygon fill="#FFFFFF" filter="url(#f15abkuaw14a4h)" points="1570,902,1589,902,1596,925.6094,2496,925.6094,2496,1239,1570,1239,1570,902" style="stroke:#000000;stroke-width:1.5;"/><line style="stroke:#000000;stroke-width:1.5;" x1="1570" x2="1596" y1="925.6094" y2="925.6094"/><text fill="#000000" font-family="sans-serif" font-size="14" font-weight="bold" lengthAdjust="spacing" textLength="13" x="1574" y="918.5332">ui</text><!--MD5=[738c7c2ff5aeb58de2a1e5f3ac886fb6]
class TypingGame--><rect codeLine="12" fill="#FFA500" filter="url(#f15abkuaw14a4h)" height="227.8672" id="TypingGame" style="stroke:#A80036;stroke-width:1.5;" width="553" x="758.5" y="327"/><ellipse cx="995.75" cy="343" fill="#ADD1B2" rx="11" ry="11" style="stroke:#A80036;stroke-width:1.0;"/><path d="M998.5156,338.875 Q998.6719,338.6563 998.8594,338.5469 Q999.0469,338.4375 999.2656,338.4375 Q999.6406,338.4375 999.875,338.7031 Q1000.1094,338.9531 1000.1094,339.5625 L1000.1094,341.0156 Q1000.1094,341.625 999.875,341.8906 Q999.6406,342.1563 999.2656,342.1563 Q998.9219,342.1563 998.7188,341.9531 Q998.5156,341.7656 998.4063,341.25 Q998.3594,340.8906 998.1719,340.7031 Q997.8438,340.3281 997.2344,340.1094 Q996.625,339.8906 996,339.8906 Q995.2344,339.8906 994.5938,340.2188 Q993.9688,340.5469 993.4688,341.2969 Q992.9844,342.0469 992.9844,343.0781 L992.9844,344.1719 Q992.9844,345.4063 993.875,346.2344 Q994.7656,347.0469 996.3594,347.0469 Q997.2969,347.0469 997.9531,346.7969 Q998.3438,346.6406 998.7656,346.2031 Q999.0313,345.9375 999.1719,345.8594 Q999.3281,345.7813 999.5313,345.7813 Q999.8594,345.7813 1000.1094,346.0469 Q1000.375,346.2969 1000.375,346.6406 Q1000.375,346.9844 1000.0313,347.3906 Q999.5313,347.9688 998.7344,348.2969 Q997.6563,348.75 996.3594,348.75 Q994.8438,348.75 993.6406,348.125 Q992.6563,347.625 991.9688,346.5625 Q991.2813,345.4844 991.2813,344.2031 L991.2813,343.0469 Q991.2813,341.7188 991.8906,340.5781 Q992.5156,339.4219 993.6094,338.8125 Q994.7031,338.1875 995.9375,338.1875 Q996.6719,338.1875 997.3125,338.3594 Q997.9688,338.5156 998.5156,338.875 Z " fill="#000000"/><text fill="#000000" font-family="sans-serif" font-size="12" lengthAdjust="spacing" textLength="70" x="1016.25" y="347.9102">TypingGame</text><line style="stroke:#A80036;stroke-width:1.5;" x1="759.5" x2="1310.5" y1="359" y2="359"/><rect fill="none" height="6" style="stroke:#C82930;stroke-width:1.0;" width="6" x="766.5" y="367"/><text fill="#000000" font-family="sans-serif" font-size="11" lengthAdjust="spacing" textLength="146" x="778.5" y="374.4189">TypingGameDifficulty difficulty</text><rect fill="none" height="6" style="stroke:#C82930;stroke-width:1.0;" width="6" x="766.5" y="380.8359"/><text fill="#000000" font-family="sans-serif" font-size="11" lengthAdjust="spacing" textLength="137" x="778.5" y="388.2549">TypingGameListener listener</text><rect fill="none" height="6" style="stroke:#C82930;stroke-width:1.0;" width="6" x="766.5" y="394.6719"/><text fill="#000000" font-family="sans-serif" font-size="11" lengthAdjust="spacing" textLength="164" x="778.5" y="402.0908">NextQuestionGenerator generator</text><rect fill="none" height="6" style="stroke:#C82930;stroke-width:1.0;" width="6" x="766.5" y="408.5078"/><text fill="#000000" font-family="sans-serif" font-size="11" lengthAdjust="spacing" textLength="138" x="778.5" y="415.9268">List&lt;QuestionResult&gt; results</text><rect fill="none" height="6" style="stroke:#C82930;stroke-width:1.0;" width="6" x="766.5" y="422.3438"/><text fill="#000000" font-family="sans-serif" font-size="11" lengthAdjust="spacing" textLength="122" x="778.5" y="429.7627">ZonedDateTime startTime</text><rect fill="none" height="6" style="stroke:#C82930;stroke-width:1.0;" width="6" x="766.5" y="436.1797"/><text fill="#000000" font-family="sans-serif" font-size="11" lengthAdjust="spacing" textLength="118" x="778.5" y="443.5986">ZonedDateTime endTime</text><line style="stroke:#A80036;stroke-width:1.5;" x1="759.5" x2="1310.5" y1="450.0156" y2="450.0156"/><ellipse cx="769.5" cy="461.0156" fill="#84BE84" rx="3" ry="3" style="stroke:#038048;stroke-width:1.0;"/><text fill="#000000" font-family="sans-serif" font-size="11" lengthAdjust="spacing" textLength="527" x="778.5" y="465.4346">TypingGame(TypingGameDifficulty difficulty, TypingGameListener listener, NextQuestionGenerator generator)</text><ellipse cx="769.5" cy="474.8516" fill="#84BE84" rx="3" ry="3" style="stroke:#038048;stroke-width:1.0;"/><text fill="#000000" font-family="sans-serif" font-size="11" lengthAdjust="spacing" textLength="70" x="778.5" y="479.2705">void execute()</text><ellipse cx="769.5" cy="488.6875" fill="#84BE84" rx="3" ry="3" style="stroke:#038048;stroke-width:1.0;"/><text fill="#000000" font-family="sans-serif" font-size="11" lengthAdjust="spacing" textLength="164" x="778.5" y="493.1064">List&lt;QuestionResult&gt; getResults()</text><ellipse cx="769.5" cy="502.5234" fill="#84BE84" rx="3" ry="3" style="stroke:#038048;stroke-width:1.0;"/><text fill="#000000" font-family="sans-serif" font-size="11" lengthAdjust="spacing" textLength="124" x="778.5" y="506.9424">long getTimeToCalculate()</text><ellipse cx="769.5" cy="516.3594" fill="#84BE84" rx="3" ry="3" style="stroke:#038048;stroke-width:1.0;"/><text fill="#000000" font-family="sans-serif" font-size="11" lengthAdjust="spacing" textLength="272" x="778.5" y="520.7783">boolean isSameDifficulty(TypingGameDifficulty difficulty)</text><ellipse cx="769.5" cy="530.1953" fill="#84BE84" rx="3" ry="3" style="stroke:#038048;stroke-width:1.0;"/><text fill="#000000" font-family="sans-serif" font-size="11" lengthAdjust="spacing" textLength="135" x="778.5" y="534.6143">int getNumberOfQuestions()</text><rect fill="#F24D5C" height="6" style="stroke:#C82930;stroke-width:1.0;" width="6" x="766.5" y="541.0313"/><text fill="#000000" font-family="sans-serif" font-size="11" lengthAdjust="spacing" textLength="76" x="778.5" y="548.4502">String toString()</text><path d="M628.5,176 L628.5,218.7031 A0,0 0 0 0 628.5,218.7031 L886.47,218.7031 L960.96,326.83 L894.47,218.7031 L1125.5,218.7031 A0,0 0 0 0 1125.5,218.7031 L1125.5,186 L1115.5,176 L628.5,176 A0,0 0 0 0 628.5,176 " fill="#FBFB77" filter="url(#f15abkuaw14a4h)" style="stroke:#A80036;stroke-width:1.0;"/><path d="M1115.5,176 L1115.5,186 L1125.5,186 L1115.5,176 " fill="#FBFB77" style="stroke:#A80036;stroke-width:1.0;"/><text fill="#000000" font-family="sans-serif" font-size="13" lengthAdjust="spacing" textLength="396" x="634.5" y="194.4951">NextQuestionGeneratorを介して次の問題を生成することによって、</text><text fill="#000000" font-family="sans-serif" font-size="13" lengthAdjust="spacing" textLength="476" x="634.5" y="210.8467">TypingGameから次の問題を生成する処理との依存関係を切り離すことが出来た。</text><!--MD5=[16e97334476463f55178dcd7b6f0e90d]
class TypingGameListener--><rect codeLine="32" fill="#FEFECE" filter="url(#f15abkuaw14a4h)" height="117.1797" id="TypingGameListener" style="stroke:#A80036;stroke-width:1.5;" width="226" x="550" y="685.5"/><ellipse cx="601.25" cy="701.5" fill="#B4A7E5" rx="11" ry="11" style="stroke:#A80036;stroke-width:1.0;"/><path d="M602.2031,698.1406 L602.2031,704.7969 L603.9219,704.7969 Q604.5313,704.7969 604.7969,705.0313 Q605.0625,705.2656 605.0625,705.6563 Q605.0625,706.0313 604.7969,706.2656 Q604.5313,706.5 603.9219,706.5 L598.7813,706.5 Q598.1719,706.5 597.9063,706.2656 Q597.6406,706.0313 597.6406,705.6406 Q597.6406,705.2656 597.9063,705.0313 Q598.1719,704.7969 598.7813,704.7969 L600.5,704.7969 L600.5,698.1406 L598.7813,698.1406 Q598.1719,698.1406 597.9063,697.9063 Q597.6406,697.6719 597.6406,697.2813 Q597.6406,696.9063 597.9063,696.6719 Q598.1719,696.4375 598.7813,696.4375 L603.9219,696.4375 Q604.5313,696.4375 604.7969,696.6719 Q605.0625,696.9063 605.0625,697.2813 Q605.0625,697.6719 604.7969,697.9063 Q604.5313,698.1406 603.9219,698.1406 L602.2031,698.1406 Z " fill="#000000"/><text fill="#000000" font-family="sans-serif" font-size="12" font-style="italic" lengthAdjust="spacing" textLength="115" x="621.75" y="706.4102">TypingGameListener</text><line style="stroke:#A80036;stroke-width:1.5;" x1="551" x2="775" y1="717.5" y2="717.5"/><line style="stroke:#A80036;stroke-width:1.5;" x1="551" x2="775" y1="725.5" y2="725.5"/><text fill="#000000" font-family="sans-serif" font-size="11" lengthAdjust="spacing" textLength="214" x="556" y="740.9189">void onGameStart(TypingGame typingGame)</text><text fill="#000000" font-family="sans-serif" font-size="11" lengthAdjust="spacing" textLength="209" x="556" y="754.7549">void onGameEnd(TypingGame typingGame)</text><text fill="#000000" font-family="sans-serif" font-size="11" lengthAdjust="spacing" textLength="202" x="556" y="768.5908">String receiveAnswer(Question question)</text><text fill="#000000" font-family="sans-serif" font-size="11" lengthAdjust="spacing" textLength="207" x="556" y="782.4268">void onJudgeOK(TypingGame typingGame)</text><text fill="#000000" font-family="sans-serif" font-size="11" lengthAdjust="spacing" textLength="207" x="556" y="796.2627">void onJudgeNG(TypingGame typingGame)</text><!--MD5=[8ebf1df77a58ffbe767c3d2afcefdd5e]
class NextQuestionGenerator--><rect codeLine="40" fill="#FFC0CB" filter="url(#f15abkuaw14a4h)" height="61.8359" id="NextQuestionGenerator" style="stroke:#A80036;stroke-width:1.5;" width="161" x="353.5" y="713"/><ellipse cx="368.5" cy="729" fill="#B4A7E5" rx="11" ry="11" style="stroke:#A80036;stroke-width:1.0;"/><path d="M369.4531,725.6406 L369.4531,732.2969 L371.1719,732.2969 Q371.7813,732.2969 372.0469,732.5313 Q372.3125,732.7656 372.3125,733.1563 Q372.3125,733.5313 372.0469,733.7656 Q371.7813,734 371.1719,734 L366.0313,734 Q365.4219,734 365.1563,733.7656 Q364.8906,733.5313 364.8906,733.1406 Q364.8906,732.7656 365.1563,732.5313 Q365.4219,732.2969 366.0313,732.2969 L367.75,732.2969 L367.75,725.6406 L366.0313,725.6406 Q365.4219,725.6406 365.1563,725.4063 Q364.8906,725.1719 364.8906,724.7813 Q364.8906,724.4063 365.1563,724.1719 Q365.4219,723.9375 366.0313,723.9375 L371.1719,723.9375 Q371.7813,723.9375 372.0469,724.1719 Q372.3125,724.4063 372.3125,724.7813 Q372.3125,725.1719 372.0469,725.4063 Q371.7813,725.6406 371.1719,725.6406 L369.4531,725.6406 Z " fill="#000000"/><text fill="#000000" font-family="sans-serif" font-size="12" font-style="italic" lengthAdjust="spacing" textLength="129" x="382.5" y="733.9102">NextQuestionGenerator</text><line style="stroke:#A80036;stroke-width:1.5;" x1="354.5" x2="513.5" y1="745" y2="745"/><line style="stroke:#A80036;stroke-width:1.5;" x1="354.5" x2="513.5" y1="753" y2="753"/><text fill="#000000" font-family="sans-serif" font-size="11" lengthAdjust="spacing" textLength="97" x="359.5" y="768.4189">Question generate()</text><!--MD5=[fa66635db34bf884a16b1634e5ffc46d]
class NotMatchPreviousNextQuestionGenerator--><rect codeLine="44" fill="#FFC0CB" filter="url(#f15abkuaw14a4h)" height="89.5078" id="NotMatchPreviousNextQuestionGenerator" style="stroke:#A80036;stroke-width:1.5;" width="357" x="255.5" y="972.5"/><ellipse cx="315.75" cy="988.5" fill="#ADD1B2" rx="11" ry="11" style="stroke:#A80036;stroke-width:1.0;"/><path d="M318.5156,984.375 Q318.6719,984.1563 318.8594,984.0469 Q319.0469,983.9375 319.2656,983.9375 Q319.6406,983.9375 319.875,984.2031 Q320.1094,984.4531 320.1094,985.0625 L320.1094,986.5156 Q320.1094,987.125 319.875,987.3906 Q319.6406,987.6563 319.2656,987.6563 Q318.9219,987.6563 318.7188,987.4531 Q318.5156,987.2656 318.4063,986.75 Q318.3594,986.3906 318.1719,986.2031 Q317.8438,985.8281 317.2344,985.6094 Q316.625,985.3906 316,985.3906 Q315.2344,985.3906 314.5938,985.7188 Q313.9688,986.0469 313.4688,986.7969 Q312.9844,987.5469 312.9844,988.5781 L312.9844,989.6719 Q312.9844,990.9063 313.875,991.7344 Q314.7656,992.5469 316.3594,992.5469 Q317.2969,992.5469 317.9531,992.2969 Q318.3438,992.1406 318.7656,991.7031 Q319.0313,991.4375 319.1719,991.3594 Q319.3281,991.2813 319.5313,991.2813 Q319.8594,991.2813 320.1094,991.5469 Q320.375,991.7969 320.375,992.1406 Q320.375,992.4844 320.0313,992.8906 Q319.5313,993.4688 318.7344,993.7969 Q317.6563,994.25 316.3594,994.25 Q314.8438,994.25 313.6406,993.625 Q312.6563,993.125 311.9688,992.0625 Q311.2813,990.9844 311.2813,989.7031 L311.2813,988.5469 Q311.2813,987.2188 311.8906,986.0781 Q312.5156,984.9219 313.6094,984.3125 Q314.7031,983.6875 315.9375,983.6875 Q316.6719,983.6875 317.3125,983.8594 Q317.9688,984.0156 318.5156,984.375 Z " fill="#000000"/><text fill="#000000" font-family="sans-serif" font-size="12" lengthAdjust="spacing" textLength="228" x="336.25" y="993.4102">NotMatchPreviousNextQuestionGenerator</text><line style="stroke:#A80036;stroke-width:1.5;" x1="256.5" x2="611.5" y1="1004.5" y2="1004.5"/><rect fill="none" height="6" style="stroke:#C82930;stroke-width:1.0;" width="6" x="263.5" y="1012.5"/><text fill="#000000" font-family="sans-serif" font-size="11" lengthAdjust="spacing" textLength="122" x="275.5" y="1019.9189">List&lt;Question&gt; questions</text><rect fill="none" height="6" style="stroke:#C82930;stroke-width:1.0;" width="6" x="263.5" y="1026.3359"/><text fill="#000000" font-family="sans-serif" font-size="11" lengthAdjust="spacing" textLength="111" x="275.5" y="1033.7549">Question prevQuestion</text><line style="stroke:#A80036;stroke-width:1.5;" x1="256.5" x2="611.5" y1="1040.1719" y2="1040.1719"/><ellipse cx="266.5" cy="1051.1719" fill="#84BE84" rx="3" ry="3" style="stroke:#038048;stroke-width:1.0;"/><text fill="#000000" font-family="sans-serif" font-size="11" lengthAdjust="spacing" textLength="331" x="275.5" y="1055.5908">NotMatchPreviousNextQuestionGenerator(List&lt;Question&gt; questions)</text><path d="M237.5,1186 L237.5,1212.3516 A0,0 0 0 0 237.5,1212.3516 L630.5,1212.3516 A0,0 0 0 0 630.5,1212.3516 L630.5,1196 L620.5,1186 L438,1186 L434,1062.87 L430,1186 L237.5,1186 A0,0 0 0 0 237.5,1186 " fill="#FBFB77" filter="url(#f15abkuaw14a4h)" style="stroke:#A80036;stroke-width:1.0;"/><path d="M620.5,1186 L620.5,1196 L630.5,1196 L620.5,1186 " fill="#FBFB77" style="stroke:#A80036;stroke-width:1.0;"/><text fill="#000000" font-family="sans-serif" font-size="13" lengthAdjust="spacing" textLength="372" x="243.5" y="1204.4951">TypingGameから移した次の問題を生成する処理が入っている。</text><!--MD5=[9ff0d9e3f56f79f90a7d352b3f3e5a52]
class TypingGameMode--><rect codeLine="53" fill="#FEFECE" filter="url(#f15abkuaw14a4h)" height="194.3594" id="TypingGameMode" style="stroke:#A80036;stroke-width:1.5;" width="329" x="394.5" y="344"/><ellipse cx="504.75" cy="360" fill="#EB937F" rx="11" ry="11" style="stroke:#A80036;stroke-width:1.0;"/><path d="M503.6094,360.7969 L503.6094,363.2969 L507.9375,363.2969 L507.9375,362.375 Q507.9375,361.7656 508.1719,361.5 Q508.4219,361.2344 508.7969,361.2344 Q509.1719,361.2344 509.4063,361.5 Q509.6406,361.7656 509.6406,362.375 L509.6406,365 L501.6406,365 Q501.0156,365 500.75,364.7656 Q500.5,364.5313 500.5,364.1406 Q500.5,363.7656 500.7656,363.5313 Q501.0313,363.2969 501.6406,363.2969 L501.9063,363.2969 L501.9063,356.6406 L501.6406,356.6406 Q501.0156,356.6406 500.75,356.4063 Q500.5,356.1719 500.5,355.7813 Q500.5,355.4063 500.75,355.1719 Q501.0156,354.9375 501.6406,354.9375 L509.2656,354.9375 L509.2656,357.5313 Q509.2656,358.1406 509.0313,358.4063 Q508.8125,358.6563 508.4219,358.6563 Q508.0469,358.6563 507.8125,358.4063 Q507.5781,358.1406 507.5781,357.5313 L507.5781,356.6406 L503.6094,356.6406 L503.6094,359.0938 L505.0938,359.0938 Q505.0938,358.4375 505.2188,358.25 Q505.4844,357.8438 505.9531,357.8438 Q506.3281,357.8438 506.5625,358.1094 Q506.7969,358.3594 506.7969,358.9688 L506.7969,360.9375 Q506.7969,361.4844 506.6719,361.6719 Q506.4063,362.0625 505.9531,362.0625 Q505.4844,362.0625 505.2188,361.6563 Q505.0938,361.4688 505.0938,360.7969 L503.6094,360.7969 Z " fill="#000000"/><text fill="#000000" font-family="sans-serif" font-size="12" lengthAdjust="spacing" textLength="100" x="525.25" y="364.9102">TypingGameMode</text><line style="stroke:#A80036;stroke-width:1.5;" x1="395.5" x2="722.5" y1="376" y2="376"/><ellipse cx="405.5" cy="387" rx="3" ry="3" style="stroke:#038048;stroke-width:1.0;fill:none;"/><text fill="#000000" font-family="sans-serif" font-size="11" lengthAdjust="spacing" textLength="44" x="414.5" y="391.4189">NORMAL</text><ellipse cx="405.5" cy="400.8359" rx="3" ry="3" style="stroke:#038048;stroke-width:1.0;fill:none;"/><text fill="#000000" font-family="sans-serif" font-size="11" lengthAdjust="spacing" textLength="21" x="414.5" y="405.2549">HOT</text><line style="stroke:#A80036;stroke-width:1.0;stroke-dasharray:1.0,2.0;" x1="395.5" x2="722.5" y1="411.6719" y2="411.6719"/><rect fill="none" height="6" style="stroke:#C82930;stroke-width:1.0;" width="6" x="402.5" y="419.6719"/><text fill="#000000" font-family="sans-serif" font-size="11" lengthAdjust="spacing" textLength="57" x="414.5" y="427.0908">String name</text><rect fill="none" height="6" style="stroke:#C82930;stroke-width:1.0;" width="6" x="402.5" y="433.5078"/><text fill="#000000" font-family="sans-serif" font-size="11" lengthAdjust="spacing" textLength="40" x="414.5" y="440.9268">int mode</text><rect fill="none" height="6" style="stroke:#C82930;stroke-width:1.0;" width="6" x="402.5" y="447.3438"/><text fill="#000000" font-family="sans-serif" font-size="11" lengthAdjust="spacing" textLength="100" x="414.5" y="454.7627">boolean defaultMode</text><line style="stroke:#A80036;stroke-width:1.5;" x1="395.5" x2="722.5" y1="461.1797" y2="461.1797"/><ellipse cx="405.5" cy="472.1797" fill="#84BE84" rx="3" ry="3" style="stroke:#038048;stroke-width:1.0;"/><text fill="#000000" font-family="sans-serif" font-size="11" lengthAdjust="spacing" textLength="303" x="414.5" y="476.5986">TypingGameMode(String name, int mode, boolean defaultMode)</text><ellipse cx="405.5" cy="486.0156" fill="#84BE84" rx="3" ry="3" style="stroke:#038048;stroke-width:1.0;"/><text fill="#000000" font-family="sans-serif" font-size="11" lengthAdjust="spacing" text-decoration="underline" textLength="147" x="414.5" y="490.4346">TypingGameMode of(int mode)</text><ellipse cx="405.5" cy="499.8516" fill="#84BE84" rx="3" ry="3" style="stroke:#038048;stroke-width:1.0;"/><text fill="#000000" font-family="sans-serif" font-size="11" lengthAdjust="spacing" text-decoration="underline" textLength="146" x="414.5" y="504.2705">TypingGameMode getDefault()</text><ellipse cx="405.5" cy="513.6875" fill="#84BE84" rx="3" ry="3" style="stroke:#038048;stroke-width:1.0;"/><text fill="#000000" font-family="sans-serif" font-size="11" lengthAdjust="spacing" textLength="81" x="414.5" y="518.1064">String getName()</text><ellipse cx="405.5" cy="527.5234" fill="#84BE84" rx="3" ry="3" style="stroke:#038048;stroke-width:1.0;"/><text fill="#000000" font-family="sans-serif" font-size="11" lengthAdjust="spacing" textLength="63" x="414.5" y="531.9424">int getMode()</text><!--MD5=[2467ab778d54314a3fb6b7e9a32a0937]
class TypingGameDifficulty--><rect codeLine="68" fill="#FEFECE" filter="url(#f15abkuaw14a4h)" height="222.0313" id="TypingGameDifficulty" style="stroke:#A80036;stroke-width:1.5;" width="341" x="811.5" y="633"/><ellipse cx="920.25" cy="649" fill="#EB937F" rx="11" ry="11" style="stroke:#A80036;stroke-width:1.0;"/><path d="M919.1094,649.7969 L919.1094,652.2969 L923.4375,652.2969 L923.4375,651.375 Q923.4375,650.7656 923.6719,650.5 Q923.9219,650.2344 924.2969,650.2344 Q924.6719,650.2344 924.9063,650.5 Q925.1406,650.7656 925.1406,651.375 L925.1406,654 L917.1406,654 Q916.5156,654 916.25,653.7656 Q916,653.5313 916,653.1406 Q916,652.7656 916.2656,652.5313 Q916.5313,652.2969 917.1406,652.2969 L917.4063,652.2969 L917.4063,645.6406 L917.1406,645.6406 Q916.5156,645.6406 916.25,645.4063 Q916,645.1719 916,644.7813 Q916,644.4063 916.25,644.1719 Q916.5156,643.9375 917.1406,643.9375 L924.7656,643.9375 L924.7656,646.5313 Q924.7656,647.1406 924.5313,647.4063 Q924.3125,647.6563 923.9219,647.6563 Q923.5469,647.6563 923.3125,647.4063 Q923.0781,647.1406 923.0781,646.5313 L923.0781,645.6406 L919.1094,645.6406 L919.1094,648.0938 L920.5938,648.0938 Q920.5938,647.4375 920.7188,647.25 Q920.9844,646.8438 921.4531,646.8438 Q921.8281,646.8438 922.0625,647.1094 Q922.2969,647.3594 922.2969,647.9688 L922.2969,649.9375 Q922.2969,650.4844 922.1719,650.6719 Q921.9063,651.0625 921.4531,651.0625 Q920.9844,651.0625 920.7188,650.6563 Q920.5938,650.4688 920.5938,649.7969 L919.1094,649.7969 Z " fill="#000000"/><text fill="#000000" font-family="sans-serif" font-size="12" lengthAdjust="spacing" textLength="115" x="940.75" y="653.9102">TypingGameDifficulty</text><line style="stroke:#A80036;stroke-width:1.5;" x1="812.5" x2="1151.5" y1="665" y2="665"/><ellipse cx="822.5" cy="676" rx="3" ry="3" style="stroke:#038048;stroke-width:1.0;fill:none;"/><text fill="#000000" font-family="sans-serif" font-size="11" lengthAdjust="spacing" textLength="29" x="831.5" y="680.4189">EASY</text><ellipse cx="822.5" cy="689.8359" rx="3" ry="3" style="stroke:#038048;stroke-width:1.0;fill:none;"/><text fill="#000000" font-family="sans-serif" font-size="11" lengthAdjust="spacing" textLength="44" x="831.5" y="694.2549">NORMAL</text><ellipse cx="822.5" cy="703.6719" rx="3" ry="3" style="stroke:#038048;stroke-width:1.0;fill:none;"/><text fill="#000000" font-family="sans-serif" font-size="11" lengthAdjust="spacing" textLength="29" x="831.5" y="708.0908">HARD</text><line style="stroke:#A80036;stroke-width:1.0;stroke-dasharray:1.0,2.0;" x1="812.5" x2="1151.5" y1="714.5078" y2="714.5078"/><rect fill="none" height="6" style="stroke:#C82930;stroke-width:1.0;" width="6" x="819.5" y="722.5078"/><text fill="#000000" font-family="sans-serif" font-size="11" lengthAdjust="spacing" textLength="57" x="831.5" y="729.9268">String name</text><rect fill="none" height="6" style="stroke:#C82930;stroke-width:1.0;" width="6" x="819.5" y="736.3438"/><text fill="#000000" font-family="sans-serif" font-size="11" lengthAdjust="spacing" textLength="36" x="831.5" y="743.7627">int level</text><rect fill="none" height="6" style="stroke:#C82930;stroke-width:1.0;" width="6" x="819.5" y="750.1797"/><text fill="#000000" font-family="sans-serif" font-size="11" lengthAdjust="spacing" textLength="100" x="831.5" y="757.5986">boolean defaultLevel</text><line style="stroke:#A80036;stroke-width:1.5;" x1="812.5" x2="1151.5" y1="764.0156" y2="764.0156"/><ellipse cx="822.5" cy="775.0156" fill="#84BE84" rx="3" ry="3" style="stroke:#038048;stroke-width:1.0;"/><text fill="#000000" font-family="sans-serif" font-size="11" lengthAdjust="spacing" textLength="315" x="831.5" y="779.4346">TypingGameDifficulty(String name, int level, boolean defaultLevel)</text><ellipse cx="822.5" cy="788.8516" fill="#84BE84" rx="3" ry="3" style="stroke:#038048;stroke-width:1.0;"/><text fill="#000000" font-family="sans-serif" font-size="11" lengthAdjust="spacing" text-decoration="underline" textLength="159" x="831.5" y="793.2705">TypingGameDifficulty of(int level)</text><ellipse cx="822.5" cy="802.6875" fill="#84BE84" rx="3" ry="3" style="stroke:#038048;stroke-width:1.0;"/><text fill="#000000" font-family="sans-serif" font-size="11" lengthAdjust="spacing" text-decoration="underline" textLength="162" x="831.5" y="807.1064">TypingGameDifficulty getDefault()</text><ellipse cx="822.5" cy="816.5234" fill="#84BE84" rx="3" ry="3" style="stroke:#038048;stroke-width:1.0;"/><text fill="#000000" font-family="sans-serif" font-size="11" lengthAdjust="spacing" textLength="81" x="831.5" y="820.9424">String getName()</text><ellipse cx="822.5" cy="830.3594" fill="#84BE84" rx="3" ry="3" style="stroke:#038048;stroke-width:1.0;"/><text fill="#000000" font-family="sans-serif" font-size="11" lengthAdjust="spacing" textLength="63" x="831.5" y="834.7783">int getLevel()</text><ellipse cx="822.5" cy="844.1953" fill="#84BE84" rx="3" ry="3" style="stroke:#038048;stroke-width:1.0;"/><text fill="#000000" font-family="sans-serif" font-size="11" lengthAdjust="spacing" textLength="239" x="831.5" y="848.6143">boolean lessThan(TypingGameDifficulty difficulty)</text><!--MD5=[e329a201e32f6879b6c4a5d5782241cc]
class TypingGameHistory--><rect codeLine="85" fill="#FEFECE" filter="url(#f15abkuaw14a4h)" height="103.3438" id="TypingGameHistory" style="stroke:#A80036;stroke-width:1.5;" width="369" x="1160.5" y="146"/><ellipse cx="1286.75" cy="162" fill="#ADD1B2" rx="11" ry="11" style="stroke:#A80036;stroke-width:1.0;"/><path d="M1289.5156,157.875 Q1289.6719,157.6563 1289.8594,157.5469 Q1290.0469,157.4375 1290.2656,157.4375 Q1290.6406,157.4375 1290.875,157.7031 Q1291.1094,157.9531 1291.1094,158.5625 L1291.1094,160.0156 Q1291.1094,160.625 1290.875,160.8906 Q1290.6406,161.1563 1290.2656,161.1563 Q1289.9219,161.1563 1289.7188,160.9531 Q1289.5156,160.7656 1289.4063,160.25 Q1289.3594,159.8906 1289.1719,159.7031 Q1288.8438,159.3281 1288.2344,159.1094 Q1287.625,158.8906 1287,158.8906 Q1286.2344,158.8906 1285.5938,159.2188 Q1284.9688,159.5469 1284.4688,160.2969 Q1283.9844,161.0469 1283.9844,162.0781 L1283.9844,163.1719 Q1283.9844,164.4063 1284.875,165.2344 Q1285.7656,166.0469 1287.3594,166.0469 Q1288.2969,166.0469 1288.9531,165.7969 Q1289.3438,165.6406 1289.7656,165.2031 Q1290.0313,164.9375 1290.1719,164.8594 Q1290.3281,164.7813 1290.5313,164.7813 Q1290.8594,164.7813 1291.1094,165.0469 Q1291.375,165.2969 1291.375,165.6406 Q1291.375,165.9844 1291.0313,166.3906 Q1290.5313,166.9688 1289.7344,167.2969 Q1288.6563,167.75 1287.3594,167.75 Q1285.8438,167.75 1284.6406,167.125 Q1283.6563,166.625 1282.9688,165.5625 Q1282.2813,164.4844 1282.2813,163.2031 L1282.2813,162.0469 Q1282.2813,160.7188 1282.8906,159.5781 Q1283.5156,158.4219 1284.6094,157.8125 Q1285.7031,157.1875 1286.9375,157.1875 Q1287.6719,157.1875 1288.3125,157.3594 Q1288.9688,157.5156 1289.5156,157.875 Z " fill="#000000"/><text fill="#000000" font-family="sans-serif" font-size="12" lengthAdjust="spacing" textLength="108" x="1307.25" y="166.9102">TypingGameHistory</text><line style="stroke:#A80036;stroke-width:1.5;" x1="1161.5" x2="1528.5" y1="178" y2="178"/><rect fill="none" height="6" style="stroke:#C82930;stroke-width:1.0;" width="6" x="1168.5" y="186"/><text fill="#000000" font-family="sans-serif" font-size="11" lengthAdjust="spacing" textLength="155" x="1180.5" y="193.4189">List&lt;TypingGame&gt; typingGames</text><line style="stroke:#A80036;stroke-width:1.5;" x1="1161.5" x2="1528.5" y1="199.8359" y2="199.8359"/><ellipse cx="1171.5" cy="210.8359" fill="#84BE84" rx="3" ry="3" style="stroke:#038048;stroke-width:1.0;"/><text fill="#000000" font-family="sans-serif" font-size="11" lengthAdjust="spacing" textLength="169" x="1180.5" y="215.2549">void add(TypingGame typingGame)</text><ellipse cx="1171.5" cy="224.6719" fill="#84BE84" rx="3" ry="3" style="stroke:#038048;stroke-width:1.0;"/><text fill="#000000" font-family="sans-serif" font-size="11" lengthAdjust="spacing" textLength="343" x="1180.5" y="229.0908">List&lt;TypingGame&gt; sortedTypingGames(TypingGameDifficulty difficulty)</text><rect fill="#F24D5C" height="6" style="stroke:#C82930;stroke-width:1.0;" width="6" x="1168.5" y="235.5078"/><text fill="#000000" font-family="sans-serif" font-size="11" lengthAdjust="spacing" textLength="327" x="1180.5" y="242.9268">List&lt;TypingGame&gt; getTypingGames(TypingGameDifficulty difficulty)</text><!--MD5=[7a83da4f2de9d37a940211961c6e4279]
class TypingGameFactory--><rect codeLine="92" fill="#FFA500" filter="url(#f15abkuaw14a4h)" height="61.8359" id="TypingGameFactory" style="stroke:#A80036;stroke-width:1.5;" width="464" x="129" y="166.5"/><ellipse cx="302.25" cy="182.5" fill="#ADD1B2" rx="11" ry="11" style="stroke:#A80036;stroke-width:1.0;"/><path d="M305.0156,178.375 Q305.1719,178.1563 305.3594,178.0469 Q305.5469,177.9375 305.7656,177.9375 Q306.1406,177.9375 306.375,178.2031 Q306.6094,178.4531 306.6094,179.0625 L306.6094,180.5156 Q306.6094,181.125 306.375,181.3906 Q306.1406,181.6563 305.7656,181.6563 Q305.4219,181.6563 305.2188,181.4531 Q305.0156,181.2656 304.9063,180.75 Q304.8594,180.3906 304.6719,180.2031 Q304.3438,179.8281 303.7344,179.6094 Q303.125,179.3906 302.5,179.3906 Q301.7344,179.3906 301.0938,179.7188 Q300.4688,180.0469 299.9688,180.7969 Q299.4844,181.5469 299.4844,182.5781 L299.4844,183.6719 Q299.4844,184.9063 300.375,185.7344 Q301.2656,186.5469 302.8594,186.5469 Q303.7969,186.5469 304.4531,186.2969 Q304.8438,186.1406 305.2656,185.7031 Q305.5313,185.4375 305.6719,185.3594 Q305.8281,185.2813 306.0313,185.2813 Q306.3594,185.2813 306.6094,185.5469 Q306.875,185.7969 306.875,186.1406 Q306.875,186.4844 306.5313,186.8906 Q306.0313,187.4688 305.2344,187.7969 Q304.1563,188.25 302.8594,188.25 Q301.3438,188.25 300.1406,187.625 Q299.1563,187.125 298.4688,186.0625 Q297.7813,184.9844 297.7813,183.7031 L297.7813,182.5469 Q297.7813,181.2188 298.3906,180.0781 Q299.0156,178.9219 300.1094,178.3125 Q301.2031,177.6875 302.4375,177.6875 Q303.1719,177.6875 303.8125,177.8594 Q304.4688,178.0156 305.0156,178.375 Z " fill="#000000"/><text fill="#000000" font-family="sans-serif" font-size="12" lengthAdjust="spacing" textLength="109" x="322.75" y="187.4102">TypingGameFactory</text><line style="stroke:#A80036;stroke-width:1.5;" x1="130" x2="592" y1="198.5" y2="198.5"/><line style="stroke:#A80036;stroke-width:1.5;" x1="130" x2="592" y1="206.5" y2="206.5"/><ellipse cx="140" cy="217.5" fill="#84BE84" rx="3" ry="3" style="stroke:#038048;stroke-width:1.0;"/><text fill="#000000" font-family="sans-serif" font-size="11" lengthAdjust="spacing" text-decoration="underline" textLength="438" x="149" y="221.9189">TypingGame generate(TypingGameDifficulty difficulty, TypingGameMode typingGameMode)</text><path d="M211,42 L211,84.7031 A0,0 0 0 0 211,84.7031 L357,84.7031 L361,166.22 L365,84.7031 L511,84.7031 A0,0 0 0 0 511,84.7031 L511,52 L501,42 L211,42 A0,0 0 0 0 211,42 " fill="#FBFB77" filter="url(#f15abkuaw14a4h)" style="stroke:#A80036;stroke-width:1.0;"/><path d="M501,42 L501,52 L511,52 L501,42 " fill="#FBFB77" style="stroke:#A80036;stroke-width:1.0;"/><text fill="#000000" font-family="sans-serif" font-size="13" lengthAdjust="spacing" textLength="279" x="217" y="60.4951">TypingGameFactoryでNextQuestionGeneratorの</text><text fill="#000000" font-family="sans-serif" font-size="13" lengthAdjust="spacing" textLength="208" x="217" y="76.8467">実装クラスを設定するように修正。</text><!--MD5=[fc7123defb831ecdd44b2d9bcef6cceb]
class Question--><rect codeLine="100" fill="#FEFECE" filter="url(#f15abkuaw14a4h)" height="103.3438" id="Question" style="stroke:#A80036;stroke-width:1.5;" width="286" x="32" y="692.5"/><ellipse cx="145.75" cy="708.5" fill="#ADD1B2" rx="11" ry="11" style="stroke:#A80036;stroke-width:1.0;"/><path d="M148.5156,704.375 Q148.6719,704.1563 148.8594,704.0469 Q149.0469,703.9375 149.2656,703.9375 Q149.6406,703.9375 149.875,704.2031 Q150.1094,704.4531 150.1094,705.0625 L150.1094,706.5156 Q150.1094,707.125 149.875,707.3906 Q149.6406,707.6563 149.2656,707.6563 Q148.9219,707.6563 148.7188,707.4531 Q148.5156,707.2656 148.4063,706.75 Q148.3594,706.3906 148.1719,706.2031 Q147.8438,705.8281 147.2344,705.6094 Q146.625,705.3906 146,705.3906 Q145.2344,705.3906 144.5938,705.7188 Q143.9688,706.0469 143.4688,706.7969 Q142.9844,707.5469 142.9844,708.5781 L142.9844,709.6719 Q142.9844,710.9063 143.875,711.7344 Q144.7656,712.5469 146.3594,712.5469 Q147.2969,712.5469 147.9531,712.2969 Q148.3438,712.1406 148.7656,711.7031 Q149.0313,711.4375 149.1719,711.3594 Q149.3281,711.2813 149.5313,711.2813 Q149.8594,711.2813 150.1094,711.5469 Q150.375,711.7969 150.375,712.1406 Q150.375,712.4844 150.0313,712.8906 Q149.5313,713.4688 148.7344,713.7969 Q147.6563,714.25 146.3594,714.25 Q144.8438,714.25 143.6406,713.625 Q142.6563,713.125 141.9688,712.0625 Q141.2813,710.9844 141.2813,709.7031 L141.2813,708.5469 Q141.2813,707.2188 141.8906,706.0781 Q142.5156,704.9219 143.6094,704.3125 Q144.7031,703.6875 145.9375,703.6875 Q146.6719,703.6875 147.3125,703.8594 Q147.9688,704.0156 148.5156,704.375 Z " fill="#000000"/><text fill="#000000" font-family="sans-serif" font-size="12" lengthAdjust="spacing" textLength="50" x="166.25" y="713.4102">Question</text><line style="stroke:#A80036;stroke-width:1.5;" x1="33" x2="317" y1="724.5" y2="724.5"/><rect fill="none" height="6" style="stroke:#C82930;stroke-width:1.0;" width="6" x="40" y="732.5"/><text fill="#000000" font-family="sans-serif" font-size="11" lengthAdjust="spacing" textLength="57" x="52" y="739.9189">String word</text><rect fill="none" height="6" style="stroke:#C82930;stroke-width:1.0;" width="6" x="40" y="746.3359"/><text fill="#000000" font-family="sans-serif" font-size="11" lengthAdjust="spacing" textLength="146" x="52" y="753.7549">TypingGameDifficulty difficulty</text><line style="stroke:#A80036;stroke-width:1.5;" x1="33" x2="317" y1="760.1719" y2="760.1719"/><ellipse cx="43" cy="771.1719" fill="#84BE84" rx="3" ry="3" style="stroke:#038048;stroke-width:1.0;"/><text fill="#000000" font-family="sans-serif" font-size="11" lengthAdjust="spacing" textLength="260" x="52" y="775.5908">Question(String word, TypingGameDifficulty difficulty)</text><ellipse cx="43" cy="785.0078" fill="#84BE84" rx="3" ry="3" style="stroke:#038048;stroke-width:1.0;"/><text fill="#000000" font-family="sans-serif" font-size="11" lengthAdjust="spacing" textLength="80" x="52" y="789.4268">String getWord()</text><!--MD5=[9c6dfb49ef2184b6b517c171c5d8a863]
class QuestionResult--><rect codeLine="107" fill="#FEFECE" filter="url(#f15abkuaw14a4h)" height="144.8516" id="QuestionResult" style="stroke:#A80036;stroke-width:1.5;" width="342" x="1188" y="671.5"/><ellipse cx="1311.75" cy="687.5" fill="#ADD1B2" rx="11" ry="11" style="stroke:#A80036;stroke-width:1.0;"/><path d="M1314.5156,683.375 Q1314.6719,683.1563 1314.8594,683.0469 Q1315.0469,682.9375 1315.2656,682.9375 Q1315.6406,682.9375 1315.875,683.2031 Q1316.1094,683.4531 1316.1094,684.0625 L1316.1094,685.5156 Q1316.1094,686.125 1315.875,686.3906 Q1315.6406,686.6563 1315.2656,686.6563 Q1314.9219,686.6563 1314.7188,686.4531 Q1314.5156,686.2656 1314.4063,685.75 Q1314.3594,685.3906 1314.1719,685.2031 Q1313.8438,684.8281 1313.2344,684.6094 Q1312.625,684.3906 1312,684.3906 Q1311.2344,684.3906 1310.5938,684.7188 Q1309.9688,685.0469 1309.4688,685.7969 Q1308.9844,686.5469 1308.9844,687.5781 L1308.9844,688.6719 Q1308.9844,689.9063 1309.875,690.7344 Q1310.7656,691.5469 1312.3594,691.5469 Q1313.2969,691.5469 1313.9531,691.2969 Q1314.3438,691.1406 1314.7656,690.7031 Q1315.0313,690.4375 1315.1719,690.3594 Q1315.3281,690.2813 1315.5313,690.2813 Q1315.8594,690.2813 1316.1094,690.5469 Q1316.375,690.7969 1316.375,691.1406 Q1316.375,691.4844 1316.0313,691.8906 Q1315.5313,692.4688 1314.7344,692.7969 Q1313.6563,693.25 1312.3594,693.25 Q1310.8438,693.25 1309.6406,692.625 Q1308.6563,692.125 1307.9688,691.0625 Q1307.2813,689.9844 1307.2813,688.7031 L1307.2813,687.5469 Q1307.2813,686.2188 1307.8906,685.0781 Q1308.5156,683.9219 1309.6094,683.3125 Q1310.7031,682.6875 1311.9375,682.6875 Q1312.6719,682.6875 1313.3125,682.8594 Q1313.9688,683.0156 1314.5156,683.375 Z " fill="#000000"/><text fill="#000000" font-family="sans-serif" font-size="12" lengthAdjust="spacing" textLength="86" x="1332.25" y="692.4102">QuestionResult</text><line style="stroke:#A80036;stroke-width:1.5;" x1="1189" x2="1529" y1="703.5" y2="703.5"/><rect fill="none" height="6" style="stroke:#C82930;stroke-width:1.0;" width="6" x="1196" y="711.5"/><text fill="#000000" font-family="sans-serif" font-size="11" lengthAdjust="spacing" textLength="87" x="1208" y="718.9189">Question question</text><rect fill="none" height="6" style="stroke:#C82930;stroke-width:1.0;" width="6" x="1196" y="725.3359"/><text fill="#000000" font-family="sans-serif" font-size="11" lengthAdjust="spacing" textLength="69" x="1208" y="732.7549">String answer</text><rect fill="none" height="6" style="stroke:#C82930;stroke-width:1.0;" width="6" x="1196" y="739.1719"/><text fill="#000000" font-family="sans-serif" font-size="11" lengthAdjust="spacing" textLength="67" x="1208" y="746.5908">boolean judge</text><line style="stroke:#A80036;stroke-width:1.5;" x1="1189" x2="1529" y1="753.0078" y2="753.0078"/><ellipse cx="1199" cy="764.0078" fill="#84BE84" rx="3" ry="3" style="stroke:#038048;stroke-width:1.0;"/><text fill="#000000" font-family="sans-serif" font-size="11" lengthAdjust="spacing" textLength="316" x="1208" y="768.4268">QuestionResult(Question question, String answer, boolean judge)</text><ellipse cx="1199" cy="777.8438" fill="#84BE84" rx="3" ry="3" style="stroke:#038048;stroke-width:1.0;"/><text fill="#000000" font-family="sans-serif" font-size="11" lengthAdjust="spacing" textLength="112" x="1208" y="782.2627">Question getQuestion()</text><ellipse cx="1199" cy="791.6797" fill="#84BE84" rx="3" ry="3" style="stroke:#038048;stroke-width:1.0;"/><text fill="#000000" font-family="sans-serif" font-size="11" lengthAdjust="spacing" textLength="94" x="1208" y="796.0986">String getAnswer()</text><ellipse cx="1199" cy="805.5156" fill="#84BE84" rx="3" ry="3" style="stroke:#038048;stroke-width:1.0;"/><text fill="#000000" font-family="sans-serif" font-size="11" lengthAdjust="spacing" textLength="86" x="1208" y="809.9346">boolean isJudge()</text><!--MD5=[3665cc8380533de798edf75be7f81b43]
class QuestionFactory--><rect codeLine="117" fill="#FEFECE" filter="url(#f15abkuaw14a4h)" height="75.6719" id="QuestionFactory" style="stroke:#A80036;stroke-width:1.5;" width="327" x="32.5" y="403"/><ellipse cx="147.25" cy="419" fill="#ADD1B2" rx="11" ry="11" style="stroke:#A80036;stroke-width:1.0;"/><path d="M150.0156,414.875 Q150.1719,414.6563 150.3594,414.5469 Q150.5469,414.4375 150.7656,414.4375 Q151.1406,414.4375 151.375,414.7031 Q151.6094,414.9531 151.6094,415.5625 L151.6094,417.0156 Q151.6094,417.625 151.375,417.8906 Q151.1406,418.1563 150.7656,418.1563 Q150.4219,418.1563 150.2188,417.9531 Q150.0156,417.7656 149.9063,417.25 Q149.8594,416.8906 149.6719,416.7031 Q149.3438,416.3281 148.7344,416.1094 Q148.125,415.8906 147.5,415.8906 Q146.7344,415.8906 146.0938,416.2188 Q145.4688,416.5469 144.9688,417.2969 Q144.4844,418.0469 144.4844,419.0781 L144.4844,420.1719 Q144.4844,421.4063 145.375,422.2344 Q146.2656,423.0469 147.8594,423.0469 Q148.7969,423.0469 149.4531,422.7969 Q149.8438,422.6406 150.2656,422.2031 Q150.5313,421.9375 150.6719,421.8594 Q150.8281,421.7813 151.0313,421.7813 Q151.3594,421.7813 151.6094,422.0469 Q151.875,422.2969 151.875,422.6406 Q151.875,422.9844 151.5313,423.3906 Q151.0313,423.9688 150.2344,424.2969 Q149.1563,424.75 147.8594,424.75 Q146.3438,424.75 145.1406,424.125 Q144.1563,423.625 143.4688,422.5625 Q142.7813,421.4844 142.7813,420.2031 L142.7813,419.0469 Q142.7813,417.7188 143.3906,416.5781 Q144.0156,415.4219 145.1094,414.8125 Q146.2031,414.1875 147.4375,414.1875 Q148.1719,414.1875 148.8125,414.3594 Q149.4688,414.5156 150.0156,414.875 Z " fill="#000000"/><text fill="#000000" font-family="sans-serif" font-size="12" lengthAdjust="spacing" textLength="89" x="167.75" y="423.9102">QuestionFactory</text><line style="stroke:#A80036;stroke-width:1.5;" x1="33.5" x2="358.5" y1="435" y2="435"/><line style="stroke:#A80036;stroke-width:1.5;" x1="33.5" x2="358.5" y1="443" y2="443"/><ellipse cx="43.5" cy="454" fill="#84BE84" rx="3" ry="3" style="stroke:#038048;stroke-width:1.0;"/><text fill="#000000" font-family="sans-serif" font-size="11" lengthAdjust="spacing" textLength="301" x="52.5" y="458.4189">static List&lt;Question&gt; generate(TypingGameDifficulty difficulty)</text><rect fill="#F24D5C" height="6" style="stroke:#C82930;stroke-width:1.0;" width="6" x="40.5" y="464.8359"/><text fill="#000000" font-family="sans-serif" font-size="11" lengthAdjust="spacing" textLength="155" x="52.5" y="472.2549">static List&lt;Question&gt; generate()</text><!--MD5=[a54530424d6d3f8cff061ae2511179cd]
class ConsoleConductor--><rect codeLine="124" fill="#FEFECE" filter="url(#f15abkuaw14a4h)" height="158.6875" id="ConsoleConductor" style="stroke:#A80036;stroke-width:1.5;" width="469" x="2010.5" y="938"/><ellipse cx="2188.75" cy="954" fill="#ADD1B2" rx="11" ry="11" style="stroke:#A80036;stroke-width:1.0;"/><path d="M2191.5156,949.875 Q2191.6719,949.6563 2191.8594,949.5469 Q2192.0469,949.4375 2192.2656,949.4375 Q2192.6406,949.4375 2192.875,949.7031 Q2193.1094,949.9531 2193.1094,950.5625 L2193.1094,952.0156 Q2193.1094,952.625 2192.875,952.8906 Q2192.6406,953.1563 2192.2656,953.1563 Q2191.9219,953.1563 2191.7188,952.9531 Q2191.5156,952.7656 2191.4063,952.25 Q2191.3594,951.8906 2191.1719,951.7031 Q2190.8438,951.3281 2190.2344,951.1094 Q2189.625,950.8906 2189,950.8906 Q2188.2344,950.8906 2187.5938,951.2188 Q2186.9688,951.5469 2186.4688,952.2969 Q2185.9844,953.0469 2185.9844,954.0781 L2185.9844,955.1719 Q2185.9844,956.4063 2186.875,957.2344 Q2187.7656,958.0469 2189.3594,958.0469 Q2190.2969,958.0469 2190.9531,957.7969 Q2191.3438,957.6406 2191.7656,957.2031 Q2192.0313,956.9375 2192.1719,956.8594 Q2192.3281,956.7813 2192.5313,956.7813 Q2192.8594,956.7813 2193.1094,957.0469 Q2193.375,957.2969 2193.375,957.6406 Q2193.375,957.9844 2193.0313,958.3906 Q2192.5313,958.9688 2191.7344,959.2969 Q2190.6563,959.75 2189.3594,959.75 Q2187.8438,959.75 2186.6406,959.125 Q2185.6563,958.625 2184.9688,957.5625 Q2184.2813,956.4844 2184.2813,955.2031 L2184.2813,954.0469 Q2184.2813,952.7188 2184.8906,951.5781 Q2185.5156,950.4219 2186.6094,949.8125 Q2187.7031,949.1875 2188.9375,949.1875 Q2189.6719,949.1875 2190.3125,949.3594 Q2190.9688,949.5156 2191.5156,949.875 Z " fill="#000000"/><text fill="#000000" font-family="sans-serif" font-size="12" lengthAdjust="spacing" textLength="104" x="2209.25" y="958.9102">ConsoleConductor</text><line style="stroke:#A80036;stroke-width:1.5;" x1="2011.5" x2="2478.5" y1="970" y2="970"/><line style="stroke:#A80036;stroke-width:1.5;" x1="2011.5" x2="2478.5" y1="978" y2="978"/><ellipse cx="2021.5" cy="989" fill="#84BE84" rx="3" ry="3" style="stroke:#038048;stroke-width:1.0;"/><text fill="#000000" font-family="sans-serif" font-size="11" lengthAdjust="spacing" textLength="47" x="2030.5" y="993.4189">execute()</text><rect fill="#F24D5C" height="6" style="stroke:#C82930;stroke-width:1.0;" width="6" x="2018.5" y="999.8359"/><text fill="#000000" font-family="sans-serif" font-size="11" lengthAdjust="spacing" textLength="212" x="2030.5" y="1007.2549">TypingGameDifficulty displayInputDifficulty()</text><rect fill="#F24D5C" height="6" style="stroke:#C82930;stroke-width:1.0;" width="6" x="2018.5" y="1013.6719"/><text fill="#000000" font-family="sans-serif" font-size="11" lengthAdjust="spacing" textLength="180" x="2030.5" y="1021.0908">TypingGameMode displayInputMode()</text><rect fill="#F24D5C" height="6" style="stroke:#C82930;stroke-width:1.0;" width="6" x="2018.5" y="1027.5078"/><text fill="#000000" font-family="sans-serif" font-size="11" lengthAdjust="spacing" textLength="122" x="2030.5" y="1034.9268">void displayCountDown()</text><rect fill="#F24D5C" height="6" style="stroke:#C82930;stroke-width:1.0;" width="6" x="2018.5" y="1041.3438"/><text fill="#000000" font-family="sans-serif" font-size="11" lengthAdjust="spacing" textLength="215" x="2030.5" y="1048.7627">void displayResult(TypingGame typingGame)</text><rect fill="#F24D5C" height="6" style="stroke:#C82930;stroke-width:1.0;" width="6" x="2018.5" y="1055.1797"/><text fill="#000000" font-family="sans-serif" font-size="11" lengthAdjust="spacing" textLength="443" x="2030.5" y="1062.5986">void displayRanking(TypingGameHistory typingGameHistory, TypingGameDifficulty difficulty)</text><rect fill="#F24D5C" height="6" style="stroke:#C82930;stroke-width:1.0;" width="6" x="2018.5" y="1069.0156"/><text fill="#000000" font-family="sans-serif" font-size="11" lengthAdjust="spacing" textLength="132" x="2030.5" y="1076.4346">boolean displayInputRetry()</text><rect fill="#F24D5C" height="6" style="stroke:#C82930;stroke-width:1.0;" width="6" x="2018.5" y="1082.8516"/><text fill="#000000" font-family="sans-serif" font-size="11" lengthAdjust="spacing" textLength="175" x="2030.5" y="1090.2705">static int getInputInt(int defaultValue)</text><!--MD5=[f2076064ef29070937814e2fca8e8d42]
class NormalTypingGameListener--><rect codeLine="135" fill="#FEFECE" filter="url(#f15abkuaw14a4h)" height="48" id="NormalTypingGameListener" style="stroke:#A80036;stroke-width:1.5;" width="188" x="1586" y="993.5"/><ellipse cx="1601" cy="1009.5" fill="#ADD1B2" rx="11" ry="11" style="stroke:#A80036;stroke-width:1.0;"/><path d="M1603.7656,1005.375 Q1603.9219,1005.1563 1604.1094,1005.0469 Q1604.2969,1004.9375 1604.5156,1004.9375 Q1604.8906,1004.9375 1605.125,1005.2031 Q1605.3594,1005.4531 1605.3594,1006.0625 L1605.3594,1007.5156 Q1605.3594,1008.125 1605.125,1008.3906 Q1604.8906,1008.6563 1604.5156,1008.6563 Q1604.1719,1008.6563 1603.9688,1008.4531 Q1603.7656,1008.2656 1603.6563,1007.75 Q1603.6094,1007.3906 1603.4219,1007.2031 Q1603.0938,1006.8281 1602.4844,1006.6094 Q1601.875,1006.3906 1601.25,1006.3906 Q1600.4844,1006.3906 1599.8438,1006.7188 Q1599.2188,1007.0469 1598.7188,1007.7969 Q1598.2344,1008.5469 1598.2344,1009.5781 L1598.2344,1010.6719 Q1598.2344,1011.9063 1599.125,1012.7344 Q1600.0156,1013.5469 1601.6094,1013.5469 Q1602.5469,1013.5469 1603.2031,1013.2969 Q1603.5938,1013.1406 1604.0156,1012.7031 Q1604.2813,1012.4375 1604.4219,1012.3594 Q1604.5781,1012.2813 1604.7813,1012.2813 Q1605.1094,1012.2813 1605.3594,1012.5469 Q1605.625,1012.7969 1605.625,1013.1406 Q1605.625,1013.4844 1605.2813,1013.8906 Q1604.7813,1014.4688 1603.9844,1014.7969 Q1602.9063,1015.25 1601.6094,1015.25 Q1600.0938,1015.25 1598.8906,1014.625 Q1597.9063,1014.125 1597.2188,1013.0625 Q1596.5313,1011.9844 1596.5313,1010.7031 L1596.5313,1009.5469 Q1596.5313,1008.2188 1597.1406,1007.0781 Q1597.7656,1005.9219 1598.8594,1005.3125 Q1599.9531,1004.6875 1601.1875,1004.6875 Q1601.9219,1004.6875 1602.5625,1004.8594 Q1603.2188,1005.0156 1603.7656,1005.375 Z " fill="#000000"/><text fill="#000000" font-family="sans-serif" font-size="12" lengthAdjust="spacing" textLength="156" x="1615" y="1014.4102">NormalTypingGameListener</text><line style="stroke:#A80036;stroke-width:1.5;" x1="1587" x2="1773" y1="1025.5" y2="1025.5"/><line style="stroke:#A80036;stroke-width:1.5;" x1="1587" x2="1773" y1="1033.5" y2="1033.5"/><!--MD5=[d186d861287b343e6ac9df07cc1c8de0]
class HotTypingGameListener--><rect codeLine="137" fill="#FEFECE" filter="url(#f15abkuaw14a4h)" height="48" id="HotTypingGameListener" style="stroke:#A80036;stroke-width:1.5;" width="166" x="1809" y="993.5"/><ellipse cx="1824" cy="1009.5" fill="#ADD1B2" rx="11" ry="11" style="stroke:#A80036;stroke-width:1.0;"/><path d="M1826.7656,1005.375 Q1826.9219,1005.1563 1827.1094,1005.0469 Q1827.2969,1004.9375 1827.5156,1004.9375 Q1827.8906,1004.9375 1828.125,1005.2031 Q1828.3594,1005.4531 1828.3594,1006.0625 L1828.3594,1007.5156 Q1828.3594,1008.125 1828.125,1008.3906 Q1827.8906,1008.6563 1827.5156,1008.6563 Q1827.1719,1008.6563 1826.9688,1008.4531 Q1826.7656,1008.2656 1826.6563,1007.75 Q1826.6094,1007.3906 1826.4219,1007.2031 Q1826.0938,1006.8281 1825.4844,1006.6094 Q1824.875,1006.3906 1824.25,1006.3906 Q1823.4844,1006.3906 1822.8438,1006.7188 Q1822.2188,1007.0469 1821.7188,1007.7969 Q1821.2344,1008.5469 1821.2344,1009.5781 L1821.2344,1010.6719 Q1821.2344,1011.9063 1822.125,1012.7344 Q1823.0156,1013.5469 1824.6094,1013.5469 Q1825.5469,1013.5469 1826.2031,1013.2969 Q1826.5938,1013.1406 1827.0156,1012.7031 Q1827.2813,1012.4375 1827.4219,1012.3594 Q1827.5781,1012.2813 1827.7813,1012.2813 Q1828.1094,1012.2813 1828.3594,1012.5469 Q1828.625,1012.7969 1828.625,1013.1406 Q1828.625,1013.4844 1828.2813,1013.8906 Q1827.7813,1014.4688 1826.9844,1014.7969 Q1825.9063,1015.25 1824.6094,1015.25 Q1823.0938,1015.25 1821.8906,1014.625 Q1820.9063,1014.125 1820.2188,1013.0625 Q1819.5313,1011.9844 1819.5313,1010.7031 L1819.5313,1009.5469 Q1819.5313,1008.2188 1820.1406,1007.0781 Q1820.7656,1005.9219 1821.8594,1005.3125 Q1822.9531,1004.6875 1824.1875,1004.6875 Q1824.9219,1004.6875 1825.5625,1004.8594 Q1826.2188,1005.0156 1826.7656,1005.375 Z " fill="#000000"/><text fill="#000000" font-family="sans-serif" font-size="12" lengthAdjust="spacing" textLength="134" x="1838" y="1014.4102">HotTypingGameListener</text><line style="stroke:#A80036;stroke-width:1.5;" x1="1810" x2="1974" y1="1025.5" y2="1025.5"/><line style="stroke:#A80036;stroke-width:1.5;" x1="1810" x2="1974" y1="1033.5" y2="1033.5"/><!--MD5=[f4abfe78a2e927cf2e914f071f8f9453]
class StandardInputReader--><rect codeLine="139" fill="#FEFECE" filter="url(#f15abkuaw14a4h)" height="48" id="StandardInputReader" style="stroke:#A80036;stroke-width:1.5;" width="150" x="1817" y="1175"/><ellipse cx="1832" cy="1191" fill="#ADD1B2" rx="11" ry="11" style="stroke:#A80036;stroke-width:1.0;"/><path d="M1834.7656,1186.875 Q1834.9219,1186.6563 1835.1094,1186.5469 Q1835.2969,1186.4375 1835.5156,1186.4375 Q1835.8906,1186.4375 1836.125,1186.7031 Q1836.3594,1186.9531 1836.3594,1187.5625 L1836.3594,1189.0156 Q1836.3594,1189.625 1836.125,1189.8906 Q1835.8906,1190.1563 1835.5156,1190.1563 Q1835.1719,1190.1563 1834.9688,1189.9531 Q1834.7656,1189.7656 1834.6563,1189.25 Q1834.6094,1188.8906 1834.4219,1188.7031 Q1834.0938,1188.3281 1833.4844,1188.1094 Q1832.875,1187.8906 1832.25,1187.8906 Q1831.4844,1187.8906 1830.8438,1188.2188 Q1830.2188,1188.5469 1829.7188,1189.2969 Q1829.2344,1190.0469 1829.2344,1191.0781 L1829.2344,1192.1719 Q1829.2344,1193.4063 1830.125,1194.2344 Q1831.0156,1195.0469 1832.6094,1195.0469 Q1833.5469,1195.0469 1834.2031,1194.7969 Q1834.5938,1194.6406 1835.0156,1194.2031 Q1835.2813,1193.9375 1835.4219,1193.8594 Q1835.5781,1193.7813 1835.7813,1193.7813 Q1836.1094,1193.7813 1836.3594,1194.0469 Q1836.625,1194.2969 1836.625,1194.6406 Q1836.625,1194.9844 1836.2813,1195.3906 Q1835.7813,1195.9688 1834.9844,1196.2969 Q1833.9063,1196.75 1832.6094,1196.75 Q1831.0938,1196.75 1829.8906,1196.125 Q1828.9063,1195.625 1828.2188,1194.5625 Q1827.5313,1193.4844 1827.5313,1192.2031 L1827.5313,1191.0469 Q1827.5313,1189.7188 1828.1406,1188.5781 Q1828.7656,1187.4219 1829.8594,1186.8125 Q1830.9531,1186.1875 1832.1875,1186.1875 Q1832.9219,1186.1875 1833.5625,1186.3594 Q1834.2188,1186.5156 1834.7656,1186.875 Z " fill="#000000"/><text fill="#000000" font-family="sans-serif" font-size="12" lengthAdjust="spacing" textLength="118" x="1846" y="1195.9102">StandardInputReader</text><line style="stroke:#A80036;stroke-width:1.5;" x1="1818" x2="1966" y1="1207" y2="1207"/><line style="stroke:#A80036;stroke-width:1.5;" x1="1818" x2="1966" y1="1215" y2="1215"/><path d="M1562,42 L1562,84.7031 L1804,84.7031 L1804,52 L1794,42 L1562,42 " fill="#FBFB77" filter="url(#f15abkuaw14a4h)" style="stroke:#A80036;stroke-width:1.0;"/><path d="M1794,42 L1794,52 L1804,52 L1794,42 " fill="#FBFB77" style="stroke:#A80036;stroke-width:1.0;"/><text fill="#000000" font-family="sans-serif" font-size="13" lengthAdjust="spacing" textLength="221" x="1568" y="60.4951">背景がピンク：新規に作成したクラス</text><text fill="#000000" font-family="sans-serif" font-size="13" lengthAdjust="spacing" textLength="195" x="1568" y="76.8467">背景がオレンジ：修正したクラス</text><!--MD5=[84718776d214be480e4c259efcb737fc]
class Main--><rect codeLine="7" fill="#FEFECE" filter="url(#f15abkuaw14a4h)" height="61.8359" id="Main" style="stroke:#A80036;stroke-width:1.5;" width="58" x="2550" y="986.5"/><ellipse cx="2565" cy="1002.5" fill="#ADD1B2" rx="11" ry="11" style="stroke:#A80036;stroke-width:1.0;"/><path d="M2567.7656,998.375 Q2567.9219,998.1563 2568.1094,998.0469 Q2568.2969,997.9375 2568.5156,997.9375 Q2568.8906,997.9375 2569.125,998.2031 Q2569.3594,998.4531 2569.3594,999.0625 L2569.3594,1000.5156 Q2569.3594,1001.125 2569.125,1001.3906 Q2568.8906,1001.6563 2568.5156,1001.6563 Q2568.1719,1001.6563 2567.9688,1001.4531 Q2567.7656,1001.2656 2567.6563,1000.75 Q2567.6094,1000.3906 2567.4219,1000.2031 Q2567.0938,999.8281 2566.4844,999.6094 Q2565.875,999.3906 2565.25,999.3906 Q2564.4844,999.3906 2563.8438,999.7188 Q2563.2188,1000.0469 2562.7188,1000.7969 Q2562.2344,1001.5469 2562.2344,1002.5781 L2562.2344,1003.6719 Q2562.2344,1004.9063 2563.125,1005.7344 Q2564.0156,1006.5469 2565.6094,1006.5469 Q2566.5469,1006.5469 2567.2031,1006.2969 Q2567.5938,1006.1406 2568.0156,1005.7031 Q2568.2813,1005.4375 2568.4219,1005.3594 Q2568.5781,1005.2813 2568.7813,1005.2813 Q2569.1094,1005.2813 2569.3594,1005.5469 Q2569.625,1005.7969 2569.625,1006.1406 Q2569.625,1006.4844 2569.2813,1006.8906 Q2568.7813,1007.4688 2567.9844,1007.7969 Q2566.9063,1008.25 2565.6094,1008.25 Q2564.0938,1008.25 2562.8906,1007.625 Q2561.9063,1007.125 2561.2188,1006.0625 Q2560.5313,1004.9844 2560.5313,1003.7031 L2560.5313,1002.5469 Q2560.5313,1001.2188 2561.1406,1000.0781 Q2561.7656,998.9219 2562.8594,998.3125 Q2563.9531,997.6875 2565.1875,997.6875 Q2565.9219,997.6875 2566.5625,997.8594 Q2567.2188,998.0156 2567.7656,998.375 Z " fill="#000000"/><text fill="#000000" font-family="sans-serif" font-size="12" lengthAdjust="spacing" textLength="26" x="2579" y="1007.4102">Main</text><line style="stroke:#A80036;stroke-width:1.5;" x1="2551" x2="2607" y1="1018.5" y2="1018.5"/><line style="stroke:#A80036;stroke-width:1.5;" x1="2551" x2="2607" y1="1026.5" y2="1026.5"/><ellipse cx="2561" cy="1037.5" fill="#84BE84" rx="3" ry="3" style="stroke:#038048;stroke-width:1.0;"/><text fill="#000000" font-family="sans-serif" font-size="11" lengthAdjust="spacing" text-decoration="underline" textLength="30" x="2570" y="1041.9189">main()</text><!--MD5=[b86e526cda9aceca2ffde23f8b6235ea]
reverse link NextQuestionGenerator to NotMatchPreviousNextQuestionGenerator--><path d="M434,795.39 C434,846.21 434,923.9 434,972.37 " fill="none" id="NextQuestionGenerator-backto-NotMatchPreviousNextQuestionGenerator" style="stroke:#A80036;stroke-width:1.0;stroke-dasharray:7.0,7.0;"/><polygon fill="none" points="427,795.09,434,775.09,441,795.09,427,795.09" style="stroke:#A80036;stroke-width:1.0;"/><!--MD5=[729a6d74b6fdd7857230e4354fab65a9]
reverse link TypingGameListener to NormalTypingGameListener--><path d="M730.86,815.99 C749.74,831.57 771.33,846.07 794,855 C803.73,858.83 1536.35,889.96 1546,894 C1596.6,915.17 1640.32,964.15 1663.14,993.36 " fill="none" id="TypingGameListener-backto-NormalTypingGameListener" style="stroke:#A80036;stroke-width:1.0;stroke-dasharray:7.0,7.0;"/><polygon fill="none" points="726.15,821.16,715.68,802.74,735.35,810.61,726.15,821.16" style="stroke:#A80036;stroke-width:1.0;"/><!--MD5=[a32b9b424c795ab7f3eb6a5a41846eb5]
reverse link TypingGameListener to HotTypingGameListener--><path d="M730.52,815.97 C749.46,831.63 771.17,846.18 794,855 C1001.03,935 1593.38,794.95 1792,894 C1834.75,915.32 1865.58,964.25 1880.95,993.41 " fill="none" id="TypingGameListener-backto-HotTypingGameListener" style="stroke:#A80036;stroke-width:1.0;stroke-dasharray:7.0,7.0;"/><polygon fill="none" points="725.73,821.08,715.29,802.64,734.95,810.55,725.73,821.08" style="stroke:#A80036;stroke-width:1.0;"/><!--MD5=[7d4fbd04de787f9eae622748002f4869]
link ConsoleConductor to Main--><path codeLine="142" d="M2479.69,1017.5 C2507.33,1017.5 2531.98,1017.5 2549.81,1017.5 " fill="none" id="ConsoleConductor-Main" style="stroke:#A80036;stroke-width:1.0;"/><polygon fill="#000000" points="2496.75,1005.6758,2505.7951,1008.6147,2505.7951,1002.7369,2496.75,1005.6758" style="stroke:#000000;stroke-width:1.0;"/><text fill="#000000" font-family="sans-serif" font-size="13" lengthAdjust="spacing" textLength="21" x="2510.75" y="1010.9951">use</text><!--MD5=[a9d96d93fd5355523f8d931743992c3f]
link ConsoleConductor to TypingGameFactory--><path codeLine="144" d="M2171.06,937.75 C2025.89,788.87 1686.45,468.42 1329,327 C1030.52,208.91 928.2,298.16 611,249 C574.24,243.3 534.69,235.91 498.14,228.54 " fill="none" id="ConsoleConductor-TypingGameFactory" style="stroke:#A80036;stroke-width:1.0;"/><polygon fill="#000000" points="1794.3966,592.2242,1801.5771,598.4604,1803.8713,593.0488,1794.3966,592.2242" style="stroke:#000000;stroke-width:1.0;"/><text fill="#000000" font-family="sans-serif" font-size="13" lengthAdjust="spacing" textLength="21" x="1808" y="599.4951">use</text><!--MD5=[e6e86557c52ee27761d30c2f9cfbea47]
link ConsoleConductor to StandardInputReader--><path codeLine="145" d="M2090.43,1097.1 C2034.81,1125.38 1976.25,1155.16 1937.28,1174.97 " fill="none" id="ConsoleConductor-StandardInputReader" style="stroke:#A80036;stroke-width:1.0;"/><polygon fill="#000000" points="2026.543,1138.4419,2035.9378,1136.9621,2033.2737,1131.7227,2026.543,1138.4419" style="stroke:#000000;stroke-width:1.0;"/><text fill="#000000" font-family="sans-serif" font-size="13" lengthAdjust="spacing" textLength="21" x="2040" y="1141.4951">use</text><!--MD5=[29950e6704daaa6cb4d0465601d39189]
link TypingGameFactory to QuestionFactory--><path codeLine="147" d="M340.44,228.6 C310.29,272.73 254.13,354.92 221.43,402.78 " fill="none" id="TypingGameFactory-QuestionFactory" style="stroke:#A80036;stroke-width:1.0;"/><polygon fill="#000000" points="304.1793,292.3041,311.7086,286.4939,306.8554,283.1779,304.1793,292.3041" style="stroke:#000000;stroke-width:1.0;"/><text fill="#000000" font-family="sans-serif" font-size="13" lengthAdjust="spacing" textLength="21" x="316" y="293.4951">use</text><!--MD5=[6b3b7f30ae553f3c46479237facef8d4]
link TypingGameFactory to TypingGameMode--><path codeLine="148" d="M385.68,228.6 C409.36,257.49 446.43,302.7 480.22,343.91 " fill="none" id="TypingGameFactory-TypingGameMode" style="stroke:#A80036;stroke-width:1.0;"/><polygon fill="#000000" points="444.1701,292.0424,440.708,283.1843,436.1626,286.911,444.1701,292.0424" style="stroke:#000000;stroke-width:1.0;"/><text fill="#000000" font-family="sans-serif" font-size="13" lengthAdjust="spacing" textLength="21" x="450" y="293.4951">use</text><!--MD5=[34053be3dab4592b4a82eb1e2fe8c8dd]
link TypingGameFactory to TypingGame--><path codeLine="150" d="M453.51,228.61 C530.68,254.01 643.4,291.76 741,327 C746.66,329.04 752.37,331.12 758.13,333.22 " fill="none" id="TypingGameFactory-TypingGame" style="stroke:#A80036;stroke-width:1.0;"/><polygon fill="#000000" points="656.7289,289.7997,649.1288,284.0824,647.2197,289.6416,656.7289,289.7997" style="stroke:#000000;stroke-width:1.0;"/><text fill="#000000" font-family="sans-serif" font-size="13" lengthAdjust="spacing" textLength="50" x="661" y="293.4951">generate</text><!--MD5=[7b87940b4301618cade711b02849d6e8]
link QuestionFactory to Question--><path codeLine="152" d="M193.4,479.21 C189.66,532.85 182.74,632.05 178.54,692.33 " fill="none" id="QuestionFactory-Question" style="stroke:#A80036;stroke-width:1.0;"/><polygon fill="#000000" points="189.6522,599.1637,193.2132,590.3449,187.3496,589.9361,189.6522,599.1637" style="stroke:#000000;stroke-width:1.0;"/><text fill="#000000" font-family="sans-serif" font-size="13" lengthAdjust="spacing" textLength="50" x="199" y="599.4951">generate</text><!--MD5=[2f163435dbb70469cf58f8a42310b871]
link TypingGameHistory to TypingGame--><path codeLine="154" d="M1280.01,249.13 C1252.03,270.92 1218.07,297.39 1184.45,323.58 " fill="none" id="TypingGameHistory-to-TypingGame" style="stroke:#A80036;stroke-width:1.0;"/><polygon fill="#A80036" points="1180.35,326.77,1189.9081,324.3948,1184.2945,323.6973,1184.9919,318.0836,1180.35,326.77" style="stroke:#A80036;stroke-width:1.0;"/><!--MD5=[44da462e0e37ec5b4424557f44052c2f]
link TypingGame to TypingGameDifficulty--><path codeLine="155" d="M1015.04,555.37 C1010.87,579.01 1006.48,603.97 1002.3,627.69 " fill="none" id="TypingGame-to-TypingGameDifficulty" style="stroke:#A80036;stroke-width:1.0;"/><polygon fill="#A80036" points="1001.42,632.73,1006.9259,624.5639,1002.2906,627.8064,999.0481,623.171,1001.42,632.73" style="stroke:#A80036;stroke-width:1.0;"/><!--MD5=[8e357755c5ee833ed7c109bc7d6b71d2]
link TypingGame to Question--><path codeLine="156" d="M758.49,549.89 C752.62,551.66 746.79,553.36 741,555 C564.61,604.88 505.06,562.16 336,633 C302.22,647.15 268.24,668.99 240.26,689.48 " fill="none" id="TypingGame-to-Question" style="stroke:#A80036;stroke-width:1.0;"/><polygon fill="#A80036" points="236.18,692.5,245.7973,690.3768,240.2038,689.5321,241.0486,683.9386,236.18,692.5" style="stroke:#A80036;stroke-width:1.0;"/><!--MD5=[4e9345365ffcc7cc56576d252551d836]
link TypingGame to QuestionResult--><path codeLine="157" d="M1157.03,555.37 C1197.36,592.83 1241.21,633.57 1277.71,667.48 " fill="none" id="TypingGame-to-QuestionResult" style="stroke:#A80036;stroke-width:1.0;"/><polygon fill="#A80036" points="1281.67,671.16,1277.8021,662.1024,1278.0081,667.7556,1272.355,667.9615,1281.67,671.16" style="stroke:#A80036;stroke-width:1.0;"/><!--MD5=[cbe695f3de70804266794fb73b9824b3]
link TypingGame to TypingGameListener--><path codeLine="158" d="M890.78,555.21 C858.78,580.64 825.13,607.6 794,633 C774.85,648.62 754.31,665.71 735.31,681.66 " fill="none" id="TypingGame-to-TypingGameListener" style="stroke:#A80036;stroke-width:1.0;"/><polygon fill="#A80036" points="731.03,685.26,740.4948,682.5366,734.8594,682.045,735.3509,676.4096,731.03,685.26" style="stroke:#A80036;stroke-width:1.0;"/><!--MD5=[f67cf3485ad5f75e9c57bb84cb338c88]
link TypingGame to NextQuestionGenerator--><path codeLine="159" d="M758.42,548.38 C752.56,550.61 746.75,552.82 741,555 C648.7,590.04 614.58,577.38 533,633 C503.1,653.39 476.13,684.64 457.92,708.63 " fill="none" id="TypingGame-to-NextQuestionGenerator" style="stroke:#A80036;stroke-width:1.0;"/><polygon fill="#A80036" points="454.85,712.72,463.45,707.92,457.85,708.72,457.05,703.12,454.85,712.72" style="stroke:#A80036;stroke-width:1.0;"/><!--MD5=[a0eefe7436a21ea046337e0d0db283fe]
link NormalTypingGameListener to StandardInputReader--><path codeLine="161" d="M1707.28,1041.6 C1747.99,1076.07 1824.18,1140.57 1864.82,1174.99 " fill="none" id="NormalTypingGameListener-StandardInputReader" style="stroke:#A80036;stroke-width:1.0;"/><polygon fill="#000000" points="1837.8159,1139.4067,1832.812,1131.319,1829.0138,1135.8048,1837.8159,1139.4067" style="stroke:#000000;stroke-width:1.0;"/><text fill="#000000" font-family="sans-serif" font-size="13" lengthAdjust="spacing" textLength="21" x="1843" y="1141.4951">use</text><!--MD5=[27813efbc90f605ecd206e0aed2fb53f]
link HotTypingGameListener to StandardInputReader--><path codeLine="162" d="M1892,1041.6 C1892,1076.07 1892,1140.57 1892,1174.99 " fill="none" id="HotTypingGameListener-StandardInputReader" style="stroke:#A80036;stroke-width:1.0;"/><polygon fill="#000000" points="1897,1141.1758,1899.9389,1132.1307,1894.0611,1132.1307,1897,1141.1758" style="stroke:#000000;stroke-width:1.0;"/><text fill="#000000" font-family="sans-serif" font-size="13" lengthAdjust="spacing" textLength="21" x="1906" y="1141.4951">use</text><!--MD5=[70ae6c70e08171da6105d767e46eed95]
@startuml 08_externalization_question_generator

note as note_main
  背景がピンク：新規に作成したクラス
  背景がオレンジ：修正したクラス
end note

class Main {
  + {static} main()
}

package business {
  class TypingGame #Orange {
    - TypingGameDifficulty difficulty
    - TypingGameListener listener
    - NextQuestionGenerator generator
    - List<QuestionResult> results
    - ZonedDateTime startTime
    - ZonedDateTime endTime
    + TypingGame(TypingGameDifficulty difficulty, TypingGameListener listener, NextQuestionGenerator generator)
    + void execute()
    + List<QuestionResult> getResults()
    + long getTimeToCalculate()
    + boolean isSameDifficulty(TypingGameDifficulty difficulty)
    + int getNumberOfQuestions()
    - String toString()
  }
  note top
    NextQuestionGeneratorを介して次の問題を生成することによって、
    TypingGameから次の問題を生成する処理との依存関係を切り離すことが出来た。
  end note

  interface TypingGameListener {
    void onGameStart(TypingGame typingGame)
    void onGameEnd(TypingGame typingGame)
    String receiveAnswer(Question question)
    void onJudgeOK(TypingGame typingGame)
    void onJudgeNG(TypingGame typingGame)
  }

  interface NextQuestionGenerator #Pink {
    Question generate()
  }

  class NotMatchPreviousNextQuestionGenerator #Pink implements NextQuestionGenerator {
    - List<Question> questions
    - Question prevQuestion
    + NotMatchPreviousNextQuestionGenerator(List<Question> questions)
  }
  note bottom of NotMatchPreviousNextQuestionGenerator
    TypingGameから移した次の問題を生成する処理が入っている。
  end note

  enum TypingGameMode {
    + NORMAL
    + HOT
    ..
    - String name
    - int mode
    - boolean defaultMode
    __
    + TypingGameMode(String name, int mode, boolean defaultMode)
    + {static} TypingGameMode of(int mode)
    + {static} TypingGameMode getDefault()
    + String getName()
    + int getMode()
  }

  enum TypingGameDifficulty {
    + EASY
    + NORMAL
    + HARD
    ..
    - String name
    - int level
    - boolean defaultLevel
    __
    + TypingGameDifficulty(String name, int level, boolean defaultLevel)
    + {static} TypingGameDifficulty of(int level)
    + {static} TypingGameDifficulty getDefault()
    + String getName()
    + int getLevel()
    + boolean lessThan(TypingGameDifficulty difficulty)
  }

  class TypingGameHistory {
    - List<TypingGame> typingGames
    + void add(TypingGame typingGame)
    + List<TypingGame> sortedTypingGames(TypingGameDifficulty difficulty)
    - List<TypingGame> getTypingGames(TypingGameDifficulty difficulty)
  }

  class TypingGameFactory #Orange {
    + {static} TypingGame generate(TypingGameDifficulty difficulty, TypingGameMode typingGameMode)
  }
  note top 
    TypingGameFactoryでNextQuestionGeneratorの
    実装クラスを設定するように修正。
  end note

  class Question {
    - String word
    - TypingGameDifficulty difficulty
    + Question(String word, TypingGameDifficulty difficulty)
    + String getWord()
  }

  class QuestionResult {
    - Question question
    - String answer
    - boolean judge
    + QuestionResult(Question question, String answer, boolean judge)
    + Question getQuestion()
    + String getAnswer()
    + boolean isJudge()
  }

  class QuestionFactory {
    + static List<Question> generate(TypingGameDifficulty difficulty)
    - static List<Question> generate()
  }
}

package ui {
  class ConsoleConductor {
    + execute()
    - TypingGameDifficulty displayInputDifficulty()
    - TypingGameMode displayInputMode()
    - void displayCountDown()
    - void displayResult(TypingGame typingGame)
    - void displayRanking(TypingGameHistory typingGameHistory, TypingGameDifficulty difficulty)
    - boolean displayInputRetry()
    - static int getInputInt(int defaultValue)
  }

  class NormalTypingGameListener implements TypingGameListener

  class HotTypingGameListener implements TypingGameListener

  class StandardInputReader {}
}

Main -l- ConsoleConductor : use >

ConsoleConductor - - TypingGameFactory : use >
ConsoleConductor - - StandardInputReader : use >

TypingGameFactory - - QuestionFactory : use >
TypingGameFactory - - TypingGameMode : use >

TypingGameFactory - - TypingGame : generate >

QuestionFactory - - Question : generate >

TypingGameHistory - -> TypingGame
TypingGame - -> TypingGameDifficulty
TypingGame - -> Question
TypingGame - -> QuestionResult
TypingGame - -> TypingGameListener
TypingGame - -> NextQuestionGenerator

NormalTypingGameListener - - StandardInputReader : use >
HotTypingGameListener - - StandardInputReader : use >

@enduml

PlantUML version 1.2022.0(Wed Jan 12 01:16:42 JST 2022)
(GPL source distribution)
Java Runtime: OpenJDK Runtime Environment
JVM: OpenJDK 64-Bit Server VM
Default Encoding: UTF-8
Language: ja
Country: JP
--></g></svg>