<?xml version="1.0" encoding="UTF-8" standalone="no"?><svg xmlns="http://www.w3.org/2000/svg" xmlns:xlink="http://www.w3.org/1999/xlink" contentScriptType="application/ecmascript" contentStyleType="text/css" height="1375px" preserveAspectRatio="none" style="width:2822px;height:1375px;background:#FFFFFF;" version="1.1" viewBox="0 0 2822 1375" width="2822px" zoomAndPan="magnify"><defs><filter height="300%" id="fkl4i6yeutyul" width="300%" x="-1" y="-1"><feGaussianBlur result="blurOut" stdDeviation="2.0"/><feColorMatrix in="blurOut" result="blurOut2" type="matrix" values="0 0 0 0 0 0 0 0 0 0 0 0 0 0 0 0 0 0 .4 0"/><feOffset dx="4.0" dy="4.0" in="blurOut2" result="blurOut3"/><feBlend in="SourceGraphic" in2="blurOut3" mode="normal"/></filter></defs><g><!--MD5=[3e40ca210742478abcfff4771cfda9c4]
cluster business--><polygon fill="#FFFFFF" filter="url(#fkl4i6yeutyul)" points="16,6,86,6,93,29.6094,1746,29.6094,1746,1368,16,1368,16,6" style="stroke:#000000;stroke-width:1.5;"/><line style="stroke:#000000;stroke-width:1.5;" x1="16" x2="93" y1="29.6094" y2="29.6094"/><text fill="#000000" font-family="sans-serif" font-size="14" font-weight="bold" lengthAdjust="spacing" textLength="64" x="20" y="22.5332">business</text><!--MD5=[64e2e010ba86d7988e5cd73bd64f61f9]
cluster ui--><polygon fill="#FFFFFF" filter="url(#fkl4i6yeutyul)" points="1770,902,1789,902,1796,925.6094,2696,925.6094,2696,1267,1770,1267,1770,902" style="stroke:#000000;stroke-width:1.5;"/><line style="stroke:#000000;stroke-width:1.5;" x1="1770" x2="1796" y1="925.6094" y2="925.6094"/><text fill="#000000" font-family="sans-serif" font-size="14" font-weight="bold" lengthAdjust="spacing" textLength="13" x="1774" y="918.5332">ui</text><!--MD5=[738c7c2ff5aeb58de2a1e5f3ac886fb6]
class TypingGame--><rect codeLine="12" fill="#FEFECE" filter="url(#fkl4i6yeutyul)" height="227.8672" id="TypingGame" style="stroke:#A80036;stroke-width:1.5;" width="553" x="32.5" y="327"/><ellipse cx="269.75" cy="343" fill="#ADD1B2" rx="11" ry="11" style="stroke:#A80036;stroke-width:1.0;"/><path d="M272.5156,338.875 Q272.6719,338.6563 272.8594,338.5469 Q273.0469,338.4375 273.2656,338.4375 Q273.6406,338.4375 273.875,338.7031 Q274.1094,338.9531 274.1094,339.5625 L274.1094,341.0156 Q274.1094,341.625 273.875,341.8906 Q273.6406,342.1563 273.2656,342.1563 Q272.9219,342.1563 272.7188,341.9531 Q272.5156,341.7656 272.4063,341.25 Q272.3594,340.8906 272.1719,340.7031 Q271.8438,340.3281 271.2344,340.1094 Q270.625,339.8906 270,339.8906 Q269.2344,339.8906 268.5938,340.2188 Q267.9688,340.5469 267.4688,341.2969 Q266.9844,342.0469 266.9844,343.0781 L266.9844,344.1719 Q266.9844,345.4063 267.875,346.2344 Q268.7656,347.0469 270.3594,347.0469 Q271.2969,347.0469 271.9531,346.7969 Q272.3438,346.6406 272.7656,346.2031 Q273.0313,345.9375 273.1719,345.8594 Q273.3281,345.7813 273.5313,345.7813 Q273.8594,345.7813 274.1094,346.0469 Q274.375,346.2969 274.375,346.6406 Q274.375,346.9844 274.0313,347.3906 Q273.5313,347.9688 272.7344,348.2969 Q271.6563,348.75 270.3594,348.75 Q268.8438,348.75 267.6406,348.125 Q266.6563,347.625 265.9688,346.5625 Q265.2813,345.4844 265.2813,344.2031 L265.2813,343.0469 Q265.2813,341.7188 265.8906,340.5781 Q266.5156,339.4219 267.6094,338.8125 Q268.7031,338.1875 269.9375,338.1875 Q270.6719,338.1875 271.3125,338.3594 Q271.9688,338.5156 272.5156,338.875 Z " fill="#000000"/><text fill="#000000" font-family="sans-serif" font-size="12" lengthAdjust="spacing" textLength="70" x="290.25" y="347.9102">TypingGame</text><line style="stroke:#A80036;stroke-width:1.5;" x1="33.5" x2="584.5" y1="359" y2="359"/><rect fill="none" height="6" style="stroke:#C82930;stroke-width:1.0;" width="6" x="40.5" y="367"/><text fill="#000000" font-family="sans-serif" font-size="11" lengthAdjust="spacing" textLength="146" x="52.5" y="374.4189">TypingGameDifficulty difficulty</text><rect fill="none" height="6" style="stroke:#C82930;stroke-width:1.0;" width="6" x="40.5" y="380.8359"/><text fill="#000000" font-family="sans-serif" font-size="11" lengthAdjust="spacing" textLength="137" x="52.5" y="388.2549">TypingGameListener listener</text><rect fill="none" height="6" style="stroke:#C82930;stroke-width:1.0;" width="6" x="40.5" y="394.6719"/><text fill="#000000" font-family="sans-serif" font-size="11" lengthAdjust="spacing" textLength="164" x="52.5" y="402.0908">NextQuestionGenerator generator</text><rect fill="none" height="6" style="stroke:#C82930;stroke-width:1.0;" width="6" x="40.5" y="408.5078"/><text fill="#000000" font-family="sans-serif" font-size="11" lengthAdjust="spacing" textLength="138" x="52.5" y="415.9268">List&lt;QuestionResult&gt; results</text><rect fill="none" height="6" style="stroke:#C82930;stroke-width:1.0;" width="6" x="40.5" y="422.3438"/><text fill="#000000" font-family="sans-serif" font-size="11" lengthAdjust="spacing" textLength="122" x="52.5" y="429.7627">ZonedDateTime startTime</text><rect fill="none" height="6" style="stroke:#C82930;stroke-width:1.0;" width="6" x="40.5" y="436.1797"/><text fill="#000000" font-family="sans-serif" font-size="11" lengthAdjust="spacing" textLength="118" x="52.5" y="443.5986">ZonedDateTime endTime</text><line style="stroke:#A80036;stroke-width:1.5;" x1="33.5" x2="584.5" y1="450.0156" y2="450.0156"/><ellipse cx="43.5" cy="461.0156" fill="#84BE84" rx="3" ry="3" style="stroke:#038048;stroke-width:1.0;"/><text fill="#000000" font-family="sans-serif" font-size="11" lengthAdjust="spacing" textLength="527" x="52.5" y="465.4346">TypingGame(TypingGameDifficulty difficulty, TypingGameListener listener, NextQuestionGenerator generator)</text><ellipse cx="43.5" cy="474.8516" fill="#84BE84" rx="3" ry="3" style="stroke:#038048;stroke-width:1.0;"/><text fill="#000000" font-family="sans-serif" font-size="11" lengthAdjust="spacing" textLength="70" x="52.5" y="479.2705">void execute()</text><ellipse cx="43.5" cy="488.6875" fill="#84BE84" rx="3" ry="3" style="stroke:#038048;stroke-width:1.0;"/><text fill="#000000" font-family="sans-serif" font-size="11" lengthAdjust="spacing" textLength="164" x="52.5" y="493.1064">List&lt;QuestionResult&gt; getResults()</text><ellipse cx="43.5" cy="502.5234" fill="#84BE84" rx="3" ry="3" style="stroke:#038048;stroke-width:1.0;"/><text fill="#000000" font-family="sans-serif" font-size="11" lengthAdjust="spacing" textLength="124" x="52.5" y="506.9424">long getTimeToCalculate()</text><ellipse cx="43.5" cy="516.3594" fill="#84BE84" rx="3" ry="3" style="stroke:#038048;stroke-width:1.0;"/><text fill="#000000" font-family="sans-serif" font-size="11" lengthAdjust="spacing" textLength="272" x="52.5" y="520.7783">boolean isSameDifficulty(TypingGameDifficulty difficulty)</text><ellipse cx="43.5" cy="530.1953" fill="#84BE84" rx="3" ry="3" style="stroke:#038048;stroke-width:1.0;"/><text fill="#000000" font-family="sans-serif" font-size="11" lengthAdjust="spacing" textLength="135" x="52.5" y="534.6143">int getNumberOfQuestions()</text><rect fill="#F24D5C" height="6" style="stroke:#C82930;stroke-width:1.0;" width="6" x="40.5" y="541.0313"/><text fill="#000000" font-family="sans-serif" font-size="11" lengthAdjust="spacing" textLength="76" x="52.5" y="548.4502">String toString()</text><!--MD5=[16e97334476463f55178dcd7b6f0e90d]
class TypingGameListener--><rect codeLine="28" fill="#FEFECE" filter="url(#fkl4i6yeutyul)" height="117.1797" id="TypingGameListener" style="stroke:#A80036;stroke-width:1.5;" width="226" x="606" y="685.5"/><ellipse cx="657.25" cy="701.5" fill="#B4A7E5" rx="11" ry="11" style="stroke:#A80036;stroke-width:1.0;"/><path d="M658.2031,698.1406 L658.2031,704.7969 L659.9219,704.7969 Q660.5313,704.7969 660.7969,705.0313 Q661.0625,705.2656 661.0625,705.6563 Q661.0625,706.0313 660.7969,706.2656 Q660.5313,706.5 659.9219,706.5 L654.7813,706.5 Q654.1719,706.5 653.9063,706.2656 Q653.6406,706.0313 653.6406,705.6406 Q653.6406,705.2656 653.9063,705.0313 Q654.1719,704.7969 654.7813,704.7969 L656.5,704.7969 L656.5,698.1406 L654.7813,698.1406 Q654.1719,698.1406 653.9063,697.9063 Q653.6406,697.6719 653.6406,697.2813 Q653.6406,696.9063 653.9063,696.6719 Q654.1719,696.4375 654.7813,696.4375 L659.9219,696.4375 Q660.5313,696.4375 660.7969,696.6719 Q661.0625,696.9063 661.0625,697.2813 Q661.0625,697.6719 660.7969,697.9063 Q660.5313,698.1406 659.9219,698.1406 L658.2031,698.1406 Z " fill="#000000"/><text fill="#000000" font-family="sans-serif" font-size="12" font-style="italic" lengthAdjust="spacing" textLength="115" x="677.75" y="706.4102">TypingGameListener</text><line style="stroke:#A80036;stroke-width:1.5;" x1="607" x2="831" y1="717.5" y2="717.5"/><line style="stroke:#A80036;stroke-width:1.5;" x1="607" x2="831" y1="725.5" y2="725.5"/><text fill="#000000" font-family="sans-serif" font-size="11" lengthAdjust="spacing" textLength="214" x="612" y="740.9189">void onGameStart(TypingGame typingGame)</text><text fill="#000000" font-family="sans-serif" font-size="11" lengthAdjust="spacing" textLength="209" x="612" y="754.7549">void onGameEnd(TypingGame typingGame)</text><text fill="#000000" font-family="sans-serif" font-size="11" lengthAdjust="spacing" textLength="202" x="612" y="768.5908">String receiveAnswer(Question question)</text><text fill="#000000" font-family="sans-serif" font-size="11" lengthAdjust="spacing" textLength="207" x="612" y="782.4268">void onJudgeOK(TypingGame typingGame)</text><text fill="#000000" font-family="sans-serif" font-size="11" lengthAdjust="spacing" textLength="207" x="612" y="796.2627">void onJudgeNG(TypingGame typingGame)</text><!--MD5=[8ebf1df77a58ffbe767c3d2afcefdd5e]
class NextQuestionGenerator--><rect codeLine="36" fill="#FEFECE" filter="url(#fkl4i6yeutyul)" height="61.8359" id="NextQuestionGenerator" style="stroke:#A80036;stroke-width:1.5;" width="161" x="409.5" y="713"/><ellipse cx="424.5" cy="729" fill="#B4A7E5" rx="11" ry="11" style="stroke:#A80036;stroke-width:1.0;"/><path d="M425.4531,725.6406 L425.4531,732.2969 L427.1719,732.2969 Q427.7813,732.2969 428.0469,732.5313 Q428.3125,732.7656 428.3125,733.1563 Q428.3125,733.5313 428.0469,733.7656 Q427.7813,734 427.1719,734 L422.0313,734 Q421.4219,734 421.1563,733.7656 Q420.8906,733.5313 420.8906,733.1406 Q420.8906,732.7656 421.1563,732.5313 Q421.4219,732.2969 422.0313,732.2969 L423.75,732.2969 L423.75,725.6406 L422.0313,725.6406 Q421.4219,725.6406 421.1563,725.4063 Q420.8906,725.1719 420.8906,724.7813 Q420.8906,724.4063 421.1563,724.1719 Q421.4219,723.9375 422.0313,723.9375 L427.1719,723.9375 Q427.7813,723.9375 428.0469,724.1719 Q428.3125,724.4063 428.3125,724.7813 Q428.3125,725.1719 428.0469,725.4063 Q427.7813,725.6406 427.1719,725.6406 L425.4531,725.6406 Z " fill="#000000"/><text fill="#000000" font-family="sans-serif" font-size="12" font-style="italic" lengthAdjust="spacing" textLength="129" x="438.5" y="733.9102">NextQuestionGenerator</text><line style="stroke:#A80036;stroke-width:1.5;" x1="410.5" x2="569.5" y1="745" y2="745"/><line style="stroke:#A80036;stroke-width:1.5;" x1="410.5" x2="569.5" y1="753" y2="753"/><text fill="#000000" font-family="sans-serif" font-size="11" lengthAdjust="spacing" textLength="97" x="415.5" y="768.4189">Question generate()</text><!--MD5=[d5bf7fe7dc694505994dd41c6fa071e3]
class AbstractNextQuestionGenerator--><rect codeLine="40" fill="#FFC0CB" filter="url(#fkl4i6yeutyul)" height="75.6719" id="AbstractNextQuestionGenerator" style="stroke:#A80036;stroke-width:1.5;" width="312" x="334" y="986.5"/><ellipse cx="398.75" cy="1002.5" fill="#A9DCDF" rx="11" ry="11" style="stroke:#A80036;stroke-width:1.0;"/><path d="M400.9375,1004.2656 L396.7969,1004.2656 L396.375,1005.2969 L396.7969,1005.2969 Q397.4063,1005.2969 397.6719,1005.5313 Q397.9375,1005.7656 397.9375,1006.1563 Q397.9375,1006.5313 397.6719,1006.7656 Q397.4063,1007 396.7969,1007 L394.5,1007 Q393.8906,1007 393.6406,1006.7656 Q393.375,1006.5313 393.375,1006.1406 Q393.375,1005.7656 393.6563,1005.5313 Q393.9219,1005.2813 394.5469,1005.2969 L397.2188,998.6406 L396.1094,998.6406 Q395.5,998.6406 395.2344,998.4063 Q394.9688,998.1719 394.9688,997.7813 Q394.9688,997.4063 395.2344,997.1719 Q395.5,996.9375 396.1094,996.9375 L399.7813,996.9375 L403.1719,1005.2969 Q403.7656,1005.2969 403.9531,1005.4375 Q404.3438,1005.7031 404.3438,1006.1563 Q404.3438,1006.5313 404.0781,1006.7656 Q403.8281,1007 403.2188,1007 L400.9219,1007 Q400.3125,1007 400.0469,1006.7656 Q399.7813,1006.5313 399.7813,1006.1406 Q399.7813,1005.7656 400.0469,1005.5313 Q400.3125,1005.2969 400.9219,1005.2969 L401.3438,1005.2969 L400.9375,1004.2656 Z M400.2188,1002.5625 L398.8594,999.1875 L397.4844,1002.5625 L400.2188,1002.5625 Z " fill="#000000"/><text fill="#000000" font-family="sans-serif" font-size="12" font-style="italic" lengthAdjust="spacing" textLength="174" x="419.25" y="1007.4102">AbstractNextQuestionGenerator</text><line style="stroke:#A80036;stroke-width:1.5;" x1="335" x2="645" y1="1018.5" y2="1018.5"/><rect fill="none" height="6" style="stroke:#C82930;stroke-width:1.0;" width="6" x="342" y="1026.5"/><text fill="#000000" font-family="sans-serif" font-size="11" lengthAdjust="spacing" textLength="122" x="354" y="1033.9189">List&lt;Question&gt; questions</text><line style="stroke:#A80036;stroke-width:1.5;" x1="335" x2="645" y1="1040.3359" y2="1040.3359"/><ellipse cx="345" cy="1051.3359" fill="#84BE84" rx="3" ry="3" style="stroke:#038048;stroke-width:1.0;"/><text fill="#000000" font-family="sans-serif" font-size="11" lengthAdjust="spacing" textLength="286" x="354" y="1055.7549">AbstractNextQuestionGenerator(List&lt;Question&gt; questions)</text><path d="M681.5,1003 L681.5,1020.5 L646.33,1024.5 L681.5,1028.5 L681.5,1045.7031 A0,0 0 0 0 681.5,1045.7031 L1226.5,1045.7031 A0,0 0 0 0 1226.5,1045.7031 L1226.5,1013 L1216.5,1003 L681.5,1003 A0,0 0 0 0 681.5,1003 " fill="#FBFB77" filter="url(#fkl4i6yeutyul)" style="stroke:#A80036;stroke-width:1.0;"/><path d="M1216.5,1003 L1216.5,1013 L1226.5,1013 L1216.5,1003 " fill="#FBFB77" style="stroke:#A80036;stroke-width:1.0;"/><text fill="#000000" font-family="sans-serif" font-size="13" lengthAdjust="spacing" textLength="524" x="687.5" y="1021.4951">questionsは両方の実装クラスで持つため、抽象クラスをインターフェースと間に挟んで、</text><text fill="#000000" font-family="sans-serif" font-size="13" lengthAdjust="spacing" textLength="169" x="687.5" y="1037.8467">変数を持たせるようにした。</text><!--MD5=[fa66635db34bf884a16b1634e5ffc46d]
class NotMatchPreviousNextQuestionGenerator--><rect codeLine="49" fill="#FFA500" filter="url(#fkl4i6yeutyul)" height="75.6719" id="NotMatchPreviousNextQuestionGenerator" style="stroke:#A80036;stroke-width:1.5;" width="357" x="168.5" y="1189"/><ellipse cx="228.75" cy="1205" fill="#ADD1B2" rx="11" ry="11" style="stroke:#A80036;stroke-width:1.0;"/><path d="M231.5156,1200.875 Q231.6719,1200.6563 231.8594,1200.5469 Q232.0469,1200.4375 232.2656,1200.4375 Q232.6406,1200.4375 232.875,1200.7031 Q233.1094,1200.9531 233.1094,1201.5625 L233.1094,1203.0156 Q233.1094,1203.625 232.875,1203.8906 Q232.6406,1204.1563 232.2656,1204.1563 Q231.9219,1204.1563 231.7188,1203.9531 Q231.5156,1203.7656 231.4063,1203.25 Q231.3594,1202.8906 231.1719,1202.7031 Q230.8438,1202.3281 230.2344,1202.1094 Q229.625,1201.8906 229,1201.8906 Q228.2344,1201.8906 227.5938,1202.2188 Q226.9688,1202.5469 226.4688,1203.2969 Q225.9844,1204.0469 225.9844,1205.0781 L225.9844,1206.1719 Q225.9844,1207.4063 226.875,1208.2344 Q227.7656,1209.0469 229.3594,1209.0469 Q230.2969,1209.0469 230.9531,1208.7969 Q231.3438,1208.6406 231.7656,1208.2031 Q232.0313,1207.9375 232.1719,1207.8594 Q232.3281,1207.7813 232.5313,1207.7813 Q232.8594,1207.7813 233.1094,1208.0469 Q233.375,1208.2969 233.375,1208.6406 Q233.375,1208.9844 233.0313,1209.3906 Q232.5313,1209.9688 231.7344,1210.2969 Q230.6563,1210.75 229.3594,1210.75 Q227.8438,1210.75 226.6406,1210.125 Q225.6563,1209.625 224.9688,1208.5625 Q224.2813,1207.4844 224.2813,1206.2031 L224.2813,1205.0469 Q224.2813,1203.7188 224.8906,1202.5781 Q225.5156,1201.4219 226.6094,1200.8125 Q227.7031,1200.1875 228.9375,1200.1875 Q229.6719,1200.1875 230.3125,1200.3594 Q230.9688,1200.5156 231.5156,1200.875 Z " fill="#000000"/><text fill="#000000" font-family="sans-serif" font-size="12" lengthAdjust="spacing" textLength="228" x="249.25" y="1209.9102">NotMatchPreviousNextQuestionGenerator</text><line style="stroke:#A80036;stroke-width:1.5;" x1="169.5" x2="524.5" y1="1221" y2="1221"/><rect fill="none" height="6" style="stroke:#C82930;stroke-width:1.0;" width="6" x="176.5" y="1229"/><text fill="#000000" font-family="sans-serif" font-size="11" lengthAdjust="spacing" textLength="111" x="188.5" y="1236.4189">Question prevQuestion</text><line style="stroke:#A80036;stroke-width:1.5;" x1="169.5" x2="524.5" y1="1242.8359" y2="1242.8359"/><ellipse cx="179.5" cy="1253.8359" fill="#84BE84" rx="3" ry="3" style="stroke:#038048;stroke-width:1.0;"/><text fill="#000000" font-family="sans-serif" font-size="11" lengthAdjust="spacing" textLength="331" x="188.5" y="1258.2549">NotMatchPreviousNextQuestionGenerator(List&lt;Question&gt; questions)</text><!--MD5=[e988674d10764d95a60f997b654a937a]
class NotMatchPastNextQuestionGenerator--><rect codeLine="54" fill="#FFC0CB" filter="url(#fkl4i6yeutyul)" height="75.6719" id="NotMatchPastNextQuestionGenerator" style="stroke:#A80036;stroke-width:1.5;" width="336" x="561" y="1189"/><ellipse cx="622.25" cy="1205" fill="#ADD1B2" rx="11" ry="11" style="stroke:#A80036;stroke-width:1.0;"/><path d="M625.0156,1200.875 Q625.1719,1200.6563 625.3594,1200.5469 Q625.5469,1200.4375 625.7656,1200.4375 Q626.1406,1200.4375 626.375,1200.7031 Q626.6094,1200.9531 626.6094,1201.5625 L626.6094,1203.0156 Q626.6094,1203.625 626.375,1203.8906 Q626.1406,1204.1563 625.7656,1204.1563 Q625.4219,1204.1563 625.2188,1203.9531 Q625.0156,1203.7656 624.9063,1203.25 Q624.8594,1202.8906 624.6719,1202.7031 Q624.3438,1202.3281 623.7344,1202.1094 Q623.125,1201.8906 622.5,1201.8906 Q621.7344,1201.8906 621.0938,1202.2188 Q620.4688,1202.5469 619.9688,1203.2969 Q619.4844,1204.0469 619.4844,1205.0781 L619.4844,1206.1719 Q619.4844,1207.4063 620.375,1208.2344 Q621.2656,1209.0469 622.8594,1209.0469 Q623.7969,1209.0469 624.4531,1208.7969 Q624.8438,1208.6406 625.2656,1208.2031 Q625.5313,1207.9375 625.6719,1207.8594 Q625.8281,1207.7813 626.0313,1207.7813 Q626.3594,1207.7813 626.6094,1208.0469 Q626.875,1208.2969 626.875,1208.6406 Q626.875,1208.9844 626.5313,1209.3906 Q626.0313,1209.9688 625.2344,1210.2969 Q624.1563,1210.75 622.8594,1210.75 Q621.3438,1210.75 620.1406,1210.125 Q619.1563,1209.625 618.4688,1208.5625 Q617.7813,1207.4844 617.7813,1206.2031 L617.7813,1205.0469 Q617.7813,1203.7188 618.3906,1202.5781 Q619.0156,1201.4219 620.1094,1200.8125 Q621.2031,1200.1875 622.4375,1200.1875 Q623.1719,1200.1875 623.8125,1200.3594 Q624.4688,1200.5156 625.0156,1200.875 Z " fill="#000000"/><text fill="#000000" font-family="sans-serif" font-size="12" lengthAdjust="spacing" textLength="205" x="642.75" y="1209.9102">NotMatchPastNextQuestionGenerator</text><line style="stroke:#A80036;stroke-width:1.5;" x1="562" x2="896" y1="1221" y2="1221"/><rect fill="none" height="6" style="stroke:#C82930;stroke-width:1.0;" width="6" x="569" y="1229"/><text fill="#000000" font-family="sans-serif" font-size="11" lengthAdjust="spacing" textLength="152" x="581" y="1236.4189">Set&lt;Question&gt; askedQuestions</text><line style="stroke:#A80036;stroke-width:1.5;" x1="562" x2="896" y1="1242.8359" y2="1242.8359"/><ellipse cx="572" cy="1253.8359" fill="#84BE84" rx="3" ry="3" style="stroke:#038048;stroke-width:1.0;"/><text fill="#000000" font-family="sans-serif" font-size="11" lengthAdjust="spacing" textLength="310" x="581" y="1258.2549">NotMatchPastNextQuestionGenerator(List&lt;Question&gt; questions)</text><path d="M553,1326 L553,1352.3516 A0,0 0 0 0 553,1352.3516 L905,1352.3516 A0,0 0 0 0 905,1352.3516 L905,1336 L895,1326 L733,1326 L729,1265.24 L725,1326 L553,1326 A0,0 0 0 0 553,1326 " fill="#FBFB77" filter="url(#fkl4i6yeutyul)" style="stroke:#A80036;stroke-width:1.0;"/><path d="M895,1326 L895,1336 L905,1336 L895,1326 " fill="#FBFB77" style="stroke:#A80036;stroke-width:1.0;"/><text fill="#000000" font-family="sans-serif" font-size="13" lengthAdjust="spacing" textLength="331" x="559" y="1344.4951">NextQuestionGeneratorの新しい実装クラスを追加した。</text><!--MD5=[9ff0d9e3f56f79f90a7d352b3f3e5a52]
class TypingGameMode--><rect codeLine="62" fill="#FEFECE" filter="url(#fkl4i6yeutyul)" height="194.3594" id="TypingGameMode" style="stroke:#A80036;stroke-width:1.5;" width="329" x="1400.5" y="344"/><ellipse cx="1510.75" cy="360" fill="#EB937F" rx="11" ry="11" style="stroke:#A80036;stroke-width:1.0;"/><path d="M1509.6094,360.7969 L1509.6094,363.2969 L1513.9375,363.2969 L1513.9375,362.375 Q1513.9375,361.7656 1514.1719,361.5 Q1514.4219,361.2344 1514.7969,361.2344 Q1515.1719,361.2344 1515.4063,361.5 Q1515.6406,361.7656 1515.6406,362.375 L1515.6406,365 L1507.6406,365 Q1507.0156,365 1506.75,364.7656 Q1506.5,364.5313 1506.5,364.1406 Q1506.5,363.7656 1506.7656,363.5313 Q1507.0313,363.2969 1507.6406,363.2969 L1507.9063,363.2969 L1507.9063,356.6406 L1507.6406,356.6406 Q1507.0156,356.6406 1506.75,356.4063 Q1506.5,356.1719 1506.5,355.7813 Q1506.5,355.4063 1506.75,355.1719 Q1507.0156,354.9375 1507.6406,354.9375 L1515.2656,354.9375 L1515.2656,357.5313 Q1515.2656,358.1406 1515.0313,358.4063 Q1514.8125,358.6563 1514.4219,358.6563 Q1514.0469,358.6563 1513.8125,358.4063 Q1513.5781,358.1406 1513.5781,357.5313 L1513.5781,356.6406 L1509.6094,356.6406 L1509.6094,359.0938 L1511.0938,359.0938 Q1511.0938,358.4375 1511.2188,358.25 Q1511.4844,357.8438 1511.9531,357.8438 Q1512.3281,357.8438 1512.5625,358.1094 Q1512.7969,358.3594 1512.7969,358.9688 L1512.7969,360.9375 Q1512.7969,361.4844 1512.6719,361.6719 Q1512.4063,362.0625 1511.9531,362.0625 Q1511.4844,362.0625 1511.2188,361.6563 Q1511.0938,361.4688 1511.0938,360.7969 L1509.6094,360.7969 Z " fill="#000000"/><text fill="#000000" font-family="sans-serif" font-size="12" lengthAdjust="spacing" textLength="100" x="1531.25" y="364.9102">TypingGameMode</text><line style="stroke:#A80036;stroke-width:1.5;" x1="1401.5" x2="1728.5" y1="376" y2="376"/><ellipse cx="1411.5" cy="387" rx="3" ry="3" style="stroke:#038048;stroke-width:1.0;fill:none;"/><text fill="#000000" font-family="sans-serif" font-size="11" lengthAdjust="spacing" textLength="44" x="1420.5" y="391.4189">NORMAL</text><ellipse cx="1411.5" cy="400.8359" rx="3" ry="3" style="stroke:#038048;stroke-width:1.0;fill:none;"/><text fill="#000000" font-family="sans-serif" font-size="11" lengthAdjust="spacing" textLength="21" x="1420.5" y="405.2549">HOT</text><line style="stroke:#A80036;stroke-width:1.0;stroke-dasharray:1.0,2.0;" x1="1401.5" x2="1728.5" y1="411.6719" y2="411.6719"/><rect fill="none" height="6" style="stroke:#C82930;stroke-width:1.0;" width="6" x="1408.5" y="419.6719"/><text fill="#000000" font-family="sans-serif" font-size="11" lengthAdjust="spacing" textLength="57" x="1420.5" y="427.0908">String name</text><rect fill="none" height="6" style="stroke:#C82930;stroke-width:1.0;" width="6" x="1408.5" y="433.5078"/><text fill="#000000" font-family="sans-serif" font-size="11" lengthAdjust="spacing" textLength="40" x="1420.5" y="440.9268">int mode</text><rect fill="none" height="6" style="stroke:#C82930;stroke-width:1.0;" width="6" x="1408.5" y="447.3438"/><text fill="#000000" font-family="sans-serif" font-size="11" lengthAdjust="spacing" textLength="100" x="1420.5" y="454.7627">boolean defaultMode</text><line style="stroke:#A80036;stroke-width:1.5;" x1="1401.5" x2="1728.5" y1="461.1797" y2="461.1797"/><ellipse cx="1411.5" cy="472.1797" fill="#84BE84" rx="3" ry="3" style="stroke:#038048;stroke-width:1.0;"/><text fill="#000000" font-family="sans-serif" font-size="11" lengthAdjust="spacing" textLength="303" x="1420.5" y="476.5986">TypingGameMode(String name, int mode, boolean defaultMode)</text><ellipse cx="1411.5" cy="486.0156" fill="#84BE84" rx="3" ry="3" style="stroke:#038048;stroke-width:1.0;"/><text fill="#000000" font-family="sans-serif" font-size="11" lengthAdjust="spacing" text-decoration="underline" textLength="147" x="1420.5" y="490.4346">TypingGameMode of(int mode)</text><ellipse cx="1411.5" cy="499.8516" fill="#84BE84" rx="3" ry="3" style="stroke:#038048;stroke-width:1.0;"/><text fill="#000000" font-family="sans-serif" font-size="11" lengthAdjust="spacing" text-decoration="underline" textLength="146" x="1420.5" y="504.2705">TypingGameMode getDefault()</text><ellipse cx="1411.5" cy="513.6875" fill="#84BE84" rx="3" ry="3" style="stroke:#038048;stroke-width:1.0;"/><text fill="#000000" font-family="sans-serif" font-size="11" lengthAdjust="spacing" textLength="81" x="1420.5" y="518.1064">String getName()</text><ellipse cx="1411.5" cy="527.5234" fill="#84BE84" rx="3" ry="3" style="stroke:#038048;stroke-width:1.0;"/><text fill="#000000" font-family="sans-serif" font-size="11" lengthAdjust="spacing" textLength="63" x="1420.5" y="531.9424">int getMode()</text><!--MD5=[a0f4154cf21c7986d9b4002c345b152e]
class NextQuestionGeneratorMode--><rect codeLine="77" fill="#FFC0CB" filter="url(#fkl4i6yeutyul)" height="194.3594" id="NextQuestionGeneratorMode" style="stroke:#A80036;stroke-width:1.5;" width="383" x="620.5" y="344"/><ellipse cx="728.25" cy="360" fill="#EB937F" rx="11" ry="11" style="stroke:#A80036;stroke-width:1.0;"/><path d="M727.1094,360.7969 L727.1094,363.2969 L731.4375,363.2969 L731.4375,362.375 Q731.4375,361.7656 731.6719,361.5 Q731.9219,361.2344 732.2969,361.2344 Q732.6719,361.2344 732.9063,361.5 Q733.1406,361.7656 733.1406,362.375 L733.1406,365 L725.1406,365 Q724.5156,365 724.25,364.7656 Q724,364.5313 724,364.1406 Q724,363.7656 724.2656,363.5313 Q724.5313,363.2969 725.1406,363.2969 L725.4063,363.2969 L725.4063,356.6406 L725.1406,356.6406 Q724.5156,356.6406 724.25,356.4063 Q724,356.1719 724,355.7813 Q724,355.4063 724.25,355.1719 Q724.5156,354.9375 725.1406,354.9375 L732.7656,354.9375 L732.7656,357.5313 Q732.7656,358.1406 732.5313,358.4063 Q732.3125,358.6563 731.9219,358.6563 Q731.5469,358.6563 731.3125,358.4063 Q731.0781,358.1406 731.0781,357.5313 L731.0781,356.6406 L727.1094,356.6406 L727.1094,359.0938 L728.5938,359.0938 Q728.5938,358.4375 728.7188,358.25 Q728.9844,357.8438 729.4531,357.8438 Q729.8281,357.8438 730.0625,358.1094 Q730.2969,358.3594 730.2969,358.9688 L730.2969,360.9375 Q730.2969,361.4844 730.1719,361.6719 Q729.9063,362.0625 729.4531,362.0625 Q728.9844,362.0625 728.7188,361.6563 Q728.5938,361.4688 728.5938,360.7969 L727.1094,360.7969 Z " fill="#000000"/><text fill="#000000" font-family="sans-serif" font-size="12" lengthAdjust="spacing" textLength="159" x="748.75" y="364.9102">NextQuestionGeneratorMode</text><line style="stroke:#A80036;stroke-width:1.5;" x1="621.5" x2="1002.5" y1="376" y2="376"/><ellipse cx="631.5" cy="387" rx="3" ry="3" style="stroke:#038048;stroke-width:1.0;fill:none;"/><text fill="#000000" font-family="sans-serif" font-size="11" lengthAdjust="spacing" textLength="120" x="640.5" y="391.4189">NOT_MATCH_PREVIOUS</text><ellipse cx="631.5" cy="400.8359" rx="3" ry="3" style="stroke:#038048;stroke-width:1.0;fill:none;"/><text fill="#000000" font-family="sans-serif" font-size="11" lengthAdjust="spacing" textLength="96" x="640.5" y="405.2549">NOT_MATCH_PAST</text><line style="stroke:#A80036;stroke-width:1.0;stroke-dasharray:1.0,2.0;" x1="621.5" x2="1002.5" y1="411.6719" y2="411.6719"/><rect fill="none" height="6" style="stroke:#C82930;stroke-width:1.0;" width="6" x="628.5" y="419.6719"/><text fill="#000000" font-family="sans-serif" font-size="11" lengthAdjust="spacing" textLength="57" x="640.5" y="427.0908">String name</text><rect fill="none" height="6" style="stroke:#C82930;stroke-width:1.0;" width="6" x="628.5" y="433.5078"/><text fill="#000000" font-family="sans-serif" font-size="11" lengthAdjust="spacing" textLength="40" x="640.5" y="440.9268">int mode</text><rect fill="none" height="6" style="stroke:#C82930;stroke-width:1.0;" width="6" x="628.5" y="447.3438"/><text fill="#000000" font-family="sans-serif" font-size="11" lengthAdjust="spacing" textLength="100" x="640.5" y="454.7627">boolean defaultLevel</text><line style="stroke:#A80036;stroke-width:1.5;" x1="621.5" x2="1002.5" y1="461.1797" y2="461.1797"/><ellipse cx="631.5" cy="472.1797" fill="#84BE84" rx="3" ry="3" style="stroke:#038048;stroke-width:1.0;"/><text fill="#000000" font-family="sans-serif" font-size="11" lengthAdjust="spacing" textLength="357" x="640.5" y="476.5986">NextQuestionGeneratorMode(String name, int mode, boolean defaultMode)</text><ellipse cx="631.5" cy="486.0156" fill="#84BE84" rx="3" ry="3" style="stroke:#038048;stroke-width:1.0;"/><text fill="#000000" font-family="sans-serif" font-size="11" lengthAdjust="spacing" text-decoration="underline" textLength="201" x="640.5" y="490.4346">NextQuestionGeneratorMode of(int mode)</text><ellipse cx="631.5" cy="499.8516" fill="#84BE84" rx="3" ry="3" style="stroke:#038048;stroke-width:1.0;"/><text fill="#000000" font-family="sans-serif" font-size="11" lengthAdjust="spacing" text-decoration="underline" textLength="200" x="640.5" y="504.2705">NextQuestionGeneratorMode getDefault()</text><ellipse cx="631.5" cy="513.6875" fill="#84BE84" rx="3" ry="3" style="stroke:#038048;stroke-width:1.0;"/><text fill="#000000" font-family="sans-serif" font-size="11" lengthAdjust="spacing" textLength="81" x="640.5" y="518.1064">String getName()</text><ellipse cx="631.5" cy="527.5234" fill="#84BE84" rx="3" ry="3" style="stroke:#038048;stroke-width:1.0;"/><text fill="#000000" font-family="sans-serif" font-size="11" lengthAdjust="spacing" textLength="63" x="640.5" y="531.9424">int getMode()</text><!--MD5=[2467ab778d54314a3fb6b7e9a32a0937]
class TypingGameDifficulty--><rect codeLine="92" fill="#FEFECE" filter="url(#fkl4i6yeutyul)" height="222.0313" id="TypingGameDifficulty" style="stroke:#A80036;stroke-width:1.5;" width="341" x="867.5" y="633"/><ellipse cx="976.25" cy="649" fill="#EB937F" rx="11" ry="11" style="stroke:#A80036;stroke-width:1.0;"/><path d="M975.1094,649.7969 L975.1094,652.2969 L979.4375,652.2969 L979.4375,651.375 Q979.4375,650.7656 979.6719,650.5 Q979.9219,650.2344 980.2969,650.2344 Q980.6719,650.2344 980.9063,650.5 Q981.1406,650.7656 981.1406,651.375 L981.1406,654 L973.1406,654 Q972.5156,654 972.25,653.7656 Q972,653.5313 972,653.1406 Q972,652.7656 972.2656,652.5313 Q972.5313,652.2969 973.1406,652.2969 L973.4063,652.2969 L973.4063,645.6406 L973.1406,645.6406 Q972.5156,645.6406 972.25,645.4063 Q972,645.1719 972,644.7813 Q972,644.4063 972.25,644.1719 Q972.5156,643.9375 973.1406,643.9375 L980.7656,643.9375 L980.7656,646.5313 Q980.7656,647.1406 980.5313,647.4063 Q980.3125,647.6563 979.9219,647.6563 Q979.5469,647.6563 979.3125,647.4063 Q979.0781,647.1406 979.0781,646.5313 L979.0781,645.6406 L975.1094,645.6406 L975.1094,648.0938 L976.5938,648.0938 Q976.5938,647.4375 976.7188,647.25 Q976.9844,646.8438 977.4531,646.8438 Q977.8281,646.8438 978.0625,647.1094 Q978.2969,647.3594 978.2969,647.9688 L978.2969,649.9375 Q978.2969,650.4844 978.1719,650.6719 Q977.9063,651.0625 977.4531,651.0625 Q976.9844,651.0625 976.7188,650.6563 Q976.5938,650.4688 976.5938,649.7969 L975.1094,649.7969 Z " fill="#000000"/><text fill="#000000" font-family="sans-serif" font-size="12" lengthAdjust="spacing" textLength="115" x="996.75" y="653.9102">TypingGameDifficulty</text><line style="stroke:#A80036;stroke-width:1.5;" x1="868.5" x2="1207.5" y1="665" y2="665"/><ellipse cx="878.5" cy="676" rx="3" ry="3" style="stroke:#038048;stroke-width:1.0;fill:none;"/><text fill="#000000" font-family="sans-serif" font-size="11" lengthAdjust="spacing" textLength="29" x="887.5" y="680.4189">EASY</text><ellipse cx="878.5" cy="689.8359" rx="3" ry="3" style="stroke:#038048;stroke-width:1.0;fill:none;"/><text fill="#000000" font-family="sans-serif" font-size="11" lengthAdjust="spacing" textLength="44" x="887.5" y="694.2549">NORMAL</text><ellipse cx="878.5" cy="703.6719" rx="3" ry="3" style="stroke:#038048;stroke-width:1.0;fill:none;"/><text fill="#000000" font-family="sans-serif" font-size="11" lengthAdjust="spacing" textLength="29" x="887.5" y="708.0908">HARD</text><line style="stroke:#A80036;stroke-width:1.0;stroke-dasharray:1.0,2.0;" x1="868.5" x2="1207.5" y1="714.5078" y2="714.5078"/><rect fill="none" height="6" style="stroke:#C82930;stroke-width:1.0;" width="6" x="875.5" y="722.5078"/><text fill="#000000" font-family="sans-serif" font-size="11" lengthAdjust="spacing" textLength="57" x="887.5" y="729.9268">String name</text><rect fill="none" height="6" style="stroke:#C82930;stroke-width:1.0;" width="6" x="875.5" y="736.3438"/><text fill="#000000" font-family="sans-serif" font-size="11" lengthAdjust="spacing" textLength="36" x="887.5" y="743.7627">int level</text><rect fill="none" height="6" style="stroke:#C82930;stroke-width:1.0;" width="6" x="875.5" y="750.1797"/><text fill="#000000" font-family="sans-serif" font-size="11" lengthAdjust="spacing" textLength="100" x="887.5" y="757.5986">boolean defaultLevel</text><line style="stroke:#A80036;stroke-width:1.5;" x1="868.5" x2="1207.5" y1="764.0156" y2="764.0156"/><ellipse cx="878.5" cy="775.0156" fill="#84BE84" rx="3" ry="3" style="stroke:#038048;stroke-width:1.0;"/><text fill="#000000" font-family="sans-serif" font-size="11" lengthAdjust="spacing" textLength="315" x="887.5" y="779.4346">TypingGameDifficulty(String name, int level, boolean defaultLevel)</text><ellipse cx="878.5" cy="788.8516" fill="#84BE84" rx="3" ry="3" style="stroke:#038048;stroke-width:1.0;"/><text fill="#000000" font-family="sans-serif" font-size="11" lengthAdjust="spacing" text-decoration="underline" textLength="159" x="887.5" y="793.2705">TypingGameDifficulty of(int level)</text><ellipse cx="878.5" cy="802.6875" fill="#84BE84" rx="3" ry="3" style="stroke:#038048;stroke-width:1.0;"/><text fill="#000000" font-family="sans-serif" font-size="11" lengthAdjust="spacing" text-decoration="underline" textLength="162" x="887.5" y="807.1064">TypingGameDifficulty getDefault()</text><ellipse cx="878.5" cy="816.5234" fill="#84BE84" rx="3" ry="3" style="stroke:#038048;stroke-width:1.0;"/><text fill="#000000" font-family="sans-serif" font-size="11" lengthAdjust="spacing" textLength="81" x="887.5" y="820.9424">String getName()</text><ellipse cx="878.5" cy="830.3594" fill="#84BE84" rx="3" ry="3" style="stroke:#038048;stroke-width:1.0;"/><text fill="#000000" font-family="sans-serif" font-size="11" lengthAdjust="spacing" textLength="63" x="887.5" y="834.7783">int getLevel()</text><ellipse cx="878.5" cy="844.1953" fill="#84BE84" rx="3" ry="3" style="stroke:#038048;stroke-width:1.0;"/><text fill="#000000" font-family="sans-serif" font-size="11" lengthAdjust="spacing" textLength="239" x="887.5" y="848.6143">boolean lessThan(TypingGameDifficulty difficulty)</text><!--MD5=[e329a201e32f6879b6c4a5d5782241cc]
class TypingGameHistory--><rect codeLine="109" fill="#FEFECE" filter="url(#fkl4i6yeutyul)" height="103.3438" id="TypingGameHistory" style="stroke:#A80036;stroke-width:1.5;" width="369" x="124.5" y="146"/><ellipse cx="250.75" cy="162" fill="#ADD1B2" rx="11" ry="11" style="stroke:#A80036;stroke-width:1.0;"/><path d="M253.5156,157.875 Q253.6719,157.6563 253.8594,157.5469 Q254.0469,157.4375 254.2656,157.4375 Q254.6406,157.4375 254.875,157.7031 Q255.1094,157.9531 255.1094,158.5625 L255.1094,160.0156 Q255.1094,160.625 254.875,160.8906 Q254.6406,161.1563 254.2656,161.1563 Q253.9219,161.1563 253.7188,160.9531 Q253.5156,160.7656 253.4063,160.25 Q253.3594,159.8906 253.1719,159.7031 Q252.8438,159.3281 252.2344,159.1094 Q251.625,158.8906 251,158.8906 Q250.2344,158.8906 249.5938,159.2188 Q248.9688,159.5469 248.4688,160.2969 Q247.9844,161.0469 247.9844,162.0781 L247.9844,163.1719 Q247.9844,164.4063 248.875,165.2344 Q249.7656,166.0469 251.3594,166.0469 Q252.2969,166.0469 252.9531,165.7969 Q253.3438,165.6406 253.7656,165.2031 Q254.0313,164.9375 254.1719,164.8594 Q254.3281,164.7813 254.5313,164.7813 Q254.8594,164.7813 255.1094,165.0469 Q255.375,165.2969 255.375,165.6406 Q255.375,165.9844 255.0313,166.3906 Q254.5313,166.9688 253.7344,167.2969 Q252.6563,167.75 251.3594,167.75 Q249.8438,167.75 248.6406,167.125 Q247.6563,166.625 246.9688,165.5625 Q246.2813,164.4844 246.2813,163.2031 L246.2813,162.0469 Q246.2813,160.7188 246.8906,159.5781 Q247.5156,158.4219 248.6094,157.8125 Q249.7031,157.1875 250.9375,157.1875 Q251.6719,157.1875 252.3125,157.3594 Q252.9688,157.5156 253.5156,157.875 Z " fill="#000000"/><text fill="#000000" font-family="sans-serif" font-size="12" lengthAdjust="spacing" textLength="108" x="271.25" y="166.9102">TypingGameHistory</text><line style="stroke:#A80036;stroke-width:1.5;" x1="125.5" x2="492.5" y1="178" y2="178"/><rect fill="none" height="6" style="stroke:#C82930;stroke-width:1.0;" width="6" x="132.5" y="186"/><text fill="#000000" font-family="sans-serif" font-size="11" lengthAdjust="spacing" textLength="155" x="144.5" y="193.4189">List&lt;TypingGame&gt; typingGames</text><line style="stroke:#A80036;stroke-width:1.5;" x1="125.5" x2="492.5" y1="199.8359" y2="199.8359"/><ellipse cx="135.5" cy="210.8359" fill="#84BE84" rx="3" ry="3" style="stroke:#038048;stroke-width:1.0;"/><text fill="#000000" font-family="sans-serif" font-size="11" lengthAdjust="spacing" textLength="169" x="144.5" y="215.2549">void add(TypingGame typingGame)</text><ellipse cx="135.5" cy="224.6719" fill="#84BE84" rx="3" ry="3" style="stroke:#038048;stroke-width:1.0;"/><text fill="#000000" font-family="sans-serif" font-size="11" lengthAdjust="spacing" textLength="343" x="144.5" y="229.0908">List&lt;TypingGame&gt; sortedTypingGames(TypingGameDifficulty difficulty)</text><rect fill="#F24D5C" height="6" style="stroke:#C82930;stroke-width:1.0;" width="6" x="132.5" y="235.5078"/><text fill="#000000" font-family="sans-serif" font-size="11" lengthAdjust="spacing" textLength="327" x="144.5" y="242.9268">List&lt;TypingGame&gt; getTypingGames(TypingGameDifficulty difficulty)</text><!--MD5=[7a83da4f2de9d37a940211961c6e4279]
class TypingGameFactory--><rect codeLine="116" fill="#FFA500" filter="url(#fkl4i6yeutyul)" height="61.8359" id="TypingGameFactory" style="stroke:#A80036;stroke-width:1.5;" width="464" x="970" y="166.5"/><ellipse cx="1143.25" cy="182.5" fill="#ADD1B2" rx="11" ry="11" style="stroke:#A80036;stroke-width:1.0;"/><path d="M1146.0156,178.375 Q1146.1719,178.1563 1146.3594,178.0469 Q1146.5469,177.9375 1146.7656,177.9375 Q1147.1406,177.9375 1147.375,178.2031 Q1147.6094,178.4531 1147.6094,179.0625 L1147.6094,180.5156 Q1147.6094,181.125 1147.375,181.3906 Q1147.1406,181.6563 1146.7656,181.6563 Q1146.4219,181.6563 1146.2188,181.4531 Q1146.0156,181.2656 1145.9063,180.75 Q1145.8594,180.3906 1145.6719,180.2031 Q1145.3438,179.8281 1144.7344,179.6094 Q1144.125,179.3906 1143.5,179.3906 Q1142.7344,179.3906 1142.0938,179.7188 Q1141.4688,180.0469 1140.9688,180.7969 Q1140.4844,181.5469 1140.4844,182.5781 L1140.4844,183.6719 Q1140.4844,184.9063 1141.375,185.7344 Q1142.2656,186.5469 1143.8594,186.5469 Q1144.7969,186.5469 1145.4531,186.2969 Q1145.8438,186.1406 1146.2656,185.7031 Q1146.5313,185.4375 1146.6719,185.3594 Q1146.8281,185.2813 1147.0313,185.2813 Q1147.3594,185.2813 1147.6094,185.5469 Q1147.875,185.7969 1147.875,186.1406 Q1147.875,186.4844 1147.5313,186.8906 Q1147.0313,187.4688 1146.2344,187.7969 Q1145.1563,188.25 1143.8594,188.25 Q1142.3438,188.25 1141.1406,187.625 Q1140.1563,187.125 1139.4688,186.0625 Q1138.7813,184.9844 1138.7813,183.7031 L1138.7813,182.5469 Q1138.7813,181.2188 1139.3906,180.0781 Q1140.0156,178.9219 1141.1094,178.3125 Q1142.2031,177.6875 1143.4375,177.6875 Q1144.1719,177.6875 1144.8125,177.8594 Q1145.4688,178.0156 1146.0156,178.375 Z " fill="#000000"/><text fill="#000000" font-family="sans-serif" font-size="12" lengthAdjust="spacing" textLength="109" x="1163.75" y="187.4102">TypingGameFactory</text><line style="stroke:#A80036;stroke-width:1.5;" x1="971" x2="1433" y1="198.5" y2="198.5"/><line style="stroke:#A80036;stroke-width:1.5;" x1="971" x2="1433" y1="206.5" y2="206.5"/><ellipse cx="981" cy="217.5" fill="#84BE84" rx="3" ry="3" style="stroke:#038048;stroke-width:1.0;"/><text fill="#000000" font-family="sans-serif" font-size="11" lengthAdjust="spacing" text-decoration="underline" textLength="438" x="990" y="221.9189">TypingGame generate(TypingGameDifficulty difficulty, TypingGameMode typingGameMode)</text><path d="M1052,42 L1052,84.7031 A0,0 0 0 0 1052,84.7031 L1198,84.7031 L1202,166.22 L1206,84.7031 L1352,84.7031 A0,0 0 0 0 1352,84.7031 L1352,52 L1342,42 L1052,42 A0,0 0 0 0 1052,42 " fill="#FBFB77" filter="url(#fkl4i6yeutyul)" style="stroke:#A80036;stroke-width:1.0;"/><path d="M1342,42 L1342,52 L1352,52 L1342,42 " fill="#FBFB77" style="stroke:#A80036;stroke-width:1.0;"/><text fill="#000000" font-family="sans-serif" font-size="13" lengthAdjust="spacing" textLength="279" x="1058" y="60.4951">TypingGameFactoryでNextQuestionGeneratorの</text><text fill="#000000" font-family="sans-serif" font-size="13" lengthAdjust="spacing" textLength="247" x="1058" y="76.8467">実装クラスを切り替えられるように修正。</text><!--MD5=[fc7123defb831ecdd44b2d9bcef6cceb]
class Question--><rect codeLine="124" fill="#FEFECE" filter="url(#fkl4i6yeutyul)" height="103.3438" id="Question" style="stroke:#A80036;stroke-width:1.5;" width="286" x="1244" y="692.5"/><ellipse cx="1357.75" cy="708.5" fill="#ADD1B2" rx="11" ry="11" style="stroke:#A80036;stroke-width:1.0;"/><path d="M1360.5156,704.375 Q1360.6719,704.1563 1360.8594,704.0469 Q1361.0469,703.9375 1361.2656,703.9375 Q1361.6406,703.9375 1361.875,704.2031 Q1362.1094,704.4531 1362.1094,705.0625 L1362.1094,706.5156 Q1362.1094,707.125 1361.875,707.3906 Q1361.6406,707.6563 1361.2656,707.6563 Q1360.9219,707.6563 1360.7188,707.4531 Q1360.5156,707.2656 1360.4063,706.75 Q1360.3594,706.3906 1360.1719,706.2031 Q1359.8438,705.8281 1359.2344,705.6094 Q1358.625,705.3906 1358,705.3906 Q1357.2344,705.3906 1356.5938,705.7188 Q1355.9688,706.0469 1355.4688,706.7969 Q1354.9844,707.5469 1354.9844,708.5781 L1354.9844,709.6719 Q1354.9844,710.9063 1355.875,711.7344 Q1356.7656,712.5469 1358.3594,712.5469 Q1359.2969,712.5469 1359.9531,712.2969 Q1360.3438,712.1406 1360.7656,711.7031 Q1361.0313,711.4375 1361.1719,711.3594 Q1361.3281,711.2813 1361.5313,711.2813 Q1361.8594,711.2813 1362.1094,711.5469 Q1362.375,711.7969 1362.375,712.1406 Q1362.375,712.4844 1362.0313,712.8906 Q1361.5313,713.4688 1360.7344,713.7969 Q1359.6563,714.25 1358.3594,714.25 Q1356.8438,714.25 1355.6406,713.625 Q1354.6563,713.125 1353.9688,712.0625 Q1353.2813,710.9844 1353.2813,709.7031 L1353.2813,708.5469 Q1353.2813,707.2188 1353.8906,706.0781 Q1354.5156,704.9219 1355.6094,704.3125 Q1356.7031,703.6875 1357.9375,703.6875 Q1358.6719,703.6875 1359.3125,703.8594 Q1359.9688,704.0156 1360.5156,704.375 Z " fill="#000000"/><text fill="#000000" font-family="sans-serif" font-size="12" lengthAdjust="spacing" textLength="50" x="1378.25" y="713.4102">Question</text><line style="stroke:#A80036;stroke-width:1.5;" x1="1245" x2="1529" y1="724.5" y2="724.5"/><rect fill="none" height="6" style="stroke:#C82930;stroke-width:1.0;" width="6" x="1252" y="732.5"/><text fill="#000000" font-family="sans-serif" font-size="11" lengthAdjust="spacing" textLength="57" x="1264" y="739.9189">String word</text><rect fill="none" height="6" style="stroke:#C82930;stroke-width:1.0;" width="6" x="1252" y="746.3359"/><text fill="#000000" font-family="sans-serif" font-size="11" lengthAdjust="spacing" textLength="146" x="1264" y="753.7549">TypingGameDifficulty difficulty</text><line style="stroke:#A80036;stroke-width:1.5;" x1="1245" x2="1529" y1="760.1719" y2="760.1719"/><ellipse cx="1255" cy="771.1719" fill="#84BE84" rx="3" ry="3" style="stroke:#038048;stroke-width:1.0;"/><text fill="#000000" font-family="sans-serif" font-size="11" lengthAdjust="spacing" textLength="260" x="1264" y="775.5908">Question(String word, TypingGameDifficulty difficulty)</text><ellipse cx="1255" cy="785.0078" fill="#84BE84" rx="3" ry="3" style="stroke:#038048;stroke-width:1.0;"/><text fill="#000000" font-family="sans-serif" font-size="11" lengthAdjust="spacing" textLength="80" x="1264" y="789.4268">String getWord()</text><!--MD5=[9c6dfb49ef2184b6b517c171c5d8a863]
class QuestionResult--><rect codeLine="131" fill="#FEFECE" filter="url(#fkl4i6yeutyul)" height="144.8516" id="QuestionResult" style="stroke:#A80036;stroke-width:1.5;" width="342" x="32" y="671.5"/><ellipse cx="155.75" cy="687.5" fill="#ADD1B2" rx="11" ry="11" style="stroke:#A80036;stroke-width:1.0;"/><path d="M158.5156,683.375 Q158.6719,683.1563 158.8594,683.0469 Q159.0469,682.9375 159.2656,682.9375 Q159.6406,682.9375 159.875,683.2031 Q160.1094,683.4531 160.1094,684.0625 L160.1094,685.5156 Q160.1094,686.125 159.875,686.3906 Q159.6406,686.6563 159.2656,686.6563 Q158.9219,686.6563 158.7188,686.4531 Q158.5156,686.2656 158.4063,685.75 Q158.3594,685.3906 158.1719,685.2031 Q157.8438,684.8281 157.2344,684.6094 Q156.625,684.3906 156,684.3906 Q155.2344,684.3906 154.5938,684.7188 Q153.9688,685.0469 153.4688,685.7969 Q152.9844,686.5469 152.9844,687.5781 L152.9844,688.6719 Q152.9844,689.9063 153.875,690.7344 Q154.7656,691.5469 156.3594,691.5469 Q157.2969,691.5469 157.9531,691.2969 Q158.3438,691.1406 158.7656,690.7031 Q159.0313,690.4375 159.1719,690.3594 Q159.3281,690.2813 159.5313,690.2813 Q159.8594,690.2813 160.1094,690.5469 Q160.375,690.7969 160.375,691.1406 Q160.375,691.4844 160.0313,691.8906 Q159.5313,692.4688 158.7344,692.7969 Q157.6563,693.25 156.3594,693.25 Q154.8438,693.25 153.6406,692.625 Q152.6563,692.125 151.9688,691.0625 Q151.2813,689.9844 151.2813,688.7031 L151.2813,687.5469 Q151.2813,686.2188 151.8906,685.0781 Q152.5156,683.9219 153.6094,683.3125 Q154.7031,682.6875 155.9375,682.6875 Q156.6719,682.6875 157.3125,682.8594 Q157.9688,683.0156 158.5156,683.375 Z " fill="#000000"/><text fill="#000000" font-family="sans-serif" font-size="12" lengthAdjust="spacing" textLength="86" x="176.25" y="692.4102">QuestionResult</text><line style="stroke:#A80036;stroke-width:1.5;" x1="33" x2="373" y1="703.5" y2="703.5"/><rect fill="none" height="6" style="stroke:#C82930;stroke-width:1.0;" width="6" x="40" y="711.5"/><text fill="#000000" font-family="sans-serif" font-size="11" lengthAdjust="spacing" textLength="87" x="52" y="718.9189">Question question</text><rect fill="none" height="6" style="stroke:#C82930;stroke-width:1.0;" width="6" x="40" y="725.3359"/><text fill="#000000" font-family="sans-serif" font-size="11" lengthAdjust="spacing" textLength="69" x="52" y="732.7549">String answer</text><rect fill="none" height="6" style="stroke:#C82930;stroke-width:1.0;" width="6" x="40" y="739.1719"/><text fill="#000000" font-family="sans-serif" font-size="11" lengthAdjust="spacing" textLength="67" x="52" y="746.5908">boolean judge</text><line style="stroke:#A80036;stroke-width:1.5;" x1="33" x2="373" y1="753.0078" y2="753.0078"/><ellipse cx="43" cy="764.0078" fill="#84BE84" rx="3" ry="3" style="stroke:#038048;stroke-width:1.0;"/><text fill="#000000" font-family="sans-serif" font-size="11" lengthAdjust="spacing" textLength="316" x="52" y="768.4268">QuestionResult(Question question, String answer, boolean judge)</text><ellipse cx="43" cy="777.8438" fill="#84BE84" rx="3" ry="3" style="stroke:#038048;stroke-width:1.0;"/><text fill="#000000" font-family="sans-serif" font-size="11" lengthAdjust="spacing" textLength="112" x="52" y="782.2627">Question getQuestion()</text><ellipse cx="43" cy="791.6797" fill="#84BE84" rx="3" ry="3" style="stroke:#038048;stroke-width:1.0;"/><text fill="#000000" font-family="sans-serif" font-size="11" lengthAdjust="spacing" textLength="94" x="52" y="796.0986">String getAnswer()</text><ellipse cx="43" cy="805.5156" fill="#84BE84" rx="3" ry="3" style="stroke:#038048;stroke-width:1.0;"/><text fill="#000000" font-family="sans-serif" font-size="11" lengthAdjust="spacing" textLength="86" x="52" y="809.9346">boolean isJudge()</text><!--MD5=[3665cc8380533de798edf75be7f81b43]
class QuestionFactory--><rect codeLine="141" fill="#FEFECE" filter="url(#fkl4i6yeutyul)" height="75.6719" id="QuestionFactory" style="stroke:#A80036;stroke-width:1.5;" width="327" x="1038.5" y="403"/><ellipse cx="1153.25" cy="419" fill="#ADD1B2" rx="11" ry="11" style="stroke:#A80036;stroke-width:1.0;"/><path d="M1156.0156,414.875 Q1156.1719,414.6563 1156.3594,414.5469 Q1156.5469,414.4375 1156.7656,414.4375 Q1157.1406,414.4375 1157.375,414.7031 Q1157.6094,414.9531 1157.6094,415.5625 L1157.6094,417.0156 Q1157.6094,417.625 1157.375,417.8906 Q1157.1406,418.1563 1156.7656,418.1563 Q1156.4219,418.1563 1156.2188,417.9531 Q1156.0156,417.7656 1155.9063,417.25 Q1155.8594,416.8906 1155.6719,416.7031 Q1155.3438,416.3281 1154.7344,416.1094 Q1154.125,415.8906 1153.5,415.8906 Q1152.7344,415.8906 1152.0938,416.2188 Q1151.4688,416.5469 1150.9688,417.2969 Q1150.4844,418.0469 1150.4844,419.0781 L1150.4844,420.1719 Q1150.4844,421.4063 1151.375,422.2344 Q1152.2656,423.0469 1153.8594,423.0469 Q1154.7969,423.0469 1155.4531,422.7969 Q1155.8438,422.6406 1156.2656,422.2031 Q1156.5313,421.9375 1156.6719,421.8594 Q1156.8281,421.7813 1157.0313,421.7813 Q1157.3594,421.7813 1157.6094,422.0469 Q1157.875,422.2969 1157.875,422.6406 Q1157.875,422.9844 1157.5313,423.3906 Q1157.0313,423.9688 1156.2344,424.2969 Q1155.1563,424.75 1153.8594,424.75 Q1152.3438,424.75 1151.1406,424.125 Q1150.1563,423.625 1149.4688,422.5625 Q1148.7813,421.4844 1148.7813,420.2031 L1148.7813,419.0469 Q1148.7813,417.7188 1149.3906,416.5781 Q1150.0156,415.4219 1151.1094,414.8125 Q1152.2031,414.1875 1153.4375,414.1875 Q1154.1719,414.1875 1154.8125,414.3594 Q1155.4688,414.5156 1156.0156,414.875 Z " fill="#000000"/><text fill="#000000" font-family="sans-serif" font-size="12" lengthAdjust="spacing" textLength="89" x="1173.75" y="423.9102">QuestionFactory</text><line style="stroke:#A80036;stroke-width:1.5;" x1="1039.5" x2="1364.5" y1="435" y2="435"/><line style="stroke:#A80036;stroke-width:1.5;" x1="1039.5" x2="1364.5" y1="443" y2="443"/><ellipse cx="1049.5" cy="454" fill="#84BE84" rx="3" ry="3" style="stroke:#038048;stroke-width:1.0;"/><text fill="#000000" font-family="sans-serif" font-size="11" lengthAdjust="spacing" textLength="301" x="1058.5" y="458.4189">static List&lt;Question&gt; generate(TypingGameDifficulty difficulty)</text><rect fill="#F24D5C" height="6" style="stroke:#C82930;stroke-width:1.0;" width="6" x="1046.5" y="464.8359"/><text fill="#000000" font-family="sans-serif" font-size="11" lengthAdjust="spacing" textLength="155" x="1058.5" y="472.2549">static List&lt;Question&gt; generate()</text><!--MD5=[a54530424d6d3f8cff061ae2511179cd]
class ConsoleConductor--><rect codeLine="148" fill="#FFA500" filter="url(#fkl4i6yeutyul)" height="172.5234" id="ConsoleConductor" style="stroke:#A80036;stroke-width:1.5;" width="469" x="2210.5" y="938"/><ellipse cx="2388.75" cy="954" fill="#ADD1B2" rx="11" ry="11" style="stroke:#A80036;stroke-width:1.0;"/><path d="M2391.5156,949.875 Q2391.6719,949.6563 2391.8594,949.5469 Q2392.0469,949.4375 2392.2656,949.4375 Q2392.6406,949.4375 2392.875,949.7031 Q2393.1094,949.9531 2393.1094,950.5625 L2393.1094,952.0156 Q2393.1094,952.625 2392.875,952.8906 Q2392.6406,953.1563 2392.2656,953.1563 Q2391.9219,953.1563 2391.7188,952.9531 Q2391.5156,952.7656 2391.4063,952.25 Q2391.3594,951.8906 2391.1719,951.7031 Q2390.8438,951.3281 2390.2344,951.1094 Q2389.625,950.8906 2389,950.8906 Q2388.2344,950.8906 2387.5938,951.2188 Q2386.9688,951.5469 2386.4688,952.2969 Q2385.9844,953.0469 2385.9844,954.0781 L2385.9844,955.1719 Q2385.9844,956.4063 2386.875,957.2344 Q2387.7656,958.0469 2389.3594,958.0469 Q2390.2969,958.0469 2390.9531,957.7969 Q2391.3438,957.6406 2391.7656,957.2031 Q2392.0313,956.9375 2392.1719,956.8594 Q2392.3281,956.7813 2392.5313,956.7813 Q2392.8594,956.7813 2393.1094,957.0469 Q2393.375,957.2969 2393.375,957.6406 Q2393.375,957.9844 2393.0313,958.3906 Q2392.5313,958.9688 2391.7344,959.2969 Q2390.6563,959.75 2389.3594,959.75 Q2387.8438,959.75 2386.6406,959.125 Q2385.6563,958.625 2384.9688,957.5625 Q2384.2813,956.4844 2384.2813,955.2031 L2384.2813,954.0469 Q2384.2813,952.7188 2384.8906,951.5781 Q2385.5156,950.4219 2386.6094,949.8125 Q2387.7031,949.1875 2388.9375,949.1875 Q2389.6719,949.1875 2390.3125,949.3594 Q2390.9688,949.5156 2391.5156,949.875 Z " fill="#000000"/><text fill="#000000" font-family="sans-serif" font-size="12" lengthAdjust="spacing" textLength="104" x="2409.25" y="958.9102">ConsoleConductor</text><line style="stroke:#A80036;stroke-width:1.5;" x1="2211.5" x2="2678.5" y1="970" y2="970"/><line style="stroke:#A80036;stroke-width:1.5;" x1="2211.5" x2="2678.5" y1="978" y2="978"/><ellipse cx="2221.5" cy="989" fill="#84BE84" rx="3" ry="3" style="stroke:#038048;stroke-width:1.0;"/><text fill="#000000" font-family="sans-serif" font-size="11" lengthAdjust="spacing" textLength="47" x="2230.5" y="993.4189">execute()</text><rect fill="#F24D5C" height="6" style="stroke:#C82930;stroke-width:1.0;" width="6" x="2218.5" y="999.8359"/><text fill="#000000" font-family="sans-serif" font-size="11" lengthAdjust="spacing" textLength="212" x="2230.5" y="1007.2549">TypingGameDifficulty displayInputDifficulty()</text><rect fill="#F24D5C" height="6" style="stroke:#C82930;stroke-width:1.0;" width="6" x="2218.5" y="1013.6719"/><text fill="#000000" font-family="sans-serif" font-size="11" lengthAdjust="spacing" textLength="180" x="2230.5" y="1021.0908">TypingGameMode displayInputMode()</text><rect fill="#F24D5C" height="6" style="stroke:#C82930;stroke-width:1.0;" width="6" x="2218.5" y="1027.5078"/><text fill="#000000" font-family="sans-serif" font-size="11" lengthAdjust="spacing" textLength="282" x="2230.5" y="1034.9268">NextQuestionGeneratorMode displayInputCalculatorMode()</text><rect fill="#F24D5C" height="6" style="stroke:#C82930;stroke-width:1.0;" width="6" x="2218.5" y="1041.3438"/><text fill="#000000" font-family="sans-serif" font-size="11" lengthAdjust="spacing" textLength="122" x="2230.5" y="1048.7627">void displayCountDown()</text><rect fill="#F24D5C" height="6" style="stroke:#C82930;stroke-width:1.0;" width="6" x="2218.5" y="1055.1797"/><text fill="#000000" font-family="sans-serif" font-size="11" lengthAdjust="spacing" textLength="215" x="2230.5" y="1062.5986">void displayResult(TypingGame typingGame)</text><rect fill="#F24D5C" height="6" style="stroke:#C82930;stroke-width:1.0;" width="6" x="2218.5" y="1069.0156"/><text fill="#000000" font-family="sans-serif" font-size="11" lengthAdjust="spacing" textLength="443" x="2230.5" y="1076.4346">void displayRanking(TypingGameHistory typingGameHistory, TypingGameDifficulty difficulty)</text><rect fill="#F24D5C" height="6" style="stroke:#C82930;stroke-width:1.0;" width="6" x="2218.5" y="1082.8516"/><text fill="#000000" font-family="sans-serif" font-size="11" lengthAdjust="spacing" textLength="132" x="2230.5" y="1090.2705">boolean displayInputRetry()</text><rect fill="#F24D5C" height="6" style="stroke:#C82930;stroke-width:1.0;" width="6" x="2218.5" y="1096.6875"/><text fill="#000000" font-family="sans-serif" font-size="11" lengthAdjust="spacing" textLength="175" x="2230.5" y="1104.1064">static int getInputInt(int defaultValue)</text><path d="M2285,1205.5 L2285,1248.2031 A0,0 0 0 0 2285,1248.2031 L2605,1248.2031 A0,0 0 0 0 2605,1248.2031 L2605,1215.5 L2595,1205.5 L2449,1205.5 L2445,1111.11 L2441,1205.5 L2285,1205.5 A0,0 0 0 0 2285,1205.5 " fill="#FBFB77" filter="url(#fkl4i6yeutyul)" style="stroke:#A80036;stroke-width:1.0;"/><path d="M2595,1205.5 L2595,1215.5 L2605,1215.5 L2595,1205.5 " fill="#FBFB77" style="stroke:#A80036;stroke-width:1.0;"/><text fill="#000000" font-family="sans-serif" font-size="13" lengthAdjust="spacing" textLength="299" x="2291" y="1223.9951">問題生成モードを標準入出力から受け取るために、</text><text fill="#000000" font-family="sans-serif" font-size="13" lengthAdjust="spacing" textLength="237" x="2291" y="1240.3467">displayInputCalculatorModeを追加した。</text><!--MD5=[f2076064ef29070937814e2fca8e8d42]
class NormalTypingGameListener--><rect codeLine="164" fill="#FEFECE" filter="url(#fkl4i6yeutyul)" height="48" id="NormalTypingGameListener" style="stroke:#A80036;stroke-width:1.5;" width="188" x="1786" y="1000.5"/><ellipse cx="1801" cy="1016.5" fill="#ADD1B2" rx="11" ry="11" style="stroke:#A80036;stroke-width:1.0;"/><path d="M1803.7656,1012.375 Q1803.9219,1012.1563 1804.1094,1012.0469 Q1804.2969,1011.9375 1804.5156,1011.9375 Q1804.8906,1011.9375 1805.125,1012.2031 Q1805.3594,1012.4531 1805.3594,1013.0625 L1805.3594,1014.5156 Q1805.3594,1015.125 1805.125,1015.3906 Q1804.8906,1015.6563 1804.5156,1015.6563 Q1804.1719,1015.6563 1803.9688,1015.4531 Q1803.7656,1015.2656 1803.6563,1014.75 Q1803.6094,1014.3906 1803.4219,1014.2031 Q1803.0938,1013.8281 1802.4844,1013.6094 Q1801.875,1013.3906 1801.25,1013.3906 Q1800.4844,1013.3906 1799.8438,1013.7188 Q1799.2188,1014.0469 1798.7188,1014.7969 Q1798.2344,1015.5469 1798.2344,1016.5781 L1798.2344,1017.6719 Q1798.2344,1018.9063 1799.125,1019.7344 Q1800.0156,1020.5469 1801.6094,1020.5469 Q1802.5469,1020.5469 1803.2031,1020.2969 Q1803.5938,1020.1406 1804.0156,1019.7031 Q1804.2813,1019.4375 1804.4219,1019.3594 Q1804.5781,1019.2813 1804.7813,1019.2813 Q1805.1094,1019.2813 1805.3594,1019.5469 Q1805.625,1019.7969 1805.625,1020.1406 Q1805.625,1020.4844 1805.2813,1020.8906 Q1804.7813,1021.4688 1803.9844,1021.7969 Q1802.9063,1022.25 1801.6094,1022.25 Q1800.0938,1022.25 1798.8906,1021.625 Q1797.9063,1021.125 1797.2188,1020.0625 Q1796.5313,1018.9844 1796.5313,1017.7031 L1796.5313,1016.5469 Q1796.5313,1015.2188 1797.1406,1014.0781 Q1797.7656,1012.9219 1798.8594,1012.3125 Q1799.9531,1011.6875 1801.1875,1011.6875 Q1801.9219,1011.6875 1802.5625,1011.8594 Q1803.2188,1012.0156 1803.7656,1012.375 Z " fill="#000000"/><text fill="#000000" font-family="sans-serif" font-size="12" lengthAdjust="spacing" textLength="156" x="1815" y="1021.4102">NormalTypingGameListener</text><line style="stroke:#A80036;stroke-width:1.5;" x1="1787" x2="1973" y1="1032.5" y2="1032.5"/><line style="stroke:#A80036;stroke-width:1.5;" x1="1787" x2="1973" y1="1040.5" y2="1040.5"/><!--MD5=[d186d861287b343e6ac9df07cc1c8de0]
class HotTypingGameListener--><rect codeLine="166" fill="#FEFECE" filter="url(#fkl4i6yeutyul)" height="48" id="HotTypingGameListener" style="stroke:#A80036;stroke-width:1.5;" width="166" x="2009" y="1000.5"/><ellipse cx="2024" cy="1016.5" fill="#ADD1B2" rx="11" ry="11" style="stroke:#A80036;stroke-width:1.0;"/><path d="M2026.7656,1012.375 Q2026.9219,1012.1563 2027.1094,1012.0469 Q2027.2969,1011.9375 2027.5156,1011.9375 Q2027.8906,1011.9375 2028.125,1012.2031 Q2028.3594,1012.4531 2028.3594,1013.0625 L2028.3594,1014.5156 Q2028.3594,1015.125 2028.125,1015.3906 Q2027.8906,1015.6563 2027.5156,1015.6563 Q2027.1719,1015.6563 2026.9688,1015.4531 Q2026.7656,1015.2656 2026.6563,1014.75 Q2026.6094,1014.3906 2026.4219,1014.2031 Q2026.0938,1013.8281 2025.4844,1013.6094 Q2024.875,1013.3906 2024.25,1013.3906 Q2023.4844,1013.3906 2022.8438,1013.7188 Q2022.2188,1014.0469 2021.7188,1014.7969 Q2021.2344,1015.5469 2021.2344,1016.5781 L2021.2344,1017.6719 Q2021.2344,1018.9063 2022.125,1019.7344 Q2023.0156,1020.5469 2024.6094,1020.5469 Q2025.5469,1020.5469 2026.2031,1020.2969 Q2026.5938,1020.1406 2027.0156,1019.7031 Q2027.2813,1019.4375 2027.4219,1019.3594 Q2027.5781,1019.2813 2027.7813,1019.2813 Q2028.1094,1019.2813 2028.3594,1019.5469 Q2028.625,1019.7969 2028.625,1020.1406 Q2028.625,1020.4844 2028.2813,1020.8906 Q2027.7813,1021.4688 2026.9844,1021.7969 Q2025.9063,1022.25 2024.6094,1022.25 Q2023.0938,1022.25 2021.8906,1021.625 Q2020.9063,1021.125 2020.2188,1020.0625 Q2019.5313,1018.9844 2019.5313,1017.7031 L2019.5313,1016.5469 Q2019.5313,1015.2188 2020.1406,1014.0781 Q2020.7656,1012.9219 2021.8594,1012.3125 Q2022.9531,1011.6875 2024.1875,1011.6875 Q2024.9219,1011.6875 2025.5625,1011.8594 Q2026.2188,1012.0156 2026.7656,1012.375 Z " fill="#000000"/><text fill="#000000" font-family="sans-serif" font-size="12" lengthAdjust="spacing" textLength="134" x="2038" y="1021.4102">HotTypingGameListener</text><line style="stroke:#A80036;stroke-width:1.5;" x1="2010" x2="2174" y1="1032.5" y2="1032.5"/><line style="stroke:#A80036;stroke-width:1.5;" x1="2010" x2="2174" y1="1040.5" y2="1040.5"/><!--MD5=[f4abfe78a2e927cf2e914f071f8f9453]
class StandardInputReader--><rect codeLine="168" fill="#FEFECE" filter="url(#fkl4i6yeutyul)" height="48" id="StandardInputReader" style="stroke:#A80036;stroke-width:1.5;" width="150" x="2017" y="1203"/><ellipse cx="2032" cy="1219" fill="#ADD1B2" rx="11" ry="11" style="stroke:#A80036;stroke-width:1.0;"/><path d="M2034.7656,1214.875 Q2034.9219,1214.6563 2035.1094,1214.5469 Q2035.2969,1214.4375 2035.5156,1214.4375 Q2035.8906,1214.4375 2036.125,1214.7031 Q2036.3594,1214.9531 2036.3594,1215.5625 L2036.3594,1217.0156 Q2036.3594,1217.625 2036.125,1217.8906 Q2035.8906,1218.1563 2035.5156,1218.1563 Q2035.1719,1218.1563 2034.9688,1217.9531 Q2034.7656,1217.7656 2034.6563,1217.25 Q2034.6094,1216.8906 2034.4219,1216.7031 Q2034.0938,1216.3281 2033.4844,1216.1094 Q2032.875,1215.8906 2032.25,1215.8906 Q2031.4844,1215.8906 2030.8438,1216.2188 Q2030.2188,1216.5469 2029.7188,1217.2969 Q2029.2344,1218.0469 2029.2344,1219.0781 L2029.2344,1220.1719 Q2029.2344,1221.4063 2030.125,1222.2344 Q2031.0156,1223.0469 2032.6094,1223.0469 Q2033.5469,1223.0469 2034.2031,1222.7969 Q2034.5938,1222.6406 2035.0156,1222.2031 Q2035.2813,1221.9375 2035.4219,1221.8594 Q2035.5781,1221.7813 2035.7813,1221.7813 Q2036.1094,1221.7813 2036.3594,1222.0469 Q2036.625,1222.2969 2036.625,1222.6406 Q2036.625,1222.9844 2036.2813,1223.3906 Q2035.7813,1223.9688 2034.9844,1224.2969 Q2033.9063,1224.75 2032.6094,1224.75 Q2031.0938,1224.75 2029.8906,1224.125 Q2028.9063,1223.625 2028.2188,1222.5625 Q2027.5313,1221.4844 2027.5313,1220.2031 L2027.5313,1219.0469 Q2027.5313,1217.7188 2028.1406,1216.5781 Q2028.7656,1215.4219 2029.8594,1214.8125 Q2030.9531,1214.1875 2032.1875,1214.1875 Q2032.9219,1214.1875 2033.5625,1214.3594 Q2034.2188,1214.5156 2034.7656,1214.875 Z " fill="#000000"/><text fill="#000000" font-family="sans-serif" font-size="12" lengthAdjust="spacing" textLength="118" x="2046" y="1223.9102">StandardInputReader</text><line style="stroke:#A80036;stroke-width:1.5;" x1="2018" x2="2166" y1="1235" y2="1235"/><line style="stroke:#A80036;stroke-width:1.5;" x1="2018" x2="2166" y1="1243" y2="1243"/><path d="M1762,42 L1762,84.7031 L2004,84.7031 L2004,52 L1994,42 L1762,42 " fill="#FBFB77" filter="url(#fkl4i6yeutyul)" style="stroke:#A80036;stroke-width:1.0;"/><path d="M1994,42 L1994,52 L2004,52 L1994,42 " fill="#FBFB77" style="stroke:#A80036;stroke-width:1.0;"/><text fill="#000000" font-family="sans-serif" font-size="13" lengthAdjust="spacing" textLength="221" x="1768" y="60.4951">背景がピンク：新規に作成したクラス</text><text fill="#000000" font-family="sans-serif" font-size="13" lengthAdjust="spacing" textLength="195" x="1768" y="76.8467">背景がオレンジ：修正したクラス</text><!--MD5=[84718776d214be480e4c259efcb737fc]
class Main--><rect codeLine="7" fill="#FEFECE" filter="url(#fkl4i6yeutyul)" height="61.8359" id="Main" style="stroke:#A80036;stroke-width:1.5;" width="58" x="2750" y="993.5"/><ellipse cx="2765" cy="1009.5" fill="#ADD1B2" rx="11" ry="11" style="stroke:#A80036;stroke-width:1.0;"/><path d="M2767.7656,1005.375 Q2767.9219,1005.1563 2768.1094,1005.0469 Q2768.2969,1004.9375 2768.5156,1004.9375 Q2768.8906,1004.9375 2769.125,1005.2031 Q2769.3594,1005.4531 2769.3594,1006.0625 L2769.3594,1007.5156 Q2769.3594,1008.125 2769.125,1008.3906 Q2768.8906,1008.6563 2768.5156,1008.6563 Q2768.1719,1008.6563 2767.9688,1008.4531 Q2767.7656,1008.2656 2767.6563,1007.75 Q2767.6094,1007.3906 2767.4219,1007.2031 Q2767.0938,1006.8281 2766.4844,1006.6094 Q2765.875,1006.3906 2765.25,1006.3906 Q2764.4844,1006.3906 2763.8438,1006.7188 Q2763.2188,1007.0469 2762.7188,1007.7969 Q2762.2344,1008.5469 2762.2344,1009.5781 L2762.2344,1010.6719 Q2762.2344,1011.9063 2763.125,1012.7344 Q2764.0156,1013.5469 2765.6094,1013.5469 Q2766.5469,1013.5469 2767.2031,1013.2969 Q2767.5938,1013.1406 2768.0156,1012.7031 Q2768.2813,1012.4375 2768.4219,1012.3594 Q2768.5781,1012.2813 2768.7813,1012.2813 Q2769.1094,1012.2813 2769.3594,1012.5469 Q2769.625,1012.7969 2769.625,1013.1406 Q2769.625,1013.4844 2769.2813,1013.8906 Q2768.7813,1014.4688 2767.9844,1014.7969 Q2766.9063,1015.25 2765.6094,1015.25 Q2764.0938,1015.25 2762.8906,1014.625 Q2761.9063,1014.125 2761.2188,1013.0625 Q2760.5313,1011.9844 2760.5313,1010.7031 L2760.5313,1009.5469 Q2760.5313,1008.2188 2761.1406,1007.0781 Q2761.7656,1005.9219 2762.8594,1005.3125 Q2763.9531,1004.6875 2765.1875,1004.6875 Q2765.9219,1004.6875 2766.5625,1004.8594 Q2767.2188,1005.0156 2767.7656,1005.375 Z " fill="#000000"/><text fill="#000000" font-family="sans-serif" font-size="12" lengthAdjust="spacing" textLength="26" x="2779" y="1014.4102">Main</text><line style="stroke:#A80036;stroke-width:1.5;" x1="2751" x2="2807" y1="1025.5" y2="1025.5"/><line style="stroke:#A80036;stroke-width:1.5;" x1="2751" x2="2807" y1="1033.5" y2="1033.5"/><ellipse cx="2761" cy="1044.5" fill="#84BE84" rx="3" ry="3" style="stroke:#038048;stroke-width:1.0;"/><text fill="#000000" font-family="sans-serif" font-size="11" lengthAdjust="spacing" text-decoration="underline" textLength="30" x="2770" y="1048.9189">main()</text><!--MD5=[50cdd539db378d681fbafd859f4e013f]
reverse link NextQuestionGenerator to AbstractNextQuestionGenerator--><path d="M490,795.08 C490,849.97 490,936.77 490,986.06 " fill="none" id="NextQuestionGenerator-backto-AbstractNextQuestionGenerator" style="stroke:#A80036;stroke-width:1.0;stroke-dasharray:7.0,7.0;"/><polygon fill="none" points="483,795.07,490,775.07,497,795.07,483,795.07" style="stroke:#A80036;stroke-width:1.0;"/><!--MD5=[adb214176fbabf3f26f2af1bb844fbcb]
reverse link AbstractNextQuestionGenerator to NotMatchPreviousNextQuestionGenerator--><path d="M451.56,1079.39 C426.84,1114.06 395.35,1158.21 373.42,1188.96 " fill="none" id="AbstractNextQuestionGenerator-backto-NotMatchPreviousNextQuestionGenerator" style="stroke:#A80036;stroke-width:1.0;"/><polygon fill="none" points="446.13,1074.96,463.44,1062.74,457.52,1083.09,446.13,1074.96" style="stroke:#A80036;stroke-width:1.0;"/><!--MD5=[aa8713d0bcecf90f775158a914753b4d]
reverse link AbstractNextQuestionGenerator to NotMatchPastNextQuestionGenerator--><path d="M549.47,1075.39 C591.4,1110.57 646.66,1156.93 684.74,1188.87 " fill="none" id="AbstractNextQuestionGenerator-backto-NotMatchPastNextQuestionGenerator" style="stroke:#A80036;stroke-width:1.0;"/><polygon fill="none" points="544.94,1080.73,534.11,1062.51,553.94,1070,544.94,1080.73" style="stroke:#A80036;stroke-width:1.0;"/><!--MD5=[729a6d74b6fdd7857230e4354fab65a9]
reverse link TypingGameListener to NormalTypingGameListener--><path d="M786.55,815.89 C805.49,831.56 827.19,846.12 850,855 C996.35,911.96 1399.1,879.25 1556,886 C1577.11,886.91 1726.58,885.67 1746,894 C1798.48,916.51 1842.29,969.54 1864.44,1000.3 " fill="none" id="TypingGameListener-backto-NormalTypingGameListener" style="stroke:#A80036;stroke-width:1.0;stroke-dasharray:7.0,7.0;"/><polygon fill="none" points="781.76,821.01,771.32,802.57,790.98,810.47,781.76,821.01" style="stroke:#A80036;stroke-width:1.0;"/><!--MD5=[a32b9b424c795ab7f3eb6a5a41846eb5]
reverse link TypingGameListener to HotTypingGameListener--><path d="M786.49,816.04 C805.43,831.71 827.15,846.23 850,855 C968.54,900.47 1879.02,836.08 1992,894 C2036.62,916.87 2067.24,969.76 2081.97,1000.41 " fill="none" id="TypingGameListener-backto-HotTypingGameListener" style="stroke:#A80036;stroke-width:1.0;stroke-dasharray:7.0,7.0;"/><polygon fill="none" points="781.7,821.16,771.26,802.72,790.92,810.62,781.7,821.16" style="stroke:#A80036;stroke-width:1.0;"/><!--MD5=[7d4fbd04de787f9eae622748002f4869]
link ConsoleConductor to Main--><path codeLine="171" d="M2679.69,1024.5 C2707.33,1024.5 2731.98,1024.5 2749.81,1024.5 " fill="none" id="ConsoleConductor-Main" style="stroke:#A80036;stroke-width:1.0;"/><polygon fill="#000000" points="2696.75,1012.6758,2705.7951,1015.6147,2705.7951,1009.7369,2696.75,1012.6758" style="stroke:#000000;stroke-width:1.0;"/><text fill="#000000" font-family="sans-serif" font-size="13" lengthAdjust="spacing" textLength="21" x="2710.75" y="1017.9951">use</text><!--MD5=[a9d96d93fd5355523f8d931743992c3f]
link ConsoleConductor to TypingGameFactory--><path codeLine="173" d="M2384.9,937.98 C2275.75,789.41 2029.89,484.47 1747,327 C1651.55,273.87 1534.88,242.62 1434.02,224.28 " fill="none" id="ConsoleConductor-TypingGameFactory" style="stroke:#A80036;stroke-width:1.0;"/><polygon fill="#000000" points="2098.0011,591.1743,2103.471,598.9545,2106.9994,594.2535,2098.0011,591.1743" style="stroke:#000000;stroke-width:1.0;"/><text fill="#000000" font-family="sans-serif" font-size="13" lengthAdjust="spacing" textLength="21" x="2111" y="599.4951">use</text><!--MD5=[e6e86557c52ee27761d30c2f9cfbea47]
link ConsoleConductor to StandardInputReader--><path codeLine="174" d="M2294.27,1111.11 C2235.24,1144.64 2172.29,1180.4 2132.58,1202.95 " fill="none" id="ConsoleConductor-StandardInputReader" style="stroke:#A80036;stroke-width:1.0;"/><polygon fill="#000000" points="2236.6524,1152.6452,2245.9688,1150.7334,2243.0658,1145.6225,2236.6524,1152.6452" style="stroke:#000000;stroke-width:1.0;"/><text fill="#000000" font-family="sans-serif" font-size="13" lengthAdjust="spacing" textLength="21" x="2250" y="1155.4951">use</text><!--MD5=[29950e6704daaa6cb4d0465601d39189]
link TypingGameFactory to QuestionFactory--><path codeLine="176" d="M1202,228.6 C1202,272.73 1202,354.92 1202,402.78 " fill="none" id="TypingGameFactory-QuestionFactory" style="stroke:#A80036;stroke-width:1.0;"/><polygon fill="#000000" points="1207,293.1758,1209.9389,284.1307,1204.0611,284.1307,1207,293.1758" style="stroke:#000000;stroke-width:1.0;"/><text fill="#000000" font-family="sans-serif" font-size="13" lengthAdjust="spacing" textLength="21" x="1216" y="293.4951">use</text><!--MD5=[6b3b7f30ae553f3c46479237facef8d4]
link TypingGameFactory to TypingGameMode--><path codeLine="177" d="M1247.24,228.6 C1290.67,257.49 1358.62,302.7 1420.56,343.91 " fill="none" id="TypingGameFactory-TypingGameMode" style="stroke:#A80036;stroke-width:1.0;"/><polygon fill="#000000" points="1349.1629,290.9453,1343.2601,283.4883,1340.0043,288.382,1349.1629,290.9453" style="stroke:#000000;stroke-width:1.0;"/><text fill="#000000" font-family="sans-serif" font-size="13" lengthAdjust="spacing" textLength="21" x="1354" y="293.4951">use</text><!--MD5=[8cf49096655f3bef4002a57e0c234b97]
link TypingGameFactory to NextQuestionGeneratorMode--><path codeLine="178" d="M1153.39,228.6 C1106.74,257.49 1033.73,302.7 967.18,343.91 " fill="none" id="TypingGameFactory-NextQuestionGeneratorMode" style="stroke:#A80036;stroke-width:1.0;"/><polygon fill="#000000" points="1064.7491,290.8082,1073.9864,288.5448,1070.8918,283.5475,1064.7491,290.8082" style="stroke:#000000;stroke-width:1.0;"/><text fill="#000000" font-family="sans-serif" font-size="13" lengthAdjust="spacing" textLength="21" x="1078" y="293.4951">use</text><!--MD5=[34053be3dab4592b4a82eb1e2fe8c8dd]
link TypingGameFactory to TypingGame--><path codeLine="180" d="M1027.52,228.5 C907.05,251.02 743.81,285.11 603,327 C597.23,328.72 591.42,330.49 585.58,332.32 " fill="none" id="TypingGameFactory-TypingGame" style="stroke:#A80036;stroke-width:1.0;"/><polygon fill="#000000" points="782.1325,289.3192,791.61,290.1117,790.2658,284.3897,782.1325,289.3192" style="stroke:#000000;stroke-width:1.0;"/><text fill="#000000" font-family="sans-serif" font-size="13" lengthAdjust="spacing" textLength="50" x="796" y="293.4951">generate</text><!--MD5=[7b87940b4301618cade711b02849d6e8]
link QuestionFactory to Question--><path codeLine="182" d="M1224.87,479.21 C1257.84,532.85 1318.81,632.05 1355.86,692.33 " fill="none" id="QuestionFactory-Question" style="stroke:#A80036;stroke-width:1.0;"/><polygon fill="#000000" points="1307.6182,598.4355,1305.3857,589.1907,1300.3781,592.2685,1307.6182,598.4355" style="stroke:#000000;stroke-width:1.0;"/><text fill="#000000" font-family="sans-serif" font-size="13" lengthAdjust="spacing" textLength="50" x="1314" y="599.4951">generate</text><!--MD5=[2f163435dbb70469cf58f8a42310b871]
link TypingGameHistory to TypingGame--><path codeLine="184" d="M309,249.13 C309,270.39 309,296.1 309,321.66 " fill="none" id="TypingGameHistory-to-TypingGame" style="stroke:#A80036;stroke-width:1.0;"/><polygon fill="#A80036" points="309,326.77,313,317.77,309,321.77,305,317.77,309,326.77" style="stroke:#A80036;stroke-width:1.0;"/><!--MD5=[44da462e0e37ec5b4424557f44052c2f]
link TypingGame to TypingGameDifficulty--><path codeLine="185" d="M585.82,548.94 C591.59,550.99 597.32,553.01 603,555 C711.67,593 744.77,586.31 850,633 C854.25,634.89 858.53,636.85 862.82,638.87 " fill="none" id="TypingGame-to-TypingGameDifficulty" style="stroke:#A80036;stroke-width:1.0;"/><polygon fill="#A80036" points="867.48,641.08,861.0841,633.5905,862.9686,638.9242,857.6349,640.8087,867.48,641.08" style="stroke:#A80036;stroke-width:1.0;"/><!--MD5=[8e357755c5ee833ed7c109bc7d6b71d2]
link TypingGame to Question--><path codeLine="186" d="M585.79,550.48 C591.56,552.06 597.3,553.57 603,555 C873.67,622.89 965.03,534.18 1226,633 C1260.85,646.2 1295.5,668.38 1323.68,689.39 " fill="none" id="TypingGame-to-Question" style="stroke:#A80036;stroke-width:1.0;"/><polygon fill="#A80036" points="1327.79,692.48,1323.0048,683.8718,1323.7952,689.4731,1318.1938,690.2635,1327.79,692.48" style="stroke:#A80036;stroke-width:1.0;"/><!--MD5=[4e9345365ffcc7cc56576d252551d836]
link TypingGame to QuestionResult--><path codeLine="187" d="M269.08,555.37 C256.04,592.38 241.89,632.58 230.03,666.25 " fill="none" id="TypingGame-to-QuestionResult" style="stroke:#A80036;stroke-width:1.0;"/><polygon fill="#A80036" points="228.3,671.16,235.0583,663.9958,229.9581,666.4429,227.511,661.3428,228.3,671.16" style="stroke:#A80036;stroke-width:1.0;"/><!--MD5=[cbe695f3de70804266794fb73b9824b3]
link TypingGame to TypingGameListener--><path codeLine="188" d="M479.82,555.03 C516.01,580.06 553.64,606.91 588,633 C608.29,648.4 629.69,665.84 649.18,682.21 " fill="none" id="TypingGame-to-TypingGameListener" style="stroke:#A80036;stroke-width:1.0;"/><polygon fill="#A80036" points="653.05,685.47,648.7291,676.6196,649.2206,682.255,643.5852,682.7466,653.05,685.47" style="stroke:#A80036;stroke-width:1.0;"/><!--MD5=[f67cf3485ad5f75e9c57bb84cb338c88]
link TypingGame to NextQuestionGenerator--><path codeLine="189" d="M377.17,555.37 C409.91,609.81 446.81,671.18 469.23,708.46 " fill="none" id="TypingGame-to-NextQuestionGenerator" style="stroke:#A80036;stroke-width:1.0;"/><polygon fill="#A80036" points="471.89,712.88,470.6895,703.1046,469.3175,708.5925,463.8296,707.2205,471.89,712.88" style="stroke:#A80036;stroke-width:1.0;"/><!--MD5=[a0eefe7436a21ea046337e0d0db283fe]
link NormalTypingGameListener to StandardInputReader--><path codeLine="191" d="M1904.73,1048.89 C1945.58,1087.53 2026.68,1164.22 2067.42,1202.76 " fill="none" id="NormalTypingGameListener-StandardInputReader" style="stroke:#A80036;stroke-width:1.0;"/><polygon fill="#000000" points="2025.6326,1153.6115,2021.0806,1145.261,2017.0417,1149.5315,2025.6326,1153.6115" style="stroke:#000000;stroke-width:1.0;"/><text fill="#000000" font-family="sans-serif" font-size="13" lengthAdjust="spacing" textLength="21" x="2031" y="1155.4951">use</text><!--MD5=[27813efbc90f605ecd206e0aed2fb53f]
link HotTypingGameListener to StandardInputReader--><path codeLine="192" d="M2092,1048.89 C2092,1087.53 2092,1164.22 2092,1202.76 " fill="none" id="HotTypingGameListener-StandardInputReader" style="stroke:#A80036;stroke-width:1.0;"/><polygon fill="#000000" points="2097,1155.1758,2099.9389,1146.1307,2094.0611,1146.1307,2097,1155.1758" style="stroke:#000000;stroke-width:1.0;"/><text fill="#000000" font-family="sans-serif" font-size="13" lengthAdjust="spacing" textLength="21" x="2106" y="1155.4951">use</text><!--MD5=[011382f7e3506523c496b841edb861c8]
@startuml 09_add_not_match_past_mode

note as note_main
  背景がピンク：新規に作成したクラス
  背景がオレンジ：修正したクラス
end note

class Main {
  + {static} main()
}

package business {
  class TypingGame {
    - TypingGameDifficulty difficulty
    - TypingGameListener listener
    - NextQuestionGenerator generator
    - List<QuestionResult> results
    - ZonedDateTime startTime
    - ZonedDateTime endTime
    + TypingGame(TypingGameDifficulty difficulty, TypingGameListener listener, NextQuestionGenerator generator)
    + void execute()
    + List<QuestionResult> getResults()
    + long getTimeToCalculate()
    + boolean isSameDifficulty(TypingGameDifficulty difficulty)
    + int getNumberOfQuestions()
    - String toString()
  }

  interface TypingGameListener {
    void onGameStart(TypingGame typingGame)
    void onGameEnd(TypingGame typingGame)
    String receiveAnswer(Question question)
    void onJudgeOK(TypingGame typingGame)
    void onJudgeNG(TypingGame typingGame)
  }

  interface NextQuestionGenerator {
    Question generate()
  }

  abstract class AbstractNextQuestionGenerator #Pink implements NextQuestionGenerator {
    - List<Question> questions
    + AbstractNextQuestionGenerator(List<Question> questions)  
  }
  note right of AbstractNextQuestionGenerator
    questionsは両方の実装クラスで持つため、抽象クラスをインターフェースと間に挟んで、
    変数を持たせるようにした。
  end note

  class NotMatchPreviousNextQuestionGenerator #Orange extends AbstractNextQuestionGenerator {
    - Question prevQuestion
    + NotMatchPreviousNextQuestionGenerator(List<Question> questions)
  }

  class NotMatchPastNextQuestionGenerator #Pink extends AbstractNextQuestionGenerator {
    - Set<Question> askedQuestions
    + NotMatchPastNextQuestionGenerator(List<Question> questions)
  }
  note bottom of NotMatchPastNextQuestionGenerator
    NextQuestionGeneratorの新しい実装クラスを追加した。
  end note

  enum TypingGameMode {
    + NORMAL
    + HOT
    ..
    - String name
    - int mode
    - boolean defaultMode
    __
    + TypingGameMode(String name, int mode, boolean defaultMode)
    + {static} TypingGameMode of(int mode)
    + {static} TypingGameMode getDefault()
    + String getName()
    + int getMode()
  }

  enum NextQuestionGeneratorMode #Pink {
    + NOT_MATCH_PREVIOUS
    + NOT_MATCH_PAST
    ..
    - String name
    - int mode
    - boolean defaultLevel
    __
    + NextQuestionGeneratorMode(String name, int mode, boolean defaultMode)
    + {static} NextQuestionGeneratorMode of(int mode)
    + {static} NextQuestionGeneratorMode getDefault()
    + String getName()
    + int getMode()
  }

  enum TypingGameDifficulty {
    + EASY
    + NORMAL
    + HARD
    ..
    - String name
    - int level
    - boolean defaultLevel
    __
    + TypingGameDifficulty(String name, int level, boolean defaultLevel)
    + {static} TypingGameDifficulty of(int level)
    + {static} TypingGameDifficulty getDefault()
    + String getName()
    + int getLevel()
    + boolean lessThan(TypingGameDifficulty difficulty)
  }

  class TypingGameHistory {
    - List<TypingGame> typingGames
    + void add(TypingGame typingGame)
    + List<TypingGame> sortedTypingGames(TypingGameDifficulty difficulty)
    - List<TypingGame> getTypingGames(TypingGameDifficulty difficulty)
  }

  class TypingGameFactory #Orange {
    + {static} TypingGame generate(TypingGameDifficulty difficulty, TypingGameMode typingGameMode)
  }
  note top
    TypingGameFactoryでNextQuestionGeneratorの
    実装クラスを切り替えられるように修正。
  end note

  class Question {
    - String word
    - TypingGameDifficulty difficulty
    + Question(String word, TypingGameDifficulty difficulty)
    + String getWord()
  }

  class QuestionResult {
    - Question question
    - String answer
    - boolean judge
    + QuestionResult(Question question, String answer, boolean judge)
    + Question getQuestion()
    + String getAnswer()
    + boolean isJudge()
  }

  class QuestionFactory {
    + static List<Question> generate(TypingGameDifficulty difficulty)
    - static List<Question> generate()
  }
}

package ui {
  class ConsoleConductor #Orange {
    + execute()
    - TypingGameDifficulty displayInputDifficulty()
    - TypingGameMode displayInputMode()
    - NextQuestionGeneratorMode displayInputCalculatorMode()
    - void displayCountDown()
    - void displayResult(TypingGame typingGame)
    - void displayRanking(TypingGameHistory typingGameHistory, TypingGameDifficulty difficulty)
    - boolean displayInputRetry()
    - static int getInputInt(int defaultValue)
  }
  note bottom of ConsoleConductor
    問題生成モードを標準入出力から受け取るために、
    displayInputCalculatorModeを追加した。
  end note

  class NormalTypingGameListener implements TypingGameListener

  class HotTypingGameListener implements TypingGameListener

  class StandardInputReader {}
}

Main -l- ConsoleConductor : use >

ConsoleConductor - - TypingGameFactory : use >
ConsoleConductor - - StandardInputReader : use >

TypingGameFactory - - QuestionFactory : use >
TypingGameFactory - - TypingGameMode : use >
TypingGameFactory - - NextQuestionGeneratorMode : use >

TypingGameFactory - - TypingGame : generate >

QuestionFactory - - Question : generate >

TypingGameHistory - -> TypingGame
TypingGame - -> TypingGameDifficulty
TypingGame - -> Question
TypingGame - -> QuestionResult
TypingGame - -> TypingGameListener
TypingGame - -> NextQuestionGenerator

NormalTypingGameListener - - StandardInputReader : use >
HotTypingGameListener - - StandardInputReader : use >

@enduml

PlantUML version 1.2022.0(Wed Jan 12 01:16:42 JST 2022)
(GPL source distribution)
Java Runtime: OpenJDK Runtime Environment
JVM: OpenJDK 64-Bit Server VM
Default Encoding: UTF-8
Language: ja
Country: JP
--></g></svg>