<?xml version="1.0" encoding="UTF-8" standalone="no"?><svg xmlns="http://www.w3.org/2000/svg" xmlns:xlink="http://www.w3.org/1999/xlink" contentScriptType="application/ecmascript" contentStyleType="text/css" height="1096px" preserveAspectRatio="none" style="width:2453px;height:1096px;background:#FFFFFF;" version="1.1" viewBox="0 0 2453 1096" width="2453px" zoomAndPan="magnify"><defs><filter height="300%" id="fhlf2rsiy6jp5" width="300%" x="-1" y="-1"><feGaussianBlur result="blurOut" stdDeviation="2.0"/><feColorMatrix in="blurOut" result="blurOut2" type="matrix" values="0 0 0 0 0 0 0 0 0 0 0 0 0 0 0 0 0 0 .4 0"/><feOffset dx="4.0" dy="4.0" in="blurOut2" result="blurOut3"/><feBlend in="SourceGraphic" in2="blurOut3" mode="normal"/></filter></defs><g><!--MD5=[3e40ca210742478abcfff4771cfda9c4]
cluster business--><polygon fill="#FFFFFF" filter="url(#fhlf2rsiy6jp5)" points="706,6,776,6,783,29.6094,2436,29.6094,2436,1089,706,1089,706,6" style="stroke:#000000;stroke-width:1.5;"/><line style="stroke:#000000;stroke-width:1.5;" x1="706" x2="783" y1="29.6094" y2="29.6094"/><text fill="#000000" font-family="sans-serif" font-size="14" font-weight="bold" lengthAdjust="spacing" textLength="64" x="710" y="22.5332">business</text><!--MD5=[64e2e010ba86d7988e5cd73bd64f61f9]
cluster ui--><polygon fill="#FFFFFF" filter="url(#fhlf2rsiy6jp5)" points="28,249.5,47,249.5,54,273.1094,682,273.1094,682,1075,28,1075,28,249.5" style="stroke:#000000;stroke-width:1.5;"/><line style="stroke:#000000;stroke-width:1.5;" x1="28" x2="54" y1="273.1094" y2="273.1094"/><text fill="#000000" font-family="sans-serif" font-size="14" font-weight="bold" lengthAdjust="spacing" textLength="13" x="32" y="266.0332">ui</text><!--MD5=[738c7c2ff5aeb58de2a1e5f3ac886fb6]
class TypingGame--><rect codeLine="12" fill="#FFA500" filter="url(#fhlf2rsiy6jp5)" height="241.7031" id="TypingGame" style="stroke:#A80036;stroke-width:1.5;" width="553" x="1866.5" y="223"/><ellipse cx="2103.75" cy="239" fill="#ADD1B2" rx="11" ry="11" style="stroke:#A80036;stroke-width:1.0;"/><path d="M2106.5156,234.875 Q2106.6719,234.6563 2106.8594,234.5469 Q2107.0469,234.4375 2107.2656,234.4375 Q2107.6406,234.4375 2107.875,234.7031 Q2108.1094,234.9531 2108.1094,235.5625 L2108.1094,237.0156 Q2108.1094,237.625 2107.875,237.8906 Q2107.6406,238.1563 2107.2656,238.1563 Q2106.9219,238.1563 2106.7188,237.9531 Q2106.5156,237.7656 2106.4063,237.25 Q2106.3594,236.8906 2106.1719,236.7031 Q2105.8438,236.3281 2105.2344,236.1094 Q2104.625,235.8906 2104,235.8906 Q2103.2344,235.8906 2102.5938,236.2188 Q2101.9688,236.5469 2101.4688,237.2969 Q2100.9844,238.0469 2100.9844,239.0781 L2100.9844,240.1719 Q2100.9844,241.4063 2101.875,242.2344 Q2102.7656,243.0469 2104.3594,243.0469 Q2105.2969,243.0469 2105.9531,242.7969 Q2106.3438,242.6406 2106.7656,242.2031 Q2107.0313,241.9375 2107.1719,241.8594 Q2107.3281,241.7813 2107.5313,241.7813 Q2107.8594,241.7813 2108.1094,242.0469 Q2108.375,242.2969 2108.375,242.6406 Q2108.375,242.9844 2108.0313,243.3906 Q2107.5313,243.9688 2106.7344,244.2969 Q2105.6563,244.75 2104.3594,244.75 Q2102.8438,244.75 2101.6406,244.125 Q2100.6563,243.625 2099.9688,242.5625 Q2099.2813,241.4844 2099.2813,240.2031 L2099.2813,239.0469 Q2099.2813,237.7188 2099.8906,236.5781 Q2100.5156,235.4219 2101.6094,234.8125 Q2102.7031,234.1875 2103.9375,234.1875 Q2104.6719,234.1875 2105.3125,234.3594 Q2105.9688,234.5156 2106.5156,234.875 Z " fill="#000000"/><text fill="#000000" font-family="sans-serif" font-size="12" lengthAdjust="spacing" textLength="70" x="2124.25" y="243.9102">TypingGame</text><line style="stroke:#A80036;stroke-width:1.5;" x1="1867.5" x2="2418.5" y1="255" y2="255"/><rect fill="none" height="6" style="stroke:#C82930;stroke-width:1.0;" width="6" x="1874.5" y="263"/><text fill="#000000" font-family="sans-serif" font-size="11" lengthAdjust="spacing" textLength="146" x="1886.5" y="270.4189">TypingGameDifficulty difficulty</text><rect fill="none" height="6" style="stroke:#C82930;stroke-width:1.0;" width="6" x="1874.5" y="276.8359"/><text fill="#000000" font-family="sans-serif" font-size="11" lengthAdjust="spacing" textLength="137" x="1886.5" y="284.2549">TypingGameListener listener</text><rect fill="none" height="6" style="stroke:#C82930;stroke-width:1.0;" width="6" x="1874.5" y="290.6719"/><text fill="#000000" font-family="sans-serif" font-size="11" lengthAdjust="spacing" textLength="164" x="1886.5" y="298.0908">NextQuestionGenerator generator</text><rect fill="none" height="6" style="stroke:#C82930;stroke-width:1.0;" width="6" x="1874.5" y="304.5078"/><text fill="#000000" font-family="sans-serif" font-size="11" lengthAdjust="spacing" textLength="138" x="1886.5" y="311.9268">List&lt;QuestionResult&gt; results</text><rect fill="none" height="6" style="stroke:#C82930;stroke-width:1.0;" width="6" x="1874.5" y="318.3438"/><text fill="#000000" font-family="sans-serif" font-size="11" lengthAdjust="spacing" textLength="122" x="1886.5" y="325.7627">ZonedDateTime startTime</text><rect fill="none" height="6" style="stroke:#C82930;stroke-width:1.0;" width="6" x="1874.5" y="332.1797"/><text fill="#000000" font-family="sans-serif" font-size="11" lengthAdjust="spacing" textLength="118" x="1886.5" y="339.5986">ZonedDateTime endTime</text><line style="stroke:#A80036;stroke-width:1.5;" x1="1867.5" x2="2418.5" y1="346.0156" y2="346.0156"/><ellipse cx="1877.5" cy="357.0156" fill="#84BE84" rx="3" ry="3" style="stroke:#038048;stroke-width:1.0;"/><text fill="#000000" font-family="sans-serif" font-size="11" lengthAdjust="spacing" textLength="527" x="1886.5" y="361.4346">TypingGame(TypingGameDifficulty difficulty, TypingGameListener listener, NextQuestionGenerator generator)</text><ellipse cx="1877.5" cy="370.8516" fill="#84BE84" rx="3" ry="3" style="stroke:#038048;stroke-width:1.0;"/><text fill="#000000" font-family="sans-serif" font-size="11" lengthAdjust="spacing" textLength="70" x="1886.5" y="375.2705">void execute()</text><ellipse cx="1877.5" cy="384.6875" fill="#84BE84" rx="3" ry="3" style="stroke:#038048;stroke-width:1.0;"/><text fill="#000000" font-family="sans-serif" font-size="11" lengthAdjust="spacing" textLength="170" x="1886.5" y="389.1064">TypingGameDifficulty getDifficulty()</text><ellipse cx="1877.5" cy="398.5234" fill="#84BE84" rx="3" ry="3" style="stroke:#038048;stroke-width:1.0;"/><text fill="#000000" font-family="sans-serif" font-size="11" lengthAdjust="spacing" textLength="164" x="1886.5" y="402.9424">List&lt;QuestionResult&gt; getResults()</text><ellipse cx="1877.5" cy="412.3594" fill="#84BE84" rx="3" ry="3" style="stroke:#038048;stroke-width:1.0;"/><text fill="#000000" font-family="sans-serif" font-size="11" lengthAdjust="spacing" textLength="124" x="1886.5" y="416.7783">long getTimeToCalculate()</text><ellipse cx="1877.5" cy="426.1953" fill="#84BE84" rx="3" ry="3" style="stroke:#038048;stroke-width:1.0;"/><text fill="#000000" font-family="sans-serif" font-size="11" lengthAdjust="spacing" textLength="272" x="1886.5" y="430.6143">boolean isSameDifficulty(TypingGameDifficulty difficulty)</text><ellipse cx="1877.5" cy="440.0313" fill="#84BE84" rx="3" ry="3" style="stroke:#038048;stroke-width:1.0;"/><text fill="#000000" font-family="sans-serif" font-size="11" lengthAdjust="spacing" textLength="135" x="1886.5" y="444.4502">int getNumberOfQuestions()</text><rect fill="#F24D5C" height="6" style="stroke:#C82930;stroke-width:1.0;" width="6" x="1874.5" y="450.8672"/><text fill="#000000" font-family="sans-serif" font-size="11" lengthAdjust="spacing" textLength="76" x="1886.5" y="458.2861">String toString()</text><!--MD5=[16e97334476463f55178dcd7b6f0e90d]
class TypingGameListener--><rect codeLine="29" fill="#FEFECE" filter="url(#fhlf2rsiy6jp5)" height="117.1797" id="TypingGameListener" style="stroke:#A80036;stroke-width:1.5;" width="226" x="1997" y="595.5"/><ellipse cx="2048.25" cy="611.5" fill="#B4A7E5" rx="11" ry="11" style="stroke:#A80036;stroke-width:1.0;"/><path d="M2049.2031,608.1406 L2049.2031,614.7969 L2050.9219,614.7969 Q2051.5313,614.7969 2051.7969,615.0313 Q2052.0625,615.2656 2052.0625,615.6563 Q2052.0625,616.0313 2051.7969,616.2656 Q2051.5313,616.5 2050.9219,616.5 L2045.7813,616.5 Q2045.1719,616.5 2044.9063,616.2656 Q2044.6406,616.0313 2044.6406,615.6406 Q2044.6406,615.2656 2044.9063,615.0313 Q2045.1719,614.7969 2045.7813,614.7969 L2047.5,614.7969 L2047.5,608.1406 L2045.7813,608.1406 Q2045.1719,608.1406 2044.9063,607.9063 Q2044.6406,607.6719 2044.6406,607.2813 Q2044.6406,606.9063 2044.9063,606.6719 Q2045.1719,606.4375 2045.7813,606.4375 L2050.9219,606.4375 Q2051.5313,606.4375 2051.7969,606.6719 Q2052.0625,606.9063 2052.0625,607.2813 Q2052.0625,607.6719 2051.7969,607.9063 Q2051.5313,608.1406 2050.9219,608.1406 L2049.2031,608.1406 Z " fill="#000000"/><text fill="#000000" font-family="sans-serif" font-size="12" font-style="italic" lengthAdjust="spacing" textLength="115" x="2068.75" y="616.4102">TypingGameListener</text><line style="stroke:#A80036;stroke-width:1.5;" x1="1998" x2="2222" y1="627.5" y2="627.5"/><line style="stroke:#A80036;stroke-width:1.5;" x1="1998" x2="2222" y1="635.5" y2="635.5"/><text fill="#000000" font-family="sans-serif" font-size="11" lengthAdjust="spacing" textLength="214" x="2003" y="650.9189">void onGameStart(TypingGame typingGame)</text><text fill="#000000" font-family="sans-serif" font-size="11" lengthAdjust="spacing" textLength="209" x="2003" y="664.7549">void onGameEnd(TypingGame typingGame)</text><text fill="#000000" font-family="sans-serif" font-size="11" lengthAdjust="spacing" textLength="202" x="2003" y="678.5908">String receiveAnswer(Question question)</text><text fill="#000000" font-family="sans-serif" font-size="11" lengthAdjust="spacing" textLength="207" x="2003" y="692.4268">void onJudgeOK(TypingGame typingGame)</text><text fill="#000000" font-family="sans-serif" font-size="11" lengthAdjust="spacing" textLength="207" x="2003" y="706.2627">void onJudgeNG(TypingGame typingGame)</text><!--MD5=[8ebf1df77a58ffbe767c3d2afcefdd5e]
class NextQuestionGenerator--><rect codeLine="37" fill="#FEFECE" filter="url(#fhlf2rsiy6jp5)" height="61.8359" id="NextQuestionGenerator" style="stroke:#A80036;stroke-width:1.5;" width="161" x="2258.5" y="623"/><ellipse cx="2273.5" cy="639" fill="#B4A7E5" rx="11" ry="11" style="stroke:#A80036;stroke-width:1.0;"/><path d="M2274.4531,635.6406 L2274.4531,642.2969 L2276.1719,642.2969 Q2276.7813,642.2969 2277.0469,642.5313 Q2277.3125,642.7656 2277.3125,643.1563 Q2277.3125,643.5313 2277.0469,643.7656 Q2276.7813,644 2276.1719,644 L2271.0313,644 Q2270.4219,644 2270.1563,643.7656 Q2269.8906,643.5313 2269.8906,643.1406 Q2269.8906,642.7656 2270.1563,642.5313 Q2270.4219,642.2969 2271.0313,642.2969 L2272.75,642.2969 L2272.75,635.6406 L2271.0313,635.6406 Q2270.4219,635.6406 2270.1563,635.4063 Q2269.8906,635.1719 2269.8906,634.7813 Q2269.8906,634.4063 2270.1563,634.1719 Q2270.4219,633.9375 2271.0313,633.9375 L2276.1719,633.9375 Q2276.7813,633.9375 2277.0469,634.1719 Q2277.3125,634.4063 2277.3125,634.7813 Q2277.3125,635.1719 2277.0469,635.4063 Q2276.7813,635.6406 2276.1719,635.6406 L2274.4531,635.6406 Z " fill="#000000"/><text fill="#000000" font-family="sans-serif" font-size="12" font-style="italic" lengthAdjust="spacing" textLength="129" x="2287.5" y="643.9102">NextQuestionGenerator</text><line style="stroke:#A80036;stroke-width:1.5;" x1="2259.5" x2="2418.5" y1="655" y2="655"/><line style="stroke:#A80036;stroke-width:1.5;" x1="2259.5" x2="2418.5" y1="663" y2="663"/><text fill="#000000" font-family="sans-serif" font-size="11" lengthAdjust="spacing" textLength="97" x="2264.5" y="678.4189">Question generate()</text><!--MD5=[d5bf7fe7dc694505994dd41c6fa071e3]
class AbstractNextQuestionGenerator--><rect codeLine="41" fill="#FEFECE" filter="url(#fhlf2rsiy6jp5)" height="75.6719" id="AbstractNextQuestionGenerator" style="stroke:#A80036;stroke-width:1.5;" width="312" x="2096" y="843"/><ellipse cx="2160.75" cy="859" fill="#A9DCDF" rx="11" ry="11" style="stroke:#A80036;stroke-width:1.0;"/><path d="M2162.9375,860.7656 L2158.7969,860.7656 L2158.375,861.7969 L2158.7969,861.7969 Q2159.4063,861.7969 2159.6719,862.0313 Q2159.9375,862.2656 2159.9375,862.6563 Q2159.9375,863.0313 2159.6719,863.2656 Q2159.4063,863.5 2158.7969,863.5 L2156.5,863.5 Q2155.8906,863.5 2155.6406,863.2656 Q2155.375,863.0313 2155.375,862.6406 Q2155.375,862.2656 2155.6563,862.0313 Q2155.9219,861.7813 2156.5469,861.7969 L2159.2188,855.1406 L2158.1094,855.1406 Q2157.5,855.1406 2157.2344,854.9063 Q2156.9688,854.6719 2156.9688,854.2813 Q2156.9688,853.9063 2157.2344,853.6719 Q2157.5,853.4375 2158.1094,853.4375 L2161.7813,853.4375 L2165.1719,861.7969 Q2165.7656,861.7969 2165.9531,861.9375 Q2166.3438,862.2031 2166.3438,862.6563 Q2166.3438,863.0313 2166.0781,863.2656 Q2165.8281,863.5 2165.2188,863.5 L2162.9219,863.5 Q2162.3125,863.5 2162.0469,863.2656 Q2161.7813,863.0313 2161.7813,862.6406 Q2161.7813,862.2656 2162.0469,862.0313 Q2162.3125,861.7969 2162.9219,861.7969 L2163.3438,861.7969 L2162.9375,860.7656 Z M2162.2188,859.0625 L2160.8594,855.6875 L2159.4844,859.0625 L2162.2188,859.0625 Z " fill="#000000"/><text fill="#000000" font-family="sans-serif" font-size="12" font-style="italic" lengthAdjust="spacing" textLength="174" x="2181.25" y="863.9102">AbstractNextQuestionGenerator</text><line style="stroke:#A80036;stroke-width:1.5;" x1="2097" x2="2407" y1="875" y2="875"/><rect fill="none" height="6" style="stroke:#C82930;stroke-width:1.0;" width="6" x="2104" y="883"/><text fill="#000000" font-family="sans-serif" font-size="11" lengthAdjust="spacing" textLength="122" x="2116" y="890.4189">List&lt;Question&gt; questions</text><line style="stroke:#A80036;stroke-width:1.5;" x1="2097" x2="2407" y1="896.8359" y2="896.8359"/><ellipse cx="2107" cy="907.8359" fill="#84BE84" rx="3" ry="3" style="stroke:#038048;stroke-width:1.0;"/><text fill="#000000" font-family="sans-serif" font-size="11" lengthAdjust="spacing" textLength="286" x="2116" y="912.2549">AbstractNextQuestionGenerator(List&lt;Question&gt; questions)</text><!--MD5=[fa66635db34bf884a16b1634e5ffc46d]
class NotMatchPreviousNextQuestionGenerator--><rect codeLine="46" fill="#FEFECE" filter="url(#fhlf2rsiy6jp5)" height="75.6719" id="NotMatchPreviousNextQuestionGenerator" style="stroke:#A80036;stroke-width:1.5;" width="357" x="1691.5" y="997"/><ellipse cx="1751.75" cy="1013" fill="#ADD1B2" rx="11" ry="11" style="stroke:#A80036;stroke-width:1.0;"/><path d="M1754.5156,1008.875 Q1754.6719,1008.6563 1754.8594,1008.5469 Q1755.0469,1008.4375 1755.2656,1008.4375 Q1755.6406,1008.4375 1755.875,1008.7031 Q1756.1094,1008.9531 1756.1094,1009.5625 L1756.1094,1011.0156 Q1756.1094,1011.625 1755.875,1011.8906 Q1755.6406,1012.1563 1755.2656,1012.1563 Q1754.9219,1012.1563 1754.7188,1011.9531 Q1754.5156,1011.7656 1754.4063,1011.25 Q1754.3594,1010.8906 1754.1719,1010.7031 Q1753.8438,1010.3281 1753.2344,1010.1094 Q1752.625,1009.8906 1752,1009.8906 Q1751.2344,1009.8906 1750.5938,1010.2188 Q1749.9688,1010.5469 1749.4688,1011.2969 Q1748.9844,1012.0469 1748.9844,1013.0781 L1748.9844,1014.1719 Q1748.9844,1015.4063 1749.875,1016.2344 Q1750.7656,1017.0469 1752.3594,1017.0469 Q1753.2969,1017.0469 1753.9531,1016.7969 Q1754.3438,1016.6406 1754.7656,1016.2031 Q1755.0313,1015.9375 1755.1719,1015.8594 Q1755.3281,1015.7813 1755.5313,1015.7813 Q1755.8594,1015.7813 1756.1094,1016.0469 Q1756.375,1016.2969 1756.375,1016.6406 Q1756.375,1016.9844 1756.0313,1017.3906 Q1755.5313,1017.9688 1754.7344,1018.2969 Q1753.6563,1018.75 1752.3594,1018.75 Q1750.8438,1018.75 1749.6406,1018.125 Q1748.6563,1017.625 1747.9688,1016.5625 Q1747.2813,1015.4844 1747.2813,1014.2031 L1747.2813,1013.0469 Q1747.2813,1011.7188 1747.8906,1010.5781 Q1748.5156,1009.4219 1749.6094,1008.8125 Q1750.7031,1008.1875 1751.9375,1008.1875 Q1752.6719,1008.1875 1753.3125,1008.3594 Q1753.9688,1008.5156 1754.5156,1008.875 Z " fill="#000000"/><text fill="#000000" font-family="sans-serif" font-size="12" lengthAdjust="spacing" textLength="228" x="1772.25" y="1017.9102">NotMatchPreviousNextQuestionGenerator</text><line style="stroke:#A80036;stroke-width:1.5;" x1="1692.5" x2="2047.5" y1="1029" y2="1029"/><rect fill="none" height="6" style="stroke:#C82930;stroke-width:1.0;" width="6" x="1699.5" y="1037"/><text fill="#000000" font-family="sans-serif" font-size="11" lengthAdjust="spacing" textLength="111" x="1711.5" y="1044.4189">Question prevQuestion</text><line style="stroke:#A80036;stroke-width:1.5;" x1="1692.5" x2="2047.5" y1="1050.8359" y2="1050.8359"/><ellipse cx="1702.5" cy="1061.8359" fill="#84BE84" rx="3" ry="3" style="stroke:#038048;stroke-width:1.0;"/><text fill="#000000" font-family="sans-serif" font-size="11" lengthAdjust="spacing" textLength="331" x="1711.5" y="1066.2549">NotMatchPreviousNextQuestionGenerator(List&lt;Question&gt; questions)</text><!--MD5=[e988674d10764d95a60f997b654a937a]
class NotMatchPastNextQuestionGenerator--><rect codeLine="51" fill="#FEFECE" filter="url(#fhlf2rsiy6jp5)" height="75.6719" id="NotMatchPastNextQuestionGenerator" style="stroke:#A80036;stroke-width:1.5;" width="336" x="2084" y="997"/><ellipse cx="2145.25" cy="1013" fill="#ADD1B2" rx="11" ry="11" style="stroke:#A80036;stroke-width:1.0;"/><path d="M2148.0156,1008.875 Q2148.1719,1008.6563 2148.3594,1008.5469 Q2148.5469,1008.4375 2148.7656,1008.4375 Q2149.1406,1008.4375 2149.375,1008.7031 Q2149.6094,1008.9531 2149.6094,1009.5625 L2149.6094,1011.0156 Q2149.6094,1011.625 2149.375,1011.8906 Q2149.1406,1012.1563 2148.7656,1012.1563 Q2148.4219,1012.1563 2148.2188,1011.9531 Q2148.0156,1011.7656 2147.9063,1011.25 Q2147.8594,1010.8906 2147.6719,1010.7031 Q2147.3438,1010.3281 2146.7344,1010.1094 Q2146.125,1009.8906 2145.5,1009.8906 Q2144.7344,1009.8906 2144.0938,1010.2188 Q2143.4688,1010.5469 2142.9688,1011.2969 Q2142.4844,1012.0469 2142.4844,1013.0781 L2142.4844,1014.1719 Q2142.4844,1015.4063 2143.375,1016.2344 Q2144.2656,1017.0469 2145.8594,1017.0469 Q2146.7969,1017.0469 2147.4531,1016.7969 Q2147.8438,1016.6406 2148.2656,1016.2031 Q2148.5313,1015.9375 2148.6719,1015.8594 Q2148.8281,1015.7813 2149.0313,1015.7813 Q2149.3594,1015.7813 2149.6094,1016.0469 Q2149.875,1016.2969 2149.875,1016.6406 Q2149.875,1016.9844 2149.5313,1017.3906 Q2149.0313,1017.9688 2148.2344,1018.2969 Q2147.1563,1018.75 2145.8594,1018.75 Q2144.3438,1018.75 2143.1406,1018.125 Q2142.1563,1017.625 2141.4688,1016.5625 Q2140.7813,1015.4844 2140.7813,1014.2031 L2140.7813,1013.0469 Q2140.7813,1011.7188 2141.3906,1010.5781 Q2142.0156,1009.4219 2143.1094,1008.8125 Q2144.2031,1008.1875 2145.4375,1008.1875 Q2146.1719,1008.1875 2146.8125,1008.3594 Q2147.4688,1008.5156 2148.0156,1008.875 Z " fill="#000000"/><text fill="#000000" font-family="sans-serif" font-size="12" lengthAdjust="spacing" textLength="205" x="2165.75" y="1017.9102">NotMatchPastNextQuestionGenerator</text><line style="stroke:#A80036;stroke-width:1.5;" x1="2085" x2="2419" y1="1029" y2="1029"/><rect fill="none" height="6" style="stroke:#C82930;stroke-width:1.0;" width="6" x="2092" y="1037"/><text fill="#000000" font-family="sans-serif" font-size="11" lengthAdjust="spacing" textLength="152" x="2104" y="1044.4189">Set&lt;Question&gt; askedQuestions</text><line style="stroke:#A80036;stroke-width:1.5;" x1="2085" x2="2419" y1="1050.8359" y2="1050.8359"/><ellipse cx="2095" cy="1061.8359" fill="#84BE84" rx="3" ry="3" style="stroke:#038048;stroke-width:1.0;"/><text fill="#000000" font-family="sans-serif" font-size="11" lengthAdjust="spacing" textLength="310" x="2104" y="1066.2549">NotMatchPastNextQuestionGenerator(List&lt;Question&gt; questions)</text><!--MD5=[9ff0d9e3f56f79f90a7d352b3f3e5a52]
class TypingGameMode--><rect codeLine="56" fill="#FEFECE" filter="url(#fhlf2rsiy6jp5)" height="194.3594" id="TypingGameMode" style="stroke:#A80036;stroke-width:1.5;" width="329" x="1502.5" y="247"/><ellipse cx="1612.75" cy="263" fill="#EB937F" rx="11" ry="11" style="stroke:#A80036;stroke-width:1.0;"/><path d="M1611.6094,263.7969 L1611.6094,266.2969 L1615.9375,266.2969 L1615.9375,265.375 Q1615.9375,264.7656 1616.1719,264.5 Q1616.4219,264.2344 1616.7969,264.2344 Q1617.1719,264.2344 1617.4063,264.5 Q1617.6406,264.7656 1617.6406,265.375 L1617.6406,268 L1609.6406,268 Q1609.0156,268 1608.75,267.7656 Q1608.5,267.5313 1608.5,267.1406 Q1608.5,266.7656 1608.7656,266.5313 Q1609.0313,266.2969 1609.6406,266.2969 L1609.9063,266.2969 L1609.9063,259.6406 L1609.6406,259.6406 Q1609.0156,259.6406 1608.75,259.4063 Q1608.5,259.1719 1608.5,258.7813 Q1608.5,258.4063 1608.75,258.1719 Q1609.0156,257.9375 1609.6406,257.9375 L1617.2656,257.9375 L1617.2656,260.5313 Q1617.2656,261.1406 1617.0313,261.4063 Q1616.8125,261.6563 1616.4219,261.6563 Q1616.0469,261.6563 1615.8125,261.4063 Q1615.5781,261.1406 1615.5781,260.5313 L1615.5781,259.6406 L1611.6094,259.6406 L1611.6094,262.0938 L1613.0938,262.0938 Q1613.0938,261.4375 1613.2188,261.25 Q1613.4844,260.8438 1613.9531,260.8438 Q1614.3281,260.8438 1614.5625,261.1094 Q1614.7969,261.3594 1614.7969,261.9688 L1614.7969,263.9375 Q1614.7969,264.4844 1614.6719,264.6719 Q1614.4063,265.0625 1613.9531,265.0625 Q1613.4844,265.0625 1613.2188,264.6563 Q1613.0938,264.4688 1613.0938,263.7969 L1611.6094,263.7969 Z " fill="#000000"/><text fill="#000000" font-family="sans-serif" font-size="12" lengthAdjust="spacing" textLength="100" x="1633.25" y="267.9102">TypingGameMode</text><line style="stroke:#A80036;stroke-width:1.5;" x1="1503.5" x2="1830.5" y1="279" y2="279"/><ellipse cx="1513.5" cy="290" rx="3" ry="3" style="stroke:#038048;stroke-width:1.0;fill:none;"/><text fill="#000000" font-family="sans-serif" font-size="11" lengthAdjust="spacing" textLength="44" x="1522.5" y="294.4189">NORMAL</text><ellipse cx="1513.5" cy="303.8359" rx="3" ry="3" style="stroke:#038048;stroke-width:1.0;fill:none;"/><text fill="#000000" font-family="sans-serif" font-size="11" lengthAdjust="spacing" textLength="21" x="1522.5" y="308.2549">HOT</text><line style="stroke:#A80036;stroke-width:1.0;stroke-dasharray:1.0,2.0;" x1="1503.5" x2="1830.5" y1="314.6719" y2="314.6719"/><rect fill="none" height="6" style="stroke:#C82930;stroke-width:1.0;" width="6" x="1510.5" y="322.6719"/><text fill="#000000" font-family="sans-serif" font-size="11" lengthAdjust="spacing" textLength="57" x="1522.5" y="330.0908">String name</text><rect fill="none" height="6" style="stroke:#C82930;stroke-width:1.0;" width="6" x="1510.5" y="336.5078"/><text fill="#000000" font-family="sans-serif" font-size="11" lengthAdjust="spacing" textLength="40" x="1522.5" y="343.9268">int mode</text><rect fill="none" height="6" style="stroke:#C82930;stroke-width:1.0;" width="6" x="1510.5" y="350.3438"/><text fill="#000000" font-family="sans-serif" font-size="11" lengthAdjust="spacing" textLength="100" x="1522.5" y="357.7627">boolean defaultMode</text><line style="stroke:#A80036;stroke-width:1.5;" x1="1503.5" x2="1830.5" y1="364.1797" y2="364.1797"/><ellipse cx="1513.5" cy="375.1797" fill="#84BE84" rx="3" ry="3" style="stroke:#038048;stroke-width:1.0;"/><text fill="#000000" font-family="sans-serif" font-size="11" lengthAdjust="spacing" textLength="303" x="1522.5" y="379.5986">TypingGameMode(String name, int mode, boolean defaultMode)</text><ellipse cx="1513.5" cy="389.0156" fill="#84BE84" rx="3" ry="3" style="stroke:#038048;stroke-width:1.0;"/><text fill="#000000" font-family="sans-serif" font-size="11" lengthAdjust="spacing" text-decoration="underline" textLength="147" x="1522.5" y="393.4346">TypingGameMode of(int mode)</text><ellipse cx="1513.5" cy="402.8516" fill="#84BE84" rx="3" ry="3" style="stroke:#038048;stroke-width:1.0;"/><text fill="#000000" font-family="sans-serif" font-size="11" lengthAdjust="spacing" text-decoration="underline" textLength="146" x="1522.5" y="407.2705">TypingGameMode getDefault()</text><ellipse cx="1513.5" cy="416.6875" fill="#84BE84" rx="3" ry="3" style="stroke:#038048;stroke-width:1.0;"/><text fill="#000000" font-family="sans-serif" font-size="11" lengthAdjust="spacing" textLength="81" x="1522.5" y="421.1064">String getName()</text><ellipse cx="1513.5" cy="430.5234" fill="#84BE84" rx="3" ry="3" style="stroke:#038048;stroke-width:1.0;"/><text fill="#000000" font-family="sans-serif" font-size="11" lengthAdjust="spacing" textLength="63" x="1522.5" y="434.9424">int getMode()</text><!--MD5=[a0f4154cf21c7986d9b4002c345b152e]
class NextQuestionGeneratorMode--><rect codeLine="71" fill="#FEFECE" filter="url(#fhlf2rsiy6jp5)" height="194.3594" id="NextQuestionGeneratorMode" style="stroke:#A80036;stroke-width:1.5;" width="383" x="722.5" y="247"/><ellipse cx="830.25" cy="263" fill="#EB937F" rx="11" ry="11" style="stroke:#A80036;stroke-width:1.0;"/><path d="M829.1094,263.7969 L829.1094,266.2969 L833.4375,266.2969 L833.4375,265.375 Q833.4375,264.7656 833.6719,264.5 Q833.9219,264.2344 834.2969,264.2344 Q834.6719,264.2344 834.9063,264.5 Q835.1406,264.7656 835.1406,265.375 L835.1406,268 L827.1406,268 Q826.5156,268 826.25,267.7656 Q826,267.5313 826,267.1406 Q826,266.7656 826.2656,266.5313 Q826.5313,266.2969 827.1406,266.2969 L827.4063,266.2969 L827.4063,259.6406 L827.1406,259.6406 Q826.5156,259.6406 826.25,259.4063 Q826,259.1719 826,258.7813 Q826,258.4063 826.25,258.1719 Q826.5156,257.9375 827.1406,257.9375 L834.7656,257.9375 L834.7656,260.5313 Q834.7656,261.1406 834.5313,261.4063 Q834.3125,261.6563 833.9219,261.6563 Q833.5469,261.6563 833.3125,261.4063 Q833.0781,261.1406 833.0781,260.5313 L833.0781,259.6406 L829.1094,259.6406 L829.1094,262.0938 L830.5938,262.0938 Q830.5938,261.4375 830.7188,261.25 Q830.9844,260.8438 831.4531,260.8438 Q831.8281,260.8438 832.0625,261.1094 Q832.2969,261.3594 832.2969,261.9688 L832.2969,263.9375 Q832.2969,264.4844 832.1719,264.6719 Q831.9063,265.0625 831.4531,265.0625 Q830.9844,265.0625 830.7188,264.6563 Q830.5938,264.4688 830.5938,263.7969 L829.1094,263.7969 Z " fill="#000000"/><text fill="#000000" font-family="sans-serif" font-size="12" lengthAdjust="spacing" textLength="159" x="850.75" y="267.9102">NextQuestionGeneratorMode</text><line style="stroke:#A80036;stroke-width:1.5;" x1="723.5" x2="1104.5" y1="279" y2="279"/><ellipse cx="733.5" cy="290" rx="3" ry="3" style="stroke:#038048;stroke-width:1.0;fill:none;"/><text fill="#000000" font-family="sans-serif" font-size="11" lengthAdjust="spacing" textLength="120" x="742.5" y="294.4189">NOT_MATCH_PREVIOUS</text><ellipse cx="733.5" cy="303.8359" rx="3" ry="3" style="stroke:#038048;stroke-width:1.0;fill:none;"/><text fill="#000000" font-family="sans-serif" font-size="11" lengthAdjust="spacing" textLength="96" x="742.5" y="308.2549">NOT_MATCH_PAST</text><line style="stroke:#A80036;stroke-width:1.0;stroke-dasharray:1.0,2.0;" x1="723.5" x2="1104.5" y1="314.6719" y2="314.6719"/><rect fill="none" height="6" style="stroke:#C82930;stroke-width:1.0;" width="6" x="730.5" y="322.6719"/><text fill="#000000" font-family="sans-serif" font-size="11" lengthAdjust="spacing" textLength="57" x="742.5" y="330.0908">String name</text><rect fill="none" height="6" style="stroke:#C82930;stroke-width:1.0;" width="6" x="730.5" y="336.5078"/><text fill="#000000" font-family="sans-serif" font-size="11" lengthAdjust="spacing" textLength="40" x="742.5" y="343.9268">int mode</text><rect fill="none" height="6" style="stroke:#C82930;stroke-width:1.0;" width="6" x="730.5" y="350.3438"/><text fill="#000000" font-family="sans-serif" font-size="11" lengthAdjust="spacing" textLength="100" x="742.5" y="357.7627">boolean defaultLevel</text><line style="stroke:#A80036;stroke-width:1.5;" x1="723.5" x2="1104.5" y1="364.1797" y2="364.1797"/><ellipse cx="733.5" cy="375.1797" fill="#84BE84" rx="3" ry="3" style="stroke:#038048;stroke-width:1.0;"/><text fill="#000000" font-family="sans-serif" font-size="11" lengthAdjust="spacing" textLength="357" x="742.5" y="379.5986">NextQuestionGeneratorMode(String name, int mode, boolean defaultMode)</text><ellipse cx="733.5" cy="389.0156" fill="#84BE84" rx="3" ry="3" style="stroke:#038048;stroke-width:1.0;"/><text fill="#000000" font-family="sans-serif" font-size="11" lengthAdjust="spacing" text-decoration="underline" textLength="201" x="742.5" y="393.4346">NextQuestionGeneratorMode of(int mode)</text><ellipse cx="733.5" cy="402.8516" fill="#84BE84" rx="3" ry="3" style="stroke:#038048;stroke-width:1.0;"/><text fill="#000000" font-family="sans-serif" font-size="11" lengthAdjust="spacing" text-decoration="underline" textLength="200" x="742.5" y="407.2705">NextQuestionGeneratorMode getDefault()</text><ellipse cx="733.5" cy="416.6875" fill="#84BE84" rx="3" ry="3" style="stroke:#038048;stroke-width:1.0;"/><text fill="#000000" font-family="sans-serif" font-size="11" lengthAdjust="spacing" textLength="81" x="742.5" y="421.1064">String getName()</text><ellipse cx="733.5" cy="430.5234" fill="#84BE84" rx="3" ry="3" style="stroke:#038048;stroke-width:1.0;"/><text fill="#000000" font-family="sans-serif" font-size="11" lengthAdjust="spacing" textLength="63" x="742.5" y="434.9424">int getMode()</text><!--MD5=[2467ab778d54314a3fb6b7e9a32a0937]
class TypingGameDifficulty--><rect codeLine="86" fill="#FEFECE" filter="url(#fhlf2rsiy6jp5)" height="222.0313" id="TypingGameDifficulty" style="stroke:#A80036;stroke-width:1.5;" width="341" x="1243.5" y="543"/><ellipse cx="1352.25" cy="559" fill="#EB937F" rx="11" ry="11" style="stroke:#A80036;stroke-width:1.0;"/><path d="M1351.1094,559.7969 L1351.1094,562.2969 L1355.4375,562.2969 L1355.4375,561.375 Q1355.4375,560.7656 1355.6719,560.5 Q1355.9219,560.2344 1356.2969,560.2344 Q1356.6719,560.2344 1356.9063,560.5 Q1357.1406,560.7656 1357.1406,561.375 L1357.1406,564 L1349.1406,564 Q1348.5156,564 1348.25,563.7656 Q1348,563.5313 1348,563.1406 Q1348,562.7656 1348.2656,562.5313 Q1348.5313,562.2969 1349.1406,562.2969 L1349.4063,562.2969 L1349.4063,555.6406 L1349.1406,555.6406 Q1348.5156,555.6406 1348.25,555.4063 Q1348,555.1719 1348,554.7813 Q1348,554.4063 1348.25,554.1719 Q1348.5156,553.9375 1349.1406,553.9375 L1356.7656,553.9375 L1356.7656,556.5313 Q1356.7656,557.1406 1356.5313,557.4063 Q1356.3125,557.6563 1355.9219,557.6563 Q1355.5469,557.6563 1355.3125,557.4063 Q1355.0781,557.1406 1355.0781,556.5313 L1355.0781,555.6406 L1351.1094,555.6406 L1351.1094,558.0938 L1352.5938,558.0938 Q1352.5938,557.4375 1352.7188,557.25 Q1352.9844,556.8438 1353.4531,556.8438 Q1353.8281,556.8438 1354.0625,557.1094 Q1354.2969,557.3594 1354.2969,557.9688 L1354.2969,559.9375 Q1354.2969,560.4844 1354.1719,560.6719 Q1353.9063,561.0625 1353.4531,561.0625 Q1352.9844,561.0625 1352.7188,560.6563 Q1352.5938,560.4688 1352.5938,559.7969 L1351.1094,559.7969 Z " fill="#000000"/><text fill="#000000" font-family="sans-serif" font-size="12" lengthAdjust="spacing" textLength="115" x="1372.75" y="563.9102">TypingGameDifficulty</text><line style="stroke:#A80036;stroke-width:1.5;" x1="1244.5" x2="1583.5" y1="575" y2="575"/><ellipse cx="1254.5" cy="586" rx="3" ry="3" style="stroke:#038048;stroke-width:1.0;fill:none;"/><text fill="#000000" font-family="sans-serif" font-size="11" lengthAdjust="spacing" textLength="29" x="1263.5" y="590.4189">EASY</text><ellipse cx="1254.5" cy="599.8359" rx="3" ry="3" style="stroke:#038048;stroke-width:1.0;fill:none;"/><text fill="#000000" font-family="sans-serif" font-size="11" lengthAdjust="spacing" textLength="44" x="1263.5" y="604.2549">NORMAL</text><ellipse cx="1254.5" cy="613.6719" rx="3" ry="3" style="stroke:#038048;stroke-width:1.0;fill:none;"/><text fill="#000000" font-family="sans-serif" font-size="11" lengthAdjust="spacing" textLength="29" x="1263.5" y="618.0908">HARD</text><line style="stroke:#A80036;stroke-width:1.0;stroke-dasharray:1.0,2.0;" x1="1244.5" x2="1583.5" y1="624.5078" y2="624.5078"/><rect fill="none" height="6" style="stroke:#C82930;stroke-width:1.0;" width="6" x="1251.5" y="632.5078"/><text fill="#000000" font-family="sans-serif" font-size="11" lengthAdjust="spacing" textLength="57" x="1263.5" y="639.9268">String name</text><rect fill="none" height="6" style="stroke:#C82930;stroke-width:1.0;" width="6" x="1251.5" y="646.3438"/><text fill="#000000" font-family="sans-serif" font-size="11" lengthAdjust="spacing" textLength="36" x="1263.5" y="653.7627">int level</text><rect fill="none" height="6" style="stroke:#C82930;stroke-width:1.0;" width="6" x="1251.5" y="660.1797"/><text fill="#000000" font-family="sans-serif" font-size="11" lengthAdjust="spacing" textLength="100" x="1263.5" y="667.5986">boolean defaultLevel</text><line style="stroke:#A80036;stroke-width:1.5;" x1="1244.5" x2="1583.5" y1="674.0156" y2="674.0156"/><ellipse cx="1254.5" cy="685.0156" fill="#84BE84" rx="3" ry="3" style="stroke:#038048;stroke-width:1.0;"/><text fill="#000000" font-family="sans-serif" font-size="11" lengthAdjust="spacing" textLength="315" x="1263.5" y="689.4346">TypingGameDifficulty(String name, int level, boolean defaultLevel)</text><ellipse cx="1254.5" cy="698.8516" fill="#84BE84" rx="3" ry="3" style="stroke:#038048;stroke-width:1.0;"/><text fill="#000000" font-family="sans-serif" font-size="11" lengthAdjust="spacing" text-decoration="underline" textLength="159" x="1263.5" y="703.2705">TypingGameDifficulty of(int level)</text><ellipse cx="1254.5" cy="712.6875" fill="#84BE84" rx="3" ry="3" style="stroke:#038048;stroke-width:1.0;"/><text fill="#000000" font-family="sans-serif" font-size="11" lengthAdjust="spacing" text-decoration="underline" textLength="162" x="1263.5" y="717.1064">TypingGameDifficulty getDefault()</text><ellipse cx="1254.5" cy="726.5234" fill="#84BE84" rx="3" ry="3" style="stroke:#038048;stroke-width:1.0;"/><text fill="#000000" font-family="sans-serif" font-size="11" lengthAdjust="spacing" textLength="81" x="1263.5" y="730.9424">String getName()</text><ellipse cx="1254.5" cy="740.3594" fill="#84BE84" rx="3" ry="3" style="stroke:#038048;stroke-width:1.0;"/><text fill="#000000" font-family="sans-serif" font-size="11" lengthAdjust="spacing" textLength="63" x="1263.5" y="744.7783">int getLevel()</text><ellipse cx="1254.5" cy="754.1953" fill="#84BE84" rx="3" ry="3" style="stroke:#038048;stroke-width:1.0;"/><text fill="#000000" font-family="sans-serif" font-size="11" lengthAdjust="spacing" textLength="239" x="1263.5" y="758.6143">boolean lessThan(TypingGameDifficulty difficulty)</text><!--MD5=[e329a201e32f6879b6c4a5d5782241cc]
class TypingGameHistory--><rect codeLine="103" fill="#FEFECE" filter="url(#fhlf2rsiy6jp5)" height="103.3438" id="TypingGameHistory" style="stroke:#A80036;stroke-width:1.5;" width="369" x="1958.5" y="42"/><ellipse cx="2084.75" cy="58" fill="#ADD1B2" rx="11" ry="11" style="stroke:#A80036;stroke-width:1.0;"/><path d="M2087.5156,53.875 Q2087.6719,53.6563 2087.8594,53.5469 Q2088.0469,53.4375 2088.2656,53.4375 Q2088.6406,53.4375 2088.875,53.7031 Q2089.1094,53.9531 2089.1094,54.5625 L2089.1094,56.0156 Q2089.1094,56.625 2088.875,56.8906 Q2088.6406,57.1563 2088.2656,57.1563 Q2087.9219,57.1563 2087.7188,56.9531 Q2087.5156,56.7656 2087.4063,56.25 Q2087.3594,55.8906 2087.1719,55.7031 Q2086.8438,55.3281 2086.2344,55.1094 Q2085.625,54.8906 2085,54.8906 Q2084.2344,54.8906 2083.5938,55.2188 Q2082.9688,55.5469 2082.4688,56.2969 Q2081.9844,57.0469 2081.9844,58.0781 L2081.9844,59.1719 Q2081.9844,60.4063 2082.875,61.2344 Q2083.7656,62.0469 2085.3594,62.0469 Q2086.2969,62.0469 2086.9531,61.7969 Q2087.3438,61.6406 2087.7656,61.2031 Q2088.0313,60.9375 2088.1719,60.8594 Q2088.3281,60.7813 2088.5313,60.7813 Q2088.8594,60.7813 2089.1094,61.0469 Q2089.375,61.2969 2089.375,61.6406 Q2089.375,61.9844 2089.0313,62.3906 Q2088.5313,62.9688 2087.7344,63.2969 Q2086.6563,63.75 2085.3594,63.75 Q2083.8438,63.75 2082.6406,63.125 Q2081.6563,62.625 2080.9688,61.5625 Q2080.2813,60.4844 2080.2813,59.2031 L2080.2813,58.0469 Q2080.2813,56.7188 2080.8906,55.5781 Q2081.5156,54.4219 2082.6094,53.8125 Q2083.7031,53.1875 2084.9375,53.1875 Q2085.6719,53.1875 2086.3125,53.3594 Q2086.9688,53.5156 2087.5156,53.875 Z " fill="#000000"/><text fill="#000000" font-family="sans-serif" font-size="12" lengthAdjust="spacing" textLength="108" x="2105.25" y="62.9102">TypingGameHistory</text><line style="stroke:#A80036;stroke-width:1.5;" x1="1959.5" x2="2326.5" y1="74" y2="74"/><rect fill="none" height="6" style="stroke:#C82930;stroke-width:1.0;" width="6" x="1966.5" y="82"/><text fill="#000000" font-family="sans-serif" font-size="11" lengthAdjust="spacing" textLength="155" x="1978.5" y="89.4189">List&lt;TypingGame&gt; typingGames</text><line style="stroke:#A80036;stroke-width:1.5;" x1="1959.5" x2="2326.5" y1="95.8359" y2="95.8359"/><ellipse cx="1969.5" cy="106.8359" fill="#84BE84" rx="3" ry="3" style="stroke:#038048;stroke-width:1.0;"/><text fill="#000000" font-family="sans-serif" font-size="11" lengthAdjust="spacing" textLength="169" x="1978.5" y="111.2549">void add(TypingGame typingGame)</text><ellipse cx="1969.5" cy="120.6719" fill="#84BE84" rx="3" ry="3" style="stroke:#038048;stroke-width:1.0;"/><text fill="#000000" font-family="sans-serif" font-size="11" lengthAdjust="spacing" textLength="343" x="1978.5" y="125.0908">List&lt;TypingGame&gt; sortedTypingGames(TypingGameDifficulty difficulty)</text><rect fill="#F24D5C" height="6" style="stroke:#C82930;stroke-width:1.0;" width="6" x="1966.5" y="131.5078"/><text fill="#000000" font-family="sans-serif" font-size="11" lengthAdjust="spacing" textLength="327" x="1978.5" y="138.9268">List&lt;TypingGame&gt; getTypingGames(TypingGameDifficulty difficulty)</text><!--MD5=[7a83da4f2de9d37a940211961c6e4279]
class TypingGameFactory--><rect codeLine="110" fill="#FEFECE" filter="url(#fhlf2rsiy6jp5)" height="61.8359" id="TypingGameFactory" style="stroke:#A80036;stroke-width:1.5;" width="464" x="1072" y="62.5"/><ellipse cx="1245.25" cy="78.5" fill="#ADD1B2" rx="11" ry="11" style="stroke:#A80036;stroke-width:1.0;"/><path d="M1248.0156,74.375 Q1248.1719,74.1563 1248.3594,74.0469 Q1248.5469,73.9375 1248.7656,73.9375 Q1249.1406,73.9375 1249.375,74.2031 Q1249.6094,74.4531 1249.6094,75.0625 L1249.6094,76.5156 Q1249.6094,77.125 1249.375,77.3906 Q1249.1406,77.6563 1248.7656,77.6563 Q1248.4219,77.6563 1248.2188,77.4531 Q1248.0156,77.2656 1247.9063,76.75 Q1247.8594,76.3906 1247.6719,76.2031 Q1247.3438,75.8281 1246.7344,75.6094 Q1246.125,75.3906 1245.5,75.3906 Q1244.7344,75.3906 1244.0938,75.7188 Q1243.4688,76.0469 1242.9688,76.7969 Q1242.4844,77.5469 1242.4844,78.5781 L1242.4844,79.6719 Q1242.4844,80.9063 1243.375,81.7344 Q1244.2656,82.5469 1245.8594,82.5469 Q1246.7969,82.5469 1247.4531,82.2969 Q1247.8438,82.1406 1248.2656,81.7031 Q1248.5313,81.4375 1248.6719,81.3594 Q1248.8281,81.2813 1249.0313,81.2813 Q1249.3594,81.2813 1249.6094,81.5469 Q1249.875,81.7969 1249.875,82.1406 Q1249.875,82.4844 1249.5313,82.8906 Q1249.0313,83.4688 1248.2344,83.7969 Q1247.1563,84.25 1245.8594,84.25 Q1244.3438,84.25 1243.1406,83.625 Q1242.1563,83.125 1241.4688,82.0625 Q1240.7813,80.9844 1240.7813,79.7031 L1240.7813,78.5469 Q1240.7813,77.2188 1241.3906,76.0781 Q1242.0156,74.9219 1243.1094,74.3125 Q1244.2031,73.6875 1245.4375,73.6875 Q1246.1719,73.6875 1246.8125,73.8594 Q1247.4688,74.0156 1248.0156,74.375 Z " fill="#000000"/><text fill="#000000" font-family="sans-serif" font-size="12" lengthAdjust="spacing" textLength="109" x="1265.75" y="83.4102">TypingGameFactory</text><line style="stroke:#A80036;stroke-width:1.5;" x1="1073" x2="1535" y1="94.5" y2="94.5"/><line style="stroke:#A80036;stroke-width:1.5;" x1="1073" x2="1535" y1="102.5" y2="102.5"/><ellipse cx="1083" cy="113.5" fill="#84BE84" rx="3" ry="3" style="stroke:#038048;stroke-width:1.0;"/><text fill="#000000" font-family="sans-serif" font-size="11" lengthAdjust="spacing" text-decoration="underline" textLength="438" x="1092" y="117.9189">TypingGame generate(TypingGameDifficulty difficulty, TypingGameMode typingGameMode)</text><!--MD5=[fc7123defb831ecdd44b2d9bcef6cceb]
class Question--><rect codeLine="114" fill="#FEFECE" filter="url(#fhlf2rsiy6jp5)" height="103.3438" id="Question" style="stroke:#A80036;stroke-width:1.5;" width="286" x="922" y="602.5"/><ellipse cx="1035.75" cy="618.5" fill="#ADD1B2" rx="11" ry="11" style="stroke:#A80036;stroke-width:1.0;"/><path d="M1038.5156,614.375 Q1038.6719,614.1563 1038.8594,614.0469 Q1039.0469,613.9375 1039.2656,613.9375 Q1039.6406,613.9375 1039.875,614.2031 Q1040.1094,614.4531 1040.1094,615.0625 L1040.1094,616.5156 Q1040.1094,617.125 1039.875,617.3906 Q1039.6406,617.6563 1039.2656,617.6563 Q1038.9219,617.6563 1038.7188,617.4531 Q1038.5156,617.2656 1038.4063,616.75 Q1038.3594,616.3906 1038.1719,616.2031 Q1037.8438,615.8281 1037.2344,615.6094 Q1036.625,615.3906 1036,615.3906 Q1035.2344,615.3906 1034.5938,615.7188 Q1033.9688,616.0469 1033.4688,616.7969 Q1032.9844,617.5469 1032.9844,618.5781 L1032.9844,619.6719 Q1032.9844,620.9063 1033.875,621.7344 Q1034.7656,622.5469 1036.3594,622.5469 Q1037.2969,622.5469 1037.9531,622.2969 Q1038.3438,622.1406 1038.7656,621.7031 Q1039.0313,621.4375 1039.1719,621.3594 Q1039.3281,621.2813 1039.5313,621.2813 Q1039.8594,621.2813 1040.1094,621.5469 Q1040.375,621.7969 1040.375,622.1406 Q1040.375,622.4844 1040.0313,622.8906 Q1039.5313,623.4688 1038.7344,623.7969 Q1037.6563,624.25 1036.3594,624.25 Q1034.8438,624.25 1033.6406,623.625 Q1032.6563,623.125 1031.9688,622.0625 Q1031.2813,620.9844 1031.2813,619.7031 L1031.2813,618.5469 Q1031.2813,617.2188 1031.8906,616.0781 Q1032.5156,614.9219 1033.6094,614.3125 Q1034.7031,613.6875 1035.9375,613.6875 Q1036.6719,613.6875 1037.3125,613.8594 Q1037.9688,614.0156 1038.5156,614.375 Z " fill="#000000"/><text fill="#000000" font-family="sans-serif" font-size="12" lengthAdjust="spacing" textLength="50" x="1056.25" y="623.4102">Question</text><line style="stroke:#A80036;stroke-width:1.5;" x1="923" x2="1207" y1="634.5" y2="634.5"/><rect fill="none" height="6" style="stroke:#C82930;stroke-width:1.0;" width="6" x="930" y="642.5"/><text fill="#000000" font-family="sans-serif" font-size="11" lengthAdjust="spacing" textLength="57" x="942" y="649.9189">String word</text><rect fill="none" height="6" style="stroke:#C82930;stroke-width:1.0;" width="6" x="930" y="656.3359"/><text fill="#000000" font-family="sans-serif" font-size="11" lengthAdjust="spacing" textLength="146" x="942" y="663.7549">TypingGameDifficulty difficulty</text><line style="stroke:#A80036;stroke-width:1.5;" x1="923" x2="1207" y1="670.1719" y2="670.1719"/><ellipse cx="933" cy="681.1719" fill="#84BE84" rx="3" ry="3" style="stroke:#038048;stroke-width:1.0;"/><text fill="#000000" font-family="sans-serif" font-size="11" lengthAdjust="spacing" textLength="260" x="942" y="685.5908">Question(String word, TypingGameDifficulty difficulty)</text><ellipse cx="933" cy="695.0078" fill="#84BE84" rx="3" ry="3" style="stroke:#038048;stroke-width:1.0;"/><text fill="#000000" font-family="sans-serif" font-size="11" lengthAdjust="spacing" textLength="80" x="942" y="699.4268">String getWord()</text><!--MD5=[9c6dfb49ef2184b6b517c171c5d8a863]
class QuestionResult--><rect codeLine="121" fill="#FEFECE" filter="url(#fhlf2rsiy6jp5)" height="144.8516" id="QuestionResult" style="stroke:#A80036;stroke-width:1.5;" width="342" x="1620" y="581.5"/><ellipse cx="1743.75" cy="597.5" fill="#ADD1B2" rx="11" ry="11" style="stroke:#A80036;stroke-width:1.0;"/><path d="M1746.5156,593.375 Q1746.6719,593.1563 1746.8594,593.0469 Q1747.0469,592.9375 1747.2656,592.9375 Q1747.6406,592.9375 1747.875,593.2031 Q1748.1094,593.4531 1748.1094,594.0625 L1748.1094,595.5156 Q1748.1094,596.125 1747.875,596.3906 Q1747.6406,596.6563 1747.2656,596.6563 Q1746.9219,596.6563 1746.7188,596.4531 Q1746.5156,596.2656 1746.4063,595.75 Q1746.3594,595.3906 1746.1719,595.2031 Q1745.8438,594.8281 1745.2344,594.6094 Q1744.625,594.3906 1744,594.3906 Q1743.2344,594.3906 1742.5938,594.7188 Q1741.9688,595.0469 1741.4688,595.7969 Q1740.9844,596.5469 1740.9844,597.5781 L1740.9844,598.6719 Q1740.9844,599.9063 1741.875,600.7344 Q1742.7656,601.5469 1744.3594,601.5469 Q1745.2969,601.5469 1745.9531,601.2969 Q1746.3438,601.1406 1746.7656,600.7031 Q1747.0313,600.4375 1747.1719,600.3594 Q1747.3281,600.2813 1747.5313,600.2813 Q1747.8594,600.2813 1748.1094,600.5469 Q1748.375,600.7969 1748.375,601.1406 Q1748.375,601.4844 1748.0313,601.8906 Q1747.5313,602.4688 1746.7344,602.7969 Q1745.6563,603.25 1744.3594,603.25 Q1742.8438,603.25 1741.6406,602.625 Q1740.6563,602.125 1739.9688,601.0625 Q1739.2813,599.9844 1739.2813,598.7031 L1739.2813,597.5469 Q1739.2813,596.2188 1739.8906,595.0781 Q1740.5156,593.9219 1741.6094,593.3125 Q1742.7031,592.6875 1743.9375,592.6875 Q1744.6719,592.6875 1745.3125,592.8594 Q1745.9688,593.0156 1746.5156,593.375 Z " fill="#000000"/><text fill="#000000" font-family="sans-serif" font-size="12" lengthAdjust="spacing" textLength="86" x="1764.25" y="602.4102">QuestionResult</text><line style="stroke:#A80036;stroke-width:1.5;" x1="1621" x2="1961" y1="613.5" y2="613.5"/><rect fill="none" height="6" style="stroke:#C82930;stroke-width:1.0;" width="6" x="1628" y="621.5"/><text fill="#000000" font-family="sans-serif" font-size="11" lengthAdjust="spacing" textLength="87" x="1640" y="628.9189">Question question</text><rect fill="none" height="6" style="stroke:#C82930;stroke-width:1.0;" width="6" x="1628" y="635.3359"/><text fill="#000000" font-family="sans-serif" font-size="11" lengthAdjust="spacing" textLength="69" x="1640" y="642.7549">String answer</text><rect fill="none" height="6" style="stroke:#C82930;stroke-width:1.0;" width="6" x="1628" y="649.1719"/><text fill="#000000" font-family="sans-serif" font-size="11" lengthAdjust="spacing" textLength="67" x="1640" y="656.5908">boolean judge</text><line style="stroke:#A80036;stroke-width:1.5;" x1="1621" x2="1961" y1="663.0078" y2="663.0078"/><ellipse cx="1631" cy="674.0078" fill="#84BE84" rx="3" ry="3" style="stroke:#038048;stroke-width:1.0;"/><text fill="#000000" font-family="sans-serif" font-size="11" lengthAdjust="spacing" textLength="316" x="1640" y="678.4268">QuestionResult(Question question, String answer, boolean judge)</text><ellipse cx="1631" cy="687.8438" fill="#84BE84" rx="3" ry="3" style="stroke:#038048;stroke-width:1.0;"/><text fill="#000000" font-family="sans-serif" font-size="11" lengthAdjust="spacing" textLength="112" x="1640" y="692.2627">Question getQuestion()</text><ellipse cx="1631" cy="701.6797" fill="#84BE84" rx="3" ry="3" style="stroke:#038048;stroke-width:1.0;"/><text fill="#000000" font-family="sans-serif" font-size="11" lengthAdjust="spacing" textLength="94" x="1640" y="706.0986">String getAnswer()</text><ellipse cx="1631" cy="715.5156" fill="#84BE84" rx="3" ry="3" style="stroke:#038048;stroke-width:1.0;"/><text fill="#000000" font-family="sans-serif" font-size="11" lengthAdjust="spacing" textLength="86" x="1640" y="719.9346">boolean isJudge()</text><!--MD5=[3665cc8380533de798edf75be7f81b43]
class QuestionFactory--><rect codeLine="131" fill="#FEFECE" filter="url(#fhlf2rsiy6jp5)" height="75.6719" id="QuestionFactory" style="stroke:#A80036;stroke-width:1.5;" width="327" x="1140.5" y="306"/><ellipse cx="1255.25" cy="322" fill="#ADD1B2" rx="11" ry="11" style="stroke:#A80036;stroke-width:1.0;"/><path d="M1258.0156,317.875 Q1258.1719,317.6563 1258.3594,317.5469 Q1258.5469,317.4375 1258.7656,317.4375 Q1259.1406,317.4375 1259.375,317.7031 Q1259.6094,317.9531 1259.6094,318.5625 L1259.6094,320.0156 Q1259.6094,320.625 1259.375,320.8906 Q1259.1406,321.1563 1258.7656,321.1563 Q1258.4219,321.1563 1258.2188,320.9531 Q1258.0156,320.7656 1257.9063,320.25 Q1257.8594,319.8906 1257.6719,319.7031 Q1257.3438,319.3281 1256.7344,319.1094 Q1256.125,318.8906 1255.5,318.8906 Q1254.7344,318.8906 1254.0938,319.2188 Q1253.4688,319.5469 1252.9688,320.2969 Q1252.4844,321.0469 1252.4844,322.0781 L1252.4844,323.1719 Q1252.4844,324.4063 1253.375,325.2344 Q1254.2656,326.0469 1255.8594,326.0469 Q1256.7969,326.0469 1257.4531,325.7969 Q1257.8438,325.6406 1258.2656,325.2031 Q1258.5313,324.9375 1258.6719,324.8594 Q1258.8281,324.7813 1259.0313,324.7813 Q1259.3594,324.7813 1259.6094,325.0469 Q1259.875,325.2969 1259.875,325.6406 Q1259.875,325.9844 1259.5313,326.3906 Q1259.0313,326.9688 1258.2344,327.2969 Q1257.1563,327.75 1255.8594,327.75 Q1254.3438,327.75 1253.1406,327.125 Q1252.1563,326.625 1251.4688,325.5625 Q1250.7813,324.4844 1250.7813,323.2031 L1250.7813,322.0469 Q1250.7813,320.7188 1251.3906,319.5781 Q1252.0156,318.4219 1253.1094,317.8125 Q1254.2031,317.1875 1255.4375,317.1875 Q1256.1719,317.1875 1256.8125,317.3594 Q1257.4688,317.5156 1258.0156,317.875 Z " fill="#000000"/><text fill="#000000" font-family="sans-serif" font-size="12" lengthAdjust="spacing" textLength="89" x="1275.75" y="326.9102">QuestionFactory</text><line style="stroke:#A80036;stroke-width:1.5;" x1="1141.5" x2="1466.5" y1="338" y2="338"/><line style="stroke:#A80036;stroke-width:1.5;" x1="1141.5" x2="1466.5" y1="346" y2="346"/><ellipse cx="1151.5" cy="357" fill="#84BE84" rx="3" ry="3" style="stroke:#038048;stroke-width:1.0;"/><text fill="#000000" font-family="sans-serif" font-size="11" lengthAdjust="spacing" textLength="301" x="1160.5" y="361.4189">static List&lt;Question&gt; generate(TypingGameDifficulty difficulty)</text><rect fill="#F24D5C" height="6" style="stroke:#C82930;stroke-width:1.0;" width="6" x="1148.5" y="367.8359"/><text fill="#000000" font-family="sans-serif" font-size="11" lengthAdjust="spacing" textLength="155" x="1160.5" y="375.2549">static List&lt;Question&gt; generate()</text><!--MD5=[a54530424d6d3f8cff061ae2511179cd]
class ConsoleConductor--><rect codeLine="138" fill="#FFA500" filter="url(#fhlf2rsiy6jp5)" height="117.1797" id="ConsoleConductor" style="stroke:#A80036;stroke-width:1.5;" width="469" x="77.5" y="285.5"/><ellipse cx="255.75" cy="301.5" fill="#ADD1B2" rx="11" ry="11" style="stroke:#A80036;stroke-width:1.0;"/><path d="M258.5156,297.375 Q258.6719,297.1563 258.8594,297.0469 Q259.0469,296.9375 259.2656,296.9375 Q259.6406,296.9375 259.875,297.2031 Q260.1094,297.4531 260.1094,298.0625 L260.1094,299.5156 Q260.1094,300.125 259.875,300.3906 Q259.6406,300.6563 259.2656,300.6563 Q258.9219,300.6563 258.7188,300.4531 Q258.5156,300.2656 258.4063,299.75 Q258.3594,299.3906 258.1719,299.2031 Q257.8438,298.8281 257.2344,298.6094 Q256.625,298.3906 256,298.3906 Q255.2344,298.3906 254.5938,298.7188 Q253.9688,299.0469 253.4688,299.7969 Q252.9844,300.5469 252.9844,301.5781 L252.9844,302.6719 Q252.9844,303.9063 253.875,304.7344 Q254.7656,305.5469 256.3594,305.5469 Q257.2969,305.5469 257.9531,305.2969 Q258.3438,305.1406 258.7656,304.7031 Q259.0313,304.4375 259.1719,304.3594 Q259.3281,304.2813 259.5313,304.2813 Q259.8594,304.2813 260.1094,304.5469 Q260.375,304.7969 260.375,305.1406 Q260.375,305.4844 260.0313,305.8906 Q259.5313,306.4688 258.7344,306.7969 Q257.6563,307.25 256.3594,307.25 Q254.8438,307.25 253.6406,306.625 Q252.6563,306.125 251.9688,305.0625 Q251.2813,303.9844 251.2813,302.7031 L251.2813,301.5469 Q251.2813,300.2188 251.8906,299.0781 Q252.5156,297.9219 253.6094,297.3125 Q254.7031,296.6875 255.9375,296.6875 Q256.6719,296.6875 257.3125,296.8594 Q257.9688,297.0156 258.5156,297.375 Z " fill="#000000"/><text fill="#000000" font-family="sans-serif" font-size="12" lengthAdjust="spacing" textLength="104" x="276.25" y="306.4102">ConsoleConductor</text><line style="stroke:#A80036;stroke-width:1.5;" x1="78.5" x2="545.5" y1="317.5" y2="317.5"/><line style="stroke:#A80036;stroke-width:1.5;" x1="78.5" x2="545.5" y1="325.5" y2="325.5"/><ellipse cx="88.5" cy="336.5" fill="#84BE84" rx="3" ry="3" style="stroke:#038048;stroke-width:1.0;"/><text fill="#000000" font-family="sans-serif" font-size="11" lengthAdjust="spacing" textLength="47" x="97.5" y="340.9189">execute()</text><rect fill="#F24D5C" height="6" style="stroke:#C82930;stroke-width:1.0;" width="6" x="85.5" y="347.3359"/><text fill="#000000" font-family="sans-serif" font-size="11" lengthAdjust="spacing" textLength="122" x="97.5" y="354.7549">void displayCountDown()</text><rect fill="#F24D5C" height="6" style="stroke:#C82930;stroke-width:1.0;" width="6" x="85.5" y="361.1719"/><text fill="#000000" font-family="sans-serif" font-size="11" lengthAdjust="spacing" textLength="215" x="97.5" y="368.5908">void displayResult(TypingGame typingGame)</text><rect fill="#F24D5C" height="6" style="stroke:#C82930;stroke-width:1.0;" width="6" x="85.5" y="375.0078"/><text fill="#000000" font-family="sans-serif" font-size="11" lengthAdjust="spacing" textLength="443" x="97.5" y="382.4268">void displayRanking(TypingGameHistory typingGameHistory, TypingGameDifficulty difficulty)</text><rect fill="#F24D5C" height="6" style="stroke:#C82930;stroke-width:1.0;" width="6" x="85.5" y="388.8438"/><text fill="#000000" font-family="sans-serif" font-size="11" lengthAdjust="spacing" textLength="132" x="97.5" y="396.2627">boolean displayInputRetry()</text><!--MD5=[3f0b0446609c9c984be782067bef3fbd]
class DisplayInputMode--><rect codeLine="146" fill="#FFC0CB" filter="url(#fhlf2rsiy6jp5)" height="103.3438" id="DisplayInputMode" style="stroke:#A80036;stroke-width:1.5;" width="308" x="44" y="602.5"/><ellipse cx="144.75" cy="618.5" fill="#ADD1B2" rx="11" ry="11" style="stroke:#A80036;stroke-width:1.0;"/><path d="M147.5156,614.375 Q147.6719,614.1563 147.8594,614.0469 Q148.0469,613.9375 148.2656,613.9375 Q148.6406,613.9375 148.875,614.2031 Q149.1094,614.4531 149.1094,615.0625 L149.1094,616.5156 Q149.1094,617.125 148.875,617.3906 Q148.6406,617.6563 148.2656,617.6563 Q147.9219,617.6563 147.7188,617.4531 Q147.5156,617.2656 147.4063,616.75 Q147.3594,616.3906 147.1719,616.2031 Q146.8438,615.8281 146.2344,615.6094 Q145.625,615.3906 145,615.3906 Q144.2344,615.3906 143.5938,615.7188 Q142.9688,616.0469 142.4688,616.7969 Q141.9844,617.5469 141.9844,618.5781 L141.9844,619.6719 Q141.9844,620.9063 142.875,621.7344 Q143.7656,622.5469 145.3594,622.5469 Q146.2969,622.5469 146.9531,622.2969 Q147.3438,622.1406 147.7656,621.7031 Q148.0313,621.4375 148.1719,621.3594 Q148.3281,621.2813 148.5313,621.2813 Q148.8594,621.2813 149.1094,621.5469 Q149.375,621.7969 149.375,622.1406 Q149.375,622.4844 149.0313,622.8906 Q148.5313,623.4688 147.7344,623.7969 Q146.6563,624.25 145.3594,624.25 Q143.8438,624.25 142.6406,623.625 Q141.6563,623.125 140.9688,622.0625 Q140.2813,620.9844 140.2813,619.7031 L140.2813,618.5469 Q140.2813,617.2188 140.8906,616.0781 Q141.5156,614.9219 142.6094,614.3125 Q143.7031,613.6875 144.9375,613.6875 Q145.6719,613.6875 146.3125,613.8594 Q146.9688,614.0156 147.5156,614.375 Z " fill="#000000"/><text fill="#000000" font-family="sans-serif" font-size="12" lengthAdjust="spacing" textLength="98" x="165.25" y="623.4102">DisplayInputMode</text><line style="stroke:#A80036;stroke-width:1.5;" x1="45" x2="351" y1="634.5" y2="634.5"/><line style="stroke:#A80036;stroke-width:1.5;" x1="45" x2="351" y1="642.5" y2="642.5"/><ellipse cx="55" cy="653.5" fill="#84BE84" rx="3" ry="3" style="stroke:#038048;stroke-width:1.0;"/><text fill="#000000" font-family="sans-serif" font-size="11" lengthAdjust="spacing" textLength="109" x="64" y="657.9189">TypingGame getInput()</text><rect fill="#F24D5C" height="6" style="stroke:#C82930;stroke-width:1.0;" width="6" x="52" y="664.3359"/><text fill="#000000" font-family="sans-serif" font-size="11" lengthAdjust="spacing" text-decoration="underline" textLength="212" x="64" y="671.7549">TypingGameDifficulty displayInputDifficulty()</text><rect fill="#F24D5C" height="6" style="stroke:#C82930;stroke-width:1.0;" width="6" x="52" y="678.1719"/><text fill="#000000" font-family="sans-serif" font-size="11" lengthAdjust="spacing" text-decoration="underline" textLength="180" x="64" y="685.5908">TypingGameMode displayInputMode()</text><rect fill="#F24D5C" height="6" style="stroke:#C82930;stroke-width:1.0;" width="6" x="52" y="692.0078"/><text fill="#000000" font-family="sans-serif" font-size="11" lengthAdjust="spacing" text-decoration="underline" textLength="282" x="64" y="699.4268">NextQuestionGeneratorMode displayInputCalculatorMode()</text><!--MD5=[f2076064ef29070937814e2fca8e8d42]
class NormalTypingGameListener--><rect codeLine="153" fill="#FEFECE" filter="url(#fhlf2rsiy6jp5)" height="48" id="NormalTypingGameListener" style="stroke:#A80036;stroke-width:1.5;" width="188" x="478" y="857"/><ellipse cx="493" cy="873" fill="#ADD1B2" rx="11" ry="11" style="stroke:#A80036;stroke-width:1.0;"/><path d="M495.7656,868.875 Q495.9219,868.6563 496.1094,868.5469 Q496.2969,868.4375 496.5156,868.4375 Q496.8906,868.4375 497.125,868.7031 Q497.3594,868.9531 497.3594,869.5625 L497.3594,871.0156 Q497.3594,871.625 497.125,871.8906 Q496.8906,872.1563 496.5156,872.1563 Q496.1719,872.1563 495.9688,871.9531 Q495.7656,871.7656 495.6563,871.25 Q495.6094,870.8906 495.4219,870.7031 Q495.0938,870.3281 494.4844,870.1094 Q493.875,869.8906 493.25,869.8906 Q492.4844,869.8906 491.8438,870.2188 Q491.2188,870.5469 490.7188,871.2969 Q490.2344,872.0469 490.2344,873.0781 L490.2344,874.1719 Q490.2344,875.4063 491.125,876.2344 Q492.0156,877.0469 493.6094,877.0469 Q494.5469,877.0469 495.2031,876.7969 Q495.5938,876.6406 496.0156,876.2031 Q496.2813,875.9375 496.4219,875.8594 Q496.5781,875.7813 496.7813,875.7813 Q497.1094,875.7813 497.3594,876.0469 Q497.625,876.2969 497.625,876.6406 Q497.625,876.9844 497.2813,877.3906 Q496.7813,877.9688 495.9844,878.2969 Q494.9063,878.75 493.6094,878.75 Q492.0938,878.75 490.8906,878.125 Q489.9063,877.625 489.2188,876.5625 Q488.5313,875.4844 488.5313,874.2031 L488.5313,873.0469 Q488.5313,871.7188 489.1406,870.5781 Q489.7656,869.4219 490.8594,868.8125 Q491.9531,868.1875 493.1875,868.1875 Q493.9219,868.1875 494.5625,868.3594 Q495.2188,868.5156 495.7656,868.875 Z " fill="#000000"/><text fill="#000000" font-family="sans-serif" font-size="12" lengthAdjust="spacing" textLength="156" x="507" y="877.9102">NormalTypingGameListener</text><line style="stroke:#A80036;stroke-width:1.5;" x1="479" x2="665" y1="889" y2="889"/><line style="stroke:#A80036;stroke-width:1.5;" x1="479" x2="665" y1="897" y2="897"/><!--MD5=[d186d861287b343e6ac9df07cc1c8de0]
class HotTypingGameListener--><rect codeLine="155" fill="#FEFECE" filter="url(#fhlf2rsiy6jp5)" height="48" id="HotTypingGameListener" style="stroke:#A80036;stroke-width:1.5;" width="166" x="277" y="857"/><ellipse cx="292" cy="873" fill="#ADD1B2" rx="11" ry="11" style="stroke:#A80036;stroke-width:1.0;"/><path d="M294.7656,868.875 Q294.9219,868.6563 295.1094,868.5469 Q295.2969,868.4375 295.5156,868.4375 Q295.8906,868.4375 296.125,868.7031 Q296.3594,868.9531 296.3594,869.5625 L296.3594,871.0156 Q296.3594,871.625 296.125,871.8906 Q295.8906,872.1563 295.5156,872.1563 Q295.1719,872.1563 294.9688,871.9531 Q294.7656,871.7656 294.6563,871.25 Q294.6094,870.8906 294.4219,870.7031 Q294.0938,870.3281 293.4844,870.1094 Q292.875,869.8906 292.25,869.8906 Q291.4844,869.8906 290.8438,870.2188 Q290.2188,870.5469 289.7188,871.2969 Q289.2344,872.0469 289.2344,873.0781 L289.2344,874.1719 Q289.2344,875.4063 290.125,876.2344 Q291.0156,877.0469 292.6094,877.0469 Q293.5469,877.0469 294.2031,876.7969 Q294.5938,876.6406 295.0156,876.2031 Q295.2813,875.9375 295.4219,875.8594 Q295.5781,875.7813 295.7813,875.7813 Q296.1094,875.7813 296.3594,876.0469 Q296.625,876.2969 296.625,876.6406 Q296.625,876.9844 296.2813,877.3906 Q295.7813,877.9688 294.9844,878.2969 Q293.9063,878.75 292.6094,878.75 Q291.0938,878.75 289.8906,878.125 Q288.9063,877.625 288.2188,876.5625 Q287.5313,875.4844 287.5313,874.2031 L287.5313,873.0469 Q287.5313,871.7188 288.1406,870.5781 Q288.7656,869.4219 289.8594,868.8125 Q290.9531,868.1875 292.1875,868.1875 Q292.9219,868.1875 293.5625,868.3594 Q294.2188,868.5156 294.7656,868.875 Z " fill="#000000"/><text fill="#000000" font-family="sans-serif" font-size="12" lengthAdjust="spacing" textLength="134" x="306" y="877.9102">HotTypingGameListener</text><line style="stroke:#A80036;stroke-width:1.5;" x1="278" x2="442" y1="889" y2="889"/><line style="stroke:#A80036;stroke-width:1.5;" x1="278" x2="442" y1="897" y2="897"/><!--MD5=[727f674aee92f05fe9288fa1d13ae8e7]
class StandardInputReaderWrapper--><rect codeLine="157" fill="#FFC0CB" filter="url(#fhlf2rsiy6jp5)" height="61.8359" id="StandardInputReaderWrapper" style="stroke:#A80036;stroke-width:1.5;" width="197" x="44.5" y="850"/><ellipse cx="59.5" cy="866" fill="#ADD1B2" rx="11" ry="11" style="stroke:#A80036;stroke-width:1.0;"/><path d="M62.2656,861.875 Q62.4219,861.6563 62.6094,861.5469 Q62.7969,861.4375 63.0156,861.4375 Q63.3906,861.4375 63.625,861.7031 Q63.8594,861.9531 63.8594,862.5625 L63.8594,864.0156 Q63.8594,864.625 63.625,864.8906 Q63.3906,865.1563 63.0156,865.1563 Q62.6719,865.1563 62.4688,864.9531 Q62.2656,864.7656 62.1563,864.25 Q62.1094,863.8906 61.9219,863.7031 Q61.5938,863.3281 60.9844,863.1094 Q60.375,862.8906 59.75,862.8906 Q58.9844,862.8906 58.3438,863.2188 Q57.7188,863.5469 57.2188,864.2969 Q56.7344,865.0469 56.7344,866.0781 L56.7344,867.1719 Q56.7344,868.4063 57.625,869.2344 Q58.5156,870.0469 60.1094,870.0469 Q61.0469,870.0469 61.7031,869.7969 Q62.0938,869.6406 62.5156,869.2031 Q62.7813,868.9375 62.9219,868.8594 Q63.0781,868.7813 63.2813,868.7813 Q63.6094,868.7813 63.8594,869.0469 Q64.125,869.2969 64.125,869.6406 Q64.125,869.9844 63.7813,870.3906 Q63.2813,870.9688 62.4844,871.2969 Q61.4063,871.75 60.1094,871.75 Q58.5938,871.75 57.3906,871.125 Q56.4063,870.625 55.7188,869.5625 Q55.0313,868.4844 55.0313,867.2031 L55.0313,866.0469 Q55.0313,864.7188 55.6406,863.5781 Q56.2656,862.4219 57.3594,861.8125 Q58.4531,861.1875 59.6875,861.1875 Q60.4219,861.1875 61.0625,861.3594 Q61.7188,861.5156 62.2656,861.875 Z " fill="#000000"/><text fill="#000000" font-family="sans-serif" font-size="12" lengthAdjust="spacing" textLength="165" x="73.5" y="870.9102">StandardInputReaderWrapper</text><line style="stroke:#A80036;stroke-width:1.5;" x1="45.5" x2="240.5" y1="882" y2="882"/><line style="stroke:#A80036;stroke-width:1.5;" x1="45.5" x2="240.5" y1="890" y2="890"/><ellipse cx="55.5" cy="901" fill="#84BE84" rx="3" ry="3" style="stroke:#038048;stroke-width:1.0;"/><text fill="#000000" font-family="sans-serif" font-size="11" lengthAdjust="spacing" text-decoration="underline" textLength="146" x="64.5" y="905.4189">int getInputInt(int defaultValue)</text><!--MD5=[f4abfe78a2e927cf2e914f071f8f9453]
class StandardInputReader--><rect codeLine="161" fill="#FEFECE" filter="url(#fhlf2rsiy6jp5)" height="48" id="StandardInputReader" style="stroke:#A80036;stroke-width:1.5;" width="150" x="285" y="1011"/><ellipse cx="300" cy="1027" fill="#ADD1B2" rx="11" ry="11" style="stroke:#A80036;stroke-width:1.0;"/><path d="M302.7656,1022.875 Q302.9219,1022.6563 303.1094,1022.5469 Q303.2969,1022.4375 303.5156,1022.4375 Q303.8906,1022.4375 304.125,1022.7031 Q304.3594,1022.9531 304.3594,1023.5625 L304.3594,1025.0156 Q304.3594,1025.625 304.125,1025.8906 Q303.8906,1026.1563 303.5156,1026.1563 Q303.1719,1026.1563 302.9688,1025.9531 Q302.7656,1025.7656 302.6563,1025.25 Q302.6094,1024.8906 302.4219,1024.7031 Q302.0938,1024.3281 301.4844,1024.1094 Q300.875,1023.8906 300.25,1023.8906 Q299.4844,1023.8906 298.8438,1024.2188 Q298.2188,1024.5469 297.7188,1025.2969 Q297.2344,1026.0469 297.2344,1027.0781 L297.2344,1028.1719 Q297.2344,1029.4063 298.125,1030.2344 Q299.0156,1031.0469 300.6094,1031.0469 Q301.5469,1031.0469 302.2031,1030.7969 Q302.5938,1030.6406 303.0156,1030.2031 Q303.2813,1029.9375 303.4219,1029.8594 Q303.5781,1029.7813 303.7813,1029.7813 Q304.1094,1029.7813 304.3594,1030.0469 Q304.625,1030.2969 304.625,1030.6406 Q304.625,1030.9844 304.2813,1031.3906 Q303.7813,1031.9688 302.9844,1032.2969 Q301.9063,1032.75 300.6094,1032.75 Q299.0938,1032.75 297.8906,1032.125 Q296.9063,1031.625 296.2188,1030.5625 Q295.5313,1029.4844 295.5313,1028.2031 L295.5313,1027.0469 Q295.5313,1025.7188 296.1406,1024.5781 Q296.7656,1023.4219 297.8594,1022.8125 Q298.9531,1022.1875 300.1875,1022.1875 Q300.9219,1022.1875 301.5625,1022.3594 Q302.2188,1022.5156 302.7656,1022.875 Z " fill="#000000"/><text fill="#000000" font-family="sans-serif" font-size="12" lengthAdjust="spacing" textLength="118" x="314" y="1031.9102">StandardInputReader</text><line style="stroke:#A80036;stroke-width:1.5;" x1="286" x2="434" y1="1043" y2="1043"/><line style="stroke:#A80036;stroke-width:1.5;" x1="286" x2="434" y1="1051" y2="1051"/><path d="M6,72 L6,114.7031 L248,114.7031 L248,82 L238,72 L6,72 " fill="#FBFB77" filter="url(#fhlf2rsiy6jp5)" style="stroke:#A80036;stroke-width:1.0;"/><path d="M238,72 L238,82 L248,82 L238,72 " fill="#FBFB77" style="stroke:#A80036;stroke-width:1.0;"/><text fill="#000000" font-family="sans-serif" font-size="13" lengthAdjust="spacing" textLength="221" x="12" y="90.4951"></text><text fill="#000000" font-family="sans-serif" font-size="13" lengthAdjust="spacing" textLength="195" x="12" y="106.8467"></text><!--MD5=[84718776d214be480e4c259efcb737fc]
class Main--><rect codeLine="7" fill="#FEFECE" filter="url(#fhlf2rsiy6jp5)" height="61.8359" id="Main" style="stroke:#A80036;stroke-width:1.5;" width="58" x="283" y="62.5"/><ellipse cx="298" cy="78.5" fill="#ADD1B2" rx="11" ry="11" style="stroke:#A80036;stroke-width:1.0;"/><path d="M300.7656,74.375 Q300.9219,74.1563 301.1094,74.0469 Q301.2969,73.9375 301.5156,73.9375 Q301.8906,73.9375 302.125,74.2031 Q302.3594,74.4531 302.3594,75.0625 L302.3594,76.5156 Q302.3594,77.125 302.125,77.3906 Q301.8906,77.6563 301.5156,77.6563 Q301.1719,77.6563 300.9688,77.4531 Q300.7656,77.2656 300.6563,76.75 Q300.6094,76.3906 300.4219,76.2031 Q300.0938,75.8281 299.4844,75.6094 Q298.875,75.3906 298.25,75.3906 Q297.4844,75.3906 296.8438,75.7188 Q296.2188,76.0469 295.7188,76.7969 Q295.2344,77.5469 295.2344,78.5781 L295.2344,79.6719 Q295.2344,80.9063 296.125,81.7344 Q297.0156,82.5469 298.6094,82.5469 Q299.5469,82.5469 300.2031,82.2969 Q300.5938,82.1406 301.0156,81.7031 Q301.2813,81.4375 301.4219,81.3594 Q301.5781,81.2813 301.7813,81.2813 Q302.1094,81.2813 302.3594,81.5469 Q302.625,81.7969 302.625,82.1406 Q302.625,82.4844 302.2813,82.8906 Q301.7813,83.4688 300.9844,83.7969 Q299.9063,84.25 298.6094,84.25 Q297.0938,84.25 295.8906,83.625 Q294.9063,83.125 294.2188,82.0625 Q293.5313,80.9844 293.5313,79.7031 L293.5313,78.5469 Q293.5313,77.2188 294.1406,76.0781 Q294.7656,74.9219 295.8594,74.3125 Q296.9531,73.6875 298.1875,73.6875 Q298.9219,73.6875 299.5625,73.8594 Q300.2188,74.0156 300.7656,74.375 Z " fill="#000000"/><text fill="#000000" font-family="sans-serif" font-size="12" lengthAdjust="spacing" textLength="26" x="312" y="83.4102">Main</text><line style="stroke:#A80036;stroke-width:1.5;" x1="284" x2="340" y1="94.5" y2="94.5"/><line style="stroke:#A80036;stroke-width:1.5;" x1="284" x2="340" y1="102.5" y2="102.5"/><ellipse cx="294" cy="113.5" fill="#84BE84" rx="3" ry="3" style="stroke:#038048;stroke-width:1.0;"/><text fill="#000000" font-family="sans-serif" font-size="11" lengthAdjust="spacing" text-decoration="underline" textLength="30" x="303" y="117.9189">main()</text><!--MD5=[50cdd539db378d681fbafd859f4e013f]
reverse link NextQuestionGenerator to AbstractNextQuestionGenerator--><path d="M2319.95,704.26 C2303.83,745.95 2281.08,804.78 2266.44,842.66 " fill="none" id="NextQuestionGenerator-backto-AbstractNextQuestionGenerator" style="stroke:#A80036;stroke-width:1.0;stroke-dasharray:7.0,7.0;"/><polygon fill="none" points="2313.52,701.47,2327.27,685.34,2326.58,706.52,2313.52,701.47" style="stroke:#A80036;stroke-width:1.0;"/><!--MD5=[adb214176fbabf3f26f2af1bb844fbcb]
reverse link AbstractNextQuestionGenerator to NotMatchPreviousNextQuestionGenerator--><path d="M2139.95,926.58 C2083.75,948.95 2016.47,975.72 1963.14,996.94 " fill="none" id="AbstractNextQuestionGenerator-backto-NotMatchPreviousNextQuestionGenerator" style="stroke:#A80036;stroke-width:1.0;"/><polygon fill="none" points="2137.38,920.07,2158.55,919.18,2142.56,933.08,2137.38,920.07" style="stroke:#A80036;stroke-width:1.0;"/><!--MD5=[aa8713d0bcecf90f775158a914753b4d]
reverse link AbstractNextQuestionGenerator to NotMatchPastNextQuestionGenerator--><path d="M2252,939.22 C2252,958.54 2252,979.59 2252,996.94 " fill="none" id="AbstractNextQuestionGenerator-backto-NotMatchPastNextQuestionGenerator" style="stroke:#A80036;stroke-width:1.0;"/><polygon fill="none" points="2245,939.18,2252,919.18,2259,939.18,2245,939.18" style="stroke:#A80036;stroke-width:1.0;"/><!--MD5=[729a6d74b6fdd7857230e4354fab65a9]
reverse link TypingGameListener to NormalTypingGameListener--><path d="M2042.08,726.17 C2023.47,741.59 2002.25,755.97 1980,765 C1717.18,871.67 985.99,797.63 706,843 C685.75,846.28 664.17,851.46 644.39,856.92 " fill="none" id="TypingGameListener-backto-NormalTypingGameListener" style="stroke:#A80036;stroke-width:1.0;stroke-dasharray:7.0,7.0;"/><polygon fill="none" points="2037.72,720.68,2057.38,712.77,2046.95,731.21,2037.72,720.68" style="stroke:#A80036;stroke-width:1.0;"/><!--MD5=[a32b9b424c795ab7f3eb6a5a41846eb5]
reverse link TypingGameListener to HotTypingGameListener--><path d="M2042.73,725.99 C2024,741.58 2002.55,756.08 1980,765 C1901.43,796.09 543.79,826.11 461,843 C445.26,846.21 428.7,851.44 413.65,856.97 " fill="none" id="TypingGameListener-backto-HotTypingGameListener" style="stroke:#A80036;stroke-width:1.0;stroke-dasharray:7.0,7.0;"/><polygon fill="none" points="2038.16,720.7,2057.8,712.74,2047.4,731.21,2038.16,720.7" style="stroke:#A80036;stroke-width:1.0;"/><!--MD5=[158f96c5a461df354e97c2a2f7b6dacc]
link Main to ConsoleConductor--><path codeLine="164" d="M312,124.97 C312,164.76 312,235.22 312,285.27 " fill="none" id="Main-ConsoleConductor" style="stroke:#A80036;stroke-width:1.0;"/><polygon fill="#000000" points="317,189.1758,319.9389,180.1307,314.0611,180.1307,317,189.1758" style="stroke:#000000;stroke-width:1.0;"/><text fill="#000000" font-family="sans-serif" font-size="13" lengthAdjust="spacing" textLength="21" x="326" y="189.4951">use</text><!--MD5=[c618f0e175eae71a864158c362531517]
link ConsoleConductor to DisplayInputMode--><path codeLine="166" d="M290.69,402.57 C269.42,460.03 237.07,547.45 216.75,602.35 " fill="none" id="ConsoleConductor-DisplayInputMode" style="stroke:#A80036;stroke-width:1.0;"/><polygon fill="#000000" points="258.2645,508.8649,264.1602,501.4023,258.6478,499.3621,258.2645,508.8649" style="stroke:#000000;stroke-width:1.0;"/><text fill="#000000" font-family="sans-serif" font-size="13" lengthAdjust="spacing" textLength="21" x="269" y="509.4951">use</text><!--MD5=[dbc9e5d9b8b9e93589312d2867515cc3]
link ConsoleConductor to StandardInputReaderWrapper--><path codeLine="167" d="M341.98,402.79 C381.87,488.53 439.75,651.48 370,765 C353.09,792.53 281.41,826.13 223.07,849.89 " fill="none" id="ConsoleConductor-StandardInputReaderWrapper" style="stroke:#A80036;stroke-width:1.0;"/><polygon fill="#000000" points="405.7149,659.0078,410.8799,651.022,405.1995,649.5112,405.7149,659.0078" style="stroke:#000000;stroke-width:1.0;"/><text fill="#000000" font-family="sans-serif" font-size="13" lengthAdjust="spacing" textLength="21" x="416" y="659.4951">use</text><!--MD5=[61dd06168fdce1139d7d05a9a92e71cb]
link DisplayInputMode to TypingGameFactory--><path codeLine="169" d="M266.13,602.35 C294.83,582.33 329.15,560.09 362,543 C447.38,498.59 494.57,531.65 564,465 C648.58,383.81 577.88,296.77 669,223 C730.58,173.15 916.68,139.25 1071.6,118.84 " fill="none" id="DisplayInputMode-TypingGameFactory" style="stroke:#A80036;stroke-width:1.0;"/><polygon fill="#000000" points="678.2869,341.6024,669.0192,343.7379,672.0444,348.7775,678.2869,341.6024" style="stroke:#000000;stroke-width:1.0;"/><text fill="#000000" font-family="sans-serif" font-size="13" lengthAdjust="spacing" textLength="21" x="683" y="349.4951">use</text><!--MD5=[53daab855b216a724cc19b6b8d741e4e]
link DisplayInputMode to StandardInputReaderWrapper--><path codeLine="170" d="M185.59,705.77 C174.75,750.1 159.39,812.95 150.38,849.79 " fill="none" id="DisplayInputMode-StandardInputReaderWrapper" style="stroke:#A80036;stroke-width:1.0;"/><polygon fill="#000000" points="165.8126,809.0327,170.8155,800.9444,165.1058,799.5485,165.8126,809.0327" style="stroke:#000000;stroke-width:1.0;"/><text fill="#000000" font-family="sans-serif" font-size="13" lengthAdjust="spacing" textLength="21" x="176" y="809.4951">use</text><!--MD5=[29950e6704daaa6cb4d0465601d39189]
link TypingGameFactory to QuestionFactory--><path codeLine="172" d="M1304,124.97 C1304,170.59 1304,256.54 1304,305.8 " fill="none" id="TypingGameFactory-QuestionFactory" style="stroke:#A80036;stroke-width:1.0;"/><polygon fill="#000000" points="1309,189.1758,1311.9389,180.1307,1306.0611,180.1307,1309,189.1758" style="stroke:#000000;stroke-width:1.0;"/><text fill="#000000" font-family="sans-serif" font-size="13" lengthAdjust="spacing" textLength="21" x="1318" y="189.4951">use</text><!--MD5=[6b3b7f30ae553f3c46479237facef8d4]
link TypingGameFactory to TypingGameMode--><path codeLine="173" d="M1348.15,124.72 C1392.46,155.05 1463.06,203.39 1526.58,246.88 " fill="none" id="TypingGameFactory-TypingGameMode" style="stroke:#A80036;stroke-width:1.0;"/><polygon fill="#000000" points="1451.1257,187.0004,1445.3225,179.4656,1442.002,184.3156,1451.1257,187.0004" style="stroke:#000000;stroke-width:1.0;"/><text fill="#000000" font-family="sans-serif" font-size="13" lengthAdjust="spacing" textLength="21" x="1456" y="189.4951">use</text><!--MD5=[8cf49096655f3bef4002a57e0c234b97]
link TypingGameFactory to NextQuestionGeneratorMode--><path codeLine="174" d="M1256.57,124.72 C1208.96,155.05 1133.11,203.39 1064.86,246.88 " fill="none" id="TypingGameFactory-NextQuestionGeneratorMode" style="stroke:#A80036;stroke-width:1.0;"/><polygon fill="#000000" points="1166.7833,186.8627,1175.9907,184.4805,1172.832,179.5235,1166.7833,186.8627" style="stroke:#000000;stroke-width:1.0;"/><text fill="#000000" font-family="sans-serif" font-size="13" lengthAdjust="spacing" textLength="21" x="1180" y="189.4951">use</text><!--MD5=[34053be3dab4592b4a82eb1e2fe8c8dd]
link TypingGameFactory to TypingGame--><path codeLine="176" d="M1459.92,124.51 C1569.88,147.31 1719.95,181.73 1849,223 C1854.78,224.85 1860.6,226.76 1866.45,228.72 " fill="none" id="TypingGameFactory-TypingGame" style="stroke:#A80036;stroke-width:1.0;"/><polygon fill="#000000" points="1755.8434,185.4173,1747.8114,180.3245,1746.3518,186.0182,1755.8434,185.4173" style="stroke:#000000;stroke-width:1.0;"/><text fill="#000000" font-family="sans-serif" font-size="13" lengthAdjust="spacing" textLength="50" x="1760" y="189.4951">generate</text><!--MD5=[7b87940b4301618cade711b02849d6e8]
link QuestionFactory to Question--><path codeLine="178" d="M1275.17,382.15 C1232.46,437.19 1152.27,540.54 1104.24,602.43 " fill="none" id="QuestionFactory-Question" style="stroke:#A80036;stroke-width:1.0;"/><polygon fill="#000000" points="1185.9348,508.126,1193.8017,502.7817,1189.158,499.1783,1185.9348,508.126" style="stroke:#000000;stroke-width:1.0;"/><text fill="#000000" font-family="sans-serif" font-size="13" lengthAdjust="spacing" textLength="50" x="1198" y="509.4951">generate</text><!--MD5=[2f163435dbb70469cf58f8a42310b871]
link TypingGameHistory to TypingGame--><path codeLine="180" d="M2143,145.09 C2143,166.31 2143,192.01 2143,217.78 " fill="none" id="TypingGameHistory-to-TypingGame" style="stroke:#A80036;stroke-width:1.0;"/><polygon fill="#A80036" points="2143,222.93,2147,213.93,2143,217.93,2139,213.93,2143,222.93" style="stroke:#A80036;stroke-width:1.0;"/><!--MD5=[44da462e0e37ec5b4424557f44052c2f]
link TypingGame to TypingGameDifficulty--><path codeLine="181" d="M1866.25,458.68 C1860.46,460.83 1854.7,462.94 1849,465 C1741.15,504.04 1707.87,496.54 1603,543 C1598.44,545.02 1593.86,547.12 1589.26,549.29 " fill="none" id="TypingGame-to-TypingGameDifficulty" style="stroke:#A80036;stroke-width:1.0;"/><polygon fill="#A80036" points="1584.65,551.48,1594.4958,551.2341,1589.1669,549.3359,1591.0652,544.007,1584.65,551.48" style="stroke:#A80036;stroke-width:1.0;"/><!--MD5=[8e357755c5ee833ed7c109bc7d6b71d2]
link TypingGame to Question--><path codeLine="182" d="M1866.3,460.25 C1860.5,461.91 1854.73,463.5 1849,465 C1579.05,535.67 1486.97,444.18 1226,543 C1191.15,556.2 1156.5,578.38 1128.32,599.39 " fill="none" id="TypingGame-to-Question" style="stroke:#A80036;stroke-width:1.0;"/><polygon fill="#A80036" points="1124.21,602.48,1133.8062,600.2635,1128.2048,599.4731,1128.9952,593.8718,1124.21,602.48" style="stroke:#A80036;stroke-width:1.0;"/><!--MD5=[4e9345365ffcc7cc56576d252551d836]
link TypingGame to QuestionResult--><path codeLine="183" d="M2005.65,465.18 C1962.37,503.05 1915.81,543.79 1877.15,577.62 " fill="none" id="TypingGame-to-QuestionResult" style="stroke:#A80036;stroke-width:1.0;"/><polygon fill="#A80036" points="1872.96,581.29,1882.368,578.3763,1876.7238,577.9985,1877.1016,572.3543,1872.96,581.29" style="stroke:#A80036;stroke-width:1.0;"/><!--MD5=[cbe695f3de70804266794fb73b9824b3]
link TypingGame to TypingGameListener--><path codeLine="184" d="M2130.1,465.4 C2125.53,508.02 2120.58,554.24 2116.73,590.14 " fill="none" id="TypingGame-to-TypingGameListener" style="stroke:#A80036;stroke-width:1.0;"/><polygon fill="#A80036" points="2116.18,595.36,2121.1091,586.8333,2116.7086,590.388,2113.154,585.9875,2116.18,595.36" style="stroke:#A80036;stroke-width:1.0;"/><!--MD5=[f67cf3485ad5f75e9c57bb84cb338c88]
link TypingGame to NextQuestionGenerator--><path codeLine="185" d="M2219.62,465.4 C2254.6,520.37 2293.39,581.33 2316.99,618.41 " fill="none" id="TypingGame-to-NextQuestionGenerator" style="stroke:#A80036;stroke-width:1.0;"/><polygon fill="#A80036" points="2319.79,622.81,2318.3264,613.0705,2317.1028,618.5935,2311.5799,617.3699,2319.79,622.81" style="stroke:#A80036;stroke-width:1.0;"/><!--MD5=[a0eefe7436a21ea046337e0d0db283fe]
link NormalTypingGameListener to StandardInputReader--><path codeLine="187" d="M539.8,905.09 C499.84,933.74 432.09,982.31 392.15,1010.95 " fill="none" id="NormalTypingGameListener-StandardInputReader" style="stroke:#A80036;stroke-width:1.0;"/><polygon fill="#000000" points="472.9365,961.0892,481.9999,958.2073,478.575,953.4303,472.9365,961.0892" style="stroke:#000000;stroke-width:1.0;"/><text fill="#000000" font-family="sans-serif" font-size="13" lengthAdjust="spacing" textLength="21" x="486" y="963.4951">use</text><!--MD5=[27813efbc90f605ecd206e0aed2fb53f]
link HotTypingGameListener to StandardInputReader--><path codeLine="188" d="M360,905.09 C360,933.65 360,982.03 360,1010.7 " fill="none" id="HotTypingGameListener-StandardInputReader" style="stroke:#A80036;stroke-width:1.0;"/><polygon fill="#000000" points="365,963.1758,367.9389,954.1307,362.0611,954.1307,365,963.1758" style="stroke:#000000;stroke-width:1.0;"/><text fill="#000000" font-family="sans-serif" font-size="13" lengthAdjust="spacing" textLength="21" x="374" y="963.4951">use</text><!--MD5=[e9236fc1f9e5eb5fe26aa05db31e82b6]
link StandardInputReaderWrapper to StandardInputReader--><path codeLine="190" d="M185.87,912.03 C227.37,941.1 289.4,984.54 327.13,1010.98 " fill="none" id="StandardInputReaderWrapper-StandardInputReader" style="stroke:#A80036;stroke-width:1.0;"/><polygon fill="#000000" points="267.0952,961.0444,261.373,953.4479,258.0007,958.2621,267.0952,961.0444" style="stroke:#000000;stroke-width:1.0;"/><text fill="#000000" font-family="sans-serif" font-size="13" lengthAdjust="spacing" textLength="21" x="272" y="963.4951">use</text><!--MD5=[589984ca81b4fbeadc80736c7ee7e0ac]
@startuml 10_separate_input_mode

note as note_main
  
  
end note

class Main {
  + {static} main()
}

package business {
  class TypingGame #Orange {
    - TypingGameDifficulty difficulty
    - TypingGameListener listener
    - NextQuestionGenerator generator
    - List<QuestionResult> results
    - ZonedDateTime startTime
    - ZonedDateTime endTime
    + TypingGame(TypingGameDifficulty difficulty, TypingGameListener listener, NextQuestionGenerator generator)
    + void execute()
    + TypingGameDifficulty getDifficulty()
    + List<QuestionResult> getResults()
    + long getTimeToCalculate()
    + boolean isSameDifficulty(TypingGameDifficulty difficulty)
    + int getNumberOfQuestions()
    - String toString()
  }

  interface TypingGameListener {
    void onGameStart(TypingGame typingGame)
    void onGameEnd(TypingGame typingGame)
    String receiveAnswer(Question question)
    void onJudgeOK(TypingGame typingGame)
    void onJudgeNG(TypingGame typingGame)
  }

  interface NextQuestionGenerator {
    Question generate()
  }

  abstract class AbstractNextQuestionGenerator implements NextQuestionGenerator {
    - List<Question> questions
    + AbstractNextQuestionGenerator(List<Question> questions)  
  }

  class NotMatchPreviousNextQuestionGenerator extends AbstractNextQuestionGenerator {
    - Question prevQuestion
    + NotMatchPreviousNextQuestionGenerator(List<Question> questions)
  }

  class NotMatchPastNextQuestionGenerator extends AbstractNextQuestionGenerator {
    - Set<Question> askedQuestions
    + NotMatchPastNextQuestionGenerator(List<Question> questions)
  }

  enum TypingGameMode {
    + NORMAL
    + HOT
    ..
    - String name
    - int mode
    - boolean defaultMode
    __
    + TypingGameMode(String name, int mode, boolean defaultMode)
    + {static} TypingGameMode of(int mode)
    + {static} TypingGameMode getDefault()
    + String getName()
    + int getMode()
  }

  enum NextQuestionGeneratorMode {
    + NOT_MATCH_PREVIOUS
    + NOT_MATCH_PAST
    ..
    - String name
    - int mode
    - boolean defaultLevel
    __
    + NextQuestionGeneratorMode(String name, int mode, boolean defaultMode)
    + {static} NextQuestionGeneratorMode of(int mode)
    + {static} NextQuestionGeneratorMode getDefault()
    + String getName()
    + int getMode()
  }

  enum TypingGameDifficulty {
    + EASY
    + NORMAL
    + HARD
    ..
    - String name
    - int level
    - boolean defaultLevel
    __
    + TypingGameDifficulty(String name, int level, boolean defaultLevel)
    + {static} TypingGameDifficulty of(int level)
    + {static} TypingGameDifficulty getDefault()
    + String getName()
    + int getLevel()
    + boolean lessThan(TypingGameDifficulty difficulty)
  }

  class TypingGameHistory {
    - List<TypingGame> typingGames
    + void add(TypingGame typingGame)
    + List<TypingGame> sortedTypingGames(TypingGameDifficulty difficulty)
    - List<TypingGame> getTypingGames(TypingGameDifficulty difficulty)
  }

  class TypingGameFactory {
    + {static} TypingGame generate(TypingGameDifficulty difficulty, TypingGameMode typingGameMode)
  }

  class Question {
    - String word
    - TypingGameDifficulty difficulty
    + Question(String word, TypingGameDifficulty difficulty)
    + String getWord()
  }

  class QuestionResult {
    - Question question
    - String answer
    - boolean judge
    + QuestionResult(Question question, String answer, boolean judge)
    + Question getQuestion()
    + String getAnswer()
    + boolean isJudge()
  }

  class QuestionFactory {
    + static List<Question> generate(TypingGameDifficulty difficulty)
    - static List<Question> generate()
  }
}

package ui {
  class ConsoleConductor #Orange {
    + execute()
    - void displayCountDown()
    - void displayResult(TypingGame typingGame)
    - void displayRanking(TypingGameHistory typingGameHistory, TypingGameDifficulty difficulty)
    - boolean displayInputRetry()
  }

  class DisplayInputMode #Pink {
    + TypingGame getInput()
    - {static} TypingGameDifficulty displayInputDifficulty()
    - {static} TypingGameMode displayInputMode()
    - {static} NextQuestionGeneratorMode displayInputCalculatorMode()
  }

  class NormalTypingGameListener implements TypingGameListener

  class HotTypingGameListener implements TypingGameListener

  class StandardInputReaderWrapper #Pink {
    + {static} int getInputInt(int defaultValue)
  }

  class StandardInputReader {}
}

Main -d- ConsoleConductor : use >

ConsoleConductor - - DisplayInputMode : use >
ConsoleConductor - - StandardInputReaderWrapper : use >

DisplayInputMode - - TypingGameFactory : use >
DisplayInputMode - - StandardInputReaderWrapper : use >

TypingGameFactory - - QuestionFactory : use >
TypingGameFactory - - TypingGameMode : use >
TypingGameFactory - - NextQuestionGeneratorMode : use >

TypingGameFactory - - TypingGame : generate >

QuestionFactory - - Question : generate >

TypingGameHistory - -> TypingGame
TypingGame - -> TypingGameDifficulty
TypingGame - -> Question
TypingGame - -> QuestionResult
TypingGame - -> TypingGameListener
TypingGame - -> NextQuestionGenerator

NormalTypingGameListener - - StandardInputReader : use >
HotTypingGameListener - - StandardInputReader : use >

StandardInputReaderWrapper - - StandardInputReader : use >

@enduml

PlantUML version 1.2022.0(Wed Jan 12 01:16:42 JST 2022)
(GPL source distribution)
Java Runtime: OpenJDK Runtime Environment
JVM: OpenJDK 64-Bit Server VM
Default Encoding: UTF-8
Language: ja
Country: JP
--></g></svg>