<?xml version="1.0" encoding="UTF-8" standalone="no"?><svg xmlns="http://www.w3.org/2000/svg" xmlns:xlink="http://www.w3.org/1999/xlink" contentScriptType="application/ecmascript" contentStyleType="text/css" height="1242px" preserveAspectRatio="none" style="width:3057px;height:1242px;background:#FFFFFF;" version="1.1" viewBox="0 0 3057 1242" width="3057px" zoomAndPan="magnify"><defs><filter height="300%" id="f1pjrs23gpe7n9" width="300%" x="-1" y="-1"><feGaussianBlur result="blurOut" stdDeviation="2.0"/><feColorMatrix in="blurOut" result="blurOut2" type="matrix" values="0 0 0 0 0 0 0 0 0 0 0 0 0 0 0 0 0 0 .4 0"/><feOffset dx="4.0" dy="4.0" in="blurOut2" result="blurOut3"/><feBlend in="SourceGraphic" in2="blurOut3" mode="normal"/></filter></defs><g><!--MD5=[3e40ca210742478abcfff4771cfda9c4]
cluster business--><polygon fill="#FFFFFF" filter="url(#f1pjrs23gpe7n9)" points="763,6,833,6,840,29.6094,3040,29.6094,3040,1235,763,1235,763,6" style="stroke:#000000;stroke-width:1.5;"/><line style="stroke:#000000;stroke-width:1.5;" x1="763" x2="840" y1="29.6094" y2="29.6094"/><text fill="#000000" font-family="sans-serif" font-size="14" font-weight="bold" lengthAdjust="spacing" textLength="64" x="767" y="22.5332">business</text><!--MD5=[df6ab70b7d7c62bf98982b898f2bf7ae]
cluster typinggame--><polygon fill="#FFFFFF" filter="url(#f1pjrs23gpe7n9)" points="787,50,874,50,881,73.6094,2231,73.6094,2231,1211,787,1211,787,50" style="stroke:#000000;stroke-width:1.5;"/><line style="stroke:#000000;stroke-width:1.5;" x1="787" x2="881" y1="73.6094" y2="73.6094"/><text fill="#000000" font-family="sans-serif" font-size="14" font-weight="bold" lengthAdjust="spacing" textLength="81" x="791" y="66.5332">typinggame</text><!--MD5=[d5b403531d82bf601b661844a5b03c84]
cluster typinggame.factory--><polygon fill="#FFFFFF" filter="url(#f1pjrs23gpe7n9)" points="1360,94,1499,94,1506,117.6094,1856,117.6094,1856,208,1360,208,1360,94" style="stroke:#000000;stroke-width:1.5;"/><line style="stroke:#000000;stroke-width:1.5;" x1="1360" x2="1506" y1="117.6094" y2="117.6094"/><text fill="#000000" font-family="sans-serif" font-size="14" font-weight="bold" lengthAdjust="spacing" textLength="133" x="1364" y="110.5332">typinggame.factory</text><!--MD5=[de51f0079802a5cdbfbaca9b633203b3]
cluster generator--><polygon fill="#FFFFFF" filter="url(#f1pjrs23gpe7n9)" points="1446,654.5,1522,654.5,1529,678.1094,2207,678.1094,2207,1187,1446,1187,1446,654.5" style="stroke:#000000;stroke-width:1.5;"/><line style="stroke:#000000;stroke-width:1.5;" x1="1446" x2="1529" y1="678.1094" y2="678.1094"/><text fill="#000000" font-family="sans-serif" font-size="14" font-weight="bold" lengthAdjust="spacing" textLength="70" x="1450" y="671.0332">generator</text><!--MD5=[7f9b0be64a95c96ade507eda2fd3ca70]
cluster listener--><polygon fill="#FFFFFF" filter="url(#f1pjrs23gpe7n9)" points="1164,627,1224,627,1231,650.6094,1422,650.6094,1422,796,1164,796,1164,627" style="stroke:#000000;stroke-width:1.5;"/><line style="stroke:#000000;stroke-width:1.5;" x1="1164" x2="1231" y1="650.6094" y2="650.6094"/><text fill="#000000" font-family="sans-serif" font-size="14" font-weight="bold" lengthAdjust="spacing" textLength="54" x="1168" y="643.5332">listener</text><!--MD5=[18b88f22d6b19ff711d06ec3b8ae1aa0]
cluster mode--><polygon fill="#FFFFFF" filter="url(#f1pjrs23gpe7n9)" points="1427,278.5,1472,278.5,1479,302.1094,2207,302.1094,2207,524.5,1427,524.5,1427,278.5" style="stroke:#000000;stroke-width:1.5;"/><line style="stroke:#000000;stroke-width:1.5;" x1="1427" x2="1479" y1="302.1094" y2="302.1094"/><text fill="#000000" font-family="sans-serif" font-size="14" font-weight="bold" lengthAdjust="spacing" textLength="39" x="1431" y="295.0332">mode</text><!--MD5=[23730308c4bac410101a1d6821b33e68]
cluster question--><polygon fill="#FFFFFF" filter="url(#f1pjrs23gpe7n9)" points="2255,603.5,2323,603.5,2330,627.1094,3016,627.1094,3016,1031,2255,1031,2255,603.5" style="stroke:#000000;stroke-width:1.5;"/><line style="stroke:#000000;stroke-width:1.5;" x1="2255" x2="2330" y1="627.1094" y2="627.1094"/><text fill="#000000" font-family="sans-serif" font-size="14" font-weight="bold" lengthAdjust="spacing" textLength="62" x="2259" y="620.0332">question</text><!--MD5=[22238981d4678d24a4b690f00fa36180]
cluster factory--><polygon fill="#FFFFFF" filter="url(#f1pjrs23gpe7n9)" points="2632,647.5,2686,647.5,2693,671.1094,2992,671.1094,2992,775.5,2632,775.5,2632,647.5" style="stroke:#000000;stroke-width:1.5;"/><line style="stroke:#000000;stroke-width:1.5;" x1="2632" x2="2693" y1="671.1094" y2="671.1094"/><text fill="#000000" font-family="sans-serif" font-size="14" font-weight="bold" lengthAdjust="spacing" textLength="48" x="2636" y="664.0332">factory</text><!--MD5=[64e2e010ba86d7988e5cd73bd64f61f9]
cluster ui--><polygon fill="#FFFFFF" filter="url(#f1pjrs23gpe7n9)" points="16,317,35,317,42,340.6094,739,340.6094,739,1197,16,1197,16,317" style="stroke:#000000;stroke-width:1.5;"/><line style="stroke:#000000;stroke-width:1.5;" x1="16" x2="42" y1="340.6094" y2="340.6094"/><text fill="#000000" font-family="sans-serif" font-size="14" font-weight="bold" lengthAdjust="spacing" textLength="13" x="20" y="333.5332">ui</text><!--MD5=[26379543227fa2df5e32996c88f29c09]
cluster ui.listener--><polygon fill="#FFFFFF" filter="url(#f1pjrs23gpe7n9)" points="294,903.5,371,903.5,378,927.1094,715,927.1094,715,1003.5,294,1003.5,294,903.5" style="stroke:#000000;stroke-width:1.5;"/><line style="stroke:#000000;stroke-width:1.5;" x1="294" x2="378" y1="927.1094" y2="927.1094"/><text fill="#000000" font-family="sans-serif" font-size="14" font-weight="bold" lengthAdjust="spacing" textLength="71" x="298" y="920.0332">ui.listener</text><!--MD5=[3e81cc6ee7da4fa8b6adc12b329096f6]
cluster util--><polygon fill="#FFFFFF" filter="url(#f1pjrs23gpe7n9)" points="40,896.5,68,896.5,75,920.1094,270,920.1094,270,1173,40,1173,40,896.5" style="stroke:#000000;stroke-width:1.5;"/><line style="stroke:#000000;stroke-width:1.5;" x1="40" x2="75" y1="920.1094" y2="920.1094"/><text fill="#000000" font-family="sans-serif" font-size="14" font-weight="bold" lengthAdjust="spacing" textLength="22" x="44" y="913.0332">util</text><!--MD5=[738c7c2ff5aeb58de2a1e5f3ac886fb6]
class TypingGame--><rect codeLine="8" fill="#FEFECE" filter="url(#f1pjrs23gpe7n9)" height="241.7031" id="TypingGame" style="stroke:#A80036;stroke-width:1.5;" width="553" x="855.5" y="290.5"/><ellipse cx="1092.75" cy="306.5" fill="#ADD1B2" rx="11" ry="11" style="stroke:#A80036;stroke-width:1.0;"/><path d="M1095.5156,302.375 Q1095.6719,302.1563 1095.8594,302.0469 Q1096.0469,301.9375 1096.2656,301.9375 Q1096.6406,301.9375 1096.875,302.2031 Q1097.1094,302.4531 1097.1094,303.0625 L1097.1094,304.5156 Q1097.1094,305.125 1096.875,305.3906 Q1096.6406,305.6563 1096.2656,305.6563 Q1095.9219,305.6563 1095.7188,305.4531 Q1095.5156,305.2656 1095.4063,304.75 Q1095.3594,304.3906 1095.1719,304.2031 Q1094.8438,303.8281 1094.2344,303.6094 Q1093.625,303.3906 1093,303.3906 Q1092.2344,303.3906 1091.5938,303.7188 Q1090.9688,304.0469 1090.4688,304.7969 Q1089.9844,305.5469 1089.9844,306.5781 L1089.9844,307.6719 Q1089.9844,308.9063 1090.875,309.7344 Q1091.7656,310.5469 1093.3594,310.5469 Q1094.2969,310.5469 1094.9531,310.2969 Q1095.3438,310.1406 1095.7656,309.7031 Q1096.0313,309.4375 1096.1719,309.3594 Q1096.3281,309.2813 1096.5313,309.2813 Q1096.8594,309.2813 1097.1094,309.5469 Q1097.375,309.7969 1097.375,310.1406 Q1097.375,310.4844 1097.0313,310.8906 Q1096.5313,311.4688 1095.7344,311.7969 Q1094.6563,312.25 1093.3594,312.25 Q1091.8438,312.25 1090.6406,311.625 Q1089.6563,311.125 1088.9688,310.0625 Q1088.2813,308.9844 1088.2813,307.7031 L1088.2813,306.5469 Q1088.2813,305.2188 1088.8906,304.0781 Q1089.5156,302.9219 1090.6094,302.3125 Q1091.7031,301.6875 1092.9375,301.6875 Q1093.6719,301.6875 1094.3125,301.8594 Q1094.9688,302.0156 1095.5156,302.375 Z " fill="#000000"/><text fill="#000000" font-family="sans-serif" font-size="12" lengthAdjust="spacing" textLength="70" x="1113.25" y="311.4102">TypingGame</text><line style="stroke:#A80036;stroke-width:1.5;" x1="856.5" x2="1407.5" y1="322.5" y2="322.5"/><rect fill="none" height="6" style="stroke:#C82930;stroke-width:1.0;" width="6" x="863.5" y="330.5"/><text fill="#000000" font-family="sans-serif" font-size="11" lengthAdjust="spacing" textLength="146" x="875.5" y="337.9189">TypingGameDifficulty difficulty</text><rect fill="none" height="6" style="stroke:#C82930;stroke-width:1.0;" width="6" x="863.5" y="344.3359"/><text fill="#000000" font-family="sans-serif" font-size="11" lengthAdjust="spacing" textLength="137" x="875.5" y="351.7549">TypingGameListener listener</text><rect fill="none" height="6" style="stroke:#C82930;stroke-width:1.0;" width="6" x="863.5" y="358.1719"/><text fill="#000000" font-family="sans-serif" font-size="11" lengthAdjust="spacing" textLength="164" x="875.5" y="365.5908">NextQuestionGenerator generator</text><rect fill="none" height="6" style="stroke:#C82930;stroke-width:1.0;" width="6" x="863.5" y="372.0078"/><text fill="#000000" font-family="sans-serif" font-size="11" lengthAdjust="spacing" textLength="138" x="875.5" y="379.4268">List&lt;QuestionResult&gt; results</text><rect fill="none" height="6" style="stroke:#C82930;stroke-width:1.0;" width="6" x="863.5" y="385.8438"/><text fill="#000000" font-family="sans-serif" font-size="11" lengthAdjust="spacing" textLength="122" x="875.5" y="393.2627">ZonedDateTime startTime</text><rect fill="none" height="6" style="stroke:#C82930;stroke-width:1.0;" width="6" x="863.5" y="399.6797"/><text fill="#000000" font-family="sans-serif" font-size="11" lengthAdjust="spacing" textLength="118" x="875.5" y="407.0986">ZonedDateTime endTime</text><line style="stroke:#A80036;stroke-width:1.5;" x1="856.5" x2="1407.5" y1="413.5156" y2="413.5156"/><ellipse cx="866.5" cy="424.5156" fill="#84BE84" rx="3" ry="3" style="stroke:#038048;stroke-width:1.0;"/><text fill="#000000" font-family="sans-serif" font-size="11" lengthAdjust="spacing" textLength="527" x="875.5" y="428.9346">TypingGame(TypingGameDifficulty difficulty, TypingGameListener listener, NextQuestionGenerator generator)</text><ellipse cx="866.5" cy="438.3516" fill="#84BE84" rx="3" ry="3" style="stroke:#038048;stroke-width:1.0;"/><text fill="#000000" font-family="sans-serif" font-size="11" lengthAdjust="spacing" textLength="70" x="875.5" y="442.7705">void execute()</text><ellipse cx="866.5" cy="452.1875" fill="#84BE84" rx="3" ry="3" style="stroke:#038048;stroke-width:1.0;"/><text fill="#000000" font-family="sans-serif" font-size="11" lengthAdjust="spacing" textLength="170" x="875.5" y="456.6064">TypingGameDifficulty getDifficulty()</text><ellipse cx="866.5" cy="466.0234" fill="#84BE84" rx="3" ry="3" style="stroke:#038048;stroke-width:1.0;"/><text fill="#000000" font-family="sans-serif" font-size="11" lengthAdjust="spacing" textLength="164" x="875.5" y="470.4424">List&lt;QuestionResult&gt; getResults()</text><ellipse cx="866.5" cy="479.8594" fill="#84BE84" rx="3" ry="3" style="stroke:#038048;stroke-width:1.0;"/><text fill="#000000" font-family="sans-serif" font-size="11" lengthAdjust="spacing" textLength="124" x="875.5" y="484.2783">long getTimeToCalculate()</text><ellipse cx="866.5" cy="493.6953" fill="#84BE84" rx="3" ry="3" style="stroke:#038048;stroke-width:1.0;"/><text fill="#000000" font-family="sans-serif" font-size="11" lengthAdjust="spacing" textLength="272" x="875.5" y="498.1143">boolean isSameDifficulty(TypingGameDifficulty difficulty)</text><ellipse cx="866.5" cy="507.5313" fill="#84BE84" rx="3" ry="3" style="stroke:#038048;stroke-width:1.0;"/><text fill="#000000" font-family="sans-serif" font-size="11" lengthAdjust="spacing" textLength="135" x="875.5" y="511.9502">int getNumberOfQuestions()</text><rect fill="#F24D5C" height="6" style="stroke:#C82930;stroke-width:1.0;" width="6" x="863.5" y="518.3672"/><text fill="#000000" font-family="sans-serif" font-size="11" lengthAdjust="spacing" textLength="76" x="875.5" y="525.7861">String toString()</text><!--MD5=[2467ab778d54314a3fb6b7e9a32a0937]
class TypingGameDifficulty--><rect codeLine="25" fill="#FEFECE" filter="url(#f1pjrs23gpe7n9)" height="222.0313" id="TypingGameDifficulty" style="stroke:#A80036;stroke-width:1.5;" width="341" x="803.5" y="610.5"/><ellipse cx="912.25" cy="626.5" fill="#EB937F" rx="11" ry="11" style="stroke:#A80036;stroke-width:1.0;"/><path d="M911.1094,627.2969 L911.1094,629.7969 L915.4375,629.7969 L915.4375,628.875 Q915.4375,628.2656 915.6719,628 Q915.9219,627.7344 916.2969,627.7344 Q916.6719,627.7344 916.9063,628 Q917.1406,628.2656 917.1406,628.875 L917.1406,631.5 L909.1406,631.5 Q908.5156,631.5 908.25,631.2656 Q908,631.0313 908,630.6406 Q908,630.2656 908.2656,630.0313 Q908.5313,629.7969 909.1406,629.7969 L909.4063,629.7969 L909.4063,623.1406 L909.1406,623.1406 Q908.5156,623.1406 908.25,622.9063 Q908,622.6719 908,622.2813 Q908,621.9063 908.25,621.6719 Q908.5156,621.4375 909.1406,621.4375 L916.7656,621.4375 L916.7656,624.0313 Q916.7656,624.6406 916.5313,624.9063 Q916.3125,625.1563 915.9219,625.1563 Q915.5469,625.1563 915.3125,624.9063 Q915.0781,624.6406 915.0781,624.0313 L915.0781,623.1406 L911.1094,623.1406 L911.1094,625.5938 L912.5938,625.5938 Q912.5938,624.9375 912.7188,624.75 Q912.9844,624.3438 913.4531,624.3438 Q913.8281,624.3438 914.0625,624.6094 Q914.2969,624.8594 914.2969,625.4688 L914.2969,627.4375 Q914.2969,627.9844 914.1719,628.1719 Q913.9063,628.5625 913.4531,628.5625 Q912.9844,628.5625 912.7188,628.1563 Q912.5938,627.9688 912.5938,627.2969 L911.1094,627.2969 Z " fill="#000000"/><text fill="#000000" font-family="sans-serif" font-size="12" lengthAdjust="spacing" textLength="115" x="932.75" y="631.4102">TypingGameDifficulty</text><line style="stroke:#A80036;stroke-width:1.5;" x1="804.5" x2="1143.5" y1="642.5" y2="642.5"/><ellipse cx="814.5" cy="653.5" rx="3" ry="3" style="stroke:#038048;stroke-width:1.0;fill:none;"/><text fill="#000000" font-family="sans-serif" font-size="11" lengthAdjust="spacing" textLength="29" x="823.5" y="657.9189">EASY</text><ellipse cx="814.5" cy="667.3359" rx="3" ry="3" style="stroke:#038048;stroke-width:1.0;fill:none;"/><text fill="#000000" font-family="sans-serif" font-size="11" lengthAdjust="spacing" textLength="44" x="823.5" y="671.7549">NORMAL</text><ellipse cx="814.5" cy="681.1719" rx="3" ry="3" style="stroke:#038048;stroke-width:1.0;fill:none;"/><text fill="#000000" font-family="sans-serif" font-size="11" lengthAdjust="spacing" textLength="29" x="823.5" y="685.5908">HARD</text><line style="stroke:#A80036;stroke-width:1.0;stroke-dasharray:1.0,2.0;" x1="804.5" x2="1143.5" y1="692.0078" y2="692.0078"/><rect fill="none" height="6" style="stroke:#C82930;stroke-width:1.0;" width="6" x="811.5" y="700.0078"/><text fill="#000000" font-family="sans-serif" font-size="11" lengthAdjust="spacing" textLength="57" x="823.5" y="707.4268">String name</text><rect fill="none" height="6" style="stroke:#C82930;stroke-width:1.0;" width="6" x="811.5" y="713.8438"/><text fill="#000000" font-family="sans-serif" font-size="11" lengthAdjust="spacing" textLength="36" x="823.5" y="721.2627">int level</text><rect fill="none" height="6" style="stroke:#C82930;stroke-width:1.0;" width="6" x="811.5" y="727.6797"/><text fill="#000000" font-family="sans-serif" font-size="11" lengthAdjust="spacing" textLength="100" x="823.5" y="735.0986">boolean defaultLevel</text><line style="stroke:#A80036;stroke-width:1.5;" x1="804.5" x2="1143.5" y1="741.5156" y2="741.5156"/><ellipse cx="814.5" cy="752.5156" fill="#84BE84" rx="3" ry="3" style="stroke:#038048;stroke-width:1.0;"/><text fill="#000000" font-family="sans-serif" font-size="11" lengthAdjust="spacing" textLength="315" x="823.5" y="756.9346">TypingGameDifficulty(String name, int level, boolean defaultLevel)</text><ellipse cx="814.5" cy="766.3516" fill="#84BE84" rx="3" ry="3" style="stroke:#038048;stroke-width:1.0;"/><text fill="#000000" font-family="sans-serif" font-size="11" lengthAdjust="spacing" text-decoration="underline" textLength="159" x="823.5" y="770.7705">TypingGameDifficulty of(int level)</text><ellipse cx="814.5" cy="780.1875" fill="#84BE84" rx="3" ry="3" style="stroke:#038048;stroke-width:1.0;"/><text fill="#000000" font-family="sans-serif" font-size="11" lengthAdjust="spacing" text-decoration="underline" textLength="162" x="823.5" y="784.6064">TypingGameDifficulty getDefault()</text><ellipse cx="814.5" cy="794.0234" fill="#84BE84" rx="3" ry="3" style="stroke:#038048;stroke-width:1.0;"/><text fill="#000000" font-family="sans-serif" font-size="11" lengthAdjust="spacing" textLength="81" x="823.5" y="798.4424">String getName()</text><ellipse cx="814.5" cy="807.8594" fill="#84BE84" rx="3" ry="3" style="stroke:#038048;stroke-width:1.0;"/><text fill="#000000" font-family="sans-serif" font-size="11" lengthAdjust="spacing" textLength="63" x="823.5" y="812.2783">int getLevel()</text><ellipse cx="814.5" cy="821.6953" fill="#84BE84" rx="3" ry="3" style="stroke:#038048;stroke-width:1.0;"/><text fill="#000000" font-family="sans-serif" font-size="11" lengthAdjust="spacing" textLength="239" x="823.5" y="826.1143">boolean lessThan(TypingGameDifficulty difficulty)</text><!--MD5=[e329a201e32f6879b6c4a5d5782241cc]
class TypingGameHistory--><rect codeLine="42" fill="#FEFECE" filter="url(#f1pjrs23gpe7n9)" height="103.3438" id="TypingGameHistory" style="stroke:#A80036;stroke-width:1.5;" width="369" x="947.5" y="109.5"/><ellipse cx="1073.75" cy="125.5" fill="#ADD1B2" rx="11" ry="11" style="stroke:#A80036;stroke-width:1.0;"/><path d="M1076.5156,121.375 Q1076.6719,121.1563 1076.8594,121.0469 Q1077.0469,120.9375 1077.2656,120.9375 Q1077.6406,120.9375 1077.875,121.2031 Q1078.1094,121.4531 1078.1094,122.0625 L1078.1094,123.5156 Q1078.1094,124.125 1077.875,124.3906 Q1077.6406,124.6563 1077.2656,124.6563 Q1076.9219,124.6563 1076.7188,124.4531 Q1076.5156,124.2656 1076.4063,123.75 Q1076.3594,123.3906 1076.1719,123.2031 Q1075.8438,122.8281 1075.2344,122.6094 Q1074.625,122.3906 1074,122.3906 Q1073.2344,122.3906 1072.5938,122.7188 Q1071.9688,123.0469 1071.4688,123.7969 Q1070.9844,124.5469 1070.9844,125.5781 L1070.9844,126.6719 Q1070.9844,127.9063 1071.875,128.7344 Q1072.7656,129.5469 1074.3594,129.5469 Q1075.2969,129.5469 1075.9531,129.2969 Q1076.3438,129.1406 1076.7656,128.7031 Q1077.0313,128.4375 1077.1719,128.3594 Q1077.3281,128.2813 1077.5313,128.2813 Q1077.8594,128.2813 1078.1094,128.5469 Q1078.375,128.7969 1078.375,129.1406 Q1078.375,129.4844 1078.0313,129.8906 Q1077.5313,130.4688 1076.7344,130.7969 Q1075.6563,131.25 1074.3594,131.25 Q1072.8438,131.25 1071.6406,130.625 Q1070.6563,130.125 1069.9688,129.0625 Q1069.2813,127.9844 1069.2813,126.7031 L1069.2813,125.5469 Q1069.2813,124.2188 1069.8906,123.0781 Q1070.5156,121.9219 1071.6094,121.3125 Q1072.7031,120.6875 1073.9375,120.6875 Q1074.6719,120.6875 1075.3125,120.8594 Q1075.9688,121.0156 1076.5156,121.375 Z " fill="#000000"/><text fill="#000000" font-family="sans-serif" font-size="12" lengthAdjust="spacing" textLength="108" x="1094.25" y="130.4102">TypingGameHistory</text><line style="stroke:#A80036;stroke-width:1.5;" x1="948.5" x2="1315.5" y1="141.5" y2="141.5"/><rect fill="none" height="6" style="stroke:#C82930;stroke-width:1.0;" width="6" x="955.5" y="149.5"/><text fill="#000000" font-family="sans-serif" font-size="11" lengthAdjust="spacing" textLength="155" x="967.5" y="156.9189">List&lt;TypingGame&gt; typingGames</text><line style="stroke:#A80036;stroke-width:1.5;" x1="948.5" x2="1315.5" y1="163.3359" y2="163.3359"/><ellipse cx="958.5" cy="174.3359" fill="#84BE84" rx="3" ry="3" style="stroke:#038048;stroke-width:1.0;"/><text fill="#000000" font-family="sans-serif" font-size="11" lengthAdjust="spacing" textLength="169" x="967.5" y="178.7549">void add(TypingGame typingGame)</text><ellipse cx="958.5" cy="188.1719" fill="#84BE84" rx="3" ry="3" style="stroke:#038048;stroke-width:1.0;"/><text fill="#000000" font-family="sans-serif" font-size="11" lengthAdjust="spacing" textLength="343" x="967.5" y="192.5908">List&lt;TypingGame&gt; sortedTypingGames(TypingGameDifficulty difficulty)</text><rect fill="#F24D5C" height="6" style="stroke:#C82930;stroke-width:1.0;" width="6" x="955.5" y="199.0078"/><text fill="#000000" font-family="sans-serif" font-size="11" lengthAdjust="spacing" textLength="327" x="967.5" y="206.4268">List&lt;TypingGame&gt; getTypingGames(TypingGameDifficulty difficulty)</text><!--MD5=[7a83da4f2de9d37a940211961c6e4279]
class TypingGameFactory--><rect codeLine="50" fill="#FEFECE" filter="url(#f1pjrs23gpe7n9)" height="61.8359" id="TypingGameFactory" style="stroke:#A80036;stroke-width:1.5;" width="464" x="1376" y="130"/><ellipse cx="1549.25" cy="146" fill="#ADD1B2" rx="11" ry="11" style="stroke:#A80036;stroke-width:1.0;"/><path d="M1552.0156,141.875 Q1552.1719,141.6563 1552.3594,141.5469 Q1552.5469,141.4375 1552.7656,141.4375 Q1553.1406,141.4375 1553.375,141.7031 Q1553.6094,141.9531 1553.6094,142.5625 L1553.6094,144.0156 Q1553.6094,144.625 1553.375,144.8906 Q1553.1406,145.1563 1552.7656,145.1563 Q1552.4219,145.1563 1552.2188,144.9531 Q1552.0156,144.7656 1551.9063,144.25 Q1551.8594,143.8906 1551.6719,143.7031 Q1551.3438,143.3281 1550.7344,143.1094 Q1550.125,142.8906 1549.5,142.8906 Q1548.7344,142.8906 1548.0938,143.2188 Q1547.4688,143.5469 1546.9688,144.2969 Q1546.4844,145.0469 1546.4844,146.0781 L1546.4844,147.1719 Q1546.4844,148.4063 1547.375,149.2344 Q1548.2656,150.0469 1549.8594,150.0469 Q1550.7969,150.0469 1551.4531,149.7969 Q1551.8438,149.6406 1552.2656,149.2031 Q1552.5313,148.9375 1552.6719,148.8594 Q1552.8281,148.7813 1553.0313,148.7813 Q1553.3594,148.7813 1553.6094,149.0469 Q1553.875,149.2969 1553.875,149.6406 Q1553.875,149.9844 1553.5313,150.3906 Q1553.0313,150.9688 1552.2344,151.2969 Q1551.1563,151.75 1549.8594,151.75 Q1548.3438,151.75 1547.1406,151.125 Q1546.1563,150.625 1545.4688,149.5625 Q1544.7813,148.4844 1544.7813,147.2031 L1544.7813,146.0469 Q1544.7813,144.7188 1545.3906,143.5781 Q1546.0156,142.4219 1547.1094,141.8125 Q1548.2031,141.1875 1549.4375,141.1875 Q1550.1719,141.1875 1550.8125,141.3594 Q1551.4688,141.5156 1552.0156,141.875 Z " fill="#000000"/><text fill="#000000" font-family="sans-serif" font-size="12" lengthAdjust="spacing" textLength="109" x="1569.75" y="150.9102">TypingGameFactory</text><line style="stroke:#A80036;stroke-width:1.5;" x1="1377" x2="1839" y1="162" y2="162"/><line style="stroke:#A80036;stroke-width:1.5;" x1="1377" x2="1839" y1="170" y2="170"/><ellipse cx="1387" cy="181" fill="#84BE84" rx="3" ry="3" style="stroke:#038048;stroke-width:1.0;"/><text fill="#000000" font-family="sans-serif" font-size="11" lengthAdjust="spacing" text-decoration="underline" textLength="438" x="1396" y="185.4189">TypingGame generate(TypingGameDifficulty difficulty, TypingGameMode typingGameMode)</text><!--MD5=[8ebf1df77a58ffbe767c3d2afcefdd5e]
class NextQuestionGenerator--><rect codeLine="56" fill="#FEFECE" filter="url(#f1pjrs23gpe7n9)" height="61.8359" id="NextQuestionGenerator" style="stroke:#A80036;stroke-width:1.5;" width="161" x="1505.5" y="690.5"/><ellipse cx="1520.5" cy="706.5" fill="#B4A7E5" rx="11" ry="11" style="stroke:#A80036;stroke-width:1.0;"/><path d="M1521.4531,703.1406 L1521.4531,709.7969 L1523.1719,709.7969 Q1523.7813,709.7969 1524.0469,710.0313 Q1524.3125,710.2656 1524.3125,710.6563 Q1524.3125,711.0313 1524.0469,711.2656 Q1523.7813,711.5 1523.1719,711.5 L1518.0313,711.5 Q1517.4219,711.5 1517.1563,711.2656 Q1516.8906,711.0313 1516.8906,710.6406 Q1516.8906,710.2656 1517.1563,710.0313 Q1517.4219,709.7969 1518.0313,709.7969 L1519.75,709.7969 L1519.75,703.1406 L1518.0313,703.1406 Q1517.4219,703.1406 1517.1563,702.9063 Q1516.8906,702.6719 1516.8906,702.2813 Q1516.8906,701.9063 1517.1563,701.6719 Q1517.4219,701.4375 1518.0313,701.4375 L1523.1719,701.4375 Q1523.7813,701.4375 1524.0469,701.6719 Q1524.3125,701.9063 1524.3125,702.2813 Q1524.3125,702.6719 1524.0469,702.9063 Q1523.7813,703.1406 1523.1719,703.1406 L1521.4531,703.1406 Z " fill="#000000"/><text fill="#000000" font-family="sans-serif" font-size="12" font-style="italic" lengthAdjust="spacing" textLength="129" x="1534.5" y="711.4102">NextQuestionGenerator</text><line style="stroke:#A80036;stroke-width:1.5;" x1="1506.5" x2="1665.5" y1="722.5" y2="722.5"/><line style="stroke:#A80036;stroke-width:1.5;" x1="1506.5" x2="1665.5" y1="730.5" y2="730.5"/><text fill="#000000" font-family="sans-serif" font-size="11" lengthAdjust="spacing" textLength="97" x="1511.5" y="745.9189">Question generate()</text><!--MD5=[d5bf7fe7dc694505994dd41c6fa071e3]
class AbstractNextQuestionGenerator--><rect codeLine="60" fill="#FEFECE" filter="url(#f1pjrs23gpe7n9)" height="75.6719" id="AbstractNextQuestionGenerator" style="stroke:#A80036;stroke-width:1.5;" width="312" x="1474" y="925.5"/><ellipse cx="1538.75" cy="941.5" fill="#A9DCDF" rx="11" ry="11" style="stroke:#A80036;stroke-width:1.0;"/><path d="M1540.9375,943.2656 L1536.7969,943.2656 L1536.375,944.2969 L1536.7969,944.2969 Q1537.4063,944.2969 1537.6719,944.5313 Q1537.9375,944.7656 1537.9375,945.1563 Q1537.9375,945.5313 1537.6719,945.7656 Q1537.4063,946 1536.7969,946 L1534.5,946 Q1533.8906,946 1533.6406,945.7656 Q1533.375,945.5313 1533.375,945.1406 Q1533.375,944.7656 1533.6563,944.5313 Q1533.9219,944.2813 1534.5469,944.2969 L1537.2188,937.6406 L1536.1094,937.6406 Q1535.5,937.6406 1535.2344,937.4063 Q1534.9688,937.1719 1534.9688,936.7813 Q1534.9688,936.4063 1535.2344,936.1719 Q1535.5,935.9375 1536.1094,935.9375 L1539.7813,935.9375 L1543.1719,944.2969 Q1543.7656,944.2969 1543.9531,944.4375 Q1544.3438,944.7031 1544.3438,945.1563 Q1544.3438,945.5313 1544.0781,945.7656 Q1543.8281,946 1543.2188,946 L1540.9219,946 Q1540.3125,946 1540.0469,945.7656 Q1539.7813,945.5313 1539.7813,945.1406 Q1539.7813,944.7656 1540.0469,944.5313 Q1540.3125,944.2969 1540.9219,944.2969 L1541.3438,944.2969 L1540.9375,943.2656 Z M1540.2188,941.5625 L1538.8594,938.1875 L1537.4844,941.5625 L1540.2188,941.5625 Z " fill="#000000"/><text fill="#000000" font-family="sans-serif" font-size="12" font-style="italic" lengthAdjust="spacing" textLength="174" x="1559.25" y="946.4102">AbstractNextQuestionGenerator</text><line style="stroke:#A80036;stroke-width:1.5;" x1="1475" x2="1785" y1="957.5" y2="957.5"/><rect fill="none" height="6" style="stroke:#C82930;stroke-width:1.0;" width="6" x="1482" y="965.5"/><text fill="#000000" font-family="sans-serif" font-size="11" lengthAdjust="spacing" textLength="122" x="1494" y="972.9189">List&lt;Question&gt; questions</text><line style="stroke:#A80036;stroke-width:1.5;" x1="1475" x2="1785" y1="979.3359" y2="979.3359"/><ellipse cx="1485" cy="990.3359" fill="#84BE84" rx="3" ry="3" style="stroke:#038048;stroke-width:1.0;"/><text fill="#000000" font-family="sans-serif" font-size="11" lengthAdjust="spacing" textLength="286" x="1494" y="994.7549">AbstractNextQuestionGenerator(List&lt;Question&gt; questions)</text><!--MD5=[fa66635db34bf884a16b1634e5ffc46d]
class NotMatchPreviousNextQuestionGenerator--><rect codeLine="65" fill="#FEFECE" filter="url(#f1pjrs23gpe7n9)" height="75.6719" id="NotMatchPreviousNextQuestionGenerator" style="stroke:#A80036;stroke-width:1.5;" width="357" x="1833.5" y="1095"/><ellipse cx="1893.75" cy="1111" fill="#ADD1B2" rx="11" ry="11" style="stroke:#A80036;stroke-width:1.0;"/><path d="M1896.5156,1106.875 Q1896.6719,1106.6563 1896.8594,1106.5469 Q1897.0469,1106.4375 1897.2656,1106.4375 Q1897.6406,1106.4375 1897.875,1106.7031 Q1898.1094,1106.9531 1898.1094,1107.5625 L1898.1094,1109.0156 Q1898.1094,1109.625 1897.875,1109.8906 Q1897.6406,1110.1563 1897.2656,1110.1563 Q1896.9219,1110.1563 1896.7188,1109.9531 Q1896.5156,1109.7656 1896.4063,1109.25 Q1896.3594,1108.8906 1896.1719,1108.7031 Q1895.8438,1108.3281 1895.2344,1108.1094 Q1894.625,1107.8906 1894,1107.8906 Q1893.2344,1107.8906 1892.5938,1108.2188 Q1891.9688,1108.5469 1891.4688,1109.2969 Q1890.9844,1110.0469 1890.9844,1111.0781 L1890.9844,1112.1719 Q1890.9844,1113.4063 1891.875,1114.2344 Q1892.7656,1115.0469 1894.3594,1115.0469 Q1895.2969,1115.0469 1895.9531,1114.7969 Q1896.3438,1114.6406 1896.7656,1114.2031 Q1897.0313,1113.9375 1897.1719,1113.8594 Q1897.3281,1113.7813 1897.5313,1113.7813 Q1897.8594,1113.7813 1898.1094,1114.0469 Q1898.375,1114.2969 1898.375,1114.6406 Q1898.375,1114.9844 1898.0313,1115.3906 Q1897.5313,1115.9688 1896.7344,1116.2969 Q1895.6563,1116.75 1894.3594,1116.75 Q1892.8438,1116.75 1891.6406,1116.125 Q1890.6563,1115.625 1889.9688,1114.5625 Q1889.2813,1113.4844 1889.2813,1112.2031 L1889.2813,1111.0469 Q1889.2813,1109.7188 1889.8906,1108.5781 Q1890.5156,1107.4219 1891.6094,1106.8125 Q1892.7031,1106.1875 1893.9375,1106.1875 Q1894.6719,1106.1875 1895.3125,1106.3594 Q1895.9688,1106.5156 1896.5156,1106.875 Z " fill="#000000"/><text fill="#000000" font-family="sans-serif" font-size="12" lengthAdjust="spacing" textLength="228" x="1914.25" y="1115.9102">NotMatchPreviousNextQuestionGenerator</text><line style="stroke:#A80036;stroke-width:1.5;" x1="1834.5" x2="2189.5" y1="1127" y2="1127"/><rect fill="none" height="6" style="stroke:#C82930;stroke-width:1.0;" width="6" x="1841.5" y="1135"/><text fill="#000000" font-family="sans-serif" font-size="11" lengthAdjust="spacing" textLength="111" x="1853.5" y="1142.4189">Question prevQuestion</text><line style="stroke:#A80036;stroke-width:1.5;" x1="1834.5" x2="2189.5" y1="1148.8359" y2="1148.8359"/><ellipse cx="1844.5" cy="1159.8359" fill="#84BE84" rx="3" ry="3" style="stroke:#038048;stroke-width:1.0;"/><text fill="#000000" font-family="sans-serif" font-size="11" lengthAdjust="spacing" textLength="331" x="1853.5" y="1164.2549">NotMatchPreviousNextQuestionGenerator(List&lt;Question&gt; questions)</text><!--MD5=[e988674d10764d95a60f997b654a937a]
class NotMatchPastNextQuestionGenerator--><rect codeLine="70" fill="#FEFECE" filter="url(#f1pjrs23gpe7n9)" height="75.6719" id="NotMatchPastNextQuestionGenerator" style="stroke:#A80036;stroke-width:1.5;" width="336" x="1462" y="1095"/><ellipse cx="1523.25" cy="1111" fill="#ADD1B2" rx="11" ry="11" style="stroke:#A80036;stroke-width:1.0;"/><path d="M1526.0156,1106.875 Q1526.1719,1106.6563 1526.3594,1106.5469 Q1526.5469,1106.4375 1526.7656,1106.4375 Q1527.1406,1106.4375 1527.375,1106.7031 Q1527.6094,1106.9531 1527.6094,1107.5625 L1527.6094,1109.0156 Q1527.6094,1109.625 1527.375,1109.8906 Q1527.1406,1110.1563 1526.7656,1110.1563 Q1526.4219,1110.1563 1526.2188,1109.9531 Q1526.0156,1109.7656 1525.9063,1109.25 Q1525.8594,1108.8906 1525.6719,1108.7031 Q1525.3438,1108.3281 1524.7344,1108.1094 Q1524.125,1107.8906 1523.5,1107.8906 Q1522.7344,1107.8906 1522.0938,1108.2188 Q1521.4688,1108.5469 1520.9688,1109.2969 Q1520.4844,1110.0469 1520.4844,1111.0781 L1520.4844,1112.1719 Q1520.4844,1113.4063 1521.375,1114.2344 Q1522.2656,1115.0469 1523.8594,1115.0469 Q1524.7969,1115.0469 1525.4531,1114.7969 Q1525.8438,1114.6406 1526.2656,1114.2031 Q1526.5313,1113.9375 1526.6719,1113.8594 Q1526.8281,1113.7813 1527.0313,1113.7813 Q1527.3594,1113.7813 1527.6094,1114.0469 Q1527.875,1114.2969 1527.875,1114.6406 Q1527.875,1114.9844 1527.5313,1115.3906 Q1527.0313,1115.9688 1526.2344,1116.2969 Q1525.1563,1116.75 1523.8594,1116.75 Q1522.3438,1116.75 1521.1406,1116.125 Q1520.1563,1115.625 1519.4688,1114.5625 Q1518.7813,1113.4844 1518.7813,1112.2031 L1518.7813,1111.0469 Q1518.7813,1109.7188 1519.3906,1108.5781 Q1520.0156,1107.4219 1521.1094,1106.8125 Q1522.2031,1106.1875 1523.4375,1106.1875 Q1524.1719,1106.1875 1524.8125,1106.3594 Q1525.4688,1106.5156 1526.0156,1106.875 Z " fill="#000000"/><text fill="#000000" font-family="sans-serif" font-size="12" lengthAdjust="spacing" textLength="205" x="1543.75" y="1115.9102">NotMatchPastNextQuestionGenerator</text><line style="stroke:#A80036;stroke-width:1.5;" x1="1463" x2="1797" y1="1127" y2="1127"/><rect fill="none" height="6" style="stroke:#C82930;stroke-width:1.0;" width="6" x="1470" y="1135"/><text fill="#000000" font-family="sans-serif" font-size="11" lengthAdjust="spacing" textLength="152" x="1482" y="1142.4189">Set&lt;Question&gt; askedQuestions</text><line style="stroke:#A80036;stroke-width:1.5;" x1="1463" x2="1797" y1="1148.8359" y2="1148.8359"/><ellipse cx="1473" cy="1159.8359" fill="#84BE84" rx="3" ry="3" style="stroke:#038048;stroke-width:1.0;"/><text fill="#000000" font-family="sans-serif" font-size="11" lengthAdjust="spacing" textLength="310" x="1482" y="1164.2549">NotMatchPastNextQuestionGenerator(List&lt;Question&gt; questions)</text><!--MD5=[16e97334476463f55178dcd7b6f0e90d]
class TypingGameListener--><rect codeLine="77" fill="#FEFECE" filter="url(#f1pjrs23gpe7n9)" height="117.1797" id="TypingGameListener" style="stroke:#A80036;stroke-width:1.5;" width="226" x="1180" y="663"/><ellipse cx="1231.25" cy="679" fill="#B4A7E5" rx="11" ry="11" style="stroke:#A80036;stroke-width:1.0;"/><path d="M1232.2031,675.6406 L1232.2031,682.2969 L1233.9219,682.2969 Q1234.5313,682.2969 1234.7969,682.5313 Q1235.0625,682.7656 1235.0625,683.1563 Q1235.0625,683.5313 1234.7969,683.7656 Q1234.5313,684 1233.9219,684 L1228.7813,684 Q1228.1719,684 1227.9063,683.7656 Q1227.6406,683.5313 1227.6406,683.1406 Q1227.6406,682.7656 1227.9063,682.5313 Q1228.1719,682.2969 1228.7813,682.2969 L1230.5,682.2969 L1230.5,675.6406 L1228.7813,675.6406 Q1228.1719,675.6406 1227.9063,675.4063 Q1227.6406,675.1719 1227.6406,674.7813 Q1227.6406,674.4063 1227.9063,674.1719 Q1228.1719,673.9375 1228.7813,673.9375 L1233.9219,673.9375 Q1234.5313,673.9375 1234.7969,674.1719 Q1235.0625,674.4063 1235.0625,674.7813 Q1235.0625,675.1719 1234.7969,675.4063 Q1234.5313,675.6406 1233.9219,675.6406 L1232.2031,675.6406 Z " fill="#000000"/><text fill="#000000" font-family="sans-serif" font-size="12" font-style="italic" lengthAdjust="spacing" textLength="115" x="1251.75" y="683.9102">TypingGameListener</text><line style="stroke:#A80036;stroke-width:1.5;" x1="1181" x2="1405" y1="695" y2="695"/><line style="stroke:#A80036;stroke-width:1.5;" x1="1181" x2="1405" y1="703" y2="703"/><text fill="#000000" font-family="sans-serif" font-size="11" lengthAdjust="spacing" textLength="214" x="1186" y="718.4189">void onGameStart(TypingGame typingGame)</text><text fill="#000000" font-family="sans-serif" font-size="11" lengthAdjust="spacing" textLength="209" x="1186" y="732.2549">void onGameEnd(TypingGame typingGame)</text><text fill="#000000" font-family="sans-serif" font-size="11" lengthAdjust="spacing" textLength="202" x="1186" y="746.0908">String receiveAnswer(Question question)</text><text fill="#000000" font-family="sans-serif" font-size="11" lengthAdjust="spacing" textLength="207" x="1186" y="759.9268">void onJudgeOK(TypingGame typingGame)</text><text fill="#000000" font-family="sans-serif" font-size="11" lengthAdjust="spacing" textLength="207" x="1186" y="773.7627">void onJudgeNG(TypingGame typingGame)</text><!--MD5=[9ff0d9e3f56f79f90a7d352b3f3e5a52]
class TypingGameMode--><rect codeLine="87" fill="#FEFECE" filter="url(#f1pjrs23gpe7n9)" height="194.3594" id="TypingGameMode" style="stroke:#A80036;stroke-width:1.5;" width="329" x="1443.5" y="314.5"/><ellipse cx="1553.75" cy="330.5" fill="#EB937F" rx="11" ry="11" style="stroke:#A80036;stroke-width:1.0;"/><path d="M1552.6094,331.2969 L1552.6094,333.7969 L1556.9375,333.7969 L1556.9375,332.875 Q1556.9375,332.2656 1557.1719,332 Q1557.4219,331.7344 1557.7969,331.7344 Q1558.1719,331.7344 1558.4063,332 Q1558.6406,332.2656 1558.6406,332.875 L1558.6406,335.5 L1550.6406,335.5 Q1550.0156,335.5 1549.75,335.2656 Q1549.5,335.0313 1549.5,334.6406 Q1549.5,334.2656 1549.7656,334.0313 Q1550.0313,333.7969 1550.6406,333.7969 L1550.9063,333.7969 L1550.9063,327.1406 L1550.6406,327.1406 Q1550.0156,327.1406 1549.75,326.9063 Q1549.5,326.6719 1549.5,326.2813 Q1549.5,325.9063 1549.75,325.6719 Q1550.0156,325.4375 1550.6406,325.4375 L1558.2656,325.4375 L1558.2656,328.0313 Q1558.2656,328.6406 1558.0313,328.9063 Q1557.8125,329.1563 1557.4219,329.1563 Q1557.0469,329.1563 1556.8125,328.9063 Q1556.5781,328.6406 1556.5781,328.0313 L1556.5781,327.1406 L1552.6094,327.1406 L1552.6094,329.5938 L1554.0938,329.5938 Q1554.0938,328.9375 1554.2188,328.75 Q1554.4844,328.3438 1554.9531,328.3438 Q1555.3281,328.3438 1555.5625,328.6094 Q1555.7969,328.8594 1555.7969,329.4688 L1555.7969,331.4375 Q1555.7969,331.9844 1555.6719,332.1719 Q1555.4063,332.5625 1554.9531,332.5625 Q1554.4844,332.5625 1554.2188,332.1563 Q1554.0938,331.9688 1554.0938,331.2969 L1552.6094,331.2969 Z " fill="#000000"/><text fill="#000000" font-family="sans-serif" font-size="12" lengthAdjust="spacing" textLength="100" x="1574.25" y="335.4102">TypingGameMode</text><line style="stroke:#A80036;stroke-width:1.5;" x1="1444.5" x2="1771.5" y1="346.5" y2="346.5"/><ellipse cx="1454.5" cy="357.5" rx="3" ry="3" style="stroke:#038048;stroke-width:1.0;fill:none;"/><text fill="#000000" font-family="sans-serif" font-size="11" lengthAdjust="spacing" textLength="44" x="1463.5" y="361.9189">NORMAL</text><ellipse cx="1454.5" cy="371.3359" rx="3" ry="3" style="stroke:#038048;stroke-width:1.0;fill:none;"/><text fill="#000000" font-family="sans-serif" font-size="11" lengthAdjust="spacing" textLength="21" x="1463.5" y="375.7549">HOT</text><line style="stroke:#A80036;stroke-width:1.0;stroke-dasharray:1.0,2.0;" x1="1444.5" x2="1771.5" y1="382.1719" y2="382.1719"/><rect fill="none" height="6" style="stroke:#C82930;stroke-width:1.0;" width="6" x="1451.5" y="390.1719"/><text fill="#000000" font-family="sans-serif" font-size="11" lengthAdjust="spacing" textLength="57" x="1463.5" y="397.5908">String name</text><rect fill="none" height="6" style="stroke:#C82930;stroke-width:1.0;" width="6" x="1451.5" y="404.0078"/><text fill="#000000" font-family="sans-serif" font-size="11" lengthAdjust="spacing" textLength="40" x="1463.5" y="411.4268">int mode</text><rect fill="none" height="6" style="stroke:#C82930;stroke-width:1.0;" width="6" x="1451.5" y="417.8438"/><text fill="#000000" font-family="sans-serif" font-size="11" lengthAdjust="spacing" textLength="100" x="1463.5" y="425.2627">boolean defaultMode</text><line style="stroke:#A80036;stroke-width:1.5;" x1="1444.5" x2="1771.5" y1="431.6797" y2="431.6797"/><ellipse cx="1454.5" cy="442.6797" fill="#84BE84" rx="3" ry="3" style="stroke:#038048;stroke-width:1.0;"/><text fill="#000000" font-family="sans-serif" font-size="11" lengthAdjust="spacing" textLength="303" x="1463.5" y="447.0986">TypingGameMode(String name, int mode, boolean defaultMode)</text><ellipse cx="1454.5" cy="456.5156" fill="#84BE84" rx="3" ry="3" style="stroke:#038048;stroke-width:1.0;"/><text fill="#000000" font-family="sans-serif" font-size="11" lengthAdjust="spacing" text-decoration="underline" textLength="147" x="1463.5" y="460.9346">TypingGameMode of(int mode)</text><ellipse cx="1454.5" cy="470.3516" fill="#84BE84" rx="3" ry="3" style="stroke:#038048;stroke-width:1.0;"/><text fill="#000000" font-family="sans-serif" font-size="11" lengthAdjust="spacing" text-decoration="underline" textLength="146" x="1463.5" y="474.7705">TypingGameMode getDefault()</text><ellipse cx="1454.5" cy="484.1875" fill="#84BE84" rx="3" ry="3" style="stroke:#038048;stroke-width:1.0;"/><text fill="#000000" font-family="sans-serif" font-size="11" lengthAdjust="spacing" textLength="81" x="1463.5" y="488.6064">String getName()</text><ellipse cx="1454.5" cy="498.0234" fill="#84BE84" rx="3" ry="3" style="stroke:#038048;stroke-width:1.0;"/><text fill="#000000" font-family="sans-serif" font-size="11" lengthAdjust="spacing" textLength="63" x="1463.5" y="502.4424">int getMode()</text><!--MD5=[a0f4154cf21c7986d9b4002c345b152e]
class NextQuestionGeneratorMode--><rect codeLine="102" fill="#FEFECE" filter="url(#f1pjrs23gpe7n9)" height="194.3594" id="NextQuestionGeneratorMode" style="stroke:#A80036;stroke-width:1.5;" width="383" x="1807.5" y="314.5"/><ellipse cx="1915.25" cy="330.5" fill="#EB937F" rx="11" ry="11" style="stroke:#A80036;stroke-width:1.0;"/><path d="M1914.1094,331.2969 L1914.1094,333.7969 L1918.4375,333.7969 L1918.4375,332.875 Q1918.4375,332.2656 1918.6719,332 Q1918.9219,331.7344 1919.2969,331.7344 Q1919.6719,331.7344 1919.9063,332 Q1920.1406,332.2656 1920.1406,332.875 L1920.1406,335.5 L1912.1406,335.5 Q1911.5156,335.5 1911.25,335.2656 Q1911,335.0313 1911,334.6406 Q1911,334.2656 1911.2656,334.0313 Q1911.5313,333.7969 1912.1406,333.7969 L1912.4063,333.7969 L1912.4063,327.1406 L1912.1406,327.1406 Q1911.5156,327.1406 1911.25,326.9063 Q1911,326.6719 1911,326.2813 Q1911,325.9063 1911.25,325.6719 Q1911.5156,325.4375 1912.1406,325.4375 L1919.7656,325.4375 L1919.7656,328.0313 Q1919.7656,328.6406 1919.5313,328.9063 Q1919.3125,329.1563 1918.9219,329.1563 Q1918.5469,329.1563 1918.3125,328.9063 Q1918.0781,328.6406 1918.0781,328.0313 L1918.0781,327.1406 L1914.1094,327.1406 L1914.1094,329.5938 L1915.5938,329.5938 Q1915.5938,328.9375 1915.7188,328.75 Q1915.9844,328.3438 1916.4531,328.3438 Q1916.8281,328.3438 1917.0625,328.6094 Q1917.2969,328.8594 1917.2969,329.4688 L1917.2969,331.4375 Q1917.2969,331.9844 1917.1719,332.1719 Q1916.9063,332.5625 1916.4531,332.5625 Q1915.9844,332.5625 1915.7188,332.1563 Q1915.5938,331.9688 1915.5938,331.2969 L1914.1094,331.2969 Z " fill="#000000"/><text fill="#000000" font-family="sans-serif" font-size="12" lengthAdjust="spacing" textLength="159" x="1935.75" y="335.4102">NextQuestionGeneratorMode</text><line style="stroke:#A80036;stroke-width:1.5;" x1="1808.5" x2="2189.5" y1="346.5" y2="346.5"/><ellipse cx="1818.5" cy="357.5" rx="3" ry="3" style="stroke:#038048;stroke-width:1.0;fill:none;"/><text fill="#000000" font-family="sans-serif" font-size="11" lengthAdjust="spacing" textLength="120" x="1827.5" y="361.9189">NOT_MATCH_PREVIOUS</text><ellipse cx="1818.5" cy="371.3359" rx="3" ry="3" style="stroke:#038048;stroke-width:1.0;fill:none;"/><text fill="#000000" font-family="sans-serif" font-size="11" lengthAdjust="spacing" textLength="96" x="1827.5" y="375.7549">NOT_MATCH_PAST</text><line style="stroke:#A80036;stroke-width:1.0;stroke-dasharray:1.0,2.0;" x1="1808.5" x2="2189.5" y1="382.1719" y2="382.1719"/><rect fill="none" height="6" style="stroke:#C82930;stroke-width:1.0;" width="6" x="1815.5" y="390.1719"/><text fill="#000000" font-family="sans-serif" font-size="11" lengthAdjust="spacing" textLength="57" x="1827.5" y="397.5908">String name</text><rect fill="none" height="6" style="stroke:#C82930;stroke-width:1.0;" width="6" x="1815.5" y="404.0078"/><text fill="#000000" font-family="sans-serif" font-size="11" lengthAdjust="spacing" textLength="40" x="1827.5" y="411.4268">int mode</text><rect fill="none" height="6" style="stroke:#C82930;stroke-width:1.0;" width="6" x="1815.5" y="417.8438"/><text fill="#000000" font-family="sans-serif" font-size="11" lengthAdjust="spacing" textLength="100" x="1827.5" y="425.2627">boolean defaultLevel</text><line style="stroke:#A80036;stroke-width:1.5;" x1="1808.5" x2="2189.5" y1="431.6797" y2="431.6797"/><ellipse cx="1818.5" cy="442.6797" fill="#84BE84" rx="3" ry="3" style="stroke:#038048;stroke-width:1.0;"/><text fill="#000000" font-family="sans-serif" font-size="11" lengthAdjust="spacing" textLength="357" x="1827.5" y="447.0986">NextQuestionGeneratorMode(String name, int mode, boolean defaultMode)</text><ellipse cx="1818.5" cy="456.5156" fill="#84BE84" rx="3" ry="3" style="stroke:#038048;stroke-width:1.0;"/><text fill="#000000" font-family="sans-serif" font-size="11" lengthAdjust="spacing" text-decoration="underline" textLength="201" x="1827.5" y="460.9346">NextQuestionGeneratorMode of(int mode)</text><ellipse cx="1818.5" cy="470.3516" fill="#84BE84" rx="3" ry="3" style="stroke:#038048;stroke-width:1.0;"/><text fill="#000000" font-family="sans-serif" font-size="11" lengthAdjust="spacing" text-decoration="underline" textLength="200" x="1827.5" y="474.7705">NextQuestionGeneratorMode getDefault()</text><ellipse cx="1818.5" cy="484.1875" fill="#84BE84" rx="3" ry="3" style="stroke:#038048;stroke-width:1.0;"/><text fill="#000000" font-family="sans-serif" font-size="11" lengthAdjust="spacing" textLength="81" x="1827.5" y="488.6064">String getName()</text><ellipse cx="1818.5" cy="498.0234" fill="#84BE84" rx="3" ry="3" style="stroke:#038048;stroke-width:1.0;"/><text fill="#000000" font-family="sans-serif" font-size="11" lengthAdjust="spacing" textLength="63" x="1827.5" y="502.4424">int getMode()</text><!--MD5=[fc7123defb831ecdd44b2d9bcef6cceb]
class Question--><rect codeLine="120" fill="#FEFECE" filter="url(#f1pjrs23gpe7n9)" height="103.3438" id="Question" style="stroke:#A80036;stroke-width:1.5;" width="286" x="2470" y="912"/><ellipse cx="2583.75" cy="928" fill="#ADD1B2" rx="11" ry="11" style="stroke:#A80036;stroke-width:1.0;"/><path d="M2586.5156,923.875 Q2586.6719,923.6563 2586.8594,923.5469 Q2587.0469,923.4375 2587.2656,923.4375 Q2587.6406,923.4375 2587.875,923.7031 Q2588.1094,923.9531 2588.1094,924.5625 L2588.1094,926.0156 Q2588.1094,926.625 2587.875,926.8906 Q2587.6406,927.1563 2587.2656,927.1563 Q2586.9219,927.1563 2586.7188,926.9531 Q2586.5156,926.7656 2586.4063,926.25 Q2586.3594,925.8906 2586.1719,925.7031 Q2585.8438,925.3281 2585.2344,925.1094 Q2584.625,924.8906 2584,924.8906 Q2583.2344,924.8906 2582.5938,925.2188 Q2581.9688,925.5469 2581.4688,926.2969 Q2580.9844,927.0469 2580.9844,928.0781 L2580.9844,929.1719 Q2580.9844,930.4063 2581.875,931.2344 Q2582.7656,932.0469 2584.3594,932.0469 Q2585.2969,932.0469 2585.9531,931.7969 Q2586.3438,931.6406 2586.7656,931.2031 Q2587.0313,930.9375 2587.1719,930.8594 Q2587.3281,930.7813 2587.5313,930.7813 Q2587.8594,930.7813 2588.1094,931.0469 Q2588.375,931.2969 2588.375,931.6406 Q2588.375,931.9844 2588.0313,932.3906 Q2587.5313,932.9688 2586.7344,933.2969 Q2585.6563,933.75 2584.3594,933.75 Q2582.8438,933.75 2581.6406,933.125 Q2580.6563,932.625 2579.9688,931.5625 Q2579.2813,930.4844 2579.2813,929.2031 L2579.2813,928.0469 Q2579.2813,926.7188 2579.8906,925.5781 Q2580.5156,924.4219 2581.6094,923.8125 Q2582.7031,923.1875 2583.9375,923.1875 Q2584.6719,923.1875 2585.3125,923.3594 Q2585.9688,923.5156 2586.5156,923.875 Z " fill="#000000"/><text fill="#000000" font-family="sans-serif" font-size="12" lengthAdjust="spacing" textLength="50" x="2604.25" y="932.9102">Question</text><line style="stroke:#A80036;stroke-width:1.5;" x1="2471" x2="2755" y1="944" y2="944"/><rect fill="none" height="6" style="stroke:#C82930;stroke-width:1.0;" width="6" x="2478" y="952"/><text fill="#000000" font-family="sans-serif" font-size="11" lengthAdjust="spacing" textLength="57" x="2490" y="959.4189">String word</text><rect fill="none" height="6" style="stroke:#C82930;stroke-width:1.0;" width="6" x="2478" y="965.8359"/><text fill="#000000" font-family="sans-serif" font-size="11" lengthAdjust="spacing" textLength="146" x="2490" y="973.2549">TypingGameDifficulty difficulty</text><line style="stroke:#A80036;stroke-width:1.5;" x1="2471" x2="2755" y1="979.6719" y2="979.6719"/><ellipse cx="2481" cy="990.6719" fill="#84BE84" rx="3" ry="3" style="stroke:#038048;stroke-width:1.0;"/><text fill="#000000" font-family="sans-serif" font-size="11" lengthAdjust="spacing" textLength="260" x="2490" y="995.0908">Question(String word, TypingGameDifficulty difficulty)</text><ellipse cx="2481" cy="1004.5078" fill="#84BE84" rx="3" ry="3" style="stroke:#038048;stroke-width:1.0;"/><text fill="#000000" font-family="sans-serif" font-size="11" lengthAdjust="spacing" textLength="80" x="2490" y="1008.9268">String getWord()</text><!--MD5=[9c6dfb49ef2184b6b517c171c5d8a863]
class QuestionResult--><rect codeLine="127" fill="#FEFECE" filter="url(#f1pjrs23gpe7n9)" height="144.8516" id="QuestionResult" style="stroke:#A80036;stroke-width:1.5;" width="342" x="2271" y="649"/><ellipse cx="2394.75" cy="665" fill="#ADD1B2" rx="11" ry="11" style="stroke:#A80036;stroke-width:1.0;"/><path d="M2397.5156,660.875 Q2397.6719,660.6563 2397.8594,660.5469 Q2398.0469,660.4375 2398.2656,660.4375 Q2398.6406,660.4375 2398.875,660.7031 Q2399.1094,660.9531 2399.1094,661.5625 L2399.1094,663.0156 Q2399.1094,663.625 2398.875,663.8906 Q2398.6406,664.1563 2398.2656,664.1563 Q2397.9219,664.1563 2397.7188,663.9531 Q2397.5156,663.7656 2397.4063,663.25 Q2397.3594,662.8906 2397.1719,662.7031 Q2396.8438,662.3281 2396.2344,662.1094 Q2395.625,661.8906 2395,661.8906 Q2394.2344,661.8906 2393.5938,662.2188 Q2392.9688,662.5469 2392.4688,663.2969 Q2391.9844,664.0469 2391.9844,665.0781 L2391.9844,666.1719 Q2391.9844,667.4063 2392.875,668.2344 Q2393.7656,669.0469 2395.3594,669.0469 Q2396.2969,669.0469 2396.9531,668.7969 Q2397.3438,668.6406 2397.7656,668.2031 Q2398.0313,667.9375 2398.1719,667.8594 Q2398.3281,667.7813 2398.5313,667.7813 Q2398.8594,667.7813 2399.1094,668.0469 Q2399.375,668.2969 2399.375,668.6406 Q2399.375,668.9844 2399.0313,669.3906 Q2398.5313,669.9688 2397.7344,670.2969 Q2396.6563,670.75 2395.3594,670.75 Q2393.8438,670.75 2392.6406,670.125 Q2391.6563,669.625 2390.9688,668.5625 Q2390.2813,667.4844 2390.2813,666.2031 L2390.2813,665.0469 Q2390.2813,663.7188 2390.8906,662.5781 Q2391.5156,661.4219 2392.6094,660.8125 Q2393.7031,660.1875 2394.9375,660.1875 Q2395.6719,660.1875 2396.3125,660.3594 Q2396.9688,660.5156 2397.5156,660.875 Z " fill="#000000"/><text fill="#000000" font-family="sans-serif" font-size="12" lengthAdjust="spacing" textLength="86" x="2415.25" y="669.9102">QuestionResult</text><line style="stroke:#A80036;stroke-width:1.5;" x1="2272" x2="2612" y1="681" y2="681"/><rect fill="none" height="6" style="stroke:#C82930;stroke-width:1.0;" width="6" x="2279" y="689"/><text fill="#000000" font-family="sans-serif" font-size="11" lengthAdjust="spacing" textLength="87" x="2291" y="696.4189">Question question</text><rect fill="none" height="6" style="stroke:#C82930;stroke-width:1.0;" width="6" x="2279" y="702.8359"/><text fill="#000000" font-family="sans-serif" font-size="11" lengthAdjust="spacing" textLength="69" x="2291" y="710.2549">String answer</text><rect fill="none" height="6" style="stroke:#C82930;stroke-width:1.0;" width="6" x="2279" y="716.6719"/><text fill="#000000" font-family="sans-serif" font-size="11" lengthAdjust="spacing" textLength="67" x="2291" y="724.0908">boolean judge</text><line style="stroke:#A80036;stroke-width:1.5;" x1="2272" x2="2612" y1="730.5078" y2="730.5078"/><ellipse cx="2282" cy="741.5078" fill="#84BE84" rx="3" ry="3" style="stroke:#038048;stroke-width:1.0;"/><text fill="#000000" font-family="sans-serif" font-size="11" lengthAdjust="spacing" textLength="316" x="2291" y="745.9268">QuestionResult(Question question, String answer, boolean judge)</text><ellipse cx="2282" cy="755.3438" fill="#84BE84" rx="3" ry="3" style="stroke:#038048;stroke-width:1.0;"/><text fill="#000000" font-family="sans-serif" font-size="11" lengthAdjust="spacing" textLength="112" x="2291" y="759.7627">Question getQuestion()</text><ellipse cx="2282" cy="769.1797" fill="#84BE84" rx="3" ry="3" style="stroke:#038048;stroke-width:1.0;"/><text fill="#000000" font-family="sans-serif" font-size="11" lengthAdjust="spacing" textLength="94" x="2291" y="773.5986">String getAnswer()</text><ellipse cx="2282" cy="783.0156" fill="#84BE84" rx="3" ry="3" style="stroke:#038048;stroke-width:1.0;"/><text fill="#000000" font-family="sans-serif" font-size="11" lengthAdjust="spacing" textLength="86" x="2291" y="787.4346">boolean isJudge()</text><!--MD5=[3665cc8380533de798edf75be7f81b43]
class QuestionFactory--><rect codeLine="138" fill="#FEFECE" filter="url(#f1pjrs23gpe7n9)" height="75.6719" id="QuestionFactory" style="stroke:#A80036;stroke-width:1.5;" width="327" x="2648.5" y="683.5"/><ellipse cx="2763.25" cy="699.5" fill="#ADD1B2" rx="11" ry="11" style="stroke:#A80036;stroke-width:1.0;"/><path d="M2766.0156,695.375 Q2766.1719,695.1563 2766.3594,695.0469 Q2766.5469,694.9375 2766.7656,694.9375 Q2767.1406,694.9375 2767.375,695.2031 Q2767.6094,695.4531 2767.6094,696.0625 L2767.6094,697.5156 Q2767.6094,698.125 2767.375,698.3906 Q2767.1406,698.6563 2766.7656,698.6563 Q2766.4219,698.6563 2766.2188,698.4531 Q2766.0156,698.2656 2765.9063,697.75 Q2765.8594,697.3906 2765.6719,697.2031 Q2765.3438,696.8281 2764.7344,696.6094 Q2764.125,696.3906 2763.5,696.3906 Q2762.7344,696.3906 2762.0938,696.7188 Q2761.4688,697.0469 2760.9688,697.7969 Q2760.4844,698.5469 2760.4844,699.5781 L2760.4844,700.6719 Q2760.4844,701.9063 2761.375,702.7344 Q2762.2656,703.5469 2763.8594,703.5469 Q2764.7969,703.5469 2765.4531,703.2969 Q2765.8438,703.1406 2766.2656,702.7031 Q2766.5313,702.4375 2766.6719,702.3594 Q2766.8281,702.2813 2767.0313,702.2813 Q2767.3594,702.2813 2767.6094,702.5469 Q2767.875,702.7969 2767.875,703.1406 Q2767.875,703.4844 2767.5313,703.8906 Q2767.0313,704.4688 2766.2344,704.7969 Q2765.1563,705.25 2763.8594,705.25 Q2762.3438,705.25 2761.1406,704.625 Q2760.1563,704.125 2759.4688,703.0625 Q2758.7813,701.9844 2758.7813,700.7031 L2758.7813,699.5469 Q2758.7813,698.2188 2759.3906,697.0781 Q2760.0156,695.9219 2761.1094,695.3125 Q2762.2031,694.6875 2763.4375,694.6875 Q2764.1719,694.6875 2764.8125,694.8594 Q2765.4688,695.0156 2766.0156,695.375 Z " fill="#000000"/><text fill="#000000" font-family="sans-serif" font-size="12" lengthAdjust="spacing" textLength="89" x="2783.75" y="704.4102">QuestionFactory</text><line style="stroke:#A80036;stroke-width:1.5;" x1="2649.5" x2="2974.5" y1="715.5" y2="715.5"/><line style="stroke:#A80036;stroke-width:1.5;" x1="2649.5" x2="2974.5" y1="723.5" y2="723.5"/><ellipse cx="2659.5" cy="734.5" fill="#84BE84" rx="3" ry="3" style="stroke:#038048;stroke-width:1.0;"/><text fill="#000000" font-family="sans-serif" font-size="11" lengthAdjust="spacing" textLength="301" x="2668.5" y="738.9189">static List&lt;Question&gt; generate(TypingGameDifficulty difficulty)</text><rect fill="#F24D5C" height="6" style="stroke:#C82930;stroke-width:1.0;" width="6" x="2656.5" y="745.3359"/><text fill="#000000" font-family="sans-serif" font-size="11" lengthAdjust="spacing" textLength="155" x="2668.5" y="752.7549">static List&lt;Question&gt; generate()</text><!--MD5=[a54530424d6d3f8cff061ae2511179cd]
class ConsoleConductor--><rect codeLine="147" fill="#FEFECE" filter="url(#f1pjrs23gpe7n9)" height="117.1797" id="ConsoleConductor" style="stroke:#A80036;stroke-width:1.5;" width="469" x="88.5" y="353"/><ellipse cx="266.75" cy="369" fill="#ADD1B2" rx="11" ry="11" style="stroke:#A80036;stroke-width:1.0;"/><path d="M269.5156,364.875 Q269.6719,364.6563 269.8594,364.5469 Q270.0469,364.4375 270.2656,364.4375 Q270.6406,364.4375 270.875,364.7031 Q271.1094,364.9531 271.1094,365.5625 L271.1094,367.0156 Q271.1094,367.625 270.875,367.8906 Q270.6406,368.1563 270.2656,368.1563 Q269.9219,368.1563 269.7188,367.9531 Q269.5156,367.7656 269.4063,367.25 Q269.3594,366.8906 269.1719,366.7031 Q268.8438,366.3281 268.2344,366.1094 Q267.625,365.8906 267,365.8906 Q266.2344,365.8906 265.5938,366.2188 Q264.9688,366.5469 264.4688,367.2969 Q263.9844,368.0469 263.9844,369.0781 L263.9844,370.1719 Q263.9844,371.4063 264.875,372.2344 Q265.7656,373.0469 267.3594,373.0469 Q268.2969,373.0469 268.9531,372.7969 Q269.3438,372.6406 269.7656,372.2031 Q270.0313,371.9375 270.1719,371.8594 Q270.3281,371.7813 270.5313,371.7813 Q270.8594,371.7813 271.1094,372.0469 Q271.375,372.2969 271.375,372.6406 Q271.375,372.9844 271.0313,373.3906 Q270.5313,373.9688 269.7344,374.2969 Q268.6563,374.75 267.3594,374.75 Q265.8438,374.75 264.6406,374.125 Q263.6563,373.625 262.9688,372.5625 Q262.2813,371.4844 262.2813,370.2031 L262.2813,369.0469 Q262.2813,367.7188 262.8906,366.5781 Q263.5156,365.4219 264.6094,364.8125 Q265.7031,364.1875 266.9375,364.1875 Q267.6719,364.1875 268.3125,364.3594 Q268.9688,364.5156 269.5156,364.875 Z " fill="#000000"/><text fill="#000000" font-family="sans-serif" font-size="12" lengthAdjust="spacing" textLength="104" x="287.25" y="373.9102">ConsoleConductor</text><line style="stroke:#A80036;stroke-width:1.5;" x1="89.5" x2="556.5" y1="385" y2="385"/><line style="stroke:#A80036;stroke-width:1.5;" x1="89.5" x2="556.5" y1="393" y2="393"/><ellipse cx="99.5" cy="404" fill="#84BE84" rx="3" ry="3" style="stroke:#038048;stroke-width:1.0;"/><text fill="#000000" font-family="sans-serif" font-size="11" lengthAdjust="spacing" textLength="47" x="108.5" y="408.4189">execute()</text><rect fill="#F24D5C" height="6" style="stroke:#C82930;stroke-width:1.0;" width="6" x="96.5" y="414.8359"/><text fill="#000000" font-family="sans-serif" font-size="11" lengthAdjust="spacing" textLength="122" x="108.5" y="422.2549">void displayCountDown()</text><rect fill="#F24D5C" height="6" style="stroke:#C82930;stroke-width:1.0;" width="6" x="96.5" y="428.6719"/><text fill="#000000" font-family="sans-serif" font-size="11" lengthAdjust="spacing" textLength="215" x="108.5" y="436.0908">void displayResult(TypingGame typingGame)</text><rect fill="#F24D5C" height="6" style="stroke:#C82930;stroke-width:1.0;" width="6" x="96.5" y="442.5078"/><text fill="#000000" font-family="sans-serif" font-size="11" lengthAdjust="spacing" textLength="443" x="108.5" y="449.9268">void displayRanking(TypingGameHistory typingGameHistory, TypingGameDifficulty difficulty)</text><rect fill="#F24D5C" height="6" style="stroke:#C82930;stroke-width:1.0;" width="6" x="96.5" y="456.3438"/><text fill="#000000" font-family="sans-serif" font-size="11" lengthAdjust="spacing" textLength="132" x="108.5" y="463.7627">boolean displayInputRetry()</text><!--MD5=[3f0b0446609c9c984be782067bef3fbd]
class DisplayInputMode--><rect codeLine="155" fill="#FEFECE" filter="url(#f1pjrs23gpe7n9)" height="103.3438" id="DisplayInputMode" style="stroke:#A80036;stroke-width:1.5;" width="308" x="226" y="670"/><ellipse cx="326.75" cy="686" fill="#ADD1B2" rx="11" ry="11" style="stroke:#A80036;stroke-width:1.0;"/><path d="M329.5156,681.875 Q329.6719,681.6563 329.8594,681.5469 Q330.0469,681.4375 330.2656,681.4375 Q330.6406,681.4375 330.875,681.7031 Q331.1094,681.9531 331.1094,682.5625 L331.1094,684.0156 Q331.1094,684.625 330.875,684.8906 Q330.6406,685.1563 330.2656,685.1563 Q329.9219,685.1563 329.7188,684.9531 Q329.5156,684.7656 329.4063,684.25 Q329.3594,683.8906 329.1719,683.7031 Q328.8438,683.3281 328.2344,683.1094 Q327.625,682.8906 327,682.8906 Q326.2344,682.8906 325.5938,683.2188 Q324.9688,683.5469 324.4688,684.2969 Q323.9844,685.0469 323.9844,686.0781 L323.9844,687.1719 Q323.9844,688.4063 324.875,689.2344 Q325.7656,690.0469 327.3594,690.0469 Q328.2969,690.0469 328.9531,689.7969 Q329.3438,689.6406 329.7656,689.2031 Q330.0313,688.9375 330.1719,688.8594 Q330.3281,688.7813 330.5313,688.7813 Q330.8594,688.7813 331.1094,689.0469 Q331.375,689.2969 331.375,689.6406 Q331.375,689.9844 331.0313,690.3906 Q330.5313,690.9688 329.7344,691.2969 Q328.6563,691.75 327.3594,691.75 Q325.8438,691.75 324.6406,691.125 Q323.6563,690.625 322.9688,689.5625 Q322.2813,688.4844 322.2813,687.2031 L322.2813,686.0469 Q322.2813,684.7188 322.8906,683.5781 Q323.5156,682.4219 324.6094,681.8125 Q325.7031,681.1875 326.9375,681.1875 Q327.6719,681.1875 328.3125,681.3594 Q328.9688,681.5156 329.5156,681.875 Z " fill="#000000"/><text fill="#000000" font-family="sans-serif" font-size="12" lengthAdjust="spacing" textLength="98" x="347.25" y="690.9102">DisplayInputMode</text><line style="stroke:#A80036;stroke-width:1.5;" x1="227" x2="533" y1="702" y2="702"/><line style="stroke:#A80036;stroke-width:1.5;" x1="227" x2="533" y1="710" y2="710"/><ellipse cx="237" cy="721" fill="#84BE84" rx="3" ry="3" style="stroke:#038048;stroke-width:1.0;"/><text fill="#000000" font-family="sans-serif" font-size="11" lengthAdjust="spacing" textLength="109" x="246" y="725.4189">TypingGame getInput()</text><rect fill="#F24D5C" height="6" style="stroke:#C82930;stroke-width:1.0;" width="6" x="234" y="731.8359"/><text fill="#000000" font-family="sans-serif" font-size="11" lengthAdjust="spacing" text-decoration="underline" textLength="212" x="246" y="739.2549">TypingGameDifficulty displayInputDifficulty()</text><rect fill="#F24D5C" height="6" style="stroke:#C82930;stroke-width:1.0;" width="6" x="234" y="745.6719"/><text fill="#000000" font-family="sans-serif" font-size="11" lengthAdjust="spacing" text-decoration="underline" textLength="180" x="246" y="753.0908">TypingGameMode displayInputMode()</text><rect fill="#F24D5C" height="6" style="stroke:#C82930;stroke-width:1.0;" width="6" x="234" y="759.5078"/><text fill="#000000" font-family="sans-serif" font-size="11" lengthAdjust="spacing" text-decoration="underline" textLength="282" x="246" y="766.9268">NextQuestionGeneratorMode displayInputCalculatorMode()</text><!--MD5=[f2076064ef29070937814e2fca8e8d42]
class NormalTypingGameListener--><rect codeLine="163" fill="#FEFECE" filter="url(#f1pjrs23gpe7n9)" height="48" id="NormalTypingGameListener" style="stroke:#A80036;stroke-width:1.5;" width="188" x="310" y="939.5"/><ellipse cx="325" cy="955.5" fill="#ADD1B2" rx="11" ry="11" style="stroke:#A80036;stroke-width:1.0;"/><path d="M327.7656,951.375 Q327.9219,951.1563 328.1094,951.0469 Q328.2969,950.9375 328.5156,950.9375 Q328.8906,950.9375 329.125,951.2031 Q329.3594,951.4531 329.3594,952.0625 L329.3594,953.5156 Q329.3594,954.125 329.125,954.3906 Q328.8906,954.6563 328.5156,954.6563 Q328.1719,954.6563 327.9688,954.4531 Q327.7656,954.2656 327.6563,953.75 Q327.6094,953.3906 327.4219,953.2031 Q327.0938,952.8281 326.4844,952.6094 Q325.875,952.3906 325.25,952.3906 Q324.4844,952.3906 323.8438,952.7188 Q323.2188,953.0469 322.7188,953.7969 Q322.2344,954.5469 322.2344,955.5781 L322.2344,956.6719 Q322.2344,957.9063 323.125,958.7344 Q324.0156,959.5469 325.6094,959.5469 Q326.5469,959.5469 327.2031,959.2969 Q327.5938,959.1406 328.0156,958.7031 Q328.2813,958.4375 328.4219,958.3594 Q328.5781,958.2813 328.7813,958.2813 Q329.1094,958.2813 329.3594,958.5469 Q329.625,958.7969 329.625,959.1406 Q329.625,959.4844 329.2813,959.8906 Q328.7813,960.4688 327.9844,960.7969 Q326.9063,961.25 325.6094,961.25 Q324.0938,961.25 322.8906,960.625 Q321.9063,960.125 321.2188,959.0625 Q320.5313,957.9844 320.5313,956.7031 L320.5313,955.5469 Q320.5313,954.2188 321.1406,953.0781 Q321.7656,951.9219 322.8594,951.3125 Q323.9531,950.6875 325.1875,950.6875 Q325.9219,950.6875 326.5625,950.8594 Q327.2188,951.0156 327.7656,951.375 Z " fill="#000000"/><text fill="#000000" font-family="sans-serif" font-size="12" lengthAdjust="spacing" textLength="156" x="339" y="960.4102">NormalTypingGameListener</text><line style="stroke:#A80036;stroke-width:1.5;" x1="311" x2="497" y1="971.5" y2="971.5"/><line style="stroke:#A80036;stroke-width:1.5;" x1="311" x2="497" y1="979.5" y2="979.5"/><!--MD5=[d186d861287b343e6ac9df07cc1c8de0]
class HotTypingGameListener--><rect codeLine="165" fill="#FEFECE" filter="url(#f1pjrs23gpe7n9)" height="48" id="HotTypingGameListener" style="stroke:#A80036;stroke-width:1.5;" width="166" x="533" y="939.5"/><ellipse cx="548" cy="955.5" fill="#ADD1B2" rx="11" ry="11" style="stroke:#A80036;stroke-width:1.0;"/><path d="M550.7656,951.375 Q550.9219,951.1563 551.1094,951.0469 Q551.2969,950.9375 551.5156,950.9375 Q551.8906,950.9375 552.125,951.2031 Q552.3594,951.4531 552.3594,952.0625 L552.3594,953.5156 Q552.3594,954.125 552.125,954.3906 Q551.8906,954.6563 551.5156,954.6563 Q551.1719,954.6563 550.9688,954.4531 Q550.7656,954.2656 550.6563,953.75 Q550.6094,953.3906 550.4219,953.2031 Q550.0938,952.8281 549.4844,952.6094 Q548.875,952.3906 548.25,952.3906 Q547.4844,952.3906 546.8438,952.7188 Q546.2188,953.0469 545.7188,953.7969 Q545.2344,954.5469 545.2344,955.5781 L545.2344,956.6719 Q545.2344,957.9063 546.125,958.7344 Q547.0156,959.5469 548.6094,959.5469 Q549.5469,959.5469 550.2031,959.2969 Q550.5938,959.1406 551.0156,958.7031 Q551.2813,958.4375 551.4219,958.3594 Q551.5781,958.2813 551.7813,958.2813 Q552.1094,958.2813 552.3594,958.5469 Q552.625,958.7969 552.625,959.1406 Q552.625,959.4844 552.2813,959.8906 Q551.7813,960.4688 550.9844,960.7969 Q549.9063,961.25 548.6094,961.25 Q547.0938,961.25 545.8906,960.625 Q544.9063,960.125 544.2188,959.0625 Q543.5313,957.9844 543.5313,956.7031 L543.5313,955.5469 Q543.5313,954.2188 544.1406,953.0781 Q544.7656,951.9219 545.8594,951.3125 Q546.9531,950.6875 548.1875,950.6875 Q548.9219,950.6875 549.5625,950.8594 Q550.2188,951.0156 550.7656,951.375 Z " fill="#000000"/><text fill="#000000" font-family="sans-serif" font-size="12" lengthAdjust="spacing" textLength="134" x="562" y="960.4102">HotTypingGameListener</text><line style="stroke:#A80036;stroke-width:1.5;" x1="534" x2="698" y1="971.5" y2="971.5"/><line style="stroke:#A80036;stroke-width:1.5;" x1="534" x2="698" y1="979.5" y2="979.5"/><!--MD5=[727f674aee92f05fe9288fa1d13ae8e7]
class StandardInputReaderWrapper--><rect codeLine="169" fill="#FEFECE" filter="url(#f1pjrs23gpe7n9)" height="61.8359" id="StandardInputReaderWrapper" style="stroke:#A80036;stroke-width:1.5;" width="197" x="56.5" y="932.5"/><ellipse cx="71.5" cy="948.5" fill="#ADD1B2" rx="11" ry="11" style="stroke:#A80036;stroke-width:1.0;"/><path d="M74.2656,944.375 Q74.4219,944.1563 74.6094,944.0469 Q74.7969,943.9375 75.0156,943.9375 Q75.3906,943.9375 75.625,944.2031 Q75.8594,944.4531 75.8594,945.0625 L75.8594,946.5156 Q75.8594,947.125 75.625,947.3906 Q75.3906,947.6563 75.0156,947.6563 Q74.6719,947.6563 74.4688,947.4531 Q74.2656,947.2656 74.1563,946.75 Q74.1094,946.3906 73.9219,946.2031 Q73.5938,945.8281 72.9844,945.6094 Q72.375,945.3906 71.75,945.3906 Q70.9844,945.3906 70.3438,945.7188 Q69.7188,946.0469 69.2188,946.7969 Q68.7344,947.5469 68.7344,948.5781 L68.7344,949.6719 Q68.7344,950.9063 69.625,951.7344 Q70.5156,952.5469 72.1094,952.5469 Q73.0469,952.5469 73.7031,952.2969 Q74.0938,952.1406 74.5156,951.7031 Q74.7813,951.4375 74.9219,951.3594 Q75.0781,951.2813 75.2813,951.2813 Q75.6094,951.2813 75.8594,951.5469 Q76.125,951.7969 76.125,952.1406 Q76.125,952.4844 75.7813,952.8906 Q75.2813,953.4688 74.4844,953.7969 Q73.4063,954.25 72.1094,954.25 Q70.5938,954.25 69.3906,953.625 Q68.4063,953.125 67.7188,952.0625 Q67.0313,950.9844 67.0313,949.7031 L67.0313,948.5469 Q67.0313,947.2188 67.6406,946.0781 Q68.2656,944.9219 69.3594,944.3125 Q70.4531,943.6875 71.6875,943.6875 Q72.4219,943.6875 73.0625,943.8594 Q73.7188,944.0156 74.2656,944.375 Z " fill="#000000"/><text fill="#000000" font-family="sans-serif" font-size="12" lengthAdjust="spacing" textLength="165" x="85.5" y="953.4102">StandardInputReaderWrapper</text><line style="stroke:#A80036;stroke-width:1.5;" x1="57.5" x2="252.5" y1="964.5" y2="964.5"/><line style="stroke:#A80036;stroke-width:1.5;" x1="57.5" x2="252.5" y1="972.5" y2="972.5"/><ellipse cx="67.5" cy="983.5" fill="#84BE84" rx="3" ry="3" style="stroke:#038048;stroke-width:1.0;"/><text fill="#000000" font-family="sans-serif" font-size="11" lengthAdjust="spacing" text-decoration="underline" textLength="146" x="76.5" y="987.9189">int getInputInt(int defaultValue)</text><!--MD5=[f4abfe78a2e927cf2e914f071f8f9453]
class StandardInputReader--><rect codeLine="173" fill="#FEFECE" filter="url(#f1pjrs23gpe7n9)" height="48" id="StandardInputReader" style="stroke:#A80036;stroke-width:1.5;" width="150" x="104" y="1109"/><ellipse cx="119" cy="1125" fill="#ADD1B2" rx="11" ry="11" style="stroke:#A80036;stroke-width:1.0;"/><path d="M121.7656,1120.875 Q121.9219,1120.6563 122.1094,1120.5469 Q122.2969,1120.4375 122.5156,1120.4375 Q122.8906,1120.4375 123.125,1120.7031 Q123.3594,1120.9531 123.3594,1121.5625 L123.3594,1123.0156 Q123.3594,1123.625 123.125,1123.8906 Q122.8906,1124.1563 122.5156,1124.1563 Q122.1719,1124.1563 121.9688,1123.9531 Q121.7656,1123.7656 121.6563,1123.25 Q121.6094,1122.8906 121.4219,1122.7031 Q121.0938,1122.3281 120.4844,1122.1094 Q119.875,1121.8906 119.25,1121.8906 Q118.4844,1121.8906 117.8438,1122.2188 Q117.2188,1122.5469 116.7188,1123.2969 Q116.2344,1124.0469 116.2344,1125.0781 L116.2344,1126.1719 Q116.2344,1127.4063 117.125,1128.2344 Q118.0156,1129.0469 119.6094,1129.0469 Q120.5469,1129.0469 121.2031,1128.7969 Q121.5938,1128.6406 122.0156,1128.2031 Q122.2813,1127.9375 122.4219,1127.8594 Q122.5781,1127.7813 122.7813,1127.7813 Q123.1094,1127.7813 123.3594,1128.0469 Q123.625,1128.2969 123.625,1128.6406 Q123.625,1128.9844 123.2813,1129.3906 Q122.7813,1129.9688 121.9844,1130.2969 Q120.9063,1130.75 119.6094,1130.75 Q118.0938,1130.75 116.8906,1130.125 Q115.9063,1129.625 115.2188,1128.5625 Q114.5313,1127.4844 114.5313,1126.2031 L114.5313,1125.0469 Q114.5313,1123.7188 115.1406,1122.5781 Q115.7656,1121.4219 116.8594,1120.8125 Q117.9531,1120.1875 119.1875,1120.1875 Q119.9219,1120.1875 120.5625,1120.3594 Q121.2188,1120.5156 121.7656,1120.875 Z " fill="#000000"/><text fill="#000000" font-family="sans-serif" font-size="12" lengthAdjust="spacing" textLength="118" x="133" y="1129.9102">StandardInputReader</text><line style="stroke:#A80036;stroke-width:1.5;" x1="105" x2="253" y1="1141" y2="1141"/><line style="stroke:#A80036;stroke-width:1.5;" x1="105" x2="253" y1="1149" y2="1149"/><!--MD5=[84718776d214be480e4c259efcb737fc]
class Main--><rect codeLine="2" fill="#FEFECE" filter="url(#f1pjrs23gpe7n9)" height="61.8359" id="Main" style="stroke:#A80036;stroke-width:1.5;" width="58" x="294" y="130"/><ellipse cx="309" cy="146" fill="#ADD1B2" rx="11" ry="11" style="stroke:#A80036;stroke-width:1.0;"/><path d="M311.7656,141.875 Q311.9219,141.6563 312.1094,141.5469 Q312.2969,141.4375 312.5156,141.4375 Q312.8906,141.4375 313.125,141.7031 Q313.3594,141.9531 313.3594,142.5625 L313.3594,144.0156 Q313.3594,144.625 313.125,144.8906 Q312.8906,145.1563 312.5156,145.1563 Q312.1719,145.1563 311.9688,144.9531 Q311.7656,144.7656 311.6563,144.25 Q311.6094,143.8906 311.4219,143.7031 Q311.0938,143.3281 310.4844,143.1094 Q309.875,142.8906 309.25,142.8906 Q308.4844,142.8906 307.8438,143.2188 Q307.2188,143.5469 306.7188,144.2969 Q306.2344,145.0469 306.2344,146.0781 L306.2344,147.1719 Q306.2344,148.4063 307.125,149.2344 Q308.0156,150.0469 309.6094,150.0469 Q310.5469,150.0469 311.2031,149.7969 Q311.5938,149.6406 312.0156,149.2031 Q312.2813,148.9375 312.4219,148.8594 Q312.5781,148.7813 312.7813,148.7813 Q313.1094,148.7813 313.3594,149.0469 Q313.625,149.2969 313.625,149.6406 Q313.625,149.9844 313.2813,150.3906 Q312.7813,150.9688 311.9844,151.2969 Q310.9063,151.75 309.6094,151.75 Q308.0938,151.75 306.8906,151.125 Q305.9063,150.625 305.2188,149.5625 Q304.5313,148.4844 304.5313,147.2031 L304.5313,146.0469 Q304.5313,144.7188 305.1406,143.5781 Q305.7656,142.4219 306.8594,141.8125 Q307.9531,141.1875 309.1875,141.1875 Q309.9219,141.1875 310.5625,141.3594 Q311.2188,141.5156 311.7656,141.875 Z " fill="#000000"/><text fill="#000000" font-family="sans-serif" font-size="12" lengthAdjust="spacing" textLength="26" x="323" y="150.9102">Main</text><line style="stroke:#A80036;stroke-width:1.5;" x1="295" x2="351" y1="162" y2="162"/><line style="stroke:#A80036;stroke-width:1.5;" x1="295" x2="351" y1="170" y2="170"/><ellipse cx="305" cy="181" fill="#84BE84" rx="3" ry="3" style="stroke:#038048;stroke-width:1.0;"/><text fill="#000000" font-family="sans-serif" font-size="11" lengthAdjust="spacing" text-decoration="underline" textLength="30" x="314" y="185.4189">main()</text><!--MD5=[50cdd539db378d681fbafd859f4e013f]
reverse link NextQuestionGenerator to AbstractNextQuestionGenerator--><path d="M1595.22,772.8 C1603.57,818.33 1615.67,884.33 1623.17,925.27 " fill="none" id="NextQuestionGenerator-backto-AbstractNextQuestionGenerator" style="stroke:#A80036;stroke-width:1.0;stroke-dasharray:7.0,7.0;"/><polygon fill="none" points="1588.29,773.83,1591.57,752.9,1602.06,771.31,1588.29,773.83" style="stroke:#A80036;stroke-width:1.0;"/><!--MD5=[adb214176fbabf3f26f2af1bb844fbcb]
reverse link AbstractNextQuestionGenerator to NotMatchPreviousNextQuestionGenerator--><path d="M1733.15,1009.73 C1794.03,1036.42 1870.14,1069.8 1927.46,1094.93 " fill="none" id="AbstractNextQuestionGenerator-backto-NotMatchPreviousNextQuestionGenerator" style="stroke:#A80036;stroke-width:1.0;"/><polygon fill="none" points="1730.28,1016.12,1714.78,1001.67,1735.91,1003.29,1730.28,1016.12" style="stroke:#A80036;stroke-width:1.0;"/><!--MD5=[aa8713d0bcecf90f775158a914753b4d]
reverse link AbstractNextQuestionGenerator to NotMatchPastNextQuestionGenerator--><path d="M1630,1021.85 C1630,1046.03 1630,1073.48 1630,1094.93 " fill="none" id="AbstractNextQuestionGenerator-backto-NotMatchPastNextQuestionGenerator" style="stroke:#A80036;stroke-width:1.0;"/><polygon fill="none" points="1623,1021.67,1630,1001.67,1637,1021.67,1623,1021.67" style="stroke:#A80036;stroke-width:1.0;"/><!--MD5=[729a6d74b6fdd7857230e4354fab65a9]
reverse link TypingGameListener to NormalTypingGameListener--><path d="M1232.02,794.1 C1215.44,809.26 1196.37,823.41 1176,832.5 C1041.58,892.47 655.05,840.21 516,888.5 C483.86,899.66 451.95,922.16 430.46,939.44 " fill="none" id="TypingGameListener-backto-NormalTypingGameListener" style="stroke:#A80036;stroke-width:1.0;stroke-dasharray:7.0,7.0;"/><polygon fill="none" points="1227.3,788.92,1246.53,780.01,1237.06,798.96,1227.3,788.92" style="stroke:#A80036;stroke-width:1.0;"/><!--MD5=[a32b9b424c795ab7f3eb6a5a41846eb5]
reverse link TypingGameListener to HotTypingGameListener--><path d="M1228.86,794.04 C1212.84,808.55 1194.81,822.43 1176,832.5 C1020.46,915.73 812.75,946 699.06,956.77 " fill="none" id="TypingGameListener-backto-HotTypingGameListener" style="stroke:#A80036;stroke-width:1.0;stroke-dasharray:7.0,7.0;"/><polygon fill="none" points="1224.26,788.75,1243.57,780.03,1233.91,798.89,1224.26,788.75" style="stroke:#A80036;stroke-width:1.0;"/><!--MD5=[158f96c5a461df354e97c2a2f7b6dacc]
link Main to ConsoleConductor--><path codeLine="177" d="M323,192.47 C323,232.26 323,302.72 323,352.77 " fill="none" id="Main-ConsoleConductor" style="stroke:#A80036;stroke-width:1.0;"/><polygon fill="#000000" points="328,256.6758,330.9389,247.6307,325.0611,247.6307,328,256.6758" style="stroke:#000000;stroke-width:1.0;"/><text fill="#000000" font-family="sans-serif" font-size="13" lengthAdjust="spacing" textLength="21" x="337" y="256.9951">use</text><!--MD5=[c618f0e175eae71a864158c362531517]
link ConsoleConductor to DisplayInputMode--><path codeLine="179" d="M333.65,470.07 C344.29,527.53 360.47,614.95 370.63,669.85 " fill="none" id="ConsoleConductor-DisplayInputMode" style="stroke:#A80036;stroke-width:1.0;"/><polygon fill="#000000" points="358.9101,576.5923,360.1536,567.1633,354.3739,568.2332,358.9101,576.5923" style="stroke:#000000;stroke-width:1.0;"/><text fill="#000000" font-family="sans-serif" font-size="13" lengthAdjust="spacing" textLength="21" x="367" y="576.9951">use</text><!--MD5=[dbc9e5d9b8b9e93589312d2867515cc3]
link ConsoleConductor to StandardInputReaderWrapper--><path codeLine="180" d="M259.09,470.38 C227.08,503.55 191.32,547.97 173,595.5 C127.7,713.06 141.58,867.66 150.29,932.18 " fill="none" id="ConsoleConductor-StandardInputReaderWrapper" style="stroke:#A80036;stroke-width:1.0;"/><polygon fill="#000000" points="176.8534,726.5425,181.7882,718.4125,176.067,717.0645,176.8534,726.5425" style="stroke:#000000;stroke-width:1.0;"/><text fill="#000000" font-family="sans-serif" font-size="13" lengthAdjust="spacing" textLength="21" x="187" y="726.9951">use</text><!--MD5=[61dd06168fdce1139d7d05a9a92e71cb]
link DisplayInputMode to TypingGameFactory--><path codeLine="182" d="M438.65,669.98 C479.13,633.72 533.01,582.6 575,532.5 C786.02,280.74 694.31,276.67 787,242.5 C909.1,197.49 1243.05,233.53 1372,216 C1412.71,210.47 1456.74,201.29 1495.62,192.05 " fill="none" id="DisplayInputMode-TypingGameFactory" style="stroke:#A80036;stroke-width:1.0;"/><polygon fill="#000000" points="750.5559,409.6157,741.1033,410.6645,743.5251,416.0203,750.5559,409.6157" style="stroke:#000000;stroke-width:1.0;"/><text fill="#000000" font-family="sans-serif" font-size="13" lengthAdjust="spacing" textLength="21" x="755" y="416.9951">use</text><!--MD5=[53daab855b216a724cc19b6b8d741e4e]
link DisplayInputMode to StandardInputReaderWrapper--><path codeLine="183" d="M332.56,773.1 C287.3,821.38 220.65,892.47 183.21,932.41 " fill="none" id="DisplayInputMode-StandardInputReaderWrapper" style="stroke:#A80036;stroke-width:1.0;"/><polygon fill="#000000" points="248.5803,875.3235,256.9106,870.7347,252.6225,866.7147,248.5803,875.3235" style="stroke:#000000;stroke-width:1.0;"/><text fill="#000000" font-family="sans-serif" font-size="13" lengthAdjust="spacing" textLength="21" x="261" y="876.9951">use</text><!--MD5=[29950e6704daaa6cb4d0465601d39189]
link TypingGameFactory to QuestionFactory--><path codeLine="185" d="M1840.24,179.06 C1954.34,193.61 2091.72,220.56 2207,270.5 C2449.94,375.74 2686.63,595.56 2775.32,683.24 " fill="none" id="TypingGameFactory-QuestionFactory" style="stroke:#A80036;stroke-width:1.0;"/><polygon fill="#000000" points="2610.401,414.0487,2603.8343,407.1692,2601.0447,412.3429,2610.401,414.0487" style="stroke:#000000;stroke-width:1.0;"/><text fill="#000000" font-family="sans-serif" font-size="13" lengthAdjust="spacing" textLength="21" x="2615" y="416.9951">use</text><!--MD5=[6b3b7f30ae553f3c46479237facef8d4]
link TypingGameFactory to TypingGameMode--><path codeLine="186" d="M1608,192.47 C1608,222.8 1608,270.95 1608,314.29 " fill="none" id="TypingGameFactory-TypingGameMode" style="stroke:#A80036;stroke-width:1.0;"/><polygon fill="#000000" points="1613,256.6758,1615.9389,247.6307,1610.0611,247.6307,1613,256.6758" style="stroke:#000000;stroke-width:1.0;"/><text fill="#000000" font-family="sans-serif" font-size="13" lengthAdjust="spacing" textLength="21" x="1622" y="256.9951">use</text><!--MD5=[8cf49096655f3bef4002a57e0c234b97]
link TypingGameFactory to NextQuestionGeneratorMode--><path codeLine="187" d="M1660.22,192.15 C1696.84,213.53 1746.78,243.17 1790,270.5 C1812.05,284.45 1835.2,299.51 1857.72,314.41 " fill="none" id="TypingGameFactory-NextQuestionGeneratorMode" style="stroke:#A80036;stroke-width:1.0;"/><polygon fill="#000000" points="1779.2513,254.3075,1773.1075,247.0478,1770.0137,252.0455,1779.2513,254.3075" style="stroke:#000000;stroke-width:1.0;"/><text fill="#000000" font-family="sans-serif" font-size="13" lengthAdjust="spacing" textLength="21" x="1784" y="256.9951">use</text><!--MD5=[34053be3dab4592b4a82eb1e2fe8c8dd]
link TypingGameFactory to TypingGame--><path codeLine="189" d="M1550.11,192.22 C1502.54,217.06 1431.85,253.96 1362.07,290.39 " fill="none" id="TypingGameFactory-TypingGame" style="stroke:#A80036;stroke-width:1.0;"/><polygon fill="#000000" points="1440.5677,253.9898,1449.9459,252.409,1447.2257,247.1985,1440.5677,253.9898" style="stroke:#000000;stroke-width:1.0;"/><text fill="#000000" font-family="sans-serif" font-size="13" lengthAdjust="spacing" textLength="50" x="1454" y="256.9951">generate</text><!--MD5=[7b87940b4301618cade711b02849d6e8]
link QuestionFactory to Question--><path codeLine="191" d="M2781.12,759.74 C2747.28,800.55 2692.79,866.27 2655.06,911.78 " fill="none" id="QuestionFactory-Question" style="stroke:#A80036;stroke-width:1.0;"/><polygon fill="#000000" points="2695.8086,875.5248,2703.8443,870.4377,2699.3194,866.686,2695.8086,875.5248" style="stroke:#000000;stroke-width:1.0;"/><text fill="#000000" font-family="sans-serif" font-size="13" lengthAdjust="spacing" textLength="50" x="2708" y="876.9951">generate</text><!--MD5=[2f163435dbb70469cf58f8a42310b871]
link TypingGameHistory to TypingGame--><path codeLine="193" d="M1132,212.59 C1132,233.81 1132,259.51 1132,285.28 " fill="none" id="TypingGameHistory-to-TypingGame" style="stroke:#A80036;stroke-width:1.0;"/><polygon fill="#A80036" points="1132,290.43,1136,281.43,1132,285.43,1128,281.43,1132,290.43" style="stroke:#A80036;stroke-width:1.0;"/><!--MD5=[44da462e0e37ec5b4424557f44052c2f]
link TypingGame to TypingGameDifficulty--><path codeLine="194" d="M1070.23,532.9 C1057.98,556.79 1045.15,581.81 1032.99,605.51 " fill="none" id="TypingGame-to-TypingGameDifficulty" style="stroke:#A80036;stroke-width:1.0;"/><polygon fill="#A80036" points="1030.57,610.23,1038.2361,604.0469,1032.8516,605.7809,1031.1176,600.3964,1030.57,610.23" style="stroke:#A80036;stroke-width:1.0;"/><!--MD5=[8e357755c5ee833ed7c109bc7d6b71d2]
link TypingGame to Question--><path codeLine="195" d="M1408.75,527.88 C1414.86,529.52 1420.95,531.06 1427,532.5 C1596.18,572.73 2077.16,479.82 2207,595.5 C2287.18,666.94 2184.04,751.03 2254,832.5 C2306.72,893.89 2390.79,926.29 2464.32,943.39 " fill="none" id="TypingGame-to-Question" style="stroke:#A80036;stroke-width:1.0;"/><polygon fill="#A80036" points="2469.6,944.6,2461.7185,938.6939,2464.7259,943.4851,2459.9347,946.4925,2469.6,944.6" style="stroke:#A80036;stroke-width:1.0;"/><!--MD5=[4e9345365ffcc7cc56576d252551d836]
link TypingGame to QuestionResult--><path codeLine="196" d="M1408.67,528.24 C1414.8,529.77 1420.92,531.19 1427,532.5 C1603.32,570.39 2068.46,501 2238,562.5 C2286.35,580.04 2332.37,613.63 2368.42,645.34 " fill="none" id="TypingGame-to-QuestionResult" style="stroke:#A80036;stroke-width:1.0;"/><polygon fill="#A80036" points="2372.32,648.8,2368.2529,639.8301,2368.5837,645.4773,2362.9366,645.8081,2372.32,648.8" style="stroke:#A80036;stroke-width:1.0;"/><!--MD5=[cbe695f3de70804266794fb73b9824b3]
link TypingGame to TypingGameListener--><path codeLine="197" d="M1194.94,532.9 C1217.31,575.69 1241.57,622.12 1260.37,658.08 " fill="none" id="TypingGame-to-TypingGameListener" style="stroke:#A80036;stroke-width:1.0;"/><polygon fill="#A80036" points="1262.87,662.86,1262.2597,653.0301,1260.5601,658.4256,1255.1646,656.7259,1262.87,662.86" style="stroke:#A80036;stroke-width:1.0;"/><!--MD5=[f67cf3485ad5f75e9c57bb84cb338c88]
link TypingGame to NextQuestionGenerator--><path codeLine="198" d="M1327.76,532.72 C1359.57,553.2 1391.93,574.61 1422,595.5 C1464.63,625.11 1511.58,661.28 1544.28,687.08 " fill="none" id="TypingGame-to-NextQuestionGenerator" style="stroke:#A80036;stroke-width:1.0;"/><polygon fill="#A80036" points="1548.6,690.49,1544.0126,681.7748,1544.6749,687.3927,1539.0569,688.055,1548.6,690.49" style="stroke:#A80036;stroke-width:1.0;"/><!--MD5=[a0eefe7436a21ea046337e0d0db283fe]
link NormalTypingGameListener to StandardInputReader--><path codeLine="200" d="M372.71,987.79 C329.73,1019.79 252.87,1077.01 210.02,1108.91 " fill="none" id="NormalTypingGameListener-StandardInputReader" style="stroke:#A80036;stroke-width:1.0;"/><polygon fill="#000000" points="291.9894,1059.1616,300.9997,1056.1176,297.4896,1051.4028,291.9894,1059.1616" style="stroke:#000000;stroke-width:1.0;"/><text fill="#000000" font-family="sans-serif" font-size="13" lengthAdjust="spacing" textLength="21" x="305" y="1061.4951">use</text><!--MD5=[27813efbc90f605ecd206e0aed2fb53f]
link HotTypingGameListener to StandardInputReader--><path codeLine="201" d="M590.6,987.63 C571.36,1004.05 543.62,1025.5 516,1039 C430.94,1080.59 324.41,1106.03 254.16,1119.55 " fill="none" id="HotTypingGameListener-StandardInputReader" style="stroke:#A80036;stroke-width:1.0;"/><polygon fill="#000000" points="490.3451,1058.001,499.8388,1057.4352,497.6931,1051.963,490.3451,1058.001" style="stroke:#000000;stroke-width:1.0;"/><text fill="#000000" font-family="sans-serif" font-size="13" lengthAdjust="spacing" textLength="21" x="504" y="1061.4951">use</text><!--MD5=[e9236fc1f9e5eb5fe26aa05db31e82b6]
link StandardInputReaderWrapper to StandardInputReader--><path codeLine="203" d="M159.35,994.83 C164.05,1027.64 171.44,1079.22 175.69,1108.89 " fill="none" id="StandardInputReaderWrapper-StandardInputReader" style="stroke:#A80036;stroke-width:1.0;"/><polygon fill="#000000" points="174.7091,1061.1253,176.3356,1051.7548,170.5171,1052.5883,174.7091,1061.1253" style="stroke:#000000;stroke-width:1.0;"/><text fill="#000000" font-family="sans-serif" font-size="13" lengthAdjust="spacing" textLength="21" x="183" y="1061.4951">use</text><!--MD5=[c2bae6ce9a7be2d1e74199ad8f4885b1]
@startuml typing_game

class Main {
  + {static} main()
}

package business {
  package typinggame {
    class TypingGame {
      - TypingGameDifficulty difficulty
      - TypingGameListener listener
      - NextQuestionGenerator generator
      - List<QuestionResult> results
      - ZonedDateTime startTime
      - ZonedDateTime endTime
      + TypingGame(TypingGameDifficulty difficulty, TypingGameListener listener, NextQuestionGenerator generator)
      + void execute()
      + TypingGameDifficulty getDifficulty()
      + List<QuestionResult> getResults()
      + long getTimeToCalculate()
      + boolean isSameDifficulty(TypingGameDifficulty difficulty)
      + int getNumberOfQuestions()
      - String toString()
    }

    enum TypingGameDifficulty {
      + EASY
      + NORMAL
      + HARD
      ..
      - String name
      - int level
      - boolean defaultLevel
      __
      + TypingGameDifficulty(String name, int level, boolean defaultLevel)
      + {static} TypingGameDifficulty of(int level)
      + {static} TypingGameDifficulty getDefault()
      + String getName()
      + int getLevel()
      + boolean lessThan(TypingGameDifficulty difficulty)
    }

    class TypingGameHistory {
      - List<TypingGame> typingGames
      + void add(TypingGame typingGame)
      + List<TypingGame> sortedTypingGames(TypingGameDifficulty difficulty)
      - List<TypingGame> getTypingGames(TypingGameDifficulty difficulty)
    }

    package typinggame.factory {
      class TypingGameFactory {
        + {static} TypingGame generate(TypingGameDifficulty difficulty, TypingGameMode typingGameMode)
      }
    }
    
    package generator {
      interface NextQuestionGenerator {
        Question generate()
      }

      abstract class AbstractNextQuestionGenerator implements NextQuestionGenerator {
        - List<Question> questions
        + AbstractNextQuestionGenerator(List<Question> questions)  
      }

      class NotMatchPreviousNextQuestionGenerator extends AbstractNextQuestionGenerator {
        - Question prevQuestion
        + NotMatchPreviousNextQuestionGenerator(List<Question> questions)
      }

      class NotMatchPastNextQuestionGenerator extends AbstractNextQuestionGenerator {
        - Set<Question> askedQuestions
        + NotMatchPastNextQuestionGenerator(List<Question> questions)
      }
    }

    package listener {
      interface TypingGameListener {
        void onGameStart(TypingGame typingGame)
        void onGameEnd(TypingGame typingGame)
        String receiveAnswer(Question question)
        void onJudgeOK(TypingGame typingGame)
        void onJudgeNG(TypingGame typingGame)
      }
    }
    
    package mode {
      enum TypingGameMode {
        + NORMAL
        + HOT
        ..
        - String name
        - int mode
        - boolean defaultMode
        __
        + TypingGameMode(String name, int mode, boolean defaultMode)
        + {static} TypingGameMode of(int mode)
        + {static} TypingGameMode getDefault()
        + String getName()
        + int getMode()
      }

      enum NextQuestionGeneratorMode {
        + NOT_MATCH_PREVIOUS
        + NOT_MATCH_PAST
        ..
        - String name
        - int mode
        - boolean defaultLevel
        __
        + NextQuestionGeneratorMode(String name, int mode, boolean defaultMode)
        + {static} NextQuestionGeneratorMode of(int mode)
        + {static} NextQuestionGeneratorMode getDefault()
        + String getName()
        + int getMode()
      }
    }
  }

  package question {
    class Question {
      - String word
      - TypingGameDifficulty difficulty
      + Question(String word, TypingGameDifficulty difficulty)
      + String getWord()
    }

    class QuestionResult {
      - Question question
      - String answer
      - boolean judge
      + QuestionResult(Question question, String answer, boolean judge)
      + Question getQuestion()
      + String getAnswer()
      + boolean isJudge()
    }

    package factory {
      class QuestionFactory {
        + static List<Question> generate(TypingGameDifficulty difficulty)
        - static List<Question> generate()
      }
    }
  }
}

package ui {
  class ConsoleConductor {
    + execute()
    - void displayCountDown()
    - void displayResult(TypingGame typingGame)
    - void displayRanking(TypingGameHistory typingGameHistory, TypingGameDifficulty difficulty)
    - boolean displayInputRetry()
  }

  class DisplayInputMode {
    + TypingGame getInput()
    - {static} TypingGameDifficulty displayInputDifficulty()
    - {static} TypingGameMode displayInputMode()
    - {static} NextQuestionGeneratorMode displayInputCalculatorMode()
  }

  package ui.listener {
    class NormalTypingGameListener implements TypingGameListener

    class HotTypingGameListener implements TypingGameListener
  }

  package util {
    class StandardInputReaderWrapper {
      + {static} int getInputInt(int defaultValue)
    }

    class StandardInputReader {}
  }
}

Main -d- ConsoleConductor : use >

ConsoleConductor - - DisplayInputMode : use >
ConsoleConductor - - StandardInputReaderWrapper : use >

DisplayInputMode - - TypingGameFactory : use >
DisplayInputMode - - StandardInputReaderWrapper : use >

TypingGameFactory - - QuestionFactory : use >
TypingGameFactory - - TypingGameMode : use >
TypingGameFactory - - NextQuestionGeneratorMode : use >

TypingGameFactory - - TypingGame : generate >

QuestionFactory - - Question : generate >

TypingGameHistory - -> TypingGame
TypingGame - -> TypingGameDifficulty
TypingGame - -> Question
TypingGame - -> QuestionResult
TypingGame - -> TypingGameListener
TypingGame - -> NextQuestionGenerator

NormalTypingGameListener - - StandardInputReader : use >
HotTypingGameListener - - StandardInputReader : use >

StandardInputReaderWrapper - - StandardInputReader : use >

@enduml

PlantUML version 1.2022.0(Wed Jan 12 01:16:42 JST 2022)
(GPL source distribution)
Java Runtime: OpenJDK Runtime Environment
JVM: OpenJDK 64-Bit Server VM
Default Encoding: UTF-8
Language: ja
Country: JP
--></g></svg>